<svg id="Capa_1" enable-background="new 0 0 511.32 511.32" height="512" viewBox="0 0 511.32 511.32" width="512"
xmlns="http://www.w3.org/2000/svg">

	<style>
		.cirlce{
			<!-- animation: zoomin 2s alternate infinite; -->
			opacity: 0;
			fill: none;
		}

		.trophy{
			transform: rotate(90deg);
			transform-origin: bottom left;
			animation: rotatein 2s alternate infinite;
		}
		.circle-star,
		.star-trophy{
			animation: fadein 2s alternate infinite;
			opacity: 0;
			transform-origin: 50% 50%;
		}

		.path-cricle{
			animation: rotate 2s alternate infinite;
			opacity: 0;
			transform-origin: center;
		}

		@keyframes zoomin{
			50%{
				opacity: 1;
			}
			100%{
				opacity: 1;
			}
		}

		@keyframes rotatein{
			50%{
				transform: rotate(0deg);
			}
			100%{
				transform: rotate(0deg);
			}
		}

		@keyframes fadein{
			80%{
				opacity: 0;
			
			}
			100%{
				opacity: 1;
			}
		}

		@keyframes rotate{
			0%{
				transform: rotate(0deg);
			}
			100%{
				transform: rotate(360deg);
				opacity: 1;
			}
		}
	</style>

	<g class="cirlce">
		<circle cx="260.047" cy="254.124" fill="#fe646f" r="202.437"/>
		<circle cx="260.047" cy="254.124" fill="#ebebeb" r="129.556"/>
	</g>



	<g class="path-cricle"> 
		<path d="m314.214 145.011c34.352 16.818 59.185 49.193 66.429 86.604 1.483 7.662 2.235 15.54 2.235 23.416 0 4.143 3.357 7.5 7.5 7.5s7.5-3.357 7.5-7.5c0-8.83-.844-17.668-2.509-26.268-8.133-42.003-36.006-78.349-74.56-97.225-3.723-1.823-8.214-.282-10.034 3.438s-.281 8.213 3.439 10.035z"/>
		<path d="m168 353.806c1.903 0 3.808-.72 5.27-2.163 2.947-2.91 2.978-7.658.067-10.606-15.976-16.183-27.103-36.377-32.177-58.398-.931-4.038-4.957-6.559-8.992-5.625-4.037.93-6.555 4.956-5.625 8.992 5.699 24.733 18.189 47.407 36.12 65.57 1.467 1.486 3.402 2.23 5.337 2.23z"/>
		<path d="m339.264 434.731c-24.881 10.928-51.396 16.469-78.807 16.469-4.143 0-7.5 3.357-7.5 7.5s3.357 7.5 7.5 7.5c29.501 0 58.044-5.967 84.838-17.734 3.793-1.666 5.517-6.091 3.852-9.883-1.666-3.792-6.092-5.517-9.883-3.852z"/>
		<path d="m430.251 156.715c17.256 29.734 26.377 63.731 26.377 98.315 0 12.771-1.235 25.546-3.67 37.968-.798 4.065 1.852 8.006 5.916 8.804.487.095.973.141 1.451.141 3.514 0 6.65-2.48 7.353-6.058 2.621-13.371 3.95-27.116 3.95-40.854 0-37.225-9.821-73.825-28.402-105.845-2.079-3.583-6.67-4.801-10.252-2.723-3.582 2.079-4.801 6.669-2.723 10.252z"/>
		<path d="m329.605 71.393c8.811 3.319 17.46 7.316 25.706 11.881 1.15.638 2.396.939 3.625.939 2.64 0 5.2-1.396 6.568-3.869 2.006-3.624.694-8.188-2.93-10.193-8.88-4.915-18.192-9.22-27.681-12.795-3.878-1.46-8.202.498-9.663 4.374-1.459 3.875.499 8.202 4.375 9.663z"/>
		<path d="m104.735 393.803c1.708 0 3.426-.58 4.833-1.768 3.166-2.672 3.566-7.403.896-10.569-22.186-26.29-37.093-58.003-43.112-91.708-.729-4.078-4.631-6.801-8.701-6.064-4.078.728-6.793 4.624-6.064 8.701 6.481 36.297 22.531 70.442 46.413 98.745 1.483 1.757 3.601 2.663 5.735 2.663z"/>
	</g>

	<g class="circle-star">
		<path d="m394.109 87.395c-4.011 5.854-8.851 10.801-14.602 14.751-2.886 1.982-2.896 6.196.008 8.151 5.958 4.01 10.888 8.735 14.649 14.272 1.935 2.848 6.16 2.931 8.075.07 3.87-5.782 8.767-10.664 14.742-14.601 2.881-1.898 2.841-6.107.016-8.088-5.768-4.045-10.799-8.848-14.842-14.667-1.952-2.811-6.112-2.711-8.046.112z" fill="#6bd9e7"/>
		<path d="m369.119 112.838c10.873 5.688 18.143 12.888 22.225 22.011 1.194 2.67 3.833 4.402 6.759 4.436.029.001.058.001.088.001 2.891 0 5.527-1.663 6.771-4.278 4.74-9.964 11.962-17.18 22.079-22.06 2.52-1.215 4.153-3.732 4.238-6.529.084-2.797-1.396-5.407-3.838-6.772-10.575-5.91-17.95-13.239-22.548-22.408-1.261-2.515-3.822-4.112-6.635-4.139-.023 0-.047 0-.069 0-2.786 0-5.345 1.545-6.641 4.015-5.413 10.314-12.698 17.626-22.273 22.354-2.531 1.25-4.146 3.814-4.179 6.637-.033 2.822 1.522 5.423 4.023 6.732zm29.068-18.301c3.28 4.171 7.13 7.962 11.586 11.408-4.395 3.298-8.256 7.121-11.569 11.455-3.213-4.107-7.064-7.85-11.536-11.21 4.278-3.326 8.124-7.215 11.519-11.653z"/>
	</g>




	<g class="trophy">
		<path d="m448.337 338.544-53.82-30.15-14.041-11.635-53.321 52.29 14.962 11.535 30.23 53.95 7.613 7.613 77.209-77.209z" fill="#fee903"/>
		<path d="m301.137 214.934c-8.94-8.93-14.26-20.85-14.95-33.47l-1.04-18.94c-.17-3.21-.46-6.4-.84-9.57-3.88-31.77-18.27-61.43-41.03-84.19l-13.33-13.33-29.3-26.542-140.243 138.274 28.904 28.918 13.32 13.32c22.76 22.76 52.43 37.15 84.19 41.03 3.17.39 6.36.67 9.57.85l18.95 1.03c9.54.53 18.67 3.7 26.42 9.07 2.51 1.74 4.87 3.7 7.05 5.88l1.87 1.88c6.64 6.63 17.4 6.63 24.04 0l40.31-40.31z" fill="#fee903"/>
		<path d="m411.832 390.276-7.613-7.613-30.23-53.95-14.611-11.264-32.223 31.6 14.962 11.535 30.23 53.95 7.613 7.613 77.209-77.209z" fill="#fed402"/>
		<path d="m311.469 232.392c-6.64 6.63-17.4 6.63-24.04 0l-1.87-1.88c-2.18-2.18-4.54-4.14-7.05-5.88-7.75-5.37-16.88-8.54-26.42-9.07l-18.95-1.03c-3.21-.18-6.4-.46-9.57-.85-31.76-3.88-61.43-18.27-84.19-41.03l-13.32-13.32-28.644-28.658-37.012 36.492 28.904 28.918 13.32 13.32c22.76 22.76 52.43 37.15 84.19 41.03 3.17.39 6.36.67 9.57.85l18.95 1.03c9.54.53 18.67 3.7 26.42 9.07 2.51 1.74 4.87 3.7 7.05 5.88l1.87 1.88c6.64 6.63 17.4 6.63 24.04 0l40.31-40.31z" fill="#fed402"/>
		<path d="m129.687 65.064-11.93 7.41c-4.63 2.88-8.54 6.78-11.41 11.41l-7.46 12c-6.9-.39-13.68-3.22-18.95-8.49-11.39-11.39-11.39-29.86 0-41.26 11.4-11.39 29.87-11.39 41.26 0 5.27 5.27 8.09 12.04 8.49 18.93z" fill="#fee903"/>
		<path d="m216.037 16.414c3.43 3.43 3.43 8.98 0 12.41l-6.35 6.35-44.55 44.55-51.55 51.55-44.54 44.54-6.35 6.35c-3.43 3.43-8.99 3.43-12.41 0l-7.11-7.1c-2.42-2.42-2.42-6.34 0-8.76l31.58-31.58 24.13-38.84 7.46-12c2.87-4.63 6.78-8.53 11.41-11.41l11.93-7.41 38.91-24.18 31.57-31.58c2.42-2.42 6.35-2.42 8.77 0z" fill="#f4d902"/>
		<path d="m211.206 11.576-18.33 18.33-51.55 51.55-44.54 44.54-6.35 6.35c-3.43 3.43-8.99 3.43-12.41 0l-1.105-1.104-2.163 3.482-31.58 31.58c-2.42 2.42-2.42 6.34 0 8.76l7.11 7.1c3.42 3.43 8.98 3.43 12.41 0l6.35-6.35 44.54-44.54 51.55-51.55 44.55-44.55 6.35-6.35c3.43-3.43 3.43-8.98 0-12.41z" fill="#fac600"/>
		<path d="m394.587 288.434c-5.49-5.49-14.39-5.49-19.88 0 2.74-2.75 4.12-6.34 4.12-9.94s-1.38-7.19-4.12-9.94c-5.49-5.49-14.39-5.49-19.88 0 2.74-2.75 4.12-6.34 4.12-9.94s-1.38-7.19-4.12-9.94c-5.49-5.49-14.39-5.49-19.88 0 5.49-5.49 5.49-14.39 0-19.88-2.74-2.75-6.34-4.12-9.94-4.12s-7.2 1.37-9.94 4.12l-40.35 40.35c-6.64 6.63-17.4 6.63-24.04 0l-1.87-1.88c-2.18-2.18-4.54-4.14-7.05-5.88l-6.61 19.25c-2.84 9.03-.77 18.88 5.46 26.01l7.69 8.79-73.688 73.699 53.154 52.466 79.334-79.334v-.01c13.03 6.48 29.27 4.28 40.12-6.57l23.8-23.8 23.57-23.56c2.74-2.74 4.12-6.34 4.12-9.94 0-3.601-1.38-7.201-4.12-9.951z" fill="#fed2a4"/>
		<path d="m184.01 398.412 73.627-73.638-7.69-8.79c-6.23-7.13-8.3-16.98-5.46-26.01l6.61-19.25c2.51 1.74 4.87 3.7 7.05 5.88l1.87 1.88c6.64 6.63 17.4 6.63 24.04 0l40.35-40.35c2.74-2.75 6.34-4.12 9.94-4.12 1.384 0 2.767.207 4.102.613-.65-2.134-1.814-4.145-3.502-5.832-2.74-2.75-6.34-4.12-9.94-4.12s-7.2 1.37-9.94 4.12l-40.35 40.35c-6.64 6.63-17.4 6.63-24.04 0l-1.87-1.88c-2.18-2.18-4.54-4.14-7.05-5.88l-6.61 19.25c-2.84 9.03-.77 18.88 5.46 26.01l7.69 8.79-73.688 73.699z" fill="#ffbd86"/>
		<path d="m466.737 338.284c2.51 2.5 3.76 5.79 3.76 9.07s-1.25 6.57-3.76 9.07l-77.89 77.89c-5.01 5.01-13.13 5.01-18.14 0-2.5-2.51-3.76-5.79-3.76-9.07s1.26-6.56 3.76-9.06l1.64-1.65 75.99-75.99.26-.26c5.01-5.01 13.13-5.01 18.14 0z" fill="#f4d902"/>
		<path d="m403.021 402c-2.5-2.51-3.76-5.79-3.76-9.07s1.26-6.56 3.76-9.06l1.64-1.65-32.313 32.313-1.64 1.65c-2.5 2.5-3.76 5.78-3.76 9.06s1.26 6.56 3.76 9.07c5.01 5.01 13.13 5.01 18.14 0l32.313-32.313c-5.01 5.01-13.13 5.01-18.14 0z" fill="#fac600"/>
		<path d="m288.507 389.044c3.01 3.01 3.01 7.89 0 10.9l-18.6 18.59c-3 3.01-7.88 3.01-10.89 0l-4.09-4.09-52.81-52.81-4.1-4.1c-3.01-3.01-3.01-7.89 0-10.9l18.59-18.59c3.01-3.01 7.89-3.01 10.9 0l4.09 4.09v.01l52.81 52.81h.01z" fill="#00f2a6"/>
		<path d="m232.554 369.449c-5.274-5.274-5.274-13.826 0-19.1l8.625-8.625-9.581-9.581v-.01l-4.09-4.09c-3.01-3.01-7.89-3.01-10.9 0l-18.59 18.59c-3.01 3.01-3.01 7.89 0 10.9l4.1 4.1 52.81 52.81 4.09 4.09c3.01 3.01 7.89 3.01 10.89 0l5.867-5.864z" fill="#05e39c"/>
		<path d="m234.697 438.264c4.28 4.27 4.28 11.21 0 15.49l-46.04 46.04c-2.581 2.581-6.081 4.03-9.73 4.03h-127.981c-3.73 0-5.599-4.51-2.961-7.148l114.812-114.822c4.28-4.28 11.22-4.28 15.49 0l1.8 1.8 52.81 52.81z" fill="#08a9f1"/>
		<path d="m188.77 407.826c4.28-4.28 11.22-4.28 15.49 0l-24.172-24.172-1.8-1.8c-4.27-4.28-11.21-4.28-15.49 0l-114.813 114.822c-2.638 2.638-.769 7.148 2.961 7.148h41.834z" fill="#0290cf"/>
	</g>

	<g class="star-trophy">
		<path d="m155.545 156.552c-4.998 8.226-11.453 14.857-19.562 19.68-1.607.956-1.617 3.312-.013 4.274 8.453 5.068 15.093 11.397 19.583 19.219.961 1.675 3.367 1.708 4.336.037 4.681-8.068 11.152-14.566 19.536-19.387 1.623-.933 1.679-3.274.095-4.273-7.995-5.044-14.762-11.352-19.712-19.529-.965-1.594-3.295-1.615-4.263-.021z" fill="#6bd9e7"/>
		<path d="m186.948 171.792c-10.574-5.909-17.95-13.239-22.549-22.409-1.261-2.514-3.822-4.111-6.635-4.138-.023 0-.047 0-.069 0-2.786 0-5.346 1.545-6.642 4.016-5.411 10.313-12.696 17.625-22.271 22.354-2.531 1.25-4.146 3.814-4.179 6.637s1.521 5.425 4.022 6.733c10.873 5.688 18.143 12.889 22.224 22.01 1.194 2.671 3.833 4.402 6.758 4.437.029.001.059.001.089.001 2.89 0 5.527-1.663 6.771-4.277 4.741-9.965 11.964-17.181 22.08-22.061 2.52-1.215 4.153-3.732 4.238-6.529.085-2.798-1.395-5.409-3.837-6.774zm-29.238 17.756c-3.213-4.108-7.064-7.851-11.536-11.21 4.277-3.326 8.124-7.218 11.52-11.654 3.28 4.171 7.13 7.962 11.586 11.408-4.395 3.298-8.256 7.121-11.57 11.456z"/>
	</g>

</svg>