<svg id="Capa_1" enable-background="new 0 0 511.32 511.32" height="512" viewBox="0 0 511.32 511.32" width="512"
	xmlns="http://www.w3.org/2000/svg">
	<circle cx="260.047" cy="254.124" fill="#fe646f" r="202.437"/>
	<circle cx="260.047" cy="254.124" fill="#ebebeb" r="129.556"/>
	<path d="m448.337 338.544-53.82-30.15-14.041-11.635-53.321 52.29 14.962 11.535 30.23 53.95 7.613 7.613 77.209-77.209z" fill="#fee903"/>
	<path d="m301.137 214.934c-8.94-8.93-14.26-20.85-14.95-33.47l-1.04-18.94c-.17-3.21-.46-6.4-.84-9.57-3.88-31.77-18.27-61.43-41.03-84.19l-13.33-13.33-29.3-26.542-140.243 138.274 28.904 28.918 13.32 13.32c22.76 22.76 52.43 37.15 84.19 41.03 3.17.39 6.36.67 9.57.85l18.95 1.03c9.54.53 18.67 3.7 26.42 9.07 2.51 1.74 4.87 3.7 7.05 5.88l1.87 1.88c6.64 6.63 17.4 6.63 24.04 0l40.31-40.31z" fill="#fee903"/>
	<path d="m411.832 390.276-7.613-7.613-30.23-53.95-14.611-11.264-32.223 31.6 14.962 11.535 30.23 53.95 7.613 7.613 77.209-77.209z" fill="#fed402"/>
	<path d="m311.469 232.392c-6.64 6.63-17.4 6.63-24.04 0l-1.87-1.88c-2.18-2.18-4.54-4.14-7.05-5.88-7.75-5.37-16.88-8.54-26.42-9.07l-18.95-1.03c-3.21-.18-6.4-.46-9.57-.85-31.76-3.88-61.43-18.27-84.19-41.03l-13.32-13.32-28.644-28.658-37.012 36.492 28.904 28.918 13.32 13.32c22.76 22.76 52.43 37.15 84.19 41.03 3.17.39 6.36.67 9.57.85l18.95 1.03c9.54.53 18.67 3.7 26.42 9.07 2.51 1.74 4.87 3.7 7.05 5.88l1.87 1.88c6.64 6.63 17.4 6.63 24.04 0l40.31-40.31z" fill="#fed402"/>
	<path d="m129.687 65.064-11.93 7.41c-4.63 2.88-8.54 6.78-11.41 11.41l-7.46 12c-6.9-.39-13.68-3.22-18.95-8.49-11.39-11.39-11.39-29.86 0-41.26 11.4-11.39 29.87-11.39 41.26 0 5.27 5.27 8.09 12.04 8.49 18.93z" fill="#fee903"/>
	<path d="m216.037 16.414c3.43 3.43 3.43 8.98 0 12.41l-6.35 6.35-44.55 44.55-51.55 51.55-44.54 44.54-6.35 6.35c-3.43 3.43-8.99 3.43-12.41 0l-7.11-7.1c-2.42-2.42-2.42-6.34 0-8.76l31.58-31.58 24.13-38.84 7.46-12c2.87-4.63 6.78-8.53 11.41-11.41l11.93-7.41 38.91-24.18 31.57-31.58c2.42-2.42 6.35-2.42 8.77 0z" fill="#f4d902"/>
	<path d="m211.206 11.576-18.33 18.33-51.55 51.55-44.54 44.54-6.35 6.35c-3.43 3.43-8.99 3.43-12.41 0l-1.105-1.104-2.163 3.482-31.58 31.58c-2.42 2.42-2.42 6.34 0 8.76l7.11 7.1c3.42 3.43 8.98 3.43 12.41 0l6.35-6.35 44.54-44.54 51.55-51.55 44.55-44.55 6.35-6.35c3.43-3.43 3.43-8.98 0-12.41z" fill="#fac600"/>
	<path d="m394.587 288.434c-5.49-5.49-14.39-5.49-19.88 0 2.74-2.75 4.12-6.34 4.12-9.94s-1.38-7.19-4.12-9.94c-5.49-5.49-14.39-5.49-19.88 0 2.74-2.75 4.12-6.34 4.12-9.94s-1.38-7.19-4.12-9.94c-5.49-5.49-14.39-5.49-19.88 0 5.49-5.49 5.49-14.39 0-19.88-2.74-2.75-6.34-4.12-9.94-4.12s-7.2 1.37-9.94 4.12l-40.35 40.35c-6.64 6.63-17.4 6.63-24.04 0l-1.87-1.88c-2.18-2.18-4.54-4.14-7.05-5.88l-6.61 19.25c-2.84 9.03-.77 18.88 5.46 26.01l7.69 8.79-73.688 73.699 53.154 52.466 79.334-79.334v-.01c13.03 6.48 29.27 4.28 40.12-6.57l23.8-23.8 23.57-23.56c2.74-2.74 4.12-6.34 4.12-9.94 0-3.601-1.38-7.201-4.12-9.951z" fill="#fed2a4"/>
	<path d="m184.01 398.412 73.627-73.638-7.69-8.79c-6.23-7.13-8.3-16.98-5.46-26.01l6.61-19.25c2.51 1.74 4.87 3.7 7.05 5.88l1.87 1.88c6.64 6.63 17.4 6.63 24.04 0l40.35-40.35c2.74-2.75 6.34-4.12 9.94-4.12 1.384 0 2.767.207 4.102.613-.65-2.134-1.814-4.145-3.502-5.832-2.74-2.75-6.34-4.12-9.94-4.12s-7.2 1.37-9.94 4.12l-40.35 40.35c-6.64 6.63-17.4 6.63-24.04 0l-1.87-1.88c-2.18-2.18-4.54-4.14-7.05-5.88l-6.61 19.25c-2.84 9.03-.77 18.88 5.46 26.01l7.69 8.79-73.688 73.699z" fill="#ffbd86"/>
	<path d="m466.737 338.284c2.51 2.5 3.76 5.79 3.76 9.07s-1.25 6.57-3.76 9.07l-77.89 77.89c-5.01 5.01-13.13 5.01-18.14 0-2.5-2.51-3.76-5.79-3.76-9.07s1.26-6.56 3.76-9.06l1.64-1.65 75.99-75.99.26-.26c5.01-5.01 13.13-5.01 18.14 0z" fill="#f4d902"/>
	<path d="m403.021 402c-2.5-2.51-3.76-5.79-3.76-9.07s1.26-6.56 3.76-9.06l1.64-1.65-32.313 32.313-1.64 1.65c-2.5 2.5-3.76 5.78-3.76 9.06s1.26 6.56 3.76 9.07c5.01 5.01 13.13 5.01 18.14 0l32.313-32.313c-5.01 5.01-13.13 5.01-18.14 0z" fill="#fac600"/>
	<path d="m288.507 389.044c3.01 3.01 3.01 7.89 0 10.9l-18.6 18.59c-3 3.01-7.88 3.01-10.89 0l-4.09-4.09-52.81-52.81-4.1-4.1c-3.01-3.01-3.01-7.89 0-10.9l18.59-18.59c3.01-3.01 7.89-3.01 10.9 0l4.09 4.09v.01l52.81 52.81h.01z" fill="#00f2a6"/>
	<path d="m232.554 369.449c-5.274-5.274-5.274-13.826 0-19.1l8.625-8.625-9.581-9.581v-.01l-4.09-4.09c-3.01-3.01-7.89-3.01-10.9 0l-18.59 18.59c-3.01 3.01-3.01 7.89 0 10.9l4.1 4.1 52.81 52.81 4.09 4.09c3.01 3.01 7.89 3.01 10.89 0l5.867-5.864z" fill="#05e39c"/>
	<path d="m234.697 438.264c4.28 4.27 4.28 11.21 0 15.49l-46.04 46.04c-2.581 2.581-6.081 4.03-9.73 4.03h-127.981c-3.73 0-5.599-4.51-2.961-7.148l114.812-114.822c4.28-4.28 11.22-4.28 15.49 0l1.8 1.8 52.81 52.81z" fill="#08a9f1"/>
	<path d="m188.77 407.826c4.28-4.28 11.22-4.28 15.49 0l-24.172-24.172-1.8-1.8c-4.27-4.28-11.21-4.28-15.49 0l-114.813 114.822c-2.638 2.638-.769 7.148 2.961 7.148h41.834z" fill="#0290cf"/>
	<path d="m394.109 87.395c-4.011 5.854-8.851 10.801-14.602 14.751-2.886 1.982-2.896 6.196.008 8.151 5.958 4.01 10.888 8.735 14.649 14.272 1.935 2.848 6.16 2.931 8.075.07 3.87-5.782 8.767-10.664 14.742-14.601 2.881-1.898 2.841-6.107.016-8.088-5.768-4.045-10.799-8.848-14.842-14.667-1.952-2.811-6.112-2.711-8.046.112z" fill="#6bd9e7"/>
	<path d="m155.545 156.552c-4.998 8.226-11.453 14.857-19.562 19.68-1.607.956-1.617 3.312-.013 4.274 8.453 5.068 15.093 11.397 19.583 19.219.961 1.675 3.367 1.708 4.336.037 4.681-8.068 11.152-14.566 19.536-19.387 1.623-.933 1.679-3.274.095-4.273-7.995-5.044-14.762-11.352-19.712-19.529-.965-1.594-3.295-1.615-4.263-.021z" fill="#6bd9e7"/>
	<path d="m472.041 332.981c-6.569-6.567-16.541-7.675-24.279-3.356l-42.83-23.997c.82-2.299 1.271-4.737 1.271-7.249 0-5.758-2.243-11.172-6.314-15.244-3.799-3.798-8.674-5.862-13.653-6.228-.365-4.979-2.43-9.854-6.228-13.653-3.796-3.796-8.667-5.86-13.643-6.227-.375-5.158-2.544-9.96-6.237-13.653-3.797-3.796-8.669-5.86-13.645-6.227-.375-5.158-2.543-9.96-6.236-13.654-4.072-4.071-9.485-6.313-15.243-6.313-3.171 0-6.227.703-9.022 1.993l-9.542-9.541c-7.639-7.64-12.171-17.787-12.761-28.573l-1.038-18.948c-.161-2.946-.417-5.876-.748-8.791l16.743-78.579c4.334-20.337-5.833-40.609-24.725-49.299-10.935-5.03-23.143-5.41-34.371-1.066-9.222 3.568-16.784 9.941-21.8 18.243l-7.445-7.445 1.047-1.047c3.073-3.074 4.767-7.161 4.767-11.509 0-4.347-1.693-8.434-4.767-11.507l-7.107-7.108c-5.34-5.338-14.027-5.337-19.367.001l-30.966 30.967-29.275 18.191c-1.827-4.579-4.574-8.78-8.122-12.328-14.301-14.299-37.566-14.299-51.867 0-14.299 14.3-14.299 37.566 0 51.866 3.555 3.554 7.762 6.304 12.349 8.131l-18.147 29.201-30.968 30.967c-5.337 5.339-5.337 14.027.002 19.368l7.105 7.105c3.074 3.073 7.161 4.767 11.508 4.767 4.348 0 8.435-1.693 11.509-4.767l1.047-1.047 7.445 7.445c-8.303 5.015-14.676 12.577-18.244 21.8-4.344 11.228-3.965 23.435 1.066 34.371 7.351 15.98 22.985 25.718 39.94 25.717 3.089 0 6.225-.324 9.358-.992l78.603-16.748c2.912.331 5.835.591 8.769.752l18.947 1.039c6.137.335 12.065 1.951 17.444 4.685l-4.374 13.887c-3.604 11.446-.936 24.168 6.964 33.199l3.076 3.517-6.51 6.51c-5.962-4.757-14.7-4.383-20.22 1.135l-18.594 18.594c-2.871 2.872-4.453 6.69-4.453 10.751 0 3.486 1.172 6.787 3.318 9.469l-11.977 11.976c-2.735-1.547-5.829-2.384-9.057-2.384-4.929 0-9.563 1.92-13.048 5.404l-121.963 121.965c-2.929 2.93-2.929 7.678 0 10.607 2.93 2.928 7.678 2.928 10.607 0l121.965-121.965c1.345-1.348 3.535-1.348 4.882 0l56.405 56.405c.88.88 1.012 1.907 1.012 2.44 0 .534-.131 1.561-1.012 2.44l-50.07 50.071c-2.929 2.93-2.929 7.678 0 10.607 1.465 1.464 3.385 2.196 5.304 2.196s3.839-.732 5.304-2.196l50.069-50.071c3.485-3.484 5.405-8.118 5.405-13.048 0-3.228-.837-6.321-2.384-9.056l11.976-11.976c2.761 2.202 6.114 3.309 9.47 3.309 3.894 0 7.787-1.481 10.751-4.446l18.593-18.594c2.871-2.871 4.453-6.688 4.453-10.749 0-3.485-1.172-6.787-3.317-9.469l13.93-13.929c4.436 1.511 9.073 2.273 13.712 2.273 5.543 0 11.084-1.086 16.281-3.244l24.32 43.407c-5.606 7.929-4.882 18.995 2.211 26.09 3.964 3.963 9.167 5.943 14.373 5.943 5.204 0 10.41-1.981 14.373-5.943l77.895-77.894c7.924-7.923 7.924-20.818 0-28.744zm-217.089-294.617c7.411-2.867 15.471-2.615 22.691.704 12.471 5.737 19.184 19.12 16.322 32.546l-10.093 47.371c-7.477-20.702-19.445-39.679-35.292-55.527l-9.74-9.74c3.149-7.1 8.85-12.544 16.112-15.354zm-169.707 43.729c-8.451-8.45-8.451-22.201 0-30.651 8.451-8.451 22.201-8.451 30.652 0 2.745 2.745 4.669 6.153 5.633 9.859l-7.732 4.804c-5.578 3.468-10.358 8.248-13.823 13.824l-4.85 7.805c-3.713-.963-7.129-2.889-9.88-5.641zm-29.659 94.772-6.184-6.184 30.654-30.653c.406-.406.765-.857 1.067-1.345l31.591-50.838c2.257-3.631 5.369-6.743 9-9.001l11.897-7.393c.02-.012.039-.024.058-.036l38.881-24.161c.488-.303.939-.661 1.346-1.066l30.654-30.655 6.183 6.185c.497.496.497 1.306 0 1.802l-153.344 153.345c-.497.499-1.306.497-1.803 0zm141.215 66.927c-23.848-1.305-47.024-8.898-67.026-21.959-3.47-2.266-8.116-1.289-10.381 2.18s-1.288 8.116 2.18 10.381c9.829 6.417 20.35 11.64 31.32 15.601l-47.409 10.101c-13.423 2.856-26.809-3.852-32.546-16.322-3.321-7.221-3.571-15.279-.704-22.691 2.81-7.263 8.255-12.964 15.355-16.112l9.508 9.508c1.465 1.464 3.385 2.196 5.304 2.196s3.839-.732 5.304-2.197c2.929-2.929 2.929-7.677-.001-10.606l-13.176-13.176s-.001-.001-.001-.001l-14.875-14.875 130.035-130.039 14.869 14.869c.007.007.013.013.02.02l13.395 13.395c21.546 21.546 35.145 49.51 38.86 79.553.002.023.006.046.008.07.377 3.061.653 6.143.823 9.242l1.037 18.948c.793 14.479 6.877 28.103 17.133 38.359l8.591 8.591-35.007 35.008c-3.704 3.701-9.731 3.704-13.434.002l-1.876-1.877c-10.256-10.255-23.879-16.339-38.358-17.132zm-6.107 139.86 11.418-11.417 42.204 42.205-11.417 11.418zm92.509 10.984-18.594 18.594c-.078.08-.209.08-.287 0l-61.001-61.001c-.067-.068-.066-.219.001-.286l18.594-18.594c.039-.04.091-.06.143-.06.053 0 .104.02.144.06l61 61.001c.066.067.067.218 0 .286zm79.331-54.266c-2.93-2.928-7.678-2.928-10.607 0l-10.01 10.01c-10.658 10.658-28 10.658-38.658 0-2.93-2.928-7.678-2.928-10.607 0-2.929 2.93-2.929 7.678 0 10.607.863.863 1.76 1.669 2.676 2.442l-10.916 10.915-42.204-42.204 11.398-11.399c2.791-2.791 2.94-7.269.342-10.24l-7.694-8.797c-4.479-5.119-5.991-12.33-3.948-18.818l2.758-8.755.313.313c4.776 4.775 11.05 7.163 17.323 7.163s12.548-2.388 17.324-7.163l40.344-40.344c2.558-2.558 6.717-2.556 9.272 0 1.239 1.238 1.921 2.885 1.921 4.637s-.682 3.398-1.921 4.637l-5.602 5.602-7.029 7.029c-2.929 2.93-2.929 7.678 0 10.607 2.93 2.928 7.678 2.928 10.607 0l7.029-7.029 5.602-5.602c2.557-2.559 6.718-2.557 9.274 0 1.238 1.238 1.921 2.885 1.921 4.637 0 1.751-.683 3.397-1.922 4.636l-2.638 2.638-9.993 9.993c-2.929 2.93-2.929 7.678 0 10.607 2.93 2.928 7.678 2.928 10.607 0l9.985-9.986c.003-.003.006-.005.008-.007l2.637-2.638c2.558-2.557 6.719-2.558 9.274.001 2.557 2.557 2.557 6.716 0 9.272l-2.638 2.638c-.001.001-.001.001-.002.002l-9.991 9.992c-2.929 2.929-2.929 7.678.001 10.606 2.928 2.928 7.677 2.929 10.606-.001l9.983-9.983c.003-.003.007-.006.01-.009l2.638-2.638c.001-.001.003-.003.004-.005 2.557-2.553 6.713-2.552 9.268.005 2.342 2.341 2.533 6.024.585 8.592-.646.487-1.218 1.086-1.691 1.787l-15.028 15.028c-2.929 2.93-2.929 7.678 0 10.607 1.465 1.464 3.385 2.196 5.304 2.196s3.839-.732 5.304-2.196l12.049-12.049 40.227 22.538-61.981 61.981-22.555-40.259c.345-.323.694-.643 1.031-.98l10.01-10.01c2.928-2.928 2.928-7.676 0-10.606zm98.899 10.75-77.895 77.894c-2.076 2.078-5.455 2.078-7.531 0-2.077-2.076-2.077-5.455 0-7.531l1.635-1.635c.003-.003.007-.006.01-.009l75.99-75.99.26-.26c1.038-1.039 2.401-1.558 3.766-1.558s2.728.519 3.766 1.558c2.076 2.076 2.076 5.455-.001 7.531z"/>
	<path d="m314.214 145.011c34.352 16.818 59.185 49.193 66.429 86.604 1.483 7.662 2.235 15.54 2.235 23.416 0 4.143 3.357 7.5 7.5 7.5s7.5-3.357 7.5-7.5c0-8.83-.844-17.668-2.509-26.268-8.133-42.003-36.006-78.349-74.56-97.225-3.723-1.823-8.214-.282-10.034 3.438s-.281 8.213 3.439 10.035z"/>
	<path d="m168 353.806c1.903 0 3.808-.72 5.27-2.163 2.947-2.91 2.978-7.658.067-10.606-15.976-16.183-27.103-36.377-32.177-58.398-.931-4.038-4.957-6.559-8.992-5.625-4.037.93-6.555 4.956-5.625 8.992 5.699 24.733 18.189 47.407 36.12 65.57 1.467 1.486 3.402 2.23 5.337 2.23z"/>
	<path d="m339.264 434.731c-24.881 10.928-51.396 16.469-78.807 16.469-4.143 0-7.5 3.357-7.5 7.5s3.357 7.5 7.5 7.5c29.501 0 58.044-5.967 84.838-17.734 3.793-1.666 5.517-6.091 3.852-9.883-1.666-3.792-6.092-5.517-9.883-3.852z"/>
	<path d="m430.251 156.715c17.256 29.734 26.377 63.731 26.377 98.315 0 12.771-1.235 25.546-3.67 37.968-.798 4.065 1.852 8.006 5.916 8.804.487.095.973.141 1.451.141 3.514 0 6.65-2.48 7.353-6.058 2.621-13.371 3.95-27.116 3.95-40.854 0-37.225-9.821-73.825-28.402-105.845-2.079-3.583-6.67-4.801-10.252-2.723-3.582 2.079-4.801 6.669-2.723 10.252z"/>
	<path d="m329.605 71.393c8.811 3.319 17.46 7.316 25.706 11.881 1.15.638 2.396.939 3.625.939 2.64 0 5.2-1.396 6.568-3.869 2.006-3.624.694-8.188-2.93-10.193-8.88-4.915-18.192-9.22-27.681-12.795-3.878-1.46-8.202.498-9.663 4.374-1.459 3.875.499 8.202 4.375 9.663z"/>
	<path d="m104.735 393.803c1.708 0 3.426-.58 4.833-1.768 3.166-2.672 3.566-7.403.896-10.569-22.186-26.29-37.093-58.003-43.112-91.708-.729-4.078-4.631-6.801-8.701-6.064-4.078.728-6.793 4.624-6.064 8.701 6.481 36.297 22.531 70.442 46.413 98.745 1.483 1.757 3.601 2.663 5.735 2.663z"/>
	<path d="m369.119 112.838c10.873 5.688 18.143 12.888 22.225 22.011 1.194 2.67 3.833 4.402 6.759 4.436.029.001.058.001.088.001 2.891 0 5.527-1.663 6.771-4.278 4.74-9.964 11.962-17.18 22.079-22.06 2.52-1.215 4.153-3.732 4.238-6.529.084-2.797-1.396-5.407-3.838-6.772-10.575-5.91-17.95-13.239-22.548-22.408-1.261-2.515-3.822-4.112-6.635-4.139-.023 0-.047 0-.069 0-2.786 0-5.345 1.545-6.641 4.015-5.413 10.314-12.698 17.626-22.273 22.354-2.531 1.25-4.146 3.814-4.179 6.637-.033 2.822 1.522 5.423 4.023 6.732zm29.068-18.301c3.28 4.171 7.13 7.962 11.586 11.408-4.395 3.298-8.256 7.121-11.569 11.455-3.213-4.107-7.064-7.85-11.536-11.21 4.278-3.326 8.124-7.215 11.519-11.653z"/>
	<path d="m186.948 171.792c-10.574-5.909-17.95-13.239-22.549-22.409-1.261-2.514-3.822-4.111-6.635-4.138-.023 0-.047 0-.069 0-2.786 0-5.346 1.545-6.642 4.016-5.411 10.313-12.696 17.625-22.271 22.354-2.531 1.25-4.146 3.814-4.179 6.637s1.521 5.425 4.022 6.733c10.873 5.688 18.143 12.889 22.224 22.01 1.194 2.671 3.833 4.402 6.758 4.437.029.001.059.001.089.001 2.89 0 5.527-1.663 6.771-4.277 4.741-9.965 11.964-17.181 22.08-22.061 2.52-1.215 4.153-3.732 4.238-6.529.085-2.798-1.395-5.409-3.837-6.774zm-29.238 17.756c-3.213-4.108-7.064-7.851-11.536-11.21 4.277-3.326 8.124-7.218 11.52-11.654 3.28 4.171 7.13 7.962 11.586 11.408-4.395 3.298-8.256 7.121-11.57 11.456z"/>
</svg>