<svg height="511pt" viewBox="-12 0 511 511.99938" width="511pt" xmlns="http://www.w3.org/2000/svg"><path d="m467.738281 322.394531-17.320312-5.546875c-4.140625-1.328125-7.363281-4.597656-8.667969-8.75-19.929688-63.375-93.9375-92.476562-168.429688-92.476562-87.152343 0-157.800781 39.824218-157.800781 127.773437 0 50.6875 24.859375 86.191407 63.269531 106.695313.945313.503906 1.617188 1.398437 1.820313 2.453125l5.988281 44.695312c.796875 4.210938 4.476563 7.257813 8.761719 7.257813h29.058594c4.289062 0 7.964843-3.046875 8.761719-7.257813l7.324218-24.851562c.34375-1.832031 2.054688-3.066407 3.90625-2.851563 9.375 1.085938 19.035156 1.632813 28.910156 1.632813 13.199219 0 26.382813-.976563 39.253907-2.921875 1.890625-.285156 3.675781.960937 4.03125 2.839844l7.566406 26.152343c.796875 4.210938 4.476563 7.257813 8.761719 7.257813h29.058594c4.285156 0 7.964843-3.046875 8.761718-7.257813l6.320313-47.324219c.203125-1.070312.890625-1.980468 1.855469-2.480468 22.808593-11.859375 41.679687-28.175782 53.714843-48.976563 1.605469-2.773437 4.140625-4.886719 7.191407-5.863281l27.902343-8.9375c7.074219-2.265625 11.875-8.84375 11.875-16.269531v-28.71875c0-7.429688-4.800781-14.007813-11.875-16.273438zm0 0" fill="#ff94a6"/><path d="m467.738281 322.394531-17.320312-5.546875c-4.144531-1.328125-7.363281-4.605468-8.667969-8.757812-12.613281-40.097656-46.878906-66.476563-89.21875-80.441406-5.386719-1.773438-9.230469 5.335937-4.777344 8.847656 17.585938 13.855468 31.058594 31.523437 37.789063 53.347656 30.554687 99.105469-65.292969 151.875-65.636719 151.929688-15.734375 2.375-35.84375 3.570312-51.980469 3.570312-12.070312 0-23.882812-.667969-35.34375-2-2.265625-.261719-4.351562 1.25-4.777343 3.488281l-8.949219 30.378907c-.976563 5.148437-5.472657 8.875-10.710938 8.875h-23.039062l1.492187 11.152343c.796875 4.210938 4.476563 7.257813 8.761719 7.257813h29.058594c4.289062 0 7.964843-3.046875 8.761719-7.257813l7.324218-24.847656c.34375-1.835937 2.054688-3.070313 3.90625-2.855469 9.375 1.085938 19.035156 1.632813 28.910156 1.632813 13.199219 0 26.382813-.972657 39.253907-2.917969 1.261719-.191406 2.46875.308594 3.242187 1.21875.152344.179688.285156.378906.402344.585938.042969.078124.085938.15625.121094.238281.035156.074219.066406.148437.09375.226562.070312.183594.128906.371094.167968.566407l7.566407 26.152343c.796875 4.210938 4.476562 7.261719 8.761719 7.261719h29.058593c4.285157 0 7.964844-3.050781 8.761719-7.261719l1.488281-11.148437 4.832031-36.175782c.203126-1.066406.890626-1.976562 1.855469-2.480468 22.820313-11.863282 41.699219-28.191406 53.734375-49.007813 1.597656-2.761719 4.132813-4.855469 7.171875-5.828125l27.902344-8.9375c7.074219-2.265625 11.875-8.84375 11.875-16.273437v-28.71875c.003906-7.429688-4.796875-14.007813-11.871094-16.273438zm0 0" fill="#f4849c"/><path d="m341.011719 231.128906c.882812-4.195312 3.785156-7.683594 7.683593-9.46875 14.976563-6.855468 57.425782-25.894531 67.234376-20.757812 12.285156 6.433594 4.714843 70.75-14.003907 81.351562-18.082031 10.242188-73.699219 9.554688-60.914062-51.125zm0 0" fill="#f4849c"/><path d="m247.230469 65.539062c-34.519531-2.300781-64.371094 23.820313-66.671875 58.34375-2.300782 34.523438 23.820312 64.375 58.339844 66.675782 34.523437 2.300781 64.375-23.820313 66.675781-58.34375 2.300781-34.523438-23.820313-64.375-58.34375-66.675782zm0 0" fill="#fdbd37"/><path d="m247.230469 65.546875c-10.257813-.683594-20.089844 1.15625-28.921875 4.964844 23.691406 10.207031 39.539062 34.5 37.722656 61.707031-1.613281 24.265625-16.851562 44.363281-37.746094 53.375 6.371094 2.742188 13.300782 4.476562 20.613282 4.964844 34.523437 2.300781 64.375-23.816406 66.675781-58.339844s-23.820313-64.371094-58.34375-66.671875zm0 0" fill="#fa9a39"/><path d="m182.253906 102.734375c-10.378906-.695313-22.167968-1.476563-28.667968-1.910156-3.179688-.210938-6.144532-1.675781-8.269532-4.101563l-.109375-.125c-3.503906-4.007812-3.730469-12.09375-.765625-16.511718l35.042969-30.671876 21.925781 3.617188 15.097656 12.707031s26.71875 20.585938 36.691407 24.957031c2.5 1.097657 18.207031-5.6875 10.773437-16.136718-8.789062-12.105469-28.269531-40.542969-33.347656-47.96875-3.484375-5.097656-8.90625-8.539063-15-9.53125l-55.773438-9.042969c-8.042968-1.304687-16.285156-.101563-23.621093 3.4375-2.847657 1.371094-6.105469 2.929687-9.617188 4.582031-3.410156 1.605469-7.054687 3.300782-10.800781 5.007813-7.101562 3.234375-14.554688 6.511719-21.367188 9.273437-7.285156 2.953125-13.839843 5.320313-18.464843 6.429688l-45.753907-3.050782-5.277343 79.210938 22.027343 1.46875c4.140626.277344 8.144532 1.59375 11.640626 3.832031l29.734374 17.308594c9.390626 5.394531 20.132813 7.976563 30.945313 7.4375l26.578125-1.324219 68.074219 4.535156c7.84375.523438 14.40625-2.078124 14.929687-9.921874 2.417969-13.757813-25.214844-32.082032-46.625-33.507813zm0 0" fill="#fed6a6"/><path d="m182.253906 102.734375c-10.378906-.695313-22.167968-1.476563-28.667968-1.910156-3.179688-.210938-6.144532-1.675781-8.269532-4.101563l-.109375-.125c-.8125-.929687-1.4375-2.082031-1.898437-3.351562l-24.011719 1.195312c-10.816406.539063-21.558594-2.042968-30.945313-7.433594l-29.738281-17.308593c-3.492187-2.238281-7.496093-3.558594-11.636719-3.832031l-18.808593-1.253907-3.21875 48.296875 22.027343 1.464844c4.140626.277344 8.144532 1.597656 11.636719 3.835938l29.734375 17.304687c9.390625 5.398437 20.132813 7.976563 30.949219 7.4375l26.574219-1.324219 68.078125 4.539063c7.84375.523437 14.40625-2.078125 14.929687-9.921875 2.417969-13.761719-25.214844-32.085938-46.625-33.511719zm0 0" fill="#efc79c"/><path d="m8 120.574219v-94.574219c0-3.507812 2.839844-6.347656 6.34375-6.347656h26.109375c3.507813 0 6.347656 2.839844 6.347656 6.347656v94.574219c0 3.503906-2.839843 6.347656-6.347656 6.347656h-26.109375c-3.503906 0-6.34375-2.84375-6.34375-6.347656zm0 0" fill="#fc6a58"/><path d="m8 120.574219c0 3.503906 2.839844 6.347656 6.34375 6.347656h26.109375c3.507813 0 6.347656-2.84375 6.347656-6.347656v-43.050781h-38.800781zm0 0" fill="#e35052"/><path d="m221.25 69.332031c8.132812 6.097657 24.59375 18.140625 31.949219 21.363281 2.5 1.097657 18.207031-5.6875 10.773437-16.136718-1.441406-1.984375-3.175781-4.417969-5.082031-7.113282-3.753906-.976562-7.644531-1.632812-11.660156-1.898437-9.132813-.609375-17.929688.785156-25.980469 3.785156zm0 0" fill="#fa9a39"/><path d="m405.652344 325.632812c-1.40625 5.105469-5.472656 8.675782-9.890625 8.675782-4.578125 0-8.6875-3.738282-9.996094-9.085938-.980469-4.023437-5.035156-6.492187-9.0625-5.507812-4.023437.980468-6.492187 5.039062-5.507813 9.0625 2.949219 12.085937 13.050782 20.527344 24.566407 20.527344 11.144531 0 21.15625-8.097657 24.351562-19.691407 1.101563-3.992187-1.246093-8.121093-5.238281-9.222656s-8.121094 1.246094-9.222656 5.242187zm0 0"/><path d="m213.730469 261.242188c-3.558594 2.121093-4.71875 6.726562-2.597657 10.28125 2.09375 3.511718 6.777344 4.691406 10.285157 2.597656 20.070312-11.976563 43.144531-13.980469 64.976562-5.640625 3.871094 1.476562 8.207031-.460938 9.683594-4.332031 1.476563-3.867188-.460937-8.203126-4.328125-9.679688-26.214844-10.011719-53.921875-7.609375-78.019531 6.773438zm0 0"/><path d="m348.777344 285.496094c9.039062 6.613281 20.335937 9.167968 30.890625 9.167968 10.277343 0 19.851562-2.421874 25.957031-5.878906 16.824219-9.53125 24.136719-46.125 23.78125-67.855468-.238281-14.546876-3.507812-23.269532-9.996094-26.667969-6.65625-3.484375-20.632812-3.769531-73.835937 20.585937-6.09375 2.789063-10.542969 8.296875-11.898438 14.738282-6.773437 32.125 4.472657 48.136718 15.101563 55.910156zm-.425782-52.816406c.378907-1.808594 1.675782-3.375 3.464844-4.195313 41.1875-18.851563 55.140625-20.980469 59.339844-20.980469.460938 0 .808594.027344 1.058594.058594 1.789062 2.9375 3.652344 15.214844.535156 33.792969-3.332031 19.855469-9.863281 31.742187-14.519531 34.378906-8.800781 4.984375-28.5 6.503906-40.597657-2.34375-10.269531-7.511719-13.390624-21.210937-9.28125-40.710937zm0 0"/><path d="m470.027344 315.257812-17.320313-5.546874c-1.800781-.578126-3.222656-2.023438-3.800781-3.859376-1.910156-6.074218-4.34375-12.003906-7.230469-17.632812-1.890625-3.683594-6.410156-5.136719-10.097656-3.246094-3.683594 1.890625-5.136719 6.410156-3.246094 10.097656 2.5 4.871094 4.609375 10.015626 6.265625 15.28125 2.039063 6.480469 7.097656 11.582032 13.535156 13.644532l17.320313 5.546875c3.984375 1.277343 6.660156 4.945312 6.660156 9.128906v28.71875c0 4.183594-2.675781 7.851563-6.660156 9.128906l-27.90625 8.9375c-4.785156 1.53125-8.828125 4.816407-11.394531 9.246094-10.832032 18.722656-27.882813 34.222656-50.6875 46.078125-3.027344 1.578125-5.128906 4.398438-5.761719 7.742188-.023437.132812-.042969.265624-.0625.398437l-6.28125 47.039063c-.167969.609374-.726563 1.039062-1.367187 1.039062h-29.058594c-.679688 0-1.265625-.484375-1.394532-1.152344-.042968-.234375-.097656-.464844-.164062-.691406l-7.492188-25.898438c-1.296874-5.617187-6.667968-9.292968-12.429687-8.421874-12.449219 1.882812-25.28125 2.835937-38.132813 2.835937-9.554687 0-18.992187-.53125-28.042968-1.582031-5.574219-.664063-10.777344 3.03125-12.046875 8.441406l-7.242188 24.589844c-.070312.238281-.128906.480468-.175781.726562-.125.667969-.710938 1.152344-1.394531 1.152344h-29.058594c-.640625 0-1.199219-.429688-1.367187-1.039062l-5.949219-44.414063c-.019531-.140625-.039063-.28125-.066407-.421875-.632812-3.277344-2.691406-6.066406-5.652343-7.648438-38.796875-20.710937-59.304688-55.316406-59.304688-100.078124 0-39.257813 14.519531-69.8125 43.15625-90.820313 26.261719-19.269531 63.3125-29.453125 107.144531-29.453125 11.902344 0 23.753907.765625 35.21875 2.285156 4.109376.546875 7.875-2.347656 8.417969-6.453125s-2.34375-7.875-6.453125-8.417969c-12.117187-1.605468-24.625-2.414062-37.183594-2.414062-47.042968 0-87.164062 11.1875-116.019531 32.355469-13.890625 10.191406-24.960937 22.597656-33.0625 36.914062-9.140625-1.796875-19.546875-2.023437-29.453125-.570312-6.121094.898437-13.804687 2.679687-21.109375 6.199219-22.472656-1.566407-48.628906 12.5-53.910156 29.476562-1.230469 3.953125.980469 8.160156 4.933594 9.390625 3.957031 1.230469 8.160156-.980469 9.390625-4.9375 1.855468-5.972656 10.191406-12.429687 20.210937-16.085937-3.578125 7.101562-4.378906 15.277343-2.289062 24.148437 6.894531 29.300781 55.441406 20.402344 53.804687-9.339844-.558594-10.109375-4.070312-18.226562-10.085937-23.859375 6.890625-1.199218 14.40625-1.457031 21.773437-.410156-6.273437 15.597656-9.484375 33.03125-9.484375 51.992188 0 25.875 6.175781 48.960937 18.355469 68.617187 11.105469 17.914063 26.945312 32.621094 47.09375 43.722656l5.695312 42.5c.019532.132813.039063.265625.0625.398438 1.46875 7.742187 8.25 13.363281 16.132813 13.363281h29.058594c7.738281 0 14.417969-5.417969 16.046875-12.945312l6.394531-21.707032c8.601563.878906 17.484375 1.324219 26.460937 1.324219 12.421876 0 24.832032-.84375 36.941407-2.511719l6.617187 22.875c1.621094 7.535156 8.308594 12.964844 16.050782 12.964844h29.058593c7.882813 0 14.667969-5.621094 16.132813-13.363281.023437-.132813.046875-.269531.0625-.402344l6.027344-45.105469c24.464843-13.074218 42.933593-30.195312 54.921874-50.914062.695313-1.199219 1.757813-2.078125 2.988282-2.472656l27.902344-8.9375c10.21875-3.277344 17.085937-12.683594 17.085937-23.414063v-28.71875c.003906-10.734375-6.863281-20.140625-17.082031-23.414063zm-389.992188 12.710938c-4.636718.671875-12.03125-.484375-13.421875-6.390625-2.261719-9.617187 1.761719-18.015625 10.039063-23.046875 8.980468 1.867188 13.628906 7.769531 14.1875 17.964844.503906 9.128906-8.144532 11.089844-10.804688 11.472656zm0 0"/><path d="m295.855469 81.863281c-8.773438-10.023437-19.945313-17.195312-32.390625-20.949219-10.035156-14.269531-23.859375-34.472656-26.648438-38.554687-4.621094-6.757813-11.90625-11.386719-19.988281-12.695313l-55.777344-9.046874c-9.597656-1.558594-19.3125-.144532-28.082031 4.085937-2.824219 1.359375-6.0625 2.910156-9.550781 4.550781-3.746094 1.765625-5.355469 6.234375-3.589844 9.980469 1.761719 3.75 6.230469 5.355469 9.980469 3.59375 3.535156-1.667969 6.816406-3.234375 9.679687-4.617187 5.988281-2.886719 12.613281-3.851563 19.164063-2.789063l55.773437 9.046875c4.046875.65625 7.695313 2.972656 10.007813 6.355469 2.09375 3.0625 10.378906 15.171875 18.648437 27.089843-7.03125 0-13.914062 1.0625-20.457031 3.0625-5.652344-4.292968-10.957031-9.109374-16.386719-13.679687-1.03125-.867187-2.277343-1.441406-3.609375-1.664063l-21.921875-3.613281c-2.214843-.359375-4.472656.28125-6.160156 1.757813l-35.042969 30.667968c-.488281.429688-.921875.921876-1.285156 1.464844-4.960938 7.390625-4.34375 19.125 1.347656 25.628906l.109375.125c3.449219 3.941407 8.210938 6.304688 13.414063 6.648438l28.667968 1.910156c12.851563.855469 29.820313 9.367188 37.050782 18.585938 1.378906 1.753906 2.925781 4.386718 2.777344 6.730468-.222657 3.476563-4.578126 3.320313-7.136719 3.148438-19.695313-1.3125-39.34375-3.367188-59.074219-4.148438-12.1875-.480468-24.277344.328126-36.449219.929688-9.398437.460938-18.679687-1.761719-26.800781-6.429688l-29.605469-17.230468c-2.554687-1.617188-5.328125-2.863282-8.21875-3.703125v-65.28125s21.515625 1.425781 21.679688 1.425781c.589843 0 1.179687-.066406 1.753906-.207031 4.660156-1.117188 11.050781-3.335938 19.527344-6.773438 3.839843-1.554687 5.691406-5.929687 4.132812-9.765625-1.554687-3.839844-5.929687-5.6875-9.769531-4.132812-6.996094 2.835937-12.484375 4.789062-16.332031 5.816406l-20.992188-1.398438v-1.785156c0-7.636718-6.210937-13.847656-13.84375-13.847656h-26.113281c-7.632812 0-13.84375 6.210938-13.84375 13.847656v94.574219c0 7.632813 6.210938 13.84375 13.84375 13.84375h26.109375c6.421875 0 11.835937-4.390625 13.394531-10.332031.246094.140625 30.765625 17.933594 30.765625 17.933594 10.65625 6.121093 22.773438 9.035156 35.058594 8.425781 19.175781-.957031 38.035156-.511719 57.179687.765625 9.210938 26.382812 33.308594 44.949218 61.550782 46.832031 18.492187 1.234375 36.910156-5 50.855468-17.203125 14.101563-12.335938 22.550782-29.429688 23.796876-48.125 1.246093-18.691406-4.863282-36.753906-17.199219-50.855469zm-256.554688 37.5625h-23.800781v-92.269531h23.800781zm141.8125-24.28125s-26.28125-1.75-27.015625-1.796875c-4.050781-.269531-5.027344-5.304687-3.75-8.460937l31.414063-27.488281 16.394531 2.699218 9.113281 7.671875c-10.886719 6.460938-20.027343 15.839844-26.15625 27.375zm55.273438 41.992188c.164062-1.472657.179687-2.941407.050781-4.316407 3.785156 2.140626 7.8125 4.003907 11.539062 6.207032 3.765626 2.226562 7.054688 5.742187 5.898438 10.449218-1.082031 4.417969-5.664062 7.28125-10.046875 7.339844-4.402344.0625-9.078125-1.589844-12.132813-4.800781-.707031-.742187-1.332031-1.582031-1.890624-2.5.222656.367187 4.230468-4.78125 4.503906-5.292969 1.109375-2.078125 1.804687-4.585937 2.078125-7.085937zm61.703125-5.414063c-.980469 14.699219-7.625 28.132813-18.710938 37.832032-11.082031 9.703124-25.277344 14.507812-39.980468 13.523437-19.964844-1.332031-37.300782-13.273437-45.855469-30.75 0 0 24.78125 1.3125 25.996093 1.15625l-.457031 6.882813c-.042969.648437.449219 1.214843 1.097657 1.257812l5.421874.359375c.648438.042969 1.214844-.449219 1.257813-1.097656 0 0 .171875-2.589844.171875-2.589844-.105469 1.539063 9.851562 4.542969 11.34375 4.871094l-.507812 8.703125c-.082032 1.40625.980468 2.609375 2.382812 2.703125l3.726562.25c1.40625.09375 2.625-.96875 2.726563-2.375l.613281-8.6875c12.320313-.875 22.285156-10.746094 19.101563-23.664063-1.617188-6.574218-6.871094-11.195312-12.433594-14.59375-5.617187-3.429687-12.402344-5.863281-17.148437-10.546875-6.027344-5.945312-1.34375-15.570312 6.933593-15.019531 4.488281.296875 7.847657 1.886719 10.082031 4.761719 2.101563 2.699219 3.441407 6.535156 4.027344 11.507812.066406.570313.523438 1.015625 1.09375 1.054688l4.140625.277343c.648438.042969 1.210938-.449218 1.253907-1.101562l1.347656-20.1875c.042968-.652344-.449219-1.214844-1.097656-1.257812l-5.082032-.339844c-.652344-.042969-1.214844.449218-1.257812 1.101562l-.171875 2.613282c-2.160157-1.726563-4.589844-3.054688-7.300781-3.964844l.582031-7.664063c.109375-1.417969-.960938-2.652343-2.382813-2.746093l-3.90625-.261719c-1.410156-.09375-2.628906.976562-2.722656 2.382812 0 0-.453125 6.75-.453125 6.75-8.949219-.15625-17.351563 3.945313-19.941406 13.109375-.421875 1.507813-.640625 3.054688-.683594 4.609375-7.007813-5.359375-15.734375-9.847656-24.480469-12.574219 10.753906-16.519531 29.8125-26.332031 49.914063-24.976562 14.699219.980469 28.132812 7.625 37.835937 18.707031 9.699219 11.089844 14.503906 25.289063 13.523438 39.984375zm0 0"/></svg>