<?xml version="1.0" encoding="iso-8859-1"?>
<!-- Generator: Adobe Illustrator 19.0.0, SVG Export Plug-In . SVG Version: 6.00 Build 0)  -->
<svg version="1.1" id="Capa_1" xmlns="http://www.w3.org/2000/svg" xmlns:xlink="http://www.w3.org/1999/xlink" x="0px" y="0px"
	 viewBox="0 0 512.002 512.002" style="enable-background:new 0 0 512.002 512.002;" xml:space="preserve">
<g>
	<polygon style="fill:#7FDECF;" points="320.42,399.769 417.049,399.769 376.787,504.451 352.63,504.451 	"/>
	<polygon style="fill:#7FDECF;" points="191.582,399.769 94.953,399.769 135.215,504.451 159.372,504.451 	"/>
	<path style="fill:#7FDECF;" d="M406.533,233.875l-13.64-115.941l-81.869,40.934c-17.322-5.655-35.812-8.725-55.022-8.725
		c-19.21,0-37.7,3.07-55.022,8.725l-81.869-40.934l-13.64,115.941c-16.869,27.123-26.622,59.131-26.622,93.422
		c0,97.839,79.314,177.153,177.153,177.153s177.153-79.314,177.153-177.153C433.154,293.006,423.401,260.998,406.533,233.875z"/>
</g>
<g>
	<path style="fill:#55D4BE;" d="M272.106,472.241c-97.839,0-177.153-79.314-177.153-177.153c0-22.621,4.247-44.247,11.978-64.134
		l-1.461,2.922c-16.869,27.123-26.622,59.131-26.622,93.422c0,97.839,79.314,177.153,177.153,177.153
		c75.785,0,140.445-47.594,165.749-114.518C390.327,439.404,335.055,472.241,272.106,472.241z"/>
	<polygon style="fill:#55D4BE;" points="329.488,176.645 372.92,154.929 379.126,207.668 	"/>
	<polygon style="fill:#55D4BE;" points="182.514,176.645 139.082,154.929 132.878,207.668 	"/>
</g>
<ellipse style="fill:#D4F4EF;" cx="255.998" cy="315.222" rx="48.315" ry="36.236"/>
<path style="fill:#AAE9DF;" d="M256.001,327.298c-21.035,0-38.92-10.086-45.555-24.157c-1.782,3.779-2.76,7.842-2.76,12.079
	c0,20.012,21.631,36.236,48.315,36.236s48.315-16.224,48.315-36.236c0-4.237-0.978-8.3-2.76-12.079
	C294.921,317.212,277.036,327.298,256.001,327.298z"/>
<circle style="fill:#FAD000;" cx="255.998" cy="69.623" r="62.074"/>
<circle style="fill:#FBDC40;" cx="255.998" cy="69.623" r="40.262"/>
<path d="M440.163,313.071c-0.317-4.157-3.933-7.272-8.103-6.952c-4.157,0.317-7.27,3.945-6.952,8.102
	c0.33,4.32,0.497,8.72,0.497,13.077c0,93.52-76.084,169.604-169.604,169.604S86.397,420.817,86.397,327.298
	c0-31.704,8.811-62.63,25.483-89.435c0.587-0.943,0.957-2.003,1.087-3.104l12.384-105.262l72.252,36.126
	c1.778,0.889,3.832,1.041,5.719,0.424c16.976-5.542,34.699-8.351,52.679-8.351c17.98,0,35.704,2.81,52.68,8.352
	c1.884,0.616,3.941,0.464,5.719-0.425l72.251-36.126l12.384,105.262c0.13,1.102,0.5,2.162,1.086,3.104
	c8.55,13.746,15.066,28.599,19.366,44.144c1.111,4.017,5.267,6.375,9.289,5.263c4.018-1.111,6.375-5.27,5.263-9.289
	c-4.536-16.393-11.33-32.076-20.205-46.643l-13.447-114.286c-0.6-5.102-6.267-8.172-10.874-5.87l-79.13,39.565
	c-17.58-5.41-35.859-8.152-54.384-8.152c-18.525,0-36.804,2.742-54.384,8.152l-79.131-39.565c-4.606-2.304-10.273,0.769-10.874,5.87
	L98.168,231.338c-17.584,28.864-26.869,62.004-26.869,95.96c0,29.93,7.163,58.215,19.853,83.244
	c0.084,0.455,0.204,0.908,0.376,1.355l36.641,95.265c1.121,2.915,3.922,4.84,7.046,4.84h24.157c3.314,0,6.241-2.161,7.215-5.329
	l4.701-15.276c25.389,13.16,54.197,20.606,84.712,20.606c30.517,0,59.325-7.445,84.714-20.606l4.701,15.276
	c0.974,3.168,3.9,5.329,7.215,5.329h24.157c3.124,0,5.925-1.924,7.046-4.84l36.994-96.183c0.125-0.325,0.217-0.653,0.295-0.982
	c12.518-24.894,19.581-52.985,19.581-82.697C440.703,322.558,440.522,317.772,440.163,313.071z M153.797,496.902h-13.397
	l-15.077-39.199c9.812,9.833,20.729,18.56,32.537,25.995L153.797,496.902z M371.603,496.902h-13.397l-4.062-13.204
	c11.808-7.435,22.724-16.162,32.536-25.995L371.603,496.902z"/>
<path d="M379.126,215.217c4.46,0,8.017-4.012,7.497-8.431l-6.204-52.739c-0.6-5.102-6.267-8.172-10.874-5.87l-43.432,21.716
	c-5.172,2.586-5.532,10.086-0.624,13.154l49.636,31.023C376.348,214.836,377.738,215.217,379.126,215.217z M344.904,177.378
	l21.776-10.888l3.11,26.442L344.904,177.378z"/>
<path d="M190.055,176.287c-0.13-2.728-1.722-5.173-4.165-6.394l-43.432-21.716c-4.606-2.305-10.273,0.769-10.874,5.87l-6.204,52.739
	c-0.723,6.147,6.218,10.584,11.499,7.283l49.636-31.023C188.831,181.599,190.185,179.014,190.055,176.287z M142.212,192.932
	l3.111-26.442l21.776,10.888L142.212,192.932z"/>
<path d="M344.578,270.427c4.17,0,7.549-3.38,7.549-7.549c0-13.043-10.611-23.654-23.654-23.654
	c-13.043,0-23.654,10.611-23.654,23.654c0,4.169,3.379,7.549,7.549,7.549c4.17,0,7.549-3.38,7.549-7.549
	c0-4.718,3.838-8.556,8.556-8.556c4.718,0,8.556,3.838,8.556,8.556C337.029,267.047,340.409,270.427,344.578,270.427z"/>
<path d="M167.424,270.427c4.169,0,7.549-3.38,7.549-7.549c0-4.718,3.838-8.556,8.556-8.556c4.718,0,8.556,3.838,8.556,8.556
	c0,4.169,3.38,7.549,7.549,7.549c4.169,0,7.549-3.38,7.549-7.549c0-13.043-10.611-23.654-23.654-23.654
	c-13.043,0-23.654,10.611-23.654,23.654C159.875,267.047,163.255,270.427,167.424,270.427z"/>
<path d="M256.001,359.004c30.804,0,55.864-19.642,55.864-43.785s-25.06-43.785-55.864-43.785c-30.804,0-55.864,19.642-55.864,43.785
	S225.197,359.004,256.001,359.004z M256.001,286.532c22.478,0,40.765,12.869,40.765,28.687c0,15.818-18.287,28.687-40.765,28.687
	c-22.478,0-40.765-12.869-40.765-28.687C215.236,299.401,233.524,286.532,256.001,286.532z"/>
<path d="M224.868,322.133c1.217,2.884,4.151,4.787,7.289,4.654c3.114-0.132,5.856-2.23,6.846-5.175
	c2.182-6.498-5.169-12.327-11.021-8.851C224.778,314.666,223.49,318.695,224.868,322.133z"/>
<path d="M273.183,322.133c1.203,2.843,4.058,4.736,7.161,4.656c3.081-0.079,5.888-2.093,6.92-5.001
	c1.057-2.978,0.12-6.369-2.319-8.378c-2.536-2.088-6.242-2.261-8.973-0.448C272.987,314.944,271.863,318.832,273.183,322.133z"/>
<path d="M179.274,367.599c22.665,15.449,49.196,23.614,76.728,23.614c27.53,0,54.06-8.164,76.723-23.612
	c3.445-2.348,4.335-7.045,1.987-10.489c-2.348-3.444-7.044-4.334-10.489-1.986c-20.147,13.731-43.737,20.989-68.22,20.989
	c-24.485,0-48.077-7.258-68.224-20.992c-3.443-2.348-8.141-1.458-10.489,1.986C174.939,360.555,175.828,365.251,179.274,367.599z"/>
<path d="M256.001,139.239c38.389,0,69.62-31.231,69.62-69.62S294.39,0,256.001,0s-69.62,31.231-69.62,69.62
	S217.613,139.239,256.001,139.239z M256.001,15.098c30.064,0,54.522,24.458,54.522,54.522s-24.458,54.522-54.522,54.522
	c-30.064,0-54.522-24.458-54.522-54.522S225.938,15.098,256.001,15.098z"/>
<path d="M264.053,94.281h-16.105c-0.278,0-0.503-0.225-0.503-0.503c0-4.169-3.38-7.549-7.549-7.549c-4.169,0-7.549,3.38-7.549,7.549
	c0,8.603,6.999,15.602,15.602,15.602h0.503v0.503c0,4.169,3.38,7.549,7.549,7.549c4.17,0,7.549-3.38,7.549-7.549v-0.503h0.503
	c8.603,0,15.602-6.999,15.602-15.602V77.673c0-8.603-6.999-15.602-15.602-15.602h-16.105c-0.278,0-0.503-0.225-0.503-0.503V45.463
	c0-0.278,0.225-0.503,0.503-0.503h16.105c0.277,0,0.503,0.225,0.503,0.503c0,4.169,3.379,7.549,7.549,7.549
	c4.17,0,7.549-3.38,7.549-7.549c0-8.603-6.999-15.602-15.602-15.602h-0.503v-0.503c0-4.169-3.379-7.549-7.549-7.549
	c-4.169,0-7.549,3.38-7.549,7.549v0.503h-0.503c-8.603,0-15.602,6.999-15.602,15.602v16.105c0,8.603,6.999,15.602,15.602,15.602
	h16.105c0.277,0,0.503,0.225,0.503,0.503v16.105C264.557,94.054,264.331,94.281,264.053,94.281z"/>
<path d="M489.521,231.172h-8.556v-8.556c0-4.169-3.379-7.549-7.549-7.549c-4.17,0-7.549,3.38-7.549,7.549v8.556h-8.556
	c-4.17,0-7.549,3.38-7.549,7.549c0,4.169,3.379,7.549,7.549,7.549h8.556v8.556c0,4.169,3.379,7.549,7.549,7.549
	c4.17,0,7.549-3.38,7.549-7.549v-8.556h8.556c4.17,0,7.549-3.38,7.549-7.549C497.07,234.552,493.691,231.172,489.521,231.172z"/>
<path d="M360.682,44.96h8.556v8.556c0,4.169,3.379,7.549,7.549,7.549c4.17,0,7.549-3.38,7.549-7.549V44.96h8.556
	c4.17,0,7.549-3.38,7.549-7.549s-3.379-7.549-7.549-7.549h-8.556v-8.556c0-4.169-3.379-7.549-7.549-7.549
	c-4.17,0-7.549,3.38-7.549,7.549v8.556h-8.556c-4.17,0-7.549,3.38-7.549,7.549S356.513,44.96,360.682,44.96z"/>
<path d="M54.691,182.857h-8.556v-8.556c0-4.169-3.38-7.549-7.549-7.549s-7.549,3.38-7.549,7.549v8.556h-8.556
	c-4.169,0-7.549,3.38-7.549,7.549c0,4.169,3.38,7.549,7.549,7.549h8.556v8.556c0,4.169,3.38,7.549,7.549,7.549
	s7.549-3.38,7.549-7.549v-8.556h8.556c4.169,0,7.549-3.38,7.549-7.549C62.24,186.237,58.86,182.857,54.691,182.857z"/>
<g>
</g>
<g>
</g>
<g>
</g>
<g>
</g>
<g>
</g>
<g>
</g>
<g>
</g>
<g>
</g>
<g>
</g>
<g>
</g>
<g>
</g>
<g>
</g>
<g>
</g>
<g>
</g>
<g>
</g>
</svg>
