<?xml version="1.0" encoding="iso-8859-1"?>
<!-- Generator: Adobe Illustrator 19.0.0, SVG Export Plug-In . SVG Version: 6.00 Build 0)  -->
<svg version="1.1" id="Capa_1" xmlns="http://www.w3.org/2000/svg" xmlns:xlink="http://www.w3.org/1999/xlink" x="0px" y="0px"
	 viewBox="0 0 512 512" style="enable-background:new 0 0 512 512;" xml:space="preserve">
<g>
	<g>
		<path d="M263.07,236.665c-1.86-1.86-4.44-2.93-7.07-2.93c-2.63,0-5.21,1.07-7.07,2.93s-2.93,4.44-2.93,7.07
			c0.001,2.63,1.07,5.21,2.93,7.07s4.44,2.93,7.07,2.93c2.63,0,5.21-1.07,7.07-2.93s2.93-4.44,2.93-7.07
			S264.93,238.525,263.07,236.665z"/>
	</g>
</g>
<g>
	<g>
		<path d="M126.301,310.085c-1.86-1.86-4.44-2.92-7.07-2.92c-2.63,0-5.21,1.06-7.07,2.92c-1.86,1.87-2.93,4.44-2.93,7.07
			c0,2.63,1.07,5.21,2.93,7.08c1.861,1.86,4.44,2.92,7.07,2.92c2.64,0,5.21-1.06,7.07-2.92c1.87-1.87,2.93-4.45,2.93-7.08
			C129.231,314.525,128.171,311.955,126.301,310.085z"/>
	</g>
</g>
<g>
	<g>
		<path d="M340.311,354.204l-15.474-8.934c-4.782-2.76-10.898-1.123-13.66,3.66c-2.762,4.783-1.123,10.899,3.66,13.66l15.474,8.934
			c1.575,0.909,3.294,1.341,4.991,1.341c3.456,0,6.817-1.793,8.669-5.001C346.733,363.081,345.094,356.965,340.311,354.204z"/>
	</g>
</g>
<g>
	<g>
		<path d="M200.824,348.931c-2.762-4.783-8.877-6.422-13.66-3.66l-15.474,8.934c-4.783,2.761-6.422,8.877-3.66,13.66
			c1.852,3.207,5.213,5.001,8.669,5.001c1.696,0,3.416-0.432,4.991-1.341l15.474-8.934
			C201.946,359.83,203.585,353.714,200.824,348.931z"/>
	</g>
</g>
<g>
	<g>
		<path d="M511.657,456.735l-12.343-46.064c-1.43-5.334-6.909-8.501-12.248-7.071c-5.334,1.429-8.5,6.913-7.071,12.248l6.048,22.572
			l-83.277-48.081V238.112c0-3.573-1.906-6.874-5-8.66L266,153.377V61.018l16.777,16.778c1.953,1.953,4.512,2.929,7.071,2.929
			c2.559,0,5.119-0.976,7.071-2.929c3.905-3.905,3.905-10.237,0-14.143l-33.722-33.722c-3.905-3.905-10.237-3.905-14.143,0
			l-33.722,33.722c-3.905,3.905-3.905,10.237,0,14.143s10.237,3.905,14.143,0l16.523-16.524v92.105l-131.767,76.075
			c-3.094,1.786-5,5.087-5,8.66v40.837c0,5.523,4.477,10,10,10s10-4.477,10-10v-23.51l106.702,61.673l-11.336,6.545
			c-4.783,2.761-6.422,8.877-3.66,13.66c1.852,3.208,5.213,5.001,8.669,5.001c1.696,0,3.416-0.432,4.991-1.341l11.401-6.582v123.284
			l-106.701-61.603l0.153-0.088c0.327-0.189,0.636-0.396,0.933-0.615l3.868-2.233c4.783-2.761,6.422-8.877,3.66-13.66
			c-2.762-4.783-8.877-6.422-13.66-3.66l-5.02,2.898v-26.717c0-5.523-4.477-10-10-10s-10,4.477-10,10v38.34l-83.277,48.081
			l6.048-22.572c1.43-5.335-1.736-10.818-7.071-12.248c-5.335-1.429-10.819,1.736-12.248,7.071l-12.34,46.063
			c-1.43,5.335,1.736,10.818,7.071,12.248l46.064,12.343c0.867,0.232,1.738,0.343,2.595,0.343c4.415,0,8.456-2.947,9.653-7.414
			c1.43-5.335-1.736-10.818-7.071-12.248l-22.919-6.141l83.563-48.246L251,483.658c1.547,0.893,3.273,1.34,5,1.34
			c1.727,0,3.453-0.447,5-1.34l131.701-76.037l83.563,48.246l-22.919,6.141c-5.334,1.429-8.5,6.913-7.071,12.248
			c1.197,4.468,5.237,7.414,9.653,7.414c0.856,0,1.728-0.111,2.595-0.343l46.064-12.343
			C509.92,467.553,513.086,462.07,511.657,456.735z M256.001,276.962c-5.523,0-10,4.477-10,10v12.868l-106.772-61.713
			l106.772-61.645v25.4c0,5.523,4.477,10,10,10c5.523,0,10-4.477,10-10v-25.4l106.772,61.645L266.001,299.83v-12.868
			C266.001,281.439,261.524,276.962,256.001,276.962z M382.768,378.715l-5.02-2.898c-4.784-2.76-10.898-1.122-13.66,3.66
			c-2.762,4.783-1.123,10.899,3.66,13.66l3.868,2.233c0.297,0.219,0.606,0.426,0.933,0.615l0.153,0.088l-106.701,61.605V334.394
			l11.401,6.582c1.575,0.909,3.294,1.341,4.991,1.341c3.456,0,6.817-1.793,8.669-5.001c2.762-4.783,1.123-10.899-3.66-13.66
			l-11.336-6.545l106.702-61.673V378.715z"/>
	</g>
</g>
<g>
</g>
<g>
</g>
<g>
</g>
<g>
</g>
<g>
</g>
<g>
</g>
<g>
</g>
<g>
</g>
<g>
</g>
<g>
</g>
<g>
</g>
<g>
</g>
<g>
</g>
<g>
</g>
<g>
</g>
</svg>
