<svg height="512pt" viewBox="-59 0 512 512.00448" width="512pt" xmlns="http://www.w3.org/2000/svg"><path d="m374.894531 136.425781c0 44.207031-35.839843 80.042969-80.046875 80.042969-44.207031 0-80.042968-35.835938-80.042968-80.042969s35.835937-80.046875 80.042968-80.046875c44.207032 0 80.046875 35.839844 80.046875 80.046875zm0 0" fill="#fa0"/><path d="m374.894531 136.429688c0 44.199218-35.839843 80.039062-80.050781 80.039062-32.445312 0-60.382812-19.308594-72.941406-47.058594 14.671875 17.054688 36.425781 27.859375 60.699218 27.859375 44.210938 0 80.039063-35.839843 80.039063-80.050781 0-11.765625-2.535156-22.941406-7.109375-33 12.070312 14.019531 19.363281 32.261719 19.363281 52.210938zm0 0" fill="#ff9500"/><path d="m341.5 136.425781c0 25.765625-20.886719 46.648438-46.652344 46.648438-25.761718 0-46.648437-20.882813-46.648437-46.648438s20.886719-46.652343 46.648437-46.652343c25.765625 0 46.652344 20.886718 46.652344 46.652343zm0 0" fill="#ffcd6b"/><path d="m341.496094 136.421875c0 25.765625-20.882813 46.652344-46.644532 46.652344-13.835937 0-26.265624-6.023438-34.800781-15.589844 5.558594 2.347656 11.671875 3.636719 18.085938 3.636719 25.765625 0 46.652343-20.886719 46.652343-46.652344 0-11.921875-4.472656-22.804688-11.839843-31.050781 16.777343 7.070312 28.546875 23.660156 28.546875 43.003906zm0 0" fill="#ffc143"/><path d="m377.476562 332.15625c-4.449218-13.65625-10.84375-26.367188-18.796874-37.972656-23.527344-34.324219-60.695313-58.984375-101.488282-69.875-39.433594-10.53125-81.789062-10.367188-120.910156 0-40.796875 10.890625-77.964844 35.546875-101.492188 69.875-7.953124 11.605468-14.347656 24.316406-18.796874 37.972656-14.929688 45.84375-12.808594 105.195312 27.847656 137.53125 21.054687 16.746094 46.238281 26.542969 72.632812 30.953125 40.085938 6.695313 79.90625 4.15625 120.269532 2.574219 39.925781-1.5625 80.730468-7.949219 112.890624-33.53125 40.652344-32.332032 42.777344-91.683594 27.84375-137.527344zm0 0" fill="#f38dc5"/><path d="m349.632812 469.679688c-44.796874 35.628906-101.195312 33.339843-154.929687 34.410156-18.445313.371094-36.851563.601562-54.875-.710938 7.386719-.011718 14.8125-.140625 22.238281-.289062 53.734375-1.074219 110.132813 1.21875 154.929688-34.410156 40.65625-32.328126 42.777344-91.679688 27.84375-137.527344-4.453125-13.652344-10.847656-26.363282-18.796875-37.972656-23.527344-34.328126-60.699219-58.980469-101.496094-69.878907-12.027344-3.210937-24.328125-5.433593-36.730469-6.65625 23.3125-.890625 46.820313 1.632813 69.371094 7.65625 40.792969 10.902344 77.964844 35.550781 101.496094 69.882813 7.945312 11.609375 14.339844 24.320312 18.792968 37.96875 14.933594 45.851562 12.8125 105.199218-27.84375 137.527344zm0 0" fill="#ee74b8"/><path d="m361.78125 248.558594c-35.246094-23.339844-73.683594-42.769532-114.742188-52.65625-.023437-.007813-.042968-.011719-.0625-.015625-2.179687-.527344-2.824218-3.335938-1.046874-4.703125 8.371093-6.429688 13.644531-16.691406 13.191406-28.167969-.699219-17.585937-16.277344-32.464844-33.878906-32.402344-9.839844.039063-18.683594 4.285157-24.832032 11.03125-1.972656 2.160157-5.382812 2.160157-7.351562 0-6.148438-6.746093-14.988282-10.992187-24.824219-11.03125-17.660156-.066406-33.246094 14.871094-33.890625 32.515625-.5 13.761719 7.234375 25.761719 18.664062 31.480469-12.445312 2.550781-24.746093 6.085937-36.890624 10.511719-17.0625 6.214844-33.585938 13.882812-49.546876 22.535156-9.53125 5.164062-18.867187 10.6875-28.015624 16.507812-.789063.503907-3.464844 2.382813-6.914063 4.820313-11.722656 8.273437-12.679687 25.308594-1.960937 34.84375 9.691406 4.847656 24.75 3.554687 33.507812-2.828125 24.683594-17.984375 71.988281-44.996094 133.546875-45.066406 66.105469.078125 115.769531 31.214844 138.644531 48.890625 8.472656 6.550781 20.40625 6.125 28.40625-.992188.179688-.15625.355469-.3125.53125-.472656 10.804688-9.609375 9.519532-26.816406-2.535156-34.800781zm0 0" fill="#e6f2ec"/><path d="m361.453125 248.34375c-35.148437-23.242188-73.480469-42.585938-114.414063-52.445312-.023437-.003907-.042968-.011719-.066406-.015626-2.179687-.519531-2.820312-3.335937-1.042968-4.699218 8.378906-6.433594 13.65625-16.710938 13.1875-28.199219-.738282-18.199219-16.152344-32.691406-34.363282-32.367187-9.082031.164062-17.285156 3.914062-23.265625 9.894531 17.523438 1.230469 31.367188 15.84375 31.367188 33.6875 0 5.136719-1.128907 10.472656-3.527344 15.039062-8.15625 15.53125.871094 25.53125 16.988281 27.695313 11.019532 1.476562 21.691406 4.507812 31.980469 8.703125 20.296875 8.273437 38.675781 20.46875 56.875 32.515625 10.296875 6.816406 12.839844 20.285156 6.816406 30.175781 7.375 2.441406 15.710938.910156 21.796875-4.496094l.238282-.21875c10.953124-9.738281 9.660156-27.183593-2.570313-35.269531zm0 0" fill="#d5e2db"/><path d="m384.613281 329.832031c-4.363281-13.390625-10.636719-26.226562-18.628906-38.203125.96875-.675781 1.90625-1.402344 2.804687-2.203125l.515626-.457031c6.886718-6.125 10.460937-14.910156 9.804687-24.101562-.65625-9.226563-5.464844-17.453126-13.1875-22.566407-13.640625-9.035156-27.015625-17-40.207031-23.964843 33.085937-12.507813 56.683594-44.496094 56.683594-81.910157 0-48.273437-39.273438-87.550781-87.550782-87.550781-15.597656 0-30.917968 4.15625-44.296875 12.015625-3.574219 2.101563-4.765625 6.703125-2.667969 10.277344 2.101563 3.574219 6.703126 4.769531 10.273438 2.667969 11.078125-6.507813 23.765625-9.949219 36.691406-9.949219 40 0 72.539063 32.542969 72.539063 72.539062 0 36.515625-27.128907 66.792969-62.285157 71.789063-16.148437-7.324219-32.085937-13.132813-47.96875-17.46875 2.582032-3.113282 4.675782-6.589844 6.242188-10.289063 8.875 6.367188 19.742188 10.128907 31.472656 10.128907 29.863282 0 54.15625-24.296876 54.15625-54.160157 0-29.859375-24.292968-54.152343-54.15625-54.152343-26.480468 0-48.570312 19.109374-53.230468 44.257812-5.019532-2.191406-10.515626-3.421875-16.253907-3.421875-.046875 0-.097656 0-.144531 0-.566406.003906-1.128906.023437-1.695312.046875 1.859374-10.082031 5.839843-19.652344 11.78125-28.175781 2.375-3.398438 1.539062-8.078125-1.859376-10.449219-3.398437-2.371094-8.082031-1.535156-10.453124 1.863281-8.472657 12.148438-13.632813 26.050781-15.183594 40.65625-4.054688 1.90625-7.804688 4.46875-11.074219 7.613281-7.621094-7.332031-17.855469-11.511718-28.476563-11.554687-.050781 0-.101562 0-.152343 0-21.96875 0-40.464844 17.800781-41.265625 39.75-.375 10.273437 3.113281 20.230469 9.566406 27.976563-7.609375 2.046874-15.265625 4.46875-22.859375 7.234374-16.46875 6-33.476563 13.734376-50.554687 22.988282-9.386719 5.089844-18.964844 10.734375-28.46875 16.777344-.796876.507812-2.550782 1.730468-7.214844 5.023437-7.46875 5.269531-12.046875 13.53125-12.558594 22.65625-.511719 9.128906 3.109375 17.851563 9.941406 23.925781.492188.441406 1.039063.8125 1.632813 1.105469.46875.234375.960937.4375 1.445312.648437-8.128906 12.105469-14.5 25.089844-18.914062 38.640626-8.335938 25.59375-10.898438 53.042968-7.207031 77.285156 4.375 28.734375 17.347656 52.402344 37.515624 68.445312 21.074219 16.761719 45.773438 27.355469 75.507813 32.386719 18.410156 3.117187 36.921875 3.933594 56.523437 3.933594 61.277344 0 132.25 4.125 183.109376-36.324219 13.457031-10.703125 23.65625-24.628906 30.304687-41.386719 1.527344-3.851562-.355469-8.214843-4.210937-9.742187-3.851563-1.53125-8.214844.351562-9.746094 4.207031-5.667969 14.289063-14.316406 26.121094-25.695313 35.171875-26.269531 20.894531-59.472656 28.367188-92.265625 30.933594-31.140625 2.441406-63.085937 2.757812-94.167968 2.039062-12.554688-.289062-25.125-1.101562-37.546876-3.011718-26.246093-4.042969-51.535156-13.3125-72.46875-29.957032-24.730468-19.671875-46.21875-65.347656-25.378906-129.332031 4.121094-12.652344 10.125-24.785156 17.851563-36.054687.96875-1.410157 1.972656-2.804688 2.996093-4.1875 8.570313-.09375 17.28125-2.546876 23.628907-7.167969 22.320312-16.265625 68.777343-43.558594 129.117187-43.628907 63.457032.074219 111.230469 29.679688 134.0625 47.324219 5.367188 4.144531 11.777344 6.199219 18.179688 6.199219.808594 0 1.617187-.035156 2.421875-.101562.367187.519531.738281 1.039062 1.097656 1.5625 7.722656 11.269531 13.730469 23.402343 17.851563 36.054687 6.5625 20.148437 9.28125 42.054687 7.65625 61.679687-.34375 4.132813 2.730468 7.757813 6.859374 8.101563 4.125.335937 7.757813-2.730469 8.101563-6.859375 1.816406-21.886719-1.070313-45.253906-8.339844-67.574219zm-89.765625-232.550781c21.585938 0 39.144532 17.558594 39.144532 39.144531 0 21.582031-17.558594 39.144531-39.144532 39.144531-11.078125 0-21.085937-4.632812-28.214844-12.054687-.003906-.289063 0-.574219-.015624-.859375-.410157-9.984375-4.503907-19.09375-10.90625-26.054688 0-.058593-.007813-.117187-.007813-.175781 0-21.585937 17.5625-39.144531 39.144531-39.144531zm64.480469 180.46875-.53125.472656c-5.300781 4.71875-13.222656 4.996094-18.828125.664063-24.34375-18.8125-75.316406-50.378907-143.242188-50.457031-64.605468.074218-114.167968 29.167968-137.960937 46.503906-6.253906 4.558594-17.5625 5.683594-24.816406 2.601562-2.917969-2.964844-4.445313-6.984375-4.210938-11.179687.253907-4.523438 2.527344-8.621094 6.230469-11.238281 1.90625-1.34375 5.867188-4.144532 6.617188-4.617188 9.207031-5.855469 18.480468-11.324219 27.5625-16.242188 16.429687-8.90625 32.761718-16.335937 48.539062-22.082031 9.855469-3.59375 19.8125-6.566406 29.601562-8.847656 3.894532-.90625 6.835938-3.898437 7.675782-7.804687.835937-3.894532-.613282-7.816407-3.78125-10.234376-6.785156-5.175781-10.648438-13.355468-10.339844-21.886718.511719-13.960938 12.28125-25.28125 26.261719-25.28125h.097656c7.324219.027344 14.363281 3.15625 19.308594 8.578125 2.359375 2.589843 5.71875 4.070312 9.222656 4.070312s6.863281-1.480469 9.222656-4.070312c4.949219-5.425781 11.988281-8.550781 19.316407-8.578125h.089843c13.914063 0 25.683594 11.265625 26.257813 25.152344.351562 8.539062-3.484375 16.746093-10.257813 21.957031-3.125 2.398437-4.554687 6.289062-3.734375 10.152343.824219 3.882813 3.734375 6.875 7.652344 7.816407 36.390625 8.765625 73.140625 25.648437 112.355469 51.621093 3.804687 2.519532 6.175781 6.570313 6.5 11.113282.320312 4.503906-1.433594 8.8125-4.808594 11.816406zm0 0"/><path d="m294.851562 25.023438c4.144532 0 7.503907-3.359376 7.503907-7.503907v-10.011719c0-4.148437-3.359375-7.507812-7.503907-7.507812-4.148437 0-7.507812 3.359375-7.507812 7.507812v10.011719c0 4.144531 3.359375 7.503907 7.507812 7.503907zm0 0"/><path d="m267.507812 41.539062c4.144532 0 7.503907-3.359374 7.503907-7.507812v-12.386719c0-4.144531-3.359375-7.503906-7.503907-7.503906-4.148437 0-7.507812 3.359375-7.507812 7.503906v12.386719c0 4.148438 3.359375 7.507812 7.507812 7.507812zm0 0"/><path d="m322.191406 41.539062c4.144532 0 7.507813-3.359374 7.507813-7.507812v-12.386719c0-4.144531-3.363281-7.503906-7.507813-7.503906-4.144531 0-7.507812 3.359375-7.507812 7.503906v12.386719c0 4.148438 3.363281 7.507812 7.507812 7.507812zm0 0"/></svg>