<?xml version="1.0" encoding="iso-8859-1"?>
<!-- Generator: Adobe Illustrator 19.0.0, SVG Export Plug-In . SVG Version: 6.00 Build 0)  -->
<svg version="1.1" id="Capa_1" xmlns="http://www.w3.org/2000/svg" xmlns:xlink="http://www.w3.org/1999/xlink" x="0px" y="0px"
	 viewBox="0 0 480 480" style="enable-background:new 0 0 480 480;" xml:space="preserve">
<g>
	<g>
		<path d="M335.595,232c-3.956-46.641-40.954-83.639-87.595-87.595V96h-16v48.405c-46.641,3.956-83.639,40.954-87.595,87.595H96v16
			h48.405c3.956,46.641,40.954,83.639,87.595,87.595V384h16v-48.405c46.641-3.956,83.639-40.954,87.595-87.595H384v-16H335.595z
			 M240,320c-44.183,0-80-35.817-80-80c0-44.183,35.817-80,80-80s80,35.817,80,80C319.949,284.162,284.162,319.949,240,320z"/>
	</g>
</g>
<g>
	<g>
		<path d="M277.656,389.656l-11.312-11.312L240,404.688l-26.344-26.344l-11.312,11.313l32,32c3.122,3.124,8.186,3.125,11.31,0.003
			c0.001-0.001,0.002-0.002,0.003-0.003h0L277.656,389.656z"/>
	</g>
</g>
<g>
	<g>
		<path d="M245.656,58.344c-3.122-3.124-8.186-3.125-11.309-0.003c-0.001,0.001-0.002,0.002-0.003,0.003l-32,32l11.312,11.312
			L240,75.313l26.344,26.344l11.312-11.313L245.656,58.344z"/>
	</g>
</g>
<g>
	<g>
		<path d="M101.656,213.656l-11.312-11.312l-32,32c-3.124,3.122-3.125,8.186-0.003,11.309c0.001,0.001,0.002,0.002,0.003,0.003
			l32,32l11.312-11.312L75.313,240L101.656,213.656z"/>
	</g>
</g>
<g>
	<g>
		<path d="M421.659,234.347c-0.001-0.001-0.002-0.002-0.003-0.003l-32-32l-11.312,11.313L404.688,240l-26.344,26.344l11.312,11.312
			l32-32C424.78,242.534,424.781,237.47,421.659,234.347z"/>
	</g>
</g>
<g>
	<g>
		<path d="M240,208c-17.673,0-32,14.327-32,32s14.327,32,32,32c17.673,0,32-14.327,32-32C271.981,222.335,257.665,208.019,240,208z
			 M240,256c-8.837,0-16-7.163-16-16s7.163-16,16-16s16,7.163,16,16C255.99,248.832,248.832,255.99,240,256z"/>
	</g>
</g>
<g>
	<g>
		<path d="M165.625,451.355l-5.313,15.094c10.316,3.628,20.87,6.544,31.586,8.727l3.188-15.68
			C185.09,457.462,175.247,454.742,165.625,451.355z"/>
	</g>
</g>
<g>
	<g>
		<path d="M111.398,423.426l-9.203,13.094c8.945,6.282,18.308,11.946,28.023,16.953l7.328-14.219
			C128.482,434.577,119.745,429.289,111.398,423.426z"/>
	</g>
</g>
<g>
	<g>
		<path d="M66.68,381.93l-12.36,10.156c6.933,8.439,14.424,16.403,22.422,23.84l10.891-11.727
			C80.159,397.252,73.159,389.813,66.68,381.93z"/>
	</g>
</g>
<g>
	<g>
		<path d="M34.812,329.996l-14.641,6.438c4.395,9.995,9.464,19.68,15.173,28.988l13.64-8.375
			C43.652,348.362,38.917,339.324,34.812,329.996z"/>
	</g>
</g>
<g>
	<g>
		<path d="M18.172,271.355l-15.844,2.227c1.523,10.819,3.781,21.523,6.758,32.035l15.391-4.367
			C21.7,291.439,19.594,281.452,18.172,271.355z"/>
	</g>
</g>
<g>
	<g>
		<path d="M460.023,143.996l-14.656,6.406c4.083,9.34,7.516,18.952,10.273,28.766l15.406-4.328
			C468.087,164.317,464.403,154.012,460.023,143.996z"/>
	</g>
</g>
<g>
	<g>
		<path d="M425.969,88.285l-12.391,10.117c6.446,7.902,12.353,16.23,17.68,24.926l13.64-8.352
			C439.201,105.661,432.876,96.743,425.969,88.285z"/>
	</g>
</g>
<g>
	<g>
		<path d="M378.18,43.75l-9.219,13.07c8.331,5.888,16.258,12.328,23.727,19.277l10.906-11.703
			C395.598,56.947,387.107,50.05,378.18,43.75z"/>
	</g>
</g>
<g>
	<g>
		<path d="M320.141,13.707l-5.344,15.086c9.616,3.407,18.987,7.47,28.047,12.16l7.359-14.211
			C340.491,21.717,330.447,17.362,320.141,13.707z"/>
	</g>
</g>
<g>
	<g>
		<path d="M256.125,0.531L255.063,16.5c10.175,0.674,20.292,2.042,30.281,4.094l3.219-15.672
			C277.862,2.722,267.025,1.255,256.125,0.531z"/>
	</g>
</g>
<g>
	<g>
		<path d="M0,240h16C16.139,116.346,116.346,16.139,240,16V0C107.514,0.15,0.15,107.514,0,240z"/>
	</g>
</g>
<g>
	<g>
		<path d="M464,240c-0.139,123.654-100.346,223.861-224,224v16c132.486-0.15,239.85-107.514,240-240H464z"/>
	</g>
</g>
<g>
</g>
<g>
</g>
<g>
</g>
<g>
</g>
<g>
</g>
<g>
</g>
<g>
</g>
<g>
</g>
<g>
</g>
<g>
</g>
<g>
</g>
<g>
</g>
<g>
</g>
<g>
</g>
<g>
</g>
</svg>
