<svg version="1.1" id="Capa_1"
	xmlns="http://www.w3.org/2000/svg"
	xmlns:xlink="http://www.w3.org/1999/xlink" x="0px" y="0px"
	 viewBox="0 0 512.001 512.001" style="enable-background:new 0 0 512.001 512.001;" xml:space="preserve">
	
	<style>
		.arrow-1,
		.arrow-2,
		.arrow-3{
			transform: translateY(-100%);
			animation: slidedown 1s infinite;
		}

		.coin{
			transform: translateY(-100%);
			animation: coin 1s infinite;
		}

		.arrow-2{
			animation-delay: .25s;
		}

		.arrow-3{
			animation-delay: .5s;
		}

		.pig{
			transform-origin: center;
			transform: rotate(-2deg);
			animation: shake .1s alternate infinite;
		}

		@keyframes shake{
			to{
				transform: rotate(2deg);
			}
		}

		@keyframes slidedown{
			to{
				transform: translateY(100%);
			}
		}
		
		@keyframes coin{
			40%{
				transform: translateY(0%);
			}

			100%{
				transform: translateY(50%);

			}
		}

	</style>

	<g class="coin">
			<circle style="fill:#FDE180;" cx="256.002" cy="87.665" r="80.151"/>
			<circle style="fill:#FCDA60;" cx="256.002" cy="87.665" r="56.106"/>
			<path d="M256.001,175.33c48.339,0,87.665-39.326,87.665-87.665S304.34,0,256.001,0s-87.665,39.326-87.665,87.665
			S207.662,175.33,256.001,175.33z M256.001,15.028c40.052,0,72.637,32.584,72.637,72.637s-32.584,72.637-72.637,72.637
			s-72.637-32.584-72.637-72.637S215.949,15.028,256.001,15.028z"/>
			<path d="M258.605,116.619h-7.815c-4.474,0-8.115-3.641-8.115-8.115c0-4.15-3.363-7.514-7.514-7.514s-7.514,3.364-7.514,7.514
			c0,11.984,9.155,21.868,20.839,23.028v8.23c0,4.15,3.363,7.514,7.514,7.514c4.151,0,7.514-3.364,7.514-7.514v-8.59
			c11.856-2.299,20.839-12.754,20.839-25.274c0-14.198-11.551-25.748-25.748-25.748h-5.209c-5.911,0-10.72-4.809-10.72-10.72
			s4.809-10.72,10.72-10.72h7.815c4.474,0,8.115,3.641,8.115,8.115v5.21c0,4.15,3.363,7.514,7.514,7.514s7.514-3.364,7.514-7.514
			v-5.21c0-11.984-9.155-21.868-20.839-23.028v-8.23c0-4.15-3.363-7.514-7.514-7.514c-4.151,0-7.514,3.364-7.514,7.514v8.59
			c-11.856,2.299-20.839,12.754-20.839,25.274c0,14.198,11.551,25.748,25.748,25.748h5.209c5.911,0,10.72,4.809,10.72,10.72
			S264.517,116.619,258.605,116.619z"/>
		</g>
	
		<path class="arrow-1" d="M412.134,73.398l-12.363,8.243V31.559c0-4.15-3.363-7.514-7.514-7.514s-7.514,3.364-7.514,7.514v50.08l-12.363-8.243
		c-3.453-2.301-8.118-1.37-10.42,2.084c-2.302,3.452-1.369,8.118,2.084,10.42l23.998,15.998c2.479,1.708,5.952,1.708,8.431,0
		l23.998-15.998c3.453-2.301,4.386-6.967,2.084-10.42C420.252,72.028,415.587,71.097,412.134,73.398z"/>
		<path class="arrow-2" d="M67.485,193.624l-12.363,8.243v-50.081c0-4.15-3.363-7.514-7.514-7.514s-7.514,3.364-7.514,7.514v50.08l-12.363-8.243
		c-3.451-2.301-8.117-1.37-10.42,2.084c-2.302,3.452-1.369,8.118,2.084,10.42l23.998,15.998c2.479,1.708,5.952,1.708,8.431,0
		l23.998-15.998c3.452-2.301,4.386-6.967,2.084-10.42C75.604,192.256,70.939,191.323,67.485,193.624z"/>
		<path class="arrow-3" d="M494.69,291.889c-2.301-3.453-6.967-4.385-10.42-2.084l-12.363,8.242v-50.081c0-4.15-3.363-7.514-7.514-7.514
		c-4.151,0-7.514,3.364-7.514,7.514v50.08l-12.363-8.242c-3.451-2.302-8.118-1.369-10.42,2.084s-1.369,8.118,2.084,10.42
		l23.998,15.998c2.479,1.708,5.952,1.708,8.431,0l23.998-15.998C496.058,300.007,496.992,295.342,494.69,291.889z"/>
	
	<g class="pig">
		<g>
			<polygon style="fill:#FEAF9B;" points="360.197,504.449 368.212,504.449 384.242,424.298 320.122,424.298 	"/>
			<polygon style="fill:#FEAF9B;" points="151.805,504.449 143.79,504.449 127.76,424.298 191.88,424.298 	"/>
		</g>
		<path style="fill:#FD947A;" d="M384.242,199.876l-59.985,15.279c-20.533-9.77-43.713-15.279-68.256-15.279
		s-47.724,5.508-68.256,15.279l-59.985-15.279l-2.814,70.769c-13.481,21.527-21.231,46.656-21.231,73.502
		c0,79.679,68.181,144.271,152.286,144.271s152.286-64.592,152.286-144.271c0-26.846-7.75-51.975-21.231-73.502L384.242,199.876z"/>
		<path style="fill:#FD7959;" d="M288.061,480.404c-84.105,0-152.286-64.592-152.286-144.271c0-26.846,7.75-51.975,21.231-73.502
		l2.177-54.751l-31.423-8.004l-2.814,70.769c-13.481,21.527-21.231,46.656-21.231,73.502c0,79.679,68.181,144.271,152.286,144.271
		c19.294,0,37.746-3.407,54.733-9.609C303.336,479.857,295.766,480.404,288.061,480.404z"/>
		<path d="M394.485,268.378l-2.735-68.8c-0.186-4.7-4.801-8.146-9.364-6.983L325,207.211c-21.62-9.856-44.817-14.849-68.999-14.849
		s-47.379,4.993-68.999,14.849l-57.387-14.616c-4.562-1.164-9.176,2.284-9.364,6.983l-2.735,68.8
		c-13.951,22.964-21.315,49.118-21.315,75.77c0,29.335,8.817,56.748,24.05,79.988c-0.011,0.539,0.031,1.086,0.14,1.636l16.03,80.151
		c0.576,2.879,2.851,5.213,5.717,5.858c1.524,0.343,3.215,0.183,4.765,0.183c1.614,0,3.23,0.026,4.844,0
		c2.854-0.046,5.486-1.569,6.779-4.154l16.444-32.888c23.773,13.34,51.474,21.01,81.03,21.01c29.556,0,57.258-7.67,81.031-21.012
		l16.444,32.888c1.292,2.585,3.924,4.108,6.779,4.154c1.614,0.026,3.23,0,4.844,0c1.55,0,3.241,0.16,4.765-0.183
		c2.865-0.644,5.141-2.979,5.717-5.858l16.03-80.151c0.11-0.55,0.152-1.097,0.14-1.636c15.235-23.241,24.05-50.653,24.05-79.988
		C415.802,317.496,408.437,291.342,394.485,268.378z M149.153,492.95l-8.84-44.197c6.683,6.665,14.001,12.746,21.851,18.174
		L149.153,492.95z M111.229,344.147c0-24.495,6.946-48.532,20.086-69.514c0.694-1.109,1.088-2.382,1.14-3.69l2.445-61.495
		l50.991,12.987c1.701,0.434,3.5,0.257,5.084-0.497c20.288-9.654,42.167-14.549,65.027-14.549s44.738,4.895,65.027,14.549
		c1.584,0.752,3.383,0.929,5.084,0.497l50.991-12.987l2.445,61.495c0.052,1.308,0.445,2.581,1.14,3.69
		c13.14,20.98,20.086,45.019,20.086,69.514c0,75.408-64.944,136.757-144.772,136.757S111.229,419.555,111.229,344.147z
		M362.848,492.95l-13.011-26.023c7.851-5.428,15.169-11.51,21.851-18.174L362.848,492.95z"/>
		<ellipse style="fill:#FEAF9B;" cx="256.002" cy="384.223" rx="56.106" ry="48.09"/>
		<path d="M299.373,352.887c-3.366,2.427-4.128,7.122-1.701,10.49c4.529,6.282,6.921,13.49,6.921,20.846
		c0,22.374-21.798,40.576-48.591,40.576c-26.793,0-48.591-18.202-48.591-40.576s21.798-40.576,48.591-40.576
		c4.903,0,9.74,0.609,14.377,1.81c4.022,1.044,8.118-1.373,9.158-5.389c1.041-4.018-1.372-8.118-5.389-9.159
		c-5.866-1.52-11.972-2.291-18.145-2.291c-35.08,0-63.62,24.944-63.62,55.605s28.54,55.605,63.62,55.605
		c35.08,0,63.62-24.944,63.62-55.605c0-10.53-3.374-20.777-9.758-29.635C307.435,351.222,302.741,350.46,299.373,352.887z"/>
		<circle cx="231.957" cy="384.223" r="7.514"/>
		<circle cx="280.548" cy="384.223" r="7.514"/>
		<path d="M320.122,296.558c-12.982,0-23.544,10.562-23.544,23.544c0,4.15,3.363,7.514,7.514,7.514c4.151,0,7.514-3.364,7.514-7.514
		c0-4.616,3.9-8.516,8.516-8.516c4.616,0,8.516,3.9,8.516,8.516c0,4.15,3.363,7.514,7.514,7.514c4.151,0,7.514-3.364,7.514-7.514
		C343.666,307.12,333.104,296.558,320.122,296.558z"/>
		<path d="M200.396,320.102c0,4.15,3.363,7.514,7.514,7.514c4.151,0,7.514-3.364,7.514-7.514c0-12.982-10.562-23.544-23.544-23.544
		c-12.982,0-23.544,10.562-23.544,23.544c0,4.15,3.363,7.514,7.514,7.514c4.151,0,7.514-3.364,7.514-7.514
		c0-4.616,3.9-8.516,8.516-8.516S200.396,315.486,200.396,320.102z"/>
	</g>

	
</svg>
