<?xml version="1.0" encoding="iso-8859-1"?>
<!-- Generator: Adobe Illustrator 19.0.0, SVG Export Plug-In . SVG Version: 6.00 Build 0)  -->
<svg version="1.1" id="Layer_1" xmlns="http://www.w3.org/2000/svg" xmlns:xlink="http://www.w3.org/1999/xlink" x="0px" y="0px"
	 viewBox="0 0 512.001 512.001" style="enable-background:new 0 0 512.001 512.001;" xml:space="preserve">
<path style="fill:#2D527C;" d="M340.41,225.225c-3.649,0-7.298-1.393-10.082-4.176l-40.65-40.65
	c-2.673-2.675-4.176-6.301-4.176-10.082c0-3.781,1.503-7.407,4.176-10.082L417.439,32.472c5.568-5.567,14.597-5.567,20.166,0
	c5.568,5.568,5.568,14.597,0,20.166l-117.68,117.678l20.485,20.485l34.001-34.001c5.568-5.567,14.595-5.565,20.165,0
	c5.568,5.568,5.568,14.597,0,20.166l-44.083,44.082C347.709,223.831,344.06,225.225,340.41,225.225z"/>
<polygon style="fill:#CEE8FA;" points="349.852,48.611 497.713,14.275 463.376,162.136 "/>
<g>
	<path style="fill:#2D527C;" d="M463.378,176.394c-3.73,0-7.372-1.464-10.084-4.176L339.769,58.693
		c-3.662-3.663-5.05-9.024-3.626-14.003c1.424-4.981,5.437-8.796,10.483-9.968L494.487,0.384c4.795-1.115,9.826,0.325,13.308,3.807
		c3.481,3.481,4.921,8.512,3.806,13.308L477.264,165.36c-1.172,5.046-4.988,9.06-9.968,10.484
		C466.004,176.215,464.685,176.394,463.378,176.394z M378.095,56.69l77.202,77.202l23.35-100.552L378.095,56.69z"/>
	<path style="fill:#2D527C;" d="M84.45,483.706c-3.649,0-7.299-1.393-10.082-4.176c-5.568-5.568-5.568-14.597,0-20.166
		l117.68-117.678L171.561,321.2l-34.001,34.001c-5.567,5.569-14.595,5.567-20.165,0c-5.568-5.568-5.568-14.597,0-20.166
		l44.084-44.082c5.567-5.567,14.595-5.567,20.165,0l40.65,40.65c2.673,2.675,4.176,6.301,4.176,10.082
		c0,3.781-1.503,7.407-4.176,10.082L94.532,479.529C91.749,482.314,88.098,483.706,84.45,483.706z"/>
</g>
<polygon style="fill:#CEE8FA;" points="162.119,463.391 14.258,497.728 48.595,349.867 "/>
<g>
	<path style="fill:#2D527C;" d="M14.258,511.986c-3.739,0-7.377-1.472-10.082-4.176c-3.481-3.481-4.921-8.512-3.806-13.308
		l34.336-147.861c1.172-5.046,4.988-9.06,9.968-10.484c4.982-1.423,10.342-0.034,14.003,3.626l113.525,113.525
		c3.662,3.663,5.05,9.024,3.626,14.003c-1.424,4.981-5.437,8.796-10.483,9.968L17.484,511.617
		C16.414,511.865,15.332,511.986,14.258,511.986z M56.674,378.112l-23.35,100.552l100.552-23.35L56.674,378.112z"/>
	<path style="fill:#2D527C;" d="M469.432,441.796c-3.65,0-7.298-1.393-10.082-4.176L341.671,319.942l-20.485,20.484l34,34
		c5.568,5.568,5.568,14.597,0,20.166c-5.568,5.567-14.597,5.567-20.166,0l-44.082-44.082c-2.673-2.675-4.176-6.301-4.176-10.082
		c0-3.781,1.503-7.407,4.176-10.082l40.65-40.65c5.568-5.567,14.597-5.565,20.165,0l127.76,127.762
		c5.568,5.568,5.568,14.597,0,20.166C476.73,440.403,473.081,441.796,469.432,441.796z"/>
</g>
<polygon style="fill:#CEE8FA;" points="463.376,349.867 497.713,497.728 349.852,463.391 "/>
<g>
	<path style="fill:#2D527C;" d="M497.713,511.986c-1.074,0-2.156-0.121-3.225-0.369l-147.861-34.336
		c-5.046-1.172-9.059-4.988-10.483-9.968c-1.424-4.979-0.036-10.34,3.626-14.003l113.525-113.525
		c3.663-3.66,9.026-5.048,14.003-3.626c4.981,1.424,8.796,5.437,9.968,10.484l34.124,146.944c0.398,1.312,0.612,2.702,0.612,4.142
		c0,7.832-6.317,14.19-14.135,14.259C497.815,511.986,497.762,511.986,497.713,511.986z M378.095,455.312l100.552,23.35
		l-23.35-100.552L378.095,455.312z"/>
	<path style="fill:#2D527C;" d="M170.299,226.485c-3.65,0-7.298-1.392-10.082-4.176L32.457,94.55
		c-5.568-5.568-5.568-14.597,0-20.166c5.568-5.567,14.597-5.567,20.166,0l117.678,117.678l20.485-20.485l-34-34
		c-5.568-5.568-5.568-14.597,0-20.166c5.568-5.567,14.597-5.567,20.166,0l44.082,44.082c2.673,2.675,4.176,6.301,4.176,10.082
		s-1.503,7.407-4.176,10.082l-40.65,40.65C177.598,225.092,173.948,226.485,170.299,226.485z"/>
</g>
<polygon style="fill:#CEE8FA;" points="48.595,162.136 14.258,14.275 162.119,48.611 "/>
<path style="fill:#2D527C;" d="M48.593,176.394c-1.308,0-2.626-0.18-3.92-0.55c-4.981-1.424-8.796-5.437-9.968-10.484L0.37,17.499
	c-1.114-4.795,0.325-9.827,3.806-13.308c3.482-3.481,8.514-4.918,13.308-3.807L165.345,34.72c5.046,1.172,9.059,4.988,10.483,9.968
	c1.424,4.979,0.036,10.34-3.626,14.003L58.677,172.217C55.966,174.93,52.323,176.394,48.593,176.394z M33.324,33.34l23.35,100.552
	l77.202-77.202L33.324,33.34z"/>
<g>
</g>
<g>
</g>
<g>
</g>
<g>
</g>
<g>
</g>
<g>
</g>
<g>
</g>
<g>
</g>
<g>
</g>
<g>
</g>
<g>
</g>
<g>
</g>
<g>
</g>
<g>
</g>
<g>
</g>
</svg>
