<?xml version="1.0" encoding="iso-8859-1"?>
<!-- Generator: Adobe Illustrator 19.0.0, SVG Export Plug-In . SVG Version: 6.00 Build 0)  -->
<svg version="1.1" id="Layer_1" xmlns="http://www.w3.org/2000/svg" xmlns:xlink="http://www.w3.org/1999/xlink" x="0px" y="0px"
	 viewBox="0 0 512.001 512.001" style="enable-background:new 0 0 512.001 512.001;" xml:space="preserve">
<path style="fill:#D81B60;" d="M469.333,324.267c-3.413,0-6.485-2.048-7.851-5.12c-14.336-33.109-33.963-50.432-61.696-54.699
	c-2.475-0.427-4.608-1.792-5.888-3.84c-1.365-2.048-1.707-4.608-1.024-6.912l10.923-38.4l-49.408,30.891
	c-3.243,2.048-7.424,1.621-10.24-0.939c-28.587-26.112-81.493-40.448-148.907-40.448c-98.304,0-178.176,53.589-178.176,119.467
	c0,25.003,7.595,45.397,23.381,62.464c0.939,1.109,1.707,2.475,1.963,3.84L66.56,494.934H128v-34.133
	c0-2.816,1.365-5.461,3.669-6.997c2.304-1.621,5.291-1.963,7.851-1.024c38.485,14.592,78.848,17.237,123.307,8.192
	c3.243-0.683,6.571,0.597,8.533,3.243l23.04,30.72h46.933v-42.667c0-4.352,3.243-7.936,7.509-8.448
	c83.627-9.899,146.432-50.261,146.091-93.867c0-0.085,0-0.085,0-0.085v-25.6H469.333z M272.555,246.017
	c-1.28,3.413-4.608,5.547-8.021,5.547c-1.024,0-2.048-0.171-2.987-0.597c-42.496-15.957-82.347-15.957-121.856-0.085
	c-4.352,1.792-9.301-0.341-11.093-4.693c-1.707-4.352,0.341-9.301,4.779-11.093c43.605-17.579,87.467-17.579,134.144-0.085
	C271.957,236.63,274.176,241.579,272.555,246.017z M416.427,303.787c-1.707,2.219-4.267,3.413-6.827,3.413
	c-1.792,0-3.584-0.512-5.12-1.707c-3.755-2.816-4.608-8.192-1.707-11.947c2.816-3.84,8.107-4.608,11.861-1.792l0.085,0.085
	C418.475,294.657,419.243,300.033,416.427,303.787z"/>
<path style="fill:#AD1457;" d="M272.555,254.55c-1.28,3.413-4.608,5.547-8.021,5.547c-1.024,0-2.048-0.171-2.987-0.597
	c-42.496-15.957-82.347-15.957-121.856-0.085c-4.352,1.792-9.301-0.341-11.093-4.693c-1.707-4.352,0.341-9.301,4.779-11.093
	c43.605-17.579,87.467-17.579,134.144-0.085C271.957,245.163,274.176,250.113,272.555,254.55z"/>
<path d="M213.333,128.001c0,4.693-3.84,8.533-8.533,8.533c-25.344,0-46.336-18.517-50.432-42.667H153.6
	c-4.693,0-8.533-3.84-8.533-8.533s3.84-8.533,8.533-8.533h0.768c4.096-24.149,25.088-42.667,50.432-42.667
	c4.693,0,8.533,3.84,8.533,8.533s-3.84,8.533-8.533,8.533c-15.872,0-29.099,10.923-32.939,25.6h15.872
	c4.693,0,8.533,3.84,8.533,8.533s-3.84,8.533-8.533,8.533h-15.872c3.84,14.677,17.067,25.6,32.939,25.6
	C209.493,119.467,213.333,123.307,213.333,128.001z"/>
<path d="M196.267,0.001c-47.019,0-85.333,38.315-85.333,85.333s38.315,85.333,85.333,85.333S281.6,132.353,281.6,85.334
	S243.285,0.001,196.267,0.001z M196.267,153.601c-37.632,0-68.267-30.635-68.267-68.267s30.635-68.267,68.267-68.267
	s68.267,30.635,68.267,68.267S233.899,153.601,196.267,153.601z"/>
<path style="fill:#FFC107;" d="M196.267,17.067C158.635,17.067,128,47.702,128,85.334s30.635,68.267,68.267,68.267
	s68.267-30.635,68.267-68.267S233.899,17.067,196.267,17.067z M187.733,76.801c4.693,0,8.533,3.84,8.533,8.533
	s-3.84,8.533-8.533,8.533h-15.872c3.84,14.677,17.067,25.6,32.939,25.6c4.693,0,8.533,3.84,8.533,8.533
	c0,4.693-3.84,8.533-8.533,8.533c-25.344,0-46.336-18.517-50.432-42.667H153.6c-4.693,0-8.533-3.84-8.533-8.533
	s3.84-8.533,8.533-8.533h0.768c4.096-24.149,25.088-42.667,50.432-42.667c4.693,0,8.533,3.84,8.533,8.533s-3.84,8.533-8.533,8.533
	c-15.872,0-29.099,10.923-32.939,25.6H187.733z"/>
<path d="M272.555,246.017c-1.28,3.413-4.608,5.547-8.021,5.547c-1.024,0-2.048-0.171-2.987-0.597
	c-42.496-15.957-82.347-15.957-121.856-0.085c-4.352,1.792-9.301-0.341-11.093-4.693c-1.707-4.352,0.341-9.301,4.779-11.093
	c43.605-17.579,87.467-17.579,134.144-0.085C271.957,236.63,274.176,241.579,272.555,246.017z"/>
<path d="M503.467,307.201h-28.672c-14.933-31.659-35.669-50.603-62.976-57.685l14.507-50.944c1.024-3.328-0.256-6.997-3.072-9.131
	c-2.816-2.133-6.656-2.304-9.643-0.427l-62.976,39.339c-41.131-33.451-106.667-40.619-155.392-40.619
	c-37.717,0-72.96,7.509-102.827,20.565c-4.352-10.411-13.995-18.944-28.331-24.832c-20.224-8.448-46.336-9.899-59.392-3.328
	C1.792,181.505,0,184.491,0,187.734c0,13.824,0,42.667,25.6,42.667c4.693,0,8.533-3.84,8.533-8.533s-3.84-8.533-8.533-8.533
	c-5.717,0-8.021-4.864-8.448-19.456c9.643-1.877,26.539-0.427,40.448,5.376c10.325,4.267,17.152,10.069,19.456,16.469
	C30.293,240.641,0,280.065,0,324.267c0,28.245,8.875,52.565,26.283,72.363l25.173,108.8c0.853,3.84,4.267,6.571,8.277,6.571h76.8
	c4.693,0,8.533-3.84,8.533-8.533v-30.635c36.523,11.605,74.581,13.483,115.883,5.888l22.357,29.867
	c1.621,2.133,4.181,3.413,6.827,3.413h59.733c4.693,0,8.533-3.84,8.533-8.533v-43.691c89.771-12.629,153.941-58.197,153.6-109.909
	v-34.133C512,311.041,508.16,307.201,503.467,307.201z M494.933,349.867c0,0,0,0,0,0.085c0.341,43.605-62.464,83.968-146.091,93.867
	c-4.267,0.512-7.509,4.096-7.509,8.448v42.667H294.4l-23.04-30.72c-1.963-2.645-5.291-3.925-8.533-3.243
	c-44.459,9.045-84.821,6.4-123.307-8.192c-2.56-0.939-5.547-0.597-7.851,1.024c-2.304,1.536-3.669,4.181-3.669,6.997v34.133H66.56
	L42.411,390.571c-0.256-1.365-1.024-2.731-1.963-3.84c-15.787-17.067-23.381-37.461-23.381-62.464
	c0-65.877,79.872-119.467,178.176-119.467c67.413,0,120.32,14.336,148.907,40.448c2.816,2.56,6.997,2.987,10.24,0.939l49.408-30.891
	l-10.923,38.4c-0.683,2.304-0.341,4.864,1.024,6.912c1.28,2.048,3.413,3.413,5.888,3.84c27.733,4.267,47.36,21.589,61.696,54.699
	c1.365,3.072,4.437,5.12,7.851,5.12h25.6V349.867z"/>
<path d="M416.427,303.787c-1.707,2.219-4.267,3.413-6.827,3.413c-1.792,0-3.584-0.512-5.12-1.707
	c-3.755-2.816-4.608-8.192-1.707-11.947c2.816-3.84,8.107-4.608,11.861-1.792l0.085,0.085
	C418.475,294.657,419.243,300.033,416.427,303.787z"/>
<path style="fill:#F9A825;" d="M240.043,33.025C249.993,44.886,256,60.152,256,76.801c0,37.632-30.635,68.267-68.267,68.267
	c-16.649,0-31.915-6.016-43.776-15.957c12.535,14.95,31.326,24.491,52.309,24.491c37.632,0,68.267-30.635,68.267-68.267
	C264.533,64.351,254.993,45.56,240.043,33.025z"/>
<g>
	<path style="fill:#AD1457;" d="M348.843,425.157c-4.267,0.512-7.509,4.096-7.509,8.448v18.662c0-4.352,3.243-7.936,7.509-8.448
		c83.627-9.899,146.432-50.261,146.091-93.867c0-0.085,0-0.085,0-0.085V331.29C495.275,374.887,432.469,415.25,348.843,425.157z"/>
	<path style="fill:#AD1457;" d="M271.36,445.543c-1.963-2.645-5.291-3.925-8.533-3.243c-44.459,9.045-84.821,6.4-123.307-8.192
		c-2.56-0.939-5.547-0.597-7.851,1.024c-2.304,1.536-3.669,4.181-3.669,6.997v18.671c0-2.816,1.365-5.461,3.669-6.997
		c2.304-1.621,5.291-1.963,7.851-1.024c38.485,14.592,78.848,17.237,123.307,8.192c3.243-0.683,6.571,0.597,8.533,3.243l23.04,30.72
		h46.933v-18.671H294.4L271.36,445.543z"/>
	<polygon style="fill:#AD1457;" points="66.56,494.934 128,494.934 128,476.272 62.242,476.272 	"/>
</g>
<g>
</g>
<g>
</g>
<g>
</g>
<g>
</g>
<g>
</g>
<g>
</g>
<g>
</g>
<g>
</g>
<g>
</g>
<g>
</g>
<g>
</g>
<g>
</g>
<g>
</g>
<g>
</g>
<g>
</g>
</svg>
