<?xml version="1.0" encoding="iso-8859-1"?>
<!-- Generator: Adobe Illustrator 19.0.0, SVG Export Plug-In . SVG Version: 6.00 Build 0)  -->
<svg version="1.1" id="Layer_1" xmlns="http://www.w3.org/2000/svg" xmlns:xlink="http://www.w3.org/1999/xlink" x="0px" y="0px"
	 viewBox="0 0 512 512" style="enable-background:new 0 0 512 512;" xml:space="preserve">
<circle style="fill:#FC5649;" cx="255.624" cy="332.476" r="171.92"/>
<path style="fill:#FFFFFF;" d="M153.286,249.045l-13.159-7.624c1.12-1.935,2.321-3.862,3.565-5.724l12.648,8.445
	C155.274,245.738,154.247,247.387,153.286,249.045z M165.001,233.13l-11.19-10.299c12.583-13.671,28.651-23.871,46.464-29.499
	l4.581,14.502C189.57,212.663,175.789,221.41,165.001,233.13z"/>
<g>
	<path style="fill:#FC5649;" d="M182.636,176.784c-32.811,15.409-59.945,40.879-77.446,72.424c-1.692-1.319-3.33-2.756-4.894-4.312
		c-3.165-3.165-5.385-7.113-6.85-11.534c-8.25-24.788,6.85-64.365,6.85-64.365s43.753-16.691,68.058-5.385
		c2.938,1.356,5.585,3.129,7.841,5.385C178.626,171.436,180.763,174.047,182.636,176.784z"/>
	<path style="fill:#FC5649;" d="M417.804,233.364c-1.465,4.42-3.684,8.368-6.85,11.534c-1.564,1.555-3.202,2.993-4.894,4.312
		c-17.501-31.546-44.635-57.016-77.446-72.424c1.874-2.738,4.012-5.349,6.44-7.786c2.256-2.256,4.903-4.03,7.841-5.385
		c24.305-11.307,68.059,5.385,68.059,5.385S426.053,208.576,417.804,233.364z"/>
	<path style="fill:#FC5649;" d="M160.369,475.606l-6.277,14.309c-0.373,0.846-0.792,1.656-1.246,2.437
		c-4.056,6.868-11.471,11.171-19.576,11.171h-24.06c-26.252,0-43.863-26.962-33.32-51.003l12.79-29.154l9.524-21.713
		C111.495,431.844,133.208,457.487,160.369,475.606z"/>
	<path style="fill:#FC5649;" d="M402.785,503.523h-24.06c-8.242,0-15.764-4.457-19.775-11.525c-0.382-0.673-0.728-1.365-1.046-2.083
		l-6.44-14.691c27.152-18.266,48.792-44.072,61.955-74.426l9.561,21.804l13.125,29.918
		C446.648,476.561,429.037,503.523,402.785,503.523z"/>
</g>
<g>
	<path style="fill:#C13A36;" d="M160.369,475.606l-6.277,14.309c-0.373,0.846-0.792,1.656-1.246,2.437
		c-26.716-17.238-48.856-40.988-64.165-68.986l9.524-21.713C111.495,431.844,133.208,457.487,160.369,475.606z"/>
	<path style="fill:#C13A36;" d="M176.196,168.998c2.429,2.437,4.566,5.048,6.44,7.786c-32.811,15.409-59.945,40.879-77.446,72.424
		c-1.692-1.319-3.33-2.756-4.894-4.312c-3.165-3.165-5.385-7.113-6.85-11.534c18.111-29.527,44.053-53.75,74.908-69.751
		C171.293,164.968,173.941,166.742,176.196,168.998z"/>
	<path style="fill:#C13A36;" d="M328.614,176.784c1.874-2.738,4.012-5.349,6.44-7.786c2.256-2.256,4.903-4.03,7.841-5.385
		c30.855,16,56.798,40.224,74.908,69.751c-1.465,4.42-3.684,8.368-6.85,11.534c-1.564,1.555-3.202,2.993-4.894,4.312
		C388.559,217.663,361.425,192.194,328.614,176.784z"/>
	<path style="fill:#C13A36;" d="M422.979,422.603c-15.209,28.135-37.313,52.03-64.028,69.396c-0.382-0.673-0.728-1.365-1.046-2.083
		l-6.44-14.691c27.152-18.266,48.792-44.072,61.955-74.426L422.979,422.603z"/>
	<path style="fill:#C13A36;" d="M426.434,312.937c-6.522,57.64-41.54,106.642-90.629,132.575
		c19.318-15.489,29.887-35.742,29.887-57.574c0-23.534-12.272-45.236-34.556-61.111c-20.415-14.542-47.243-22.55-75.544-22.55
		s-55.13,8.008-75.544,22.55c-22.284,15.874-34.557,37.577-34.557,61.111c0,21.782,10.521,41.991,29.754,57.466
		c-48.983-25.96-83.914-74.907-90.426-132.467c-0.726,6.414-1.112,12.931-1.112,19.539c0,94.949,76.971,171.919,171.92,171.919
		s171.919-76.97,171.919-171.918C427.545,325.868,427.16,319.351,426.434,312.937z"/>
</g>
<ellipse style="fill:#FC5649;" cx="255.594" cy="387.934" rx="91.907" ry="65.465"/>
<g>
	<circle style="fill:#78909C;" cx="220.342" cy="389.201" r="18.885"/>
	<circle style="fill:#78909C;" cx="290.846" cy="389.201" r="18.885"/>
</g>
<circle style="fill:#FFC853;" cx="255.584" cy="63.366" r="55.762"/>
<path d="M324.991,335.452c-18.636-13.274-43.282-20.585-69.4-20.585s-50.764,7.311-69.4,20.585
	c-19.417,13.832-30.112,32.472-30.112,52.487s10.694,38.654,30.112,52.487c18.636,13.276,43.282,20.586,69.4,20.586
	c26.117,0,50.764-7.311,69.4-20.586c19.416-13.832,30.111-32.472,30.111-52.487C355.101,367.924,344.407,349.283,324.991,335.452z
	 M255.591,445.803c-46.486,0-84.304-25.958-84.304-57.864s37.819-57.864,84.304-57.864s84.303,25.958,84.303,57.864
	S302.075,445.803,255.591,445.803z"/>
<path d="M220.338,362.709c-14.606,0-26.489,11.883-26.489,26.489c0,14.606,11.883,26.489,26.489,26.489s26.489-11.883,26.489-26.489
	C246.827,374.592,234.944,362.709,220.338,362.709z M220.338,400.478c-6.221,0-11.281-5.061-11.281-11.281
	c0-6.22,5.06-11.281,11.281-11.281s11.281,5.061,11.281,11.281C231.619,395.417,226.559,400.478,220.338,400.478z"/>
<path d="M290.843,362.709c-14.606,0-26.489,11.883-26.489,26.489c0,14.606,11.883,26.489,26.489,26.489
	c14.606,0,26.489-11.883,26.489-26.489C317.332,374.592,305.449,362.709,290.843,362.709z M290.843,400.478
	c-6.221,0-11.281-5.061-11.281-11.281c0-6.22,5.06-11.281,11.281-11.281s11.281,5.061,11.281,11.281
	C302.124,395.417,297.064,400.478,290.843,400.478z"/>
<rect x="191.041" y="271.208" width="13.645" height="15.208"/>
<rect x="304.746" y="271.208" width="13.645" height="15.208"/>
<path d="M255.583,126.733c34.941,0,63.366-28.427,63.366-63.366S290.524,0,255.583,0s-63.366,28.427-63.366,63.366
	S220.642,126.733,255.583,126.733z M255.583,15.208c26.554,0,48.158,21.604,48.158,48.158s-21.604,48.158-48.158,48.158
	s-48.158-21.604-48.158-48.158S229.028,15.208,255.583,15.208z"/>
<path d="M249.715,76.257c-0.734-0.388-1.412-0.772-2.031-1.15c-0.618-0.378-1.191-0.698-1.715-0.961
	c-0.525-0.263-1.039-0.393-1.543-0.393c-0.483,0-0.94,0.122-1.37,0.362c-0.431,0.241-0.773,0.54-1.024,0.897l-3.022,4.377
	c1.511,1.407,3.364,2.609,5.557,3.605c2.194,0.998,4.497,1.696,6.913,2.095l-0.631,6.487h3.59c0.734,0,1.332-0.236,1.796-0.709
	c0.461-0.472,0.724-1.003,0.787-1.59l0.378-3.936c2.434-0.189,4.597-0.709,6.488-1.558c1.889-0.85,3.484-1.947,4.785-3.29
	c1.302-1.343,2.288-2.892,2.959-4.645c0.671-1.753,1.009-3.627,1.009-5.621c0-1.322-0.169-2.503-0.504-3.542
	c-0.337-1.039-0.803-1.957-1.402-2.755c-0.598-0.798-1.302-1.49-2.111-2.078c-0.808-0.588-1.68-1.107-2.613-1.559
	c-0.935-0.451-1.905-0.851-2.914-1.196c-1.007-0.347-2.016-0.666-3.022-0.96l1.102-11.179c0.651,0.189,1.264,0.41,1.842,0.661
	c0.577,0.251,1.117,0.488,1.621,0.709c0.505,0.22,0.966,0.404,1.386,0.551c0.419,0.147,0.797,0.221,1.133,0.221
	c0.504,0,0.939-0.121,1.306-0.362c0.368-0.241,0.73-0.625,1.087-1.15l2.394-3.496c-1.135-1.071-2.519-2.073-4.157-3.007
	c-1.637-0.934-3.59-1.611-5.857-2.031l0.629-6.204h-3.589c-0.735,0-1.334,0.239-1.796,0.72c-0.462,0.481-0.724,1.019-0.787,1.616
	l-0.347,3.553c-2.435,0-4.598,0.407-6.486,1.217c-1.89,0.812-3.48,1.849-4.771,3.113c-1.291,1.264-2.272,2.687-2.944,4.266
	c-0.671,1.581-1.007,3.203-1.007,4.867c0,2.255,0.373,4.129,1.117,5.626c0.745,1.496,1.716,2.728,2.914,3.698
	c1.197,0.969,2.54,1.738,4.03,2.307c1.491,0.569,2.992,1.065,4.504,1.485l-1.165,11.903
	C251.289,76.965,250.45,76.645,249.715,76.257z M259.193,67.014c1.259,0.483,2.272,1.082,3.039,1.795
	c0.766,0.715,1.15,1.669,1.15,2.865c0,3.212-1.731,5.123-5.196,5.731L259.193,67.014z M251.211,54.309
	c-0.788-0.766-1.181-1.769-1.181-3.007c0-0.546,0.095-1.066,0.283-1.559c0.19-0.493,0.489-0.939,0.898-1.338
	c0.409-0.398,0.944-0.74,1.605-1.024c0.661-0.283,1.475-0.499,2.44-0.645l-0.944,9.51C253.032,55.72,251.998,55.074,251.211,54.309z
	"/>
<path d="M443.068,449.469l-21.395-48.78c8.677-21.043,13.476-44.076,13.476-68.213c0-29.313-7.064-57.006-19.576-81.471
	c0.253-0.244,0.511-0.487,0.755-0.733c10.515-10.514,13.877-28.14,9.992-52.388c-2.713-16.935-8.039-31.007-8.263-31.597
	l-1.214-3.18l-3.182-1.214c-0.59-0.225-14.662-5.551-31.596-8.263c-24.248-3.883-41.873-0.522-52.389,9.992
	c-1.207,1.206-2.36,2.48-3.471,3.798c-21.676-9.305-45.537-14.468-70.581-14.468s-48.905,5.163-70.581,14.467
	c-1.111-1.317-2.265-2.591-3.471-3.798c-10.514-10.514-28.139-13.876-52.388-9.991c-16.935,2.713-31.007,8.038-31.597,8.263
	l-3.182,1.214l-1.214,3.18c-0.225,0.591-5.551,14.662-8.262,31.598c-3.884,24.249-0.523,41.873,9.991,52.387
	c0.245,0.245,0.504,0.489,0.756,0.733c-12.512,24.464-19.576,52.158-19.576,81.471c0,24.474,4.929,47.816,13.837,69.095
	l-21.007,47.898c-5.987,13.651-4.695,29.251,3.458,41.729c8.152,12.479,21.92,19.928,36.825,19.928h24.055
	c12.045,0,22.953-7.127,27.789-18.157l2.756-6.282C190.695,502.753,222.099,512,255.625,512c33.774,0,65.394-9.38,92.405-25.664
	l2.91,6.634c4.837,11.03,15.744,18.157,27.789,18.157h24.055c14.906,0,28.673-7.45,36.825-19.928
	C447.763,478.72,449.055,463.12,443.068,449.469z M340.527,174.28c13.387-13.18,48.435-4.842,64.485,0.659
	c5.198,15.164,12.923,47.273,2.654,62.069c-5.634-8.934-12.08-17.344-19.188-25.153c-0.017-0.019-0.034-0.038-0.051-0.056
	c-2.735-3.002-5.568-5.912-8.497-8.724c-0.229-0.22-0.455-0.442-0.685-0.661c-0.851-0.809-1.71-1.607-2.577-2.4
	c-0.327-0.3-0.659-0.597-0.989-0.895c-2.935-2.645-5.954-5.194-9.055-7.643c-0.104-0.083-0.208-0.166-0.313-0.249
	c-1.096-0.862-2.203-1.709-3.318-2.546c-0.019-0.014-0.039-0.028-0.058-0.043C355.826,183.313,348.343,178.493,340.527,174.28z
	 M103.584,237.008c-10.268-14.791-2.544-46.901,2.653-62.065c15.49-5.265,51.175-13.765,64.486-0.663
	c-7.806,4.209-15.28,9.021-22.381,14.339c-0.033,0.025-0.068,0.051-0.101,0.076c-1.105,0.829-2.202,1.669-3.289,2.522
	c-0.121,0.094-0.239,0.192-0.36,0.286c-3.083,2.436-6.086,4.973-9.007,7.604c-0.338,0.304-0.675,0.608-1.01,0.915
	c-0.862,0.788-1.717,1.583-2.563,2.387c-0.236,0.225-0.469,0.453-0.704,0.679c-2.925,2.809-5.755,5.716-8.486,8.714
	c-0.015,0.017-0.031,0.033-0.047,0.051C115.666,219.661,109.219,228.073,103.584,237.008z M147.132,486.862
	c-2.413,5.502-7.854,9.057-13.863,9.057h-24.055c-9.898,0-18.68-4.753-24.094-13.039c-5.414-8.286-6.238-18.237-2.263-27.303
	l15.777-35.971c12.846,23.131,30.643,43.142,52.257,58.682L147.132,486.862z M91.31,332.477
	c0-90.605,73.712-164.317,164.315-164.317s164.316,73.712,164.316,164.317c0,90.604-73.712,164.315-164.316,164.315
	S91.31,423.08,91.31,332.477z M426.878,482.88c-5.414,8.286-14.196,13.039-24.094,13.039h-24.055c-6.008,0-11.45-3.555-13.863-9.057
	l-3.938-8.978c21.599-15.657,39.345-35.787,52.105-59.03l16.107,36.724C433.116,464.643,432.292,474.594,426.878,482.88z"/>
<g>
</g>
<g>
</g>
<g>
</g>
<g>
</g>
<g>
</g>
<g>
</g>
<g>
</g>
<g>
</g>
<g>
</g>
<g>
</g>
<g>
</g>
<g>
</g>
<g>
</g>
<g>
</g>
<g>
</g>
</svg>
