<?xml version="1.0" encoding="iso-8859-1"?>
<!-- Generator: Adobe Illustrator 19.0.0, SVG Export Plug-In . SVG Version: 6.00 Build 0)  -->
<svg version="1.1" id="Capa_1" xmlns="http://www.w3.org/2000/svg" xmlns:xlink="http://www.w3.org/1999/xlink" x="0px" y="0px"
	 viewBox="0 0 512.002 512.002" style="enable-background:new 0 0 512.002 512.002;" xml:space="preserve">
<g>
	
		<rect x="311.04" y="427.267" transform="matrix(-0.7682 0.6402 -0.6402 -0.7682 900.7446 592.5341)" style="fill:#FF8C78;" width="64.128" height="64.128"/>
	
		<rect x="96.761" y="427.305" transform="matrix(0.7682 0.6402 -0.6402 0.7682 323.9508 24.005)" style="fill:#FF8C78;" width="64.128" height="64.128"/>
	<path style="fill:#FF8C78;" d="M235.96,141.646c-37.987,0-73.286,10.747-102.621,29.155l-57.701-21.138l12.679,61.113
		c-22.258,27.778-35.766,62.036-36.674,99.209H27.542v56.113l35.586,8.016c26.1,65.538,93.63,112.225,172.832,112.225
		c101.824,0,184.37-77.162,184.37-172.346S337.786,141.646,235.96,141.646z"/>
</g>
<g>
	<path style="fill:#DB6B5E;" d="M235.96,456.416c-79.202,0-146.732-46.688-172.832-112.225l-35.586-8.016v29.922l35.586,8.016
		c26.1,65.538,93.63,112.225,172.832,112.225c101.824,0,184.37-77.162,184.37-172.346c0-5.042-0.245-10.029-0.699-14.961
		C411.519,387.208,332.392,456.416,235.96,456.416z"/>
	<rect x="192.879" y="191.885" style="fill:#DB6B5E;" width="102.205" height="32.064"/>
</g>
<circle style="fill:#D9DCDF;" cx="243.982" cy="55.612" r="48.097"/>
<circle style="fill:#ECEDEF;" cx="243.982" cy="55.612" r="32.064"/>
<path d="M488.349,180.835c-3.551-2.147-8.172-1.011-10.32,2.541c-4.995,8.259-10.874,14.918-17.324,19.745
	c0.507-8.255-1.523-16.64-6.083-23.834c-7.107-11.211-18.966-17.022-31.749-15.54c-10.466,1.212-19.644,9.112-23.382,20.125
	c-4.073,12-0.874,24.622,8.558,33.764c5.464,5.295,13.727,8.59,22.9,9.378c-7.282,6.34-14.884,9.25-21.29,10.494
	c-2.578-5.146-5.41-10.189-8.514-15.099c-16.911-26.745-41.053-49.058-69.817-64.528c-3.657-1.965-8.211-0.596-10.178,3.059
	c-1.966,3.655-0.596,8.212,3.059,10.178c54.655,29.393,88.607,84.139,88.607,142.874c0,90.888-79.337,164.831-176.855,164.831
	c-73.595,0-140.245-43.197-165.85-107.491c-0.917-2.304-2.912-4.006-5.33-4.551l-29.724-6.695v-42.587h16.587
	c4.079,0,7.413-3.255,7.513-7.332c0.84-34.4,12.951-67.144,35.024-94.693c1.401-1.75,1.949-4.032,1.494-6.226l-9.935-47.881
	l45.012,16.489c2.18,0.797,4.611,0.544,6.579-0.691c29.197-18.321,63.301-28.005,98.627-28.005c18.429,0,36.587,2.629,53.968,7.816
	c3.984,1.187,8.163-1.076,9.35-5.053c1.187-3.977-1.075-8.163-5.052-9.35c-18.778-5.602-38.382-8.443-58.266-8.443
	c-36.888,0-72.575,9.796-103.453,28.362l-54.284-19.887c-5.43-1.987-11.118,2.92-9.944,8.583l11.97,57.693
	c-21.228,27.567-33.506,59.717-35.783,93.588H27.542c-4.151,0-7.515,3.365-7.515,7.515v56.113c0,3.514,2.436,6.559,5.864,7.332
	l31.777,7.157c8.935,21.026,21.917,40.067,38.271,56.394l-18.056,21.669c-2.656,3.188-2.226,7.927,0.962,10.584l49.265,41.054
	c3.146,2.622,7.963,2.182,10.584-0.962l24.15-28.98c22.996,8.896,47.724,13.51,73.117,13.51c25.861,0,50.537-4.832,73.073-13.563
	l24.195,29.034c2.62,3.145,7.438,3.584,10.584,0.962l49.265-41.054c3.188-2.657,3.618-7.396,0.962-10.584l-18.123-21.749
	c32.186-32.181,51.929-75.42,51.929-122.907c0-21.434-4.092-42.588-11.938-62.474c11.838-2.99,25.973-10.368,37.412-27.509
	c11.216-3.993,25.531-12.953,37.568-32.854C493.039,187.604,491.9,182.983,488.349,180.835z M131.958,493.929l-37.719-31.432
	l12.77-15.325c5.825,4.947,11.977,9.601,18.477,13.899c7.378,4.878,15.056,9.227,22.982,13.044L131.958,493.929z M339.963,493.929
	l-16.554-19.865c15.082-7.269,29.011-16.355,41.454-26.95l12.818,15.383L339.963,493.929z M443.4,211.272
	c-1.116,0.245-2.24,0.441-3.37,0.586c-9.956,1.29-17.984-1.591-21.519-5.016c-7.432-7.202-5.824-15.085-4.786-18.14
	c1.853-5.458,6.225-9.487,10.879-10.026c0.725-0.084,1.441-0.125,2.15-0.125c6.137,0,11.586,3.122,15.174,8.784
	C445.715,193.306,447.421,202.725,443.4,211.272z"/>
<path d="M76.14,285.936c0,4.15,3.364,7.515,7.515,7.515c4.151,0,7.515-3.365,7.515-7.515c0-4.696,3.821-8.517,8.517-8.517
	c4.696,0,8.517,3.821,8.517,8.517c0,4.15,3.364,7.515,7.515,7.515c4.151,0,7.515-3.365,7.515-7.515
	c0-12.984-10.563-23.547-23.547-23.547S76.14,272.952,76.14,285.936z"/>
<path d="M185.359,191.885v32.064c0,4.15,3.364,7.515,7.515,7.515h102.205c4.151,0,7.515-3.365,7.515-7.515v-32.064
	c0-4.15-3.364-7.515-7.515-7.515H192.874C188.724,184.37,185.359,187.735,185.359,191.885z M200.389,199.4h87.175v17.034h-87.175
	L200.389,199.4L200.389,199.4z"/>
<path d="M243.977,111.223c30.665,0,55.612-24.947,55.612-55.612S274.641,0,243.977,0s-55.612,24.947-55.612,55.612
	S213.313,111.223,243.977,111.223z M243.977,15.03c22.377,0,40.581,18.205,40.581,40.581s-18.205,40.581-40.581,40.581
	s-40.581-18.205-40.581-40.581S221.6,15.03,243.977,15.03z"/>
<path d="M241.6,62.741c2.674,0.89,5.698,0.177,7.691-1.816l16.032-16.032c2.935-2.935,2.935-7.693,0-10.627
	c-2.936-2.935-7.693-2.935-10.628,0l-12.748,12.748l-19.642-6.547c-3.941-1.313-8.194,0.816-9.506,4.754
	c-1.312,3.938,0.815,8.193,4.753,9.506L241.6,62.741z"/>
<path d="M324.138,119.239c4.151,0,7.515-3.365,7.515-7.515V95.692c0-4.15-3.364-7.515-7.515-7.515s-7.515,3.365-7.515,7.515v16.032
	C316.622,115.875,319.987,119.239,324.138,119.239z"/>
<path d="M324.138,79.159c4.151,0,7.515-3.365,7.515-7.515v-8.016c0-4.15-3.364-7.515-7.515-7.515s-7.515,3.365-7.515,7.515v8.016
	C316.622,75.794,319.987,79.159,324.138,79.159z"/>
<path d="M372.234,167.336c4.151,0,7.515-3.365,7.515-7.515v-16.032c0-4.15-3.364-7.515-7.515-7.515
	c-4.151,0-7.515,3.365-7.515,7.515v16.032C364.719,163.971,368.084,167.336,372.234,167.336z"/>
<path d="M372.234,127.256c4.151,0,7.515-3.365,7.515-7.515v-8.016c0-4.15-3.364-7.515-7.515-7.515c-4.151,0-7.515,3.365-7.515,7.515
	v8.016C364.719,123.891,368.084,127.256,372.234,127.256z"/>
<path d="M123.735,143.288c4.151,0,7.515-3.365,7.515-7.515V119.74c0-4.15-3.364-7.515-7.515-7.515c-4.151,0-7.515,3.365-7.515,7.515
	v16.032C116.22,139.923,119.585,143.288,123.735,143.288z"/>
<path d="M123.735,103.207c4.151,0,7.515-3.365,7.515-7.515v-8.016c0-4.15-3.364-7.515-7.515-7.515c-4.151,0-7.515,3.365-7.515,7.515
	v8.016C116.22,99.842,119.585,103.207,123.735,103.207z"/>
<path d="M163.816,95.191c4.151,0,7.515-3.365,7.515-7.515V71.644c0-4.15-3.364-7.515-7.515-7.515c-4.151,0-7.515,3.365-7.515,7.515
	v16.032C156.301,91.826,159.665,95.191,163.816,95.191z"/>
<path d="M163.816,55.111c4.151,0,7.515-3.365,7.515-7.515v-8.016c0-4.15-3.364-7.515-7.515-7.515c-4.151,0-7.515,3.365-7.515,7.515
	v8.016C156.301,51.746,159.665,55.111,163.816,55.111z"/>
<g>
</g>
<g>
</g>
<g>
</g>
<g>
</g>
<g>
</g>
<g>
</g>
<g>
</g>
<g>
</g>
<g>
</g>
<g>
</g>
<g>
</g>
<g>
</g>
<g>
</g>
<g>
</g>
<g>
</g>
</svg>
