<?xml version="1.0" encoding="iso-8859-1"?>
<!-- Generator: Adobe Illustrator 18.0.0, SVG Export Plug-In . SVG Version: 6.00 Build 0)  -->
<!DOCTYPE svg PUBLIC "-//W3C//DTD SVG 1.1//EN" "http://www.w3.org/Graphics/SVG/1.1/DTD/svg11.dtd">
<svg version="1.1" id="Capa_1"
	xmlns="http://www.w3.org/2000/svg"
	xmlns:xlink="http://www.w3.org/1999/xlink" x="0px" y="0px"
	 viewBox="0 0 457.094 457.094" style="enable-background:new 0 0 457.094 457.094;" xml:space="preserve">
	<g>
		<path style="fill:#4479FA;" d="M422.486,138.028c1.28,1.28,2.899,2.083,4.608,2.376l0-101.151c0-4.726-3.831-8.558-8.557-8.558
		H317.392c0.293,1.709,1.09,3.329,2.37,4.608l20.05,20.05l-44.431,44.431c-3.342,3.342-3.342,8.76,0,12.102l50.521,50.521
		c1.671,1.671,3.861,2.506,6.051,2.506c2.19,0,4.38-0.835,6.05-2.506l8.608-8.608l35.823-35.823L422.486,138.028z"/>
		<path style="fill:#2C3D8E;" d="M428.537,20.696c4.726,0,8.557,3.832,8.557,8.558l0,102.724c0,3.461-2.085,6.582-5.283,7.906
		c-1.059,0.438-2.171,0.652-3.273,0.652c-2.227,0-4.416-0.87-6.053-2.507l-20.05-20.05l-44.431,44.431
		c-1.671,1.671-3.861,2.506-6.051,2.506c-2.19,0-4.38-0.835-6.051-2.506l-50.521-50.521c-3.342-3.342-3.342-8.76,0-12.102
		l44.431-44.431l-20.05-20.05c-2.447-2.447-3.18-6.128-1.855-9.326s4.445-5.283,7.906-5.283H428.537 M428.537,0.696H325.813
		c-11.592,0-21.948,6.92-26.384,17.629c-4.436,10.709-2.006,22.925,6.191,31.122l5.908,5.908l-30.289,30.289
		c-11.134,11.134-11.134,29.25-0.001,40.385l50.522,50.522c5.394,5.394,12.565,8.364,20.193,8.364c7.628,0,14.799-2.97,20.193-8.364
		l30.289-30.29l5.908,5.908c5.395,5.394,12.567,8.365,20.195,8.365c3.768,0,7.444-0.732,10.927-2.174
		c10.708-4.435,17.628-14.791,17.628-26.383l0-102.724C457.094,13.507,444.283,0.696,428.537,0.696L428.537,0.696z"/>
		<path style="fill:#4479FA;" d="M34.615,138.028c-1.28,1.28-2.899,2.083-4.608,2.376l0-101.151c0-4.726,3.831-8.558,8.557-8.558
		h101.145c-0.293,1.709-1.09,3.329-2.37,4.608l-20.05,20.05l44.431,44.431c3.342,3.342,3.342,8.76,0,12.102l-50.521,50.521
		c-1.671,1.671-3.861,2.506-6.051,2.506c-2.19,0-4.38-0.835-6.05-2.506l-8.608-8.608l-35.823-35.823L34.615,138.028z"/>
		<path style="fill:#2C3D8E;" d="M28.564,20.696h102.724c3.461,0,6.581,2.085,7.906,5.283s0.592,6.878-1.855,9.326l-20.05,20.05
		l44.431,44.431c3.342,3.342,3.342,8.76,0,12.102l-50.521,50.521c-1.671,1.671-3.861,2.506-6.051,2.506
		c-2.19,0-4.38-0.835-6.051-2.506l-44.431-44.431l-20.05,20.05c-1.637,1.637-3.826,2.507-6.053,2.507
		c-1.102,0-2.214-0.213-3.273-0.652c-3.198-1.324-5.283-4.445-5.283-7.906l0-102.724C20.007,24.527,23.838,20.696,28.564,20.696
		 M28.564,0.696c-15.747,0-28.557,12.811-28.557,28.558l0,102.724c0,11.593,6.92,21.949,17.628,26.383
		c3.483,1.442,7.159,2.174,10.927,2.174c7.629,0,14.8-2.971,20.195-8.365l5.908-5.908l30.289,30.29
		c5.394,5.394,12.565,8.364,20.193,8.364c7.628,0,14.799-2.97,20.193-8.364l50.522-50.522c11.134-11.135,11.133-29.251-0.001-40.385
		l-30.289-30.289l5.908-5.908c8.197-8.196,10.627-20.413,6.191-31.122c-4.436-10.709-14.792-17.629-26.384-17.629H28.564
		L28.564,0.696z"/>
		<g>
			<path style="fill:#4479FA;" d="M421.811,327.211c-3.197-1.324-6.877-0.593-9.324,1.854l-10.052,10.052h0l-10,10l-44.431-44.431
			c-3.342-3.342-8.76-3.342-12.102,0l-2.63,2.63l-37.893,37.893c-3.34,3.342-3.34,8.759,0.002,12.1l44.431,44.431l-20.05,20.05
			c-2.447,2.447-3.18,6.128-1.855,9.326s4.445,5.283,7.906,5.283h101.281l0-101.281
			C427.094,331.656,425.009,328.535,421.811,327.211z"/>
			<path style="fill:#2C3D8E;" d="M351.953,292.179c2.19,0,4.38,0.835,6.051,2.506l44.431,44.431l20.05-20.05
			c1.637-1.637,3.826-2.507,6.053-2.507c1.102,0,2.214,0.213,3.273,0.652c3.198,1.324,5.283,4.445,5.283,7.906l0,102.724
			c0,4.726-3.831,8.558-8.557,8.558H325.813c-3.461,0-6.581-2.085-7.906-5.283s-0.592-6.878,1.855-9.326l20.05-20.05l-44.431-44.431
			c-3.342-3.342-3.342-8.76,0-12.102l50.521-50.521C347.573,293.014,349.763,292.179,351.953,292.179 M351.953,272.179
			c-7.628,0-14.799,2.971-20.193,8.364l-50.521,50.521c-11.135,11.136-11.134,29.253,0,40.387l30.289,30.289l-5.908,5.908
			c-8.196,8.196-10.626,20.412-6.19,31.122c4.436,10.709,14.792,17.629,26.384,17.629h102.724c15.747,0,28.557-12.811,28.557-28.558
			l0-102.724c0-11.593-6.92-21.949-17.631-26.384c-3.48-1.442-7.156-2.173-10.924-2.174c-7.629,0-14.801,2.97-20.196,8.364
			l-5.909,5.909l-30.289-30.289C366.753,275.15,359.581,272.179,351.953,272.179L351.953,272.179z"/>
		</g>
		<g>
			<path style="fill:#4479FA;" d="M35.283,327.211c3.197-1.324,6.877-0.593,9.324,1.854l10.052,10.052h0l10,10l44.431-44.431
			c3.342-3.342,8.76-3.342,12.102,0l2.63,2.63l37.893,37.893c3.34,3.342,3.34,8.759-0.002,12.1l-44.431,44.431l20.05,20.05
			c2.447,2.447,3.18,6.128,1.855,9.326s-4.445,5.283-7.906,5.283H30l0-101.281C30,331.656,32.085,328.535,35.283,327.211z"/>
			<path style="fill:#2C3D8E;" d="M105.141,292.179c2.19,0,4.38,0.835,6.051,2.506l50.521,50.521c3.342,3.342,3.342,8.76,0,12.102
			l-44.431,44.431l20.05,20.05c2.447,2.447,3.18,6.128,1.855,9.326s-4.445,5.283-7.906,5.283H28.557
			c-4.726,0-8.557-3.832-8.557-8.558l0-102.724c0-3.461,2.085-6.582,5.283-7.906c1.059-0.438,2.171-0.652,3.273-0.652
			c2.227,0,4.416,0.87,6.053,2.507l20.05,20.05l44.431-44.431C100.761,293.014,102.951,292.179,105.141,292.179 M105.141,272.179
			c-7.628,0-14.799,2.971-20.193,8.364l-30.289,30.289l-5.909-5.909c-5.394-5.394-12.566-8.364-20.196-8.364
			c-3.767,0-7.443,0.732-10.924,2.174C6.921,303.168,0,313.524,0,325.117L0,427.84c0,15.747,12.811,28.558,28.557,28.558h102.724
			c11.592,0,21.948-6.92,26.384-17.629c4.436-10.709,2.006-22.926-6.19-31.122l-5.908-5.908l30.289-30.289
			c11.134-11.134,11.135-29.251,0-40.387l-50.521-50.521C119.94,275.15,112.769,272.179,105.141,272.179L105.141,272.179z"/>
		</g>
	</g>
	<g></g>
	<g></g>
	<g></g>
	<g></g>
	<g></g>
	<g></g>
	<g></g>
	<g></g>
	<g></g>
	<g></g>
	<g></g>
	<g></g>
	<g></g>
	<g></g>
	<g></g>
</svg>
