<svg version="1.1" id="Layer_1"
	xmlns="http://www.w3.org/2000/svg"
	xmlns:xlink="http://www.w3.org/1999/xlink" x="0px" y="0px"
	 viewBox="0 0 512 512" style="enable-background:new 0 0 512 512;" xml:space="preserve">
	<polygon style="fill:#808080;" points="311.726,376.56 311.726,410.877 200.282,410.877 200.282,376.56 221.607,376.56 
	256.004,376.56 290.39,376.56 "/>
	<polygon style="fill:#B3B3B3;" points="326.736,410.877 326.736,503.446 185.272,503.446 185.272,410.877 200.282,410.877 
	311.726,410.877 "/>
	<g>
		<path style="fill:#F7B239;" d="M256.004,376.56h-34.397l10.634-14.475c3.396-4.627,4.491-10.303,3.02-15.683l-9.95-36.483
		c-2.439-8.936-2.69-18.236-0.741-27.274l5.015-23.228l-4.206-6.975c-6.93-11.534-10.166-24.584-9.323-37.68l3.271-50.752
		l24.231-21.826c7.066-6.371,17.814-6.371,24.892,0l24.219,21.826l3.271,50.752c0.843,13.096-2.382,26.146-9.323,37.68l-4.206,6.975
		l5.026,23.228c1.949,9.038,1.698,18.338-0.741,27.274l-9.961,36.483c-1.459,5.38-0.365,11.055,3.02,15.683l10.634,14.475H256.004z"
		/>
		<path style="fill:#F7B239;" d="M303.428,83.932c5.858,2.485,9.346,8.024,8.719,13.825l-6.941,64.19l-12.537,2.063l-24.219-21.826
		c-7.078-6.371-17.825-6.371-24.892,0l-24.231,21.826l-12.537-2.063l-6.93-64.19c-0.627-5.801,2.861-11.34,8.719-13.825
		l17.609-7.488c7.944-3.374,12.161-11.329,10.075-19.011l-5.345-19.717c-0.501-1.869-0.752-3.761-0.752-5.642
		c0-5.129,1.835-10.166,5.277-14.133c5.425-6.269,12.993-9.391,20.561-9.391s15.136,3.123,20.561,9.391
		c4.696,5.425,6.394,12.833,4.513,19.774l-5.345,19.717c-2.074,7.682,2.131,15.637,10.087,19.011L303.428,83.932z"/>
	</g>
	<path style="fill:#E09B2D;" d="M256.004,8.55c-3.123,0-6.246,3.123-8.48,9.391c-1.425,3.966-2.177,9.004-2.177,14.133
	c0,1.881,0.103,3.773,0.308,5.642l2.2,19.717c0.866,7.682-0.878,15.637-4.149,19.011l-7.272,7.488
	c-2.416,2.485-3.852,8.024-3.59,13.825l2.861,64.19l7.853-19.763l-4.035,72.578c-0.353,13.096,0.992,26.146,3.841,37.68l1.744,6.975
	l-2.074,23.228c-0.798,9.038-0.695,18.338,0.308,27.274l4.103,36.483c0.604,5.38,0.16,11.055-1.242,15.683l-4.388,14.475h-20.208
	l10.634-14.475c3.396-4.627,4.491-10.303,3.02-15.683l-9.95-36.483c-2.439-8.936-2.69-18.236-0.741-27.274l5.015-23.228
	l-4.206-6.975c-6.93-11.534-10.166-24.584-9.323-37.68l3.271-50.752l-12.537-2.063l-6.93-64.19
	c-0.627-5.801,2.861-11.34,8.719-13.825l17.609-7.488c7.944-3.374,12.161-11.329,10.075-19.011l-5.345-19.717
	c-0.501-1.869-0.752-3.761-0.752-5.642c0-5.129,1.835-10.166,5.277-14.133C240.868,11.673,248.436,8.55,256.004,8.55z"/>
	<g>
		<path style="fill:#FFFFFF;" d="M286.777,131.505c-4.722,0-8.548-3.827-8.548-8.548v-19.376c0-4.721,3.826-8.548,8.548-8.548
		s8.548,3.827,8.548,8.548v19.376C295.325,127.678,291.499,131.505,286.777,131.505z"/>
		<path style="fill:#FFFFFF;" d="M301.593,489.382c-4.722,0-8.548-3.827-8.548-8.548v-45.589c0-4.721,3.826-8.548,8.548-8.548
		s8.548,3.827,8.548,8.548v45.589C310.141,485.555,306.315,489.382,301.593,489.382z"/>
		<circle style="fill:#FFFFFF;" cx="260.567" cy="32.918" r="8.548"/>
	</g>

	<path style="fill:#333333;" d="M326.731,402.331h-6.46v-25.768c0-4.721-3.826-8.548-8.548-8.548h-17.001l-8.073-10.993
	c-1.855-2.527-2.446-5.5-1.663-8.371l9.956-36.488c2.779-10.188,3.072-21.018,0.848-31.318l-4.304-19.92l2.455-4.079
	c7.847-13.041,11.488-27.782,10.531-42.631l-2.771-43.027l4.888-0.8c3.793-0.62,6.706-3.696,7.119-7.518l6.934-64.197
	c1.031-9.556-4.543-18.642-13.874-22.609l-17.608-7.485c-4.007-1.703-6.134-5.368-5.173-8.914l5.343-19.716
	c2.627-9.695,0.268-20.016-6.31-27.609C276.226,4.499,266.378,0,256.001,0c-10.377,0-20.227,4.499-27.021,12.341
	c-6.577,7.592-8.937,17.912-6.31,27.608l5.342,19.717c0.961,3.546-1.166,7.211-5.173,8.914l-17.608,7.485
	c-9.33,3.966-14.904,13.052-13.873,22.609l6.933,64.197c0.413,3.822,3.326,6.898,7.119,7.518l4.888,0.8l-2.771,43.028
	c-0.956,14.85,2.685,29.591,10.532,42.631l2.454,4.078l-4.302,19.92c-2.225,10.302-1.932,21.132,0.848,31.319l9.954,36.487
	c0.784,2.871,0.194,5.843-1.663,8.37l-8.073,10.993h-17c-4.722,0-8.548,3.827-8.548,8.548v25.768h-6.46
	c-4.722,0-8.548,3.827-8.548,8.548v92.573c0,4.721,3.826,8.548,8.548,8.548H326.73c4.722,0,8.548-3.827,8.548-8.548v-92.573
	C335.279,406.158,331.452,402.331,326.731,402.331z M208.356,96.839c-0.221-2.047,1.177-4.026,3.564-5.04l17.608-7.485
	c11.886-5.054,18.188-17.299,14.985-29.118l-5.342-19.717c-1.136-4.194-0.117-8.659,2.729-11.942c3.546-4.093,8.685-6.44,14.1-6.44
	c5.416,0,10.556,2.348,14.101,6.44c2.846,3.285,3.866,7.749,2.73,11.943l-5.343,19.717c-3.203,11.82,3.1,24.066,14.986,29.119
	l17.608,7.485c2.35,1,3.782,3.025,3.564,5.04l-6.236,57.73l-23.244-18.734c-10.357-9.329-25.978-9.329-36.335,0l-23.244,18.735
	L208.356,96.839z M243.507,344.151l-9.954-36.487c-2.09-7.659-2.302-15.467-0.63-23.208l5.017-23.23
	c0.459-2.127,0.09-4.348-1.031-6.213l-4.2-6.98c-6.044-10.043-8.852-21.357-8.121-32.718l3.045-47.286l21.641-19.492
	c3.834-3.453,9.618-3.452,13.451,0l21.641,19.491l3.045,47.288c0.732,11.359-2.075,22.673-8.119,32.717l-4.201,6.981
	c-1.121,1.865-1.492,4.086-1.031,6.213l5.018,23.23c1.672,7.739,1.459,15.548-0.63,23.208l-9.956,36.487
	c-2.154,7.893-0.557,16.272,4.377,22.991l0.641,0.873h-8.962V166.308c0-4.721-3.826-8.548-8.548-8.548s-8.548,3.827-8.548,8.548
	v201.707h-8.963l0.641-0.873C244.066,360.422,245.662,352.042,243.507,344.151z M208.827,385.111h94.348v17.22h-94.348
	L208.827,385.111L208.827,385.111z M318.183,494.904H193.819v-75.477h124.365V494.904z"/>
	
</svg>
