<?xml version="1.0" encoding="iso-8859-1"?>
<!-- Generator: Adobe Illustrator 18.0.0, SVG Export Plug-In . SVG Version: 6.00 Build 0)  -->
<!DOCTYPE svg PUBLIC "-//W3C//DTD SVG 1.1//EN" "http://www.w3.org/Graphics/SVG/1.1/DTD/svg11.dtd">
<svg version="1.1" id="Capa_1" xmlns="http://www.w3.org/2000/svg" xmlns:xlink="http://www.w3.org/1999/xlink" x="0px" y="0px"
	 viewBox="0 0 453.505 453.505" style="enable-background:new 0 0 453.505 453.505;" xml:space="preserve">
<g>
	<g>
		<path style="fill:#4479FA;" d="M429.079,328.416c-3.198-1.325-6.878-0.592-9.326,1.855l-20.05,20.05l-41.538-40.997
			c1.6-2.943,3.191-5.869,4.748-8.793l-0.073-0.073c11.924-21.927,18.702-47.04,18.702-73.706s-6.778-51.779-18.702-73.706
			l36.863-36.863l20.05,20.05c1.637,1.637,3.826,2.507,6.053,2.507c1.102,0,2.214-0.213,3.273-0.652
			c3.198-1.325,5.283-4.445,5.283-7.906l0-89.724c0-4.726-3.831-8.557-8.557-8.557H323.081c-2.093,0-4.055,0.772-5.577,2.083
			L337.08,53.56l-0.055,0.055l6.787,6.787l-43.67,43.096c-21.853-11.818-46.851-18.535-73.39-18.535s-51.537,6.717-73.39,18.535
			l-43.435-43.435l6.5-6.5l-0.003-0.002L136,33.984c-1.522-1.31-3.483-2.083-5.577-2.083H27.7c-4.726,0-8.557,3.831-8.557,8.558
			l0,89.725c0,3.46,2.085,6.58,5.283,7.905c1.059,0.438,2.171,0.652,3.273,0.652c2.227,0,4.416-0.87,6.053-2.507l20.05-20.05
			l36.863,36.863c-11.924,21.927-18.702,47.04-18.702,73.706s6.778,51.779,18.702,73.706l-0.117,0.117
			c1.242,2.317,2.51,4.651,3.797,7.018l-40.543,42.729l-20.05-20.05c-2.447-2.447-6.128-3.18-9.326-1.855
			c-3.198,1.324-5.283,4.445-5.283,7.906l0,89.724c0,4.726,3.831,8.558,8.557,8.558l102.724,0c3.461,0,6.582-2.084,7.906-5.282
			c1.325-3.198,0.592-6.878-1.855-9.326l-20.05-20.05l36.938-36.938c21.853,11.818,46.851,18.535,73.39,18.535
			s51.537-6.717,73.39-18.535l36.938,36.938l-20.05,20.05c-2.447,2.447-3.18,6.128-1.855,9.326c1.324,3.198,4.445,5.282,7.906,5.282
			l102.724,0c4.726,0,8.557-3.832,8.557-8.557l0-89.724C434.362,332.861,432.277,329.74,429.079,328.416z M284.201,239.752
			c0,31.678-25.772,57.449-57.449,57.449s-57.449-25.771-57.449-57.449c0-2.199,0.136-4.365,0.378-6.5
			c-0.242-2.135-0.378-4.301-0.378-6.5c0-31.678,25.772-57.449,57.449-57.449s57.449,25.771,57.449,57.449
			c0,2.199-0.136,4.365-0.378,6.5C284.065,235.387,284.201,237.553,284.201,239.752z"/>
		<path style="fill:#4479FA;" d="M385.75,156.866c0.1,0.228,0.193,0.46,0.292,0.688l0.911-1.892L385.75,156.866z"/>
	</g>
	<path style="fill:#2C3D8E;" d="M425.805,18.901c4.726,0,8.557,3.831,8.557,8.558l0,102.724c0,3.461-2.085,6.581-5.283,7.906
		c-1.059,0.438-2.17,0.652-3.273,0.652c-2.227,0-4.416-0.87-6.053-2.507l-20.05-20.05l-36.863,36.863
		c11.924,21.927,18.702,47.04,18.702,73.706s-6.778,51.779-18.702,73.706l36.863,36.863l20.05-20.05
		c1.637-1.637,3.826-2.507,6.053-2.507c1.102,0,2.214,0.213,3.273,0.652c3.198,1.324,5.283,4.445,5.283,7.906l0,102.724
		c0,4.726-3.831,8.558-8.557,8.558l-102.724,0c-3.461,0-6.582-2.084-7.906-5.282c-1.325-3.198-0.592-6.878,1.855-9.326l20.05-20.05
		l-36.938-36.938c-21.853,11.818-46.851,18.535-73.39,18.535s-51.537-6.717-73.39-18.535l-36.938,36.938l20.05,20.05
		c2.447,2.447,3.18,6.128,1.855,9.326c-1.324,3.198-4.445,5.282-7.906,5.282l-102.724,0c-4.726,0-8.557-3.832-8.557-8.558V323.322
		c0-3.461,2.085-6.582,5.283-7.906c1.059-0.438,2.17-0.652,3.273-0.652c2.227,0,4.416,0.87,6.053,2.507l20.05,20.05l36.863-36.863
		c-11.924-21.927-18.702-47.04-18.702-73.706s6.778-51.779,18.702-73.706l-36.863-36.863l-20.05,20.05
		c-1.637,1.637-3.826,2.507-6.053,2.507c-1.102,0-2.214-0.213-3.273-0.652c-3.198-1.325-5.283-4.445-5.283-7.906V27.459
		c0-4.727,3.831-8.558,8.557-8.558h102.724c3.461,0,6.582,2.085,7.906,5.283c1.325,3.198,0.592,6.878-1.855,9.326l-20.05,20.05
		l36.938,36.938c21.853-11.818,46.851-18.535,73.39-18.535s51.537,6.717,73.39,18.535L337.08,53.56l-20.05-20.05
		c-2.447-2.447-3.18-6.128-1.855-9.326c1.324-3.198,4.445-5.283,7.906-5.283H425.805 M226.752,284.201
		c31.677,0,57.449-25.771,57.449-57.449s-25.772-57.449-57.449-57.449s-57.449,25.771-57.449,57.449
		S195.075,284.201,226.752,284.201 M425.805,0H323.081c-11.146,0-21.103,6.654-25.368,16.951s-1.929,22.043,5.953,29.924
		l6.685,6.685L296.3,67.61c-21.832-9.549-45.608-14.548-69.548-14.548c-23.94,0-47.715,4.999-69.548,14.548l-14.05-14.05
		l6.685-6.686c7.881-7.88,10.217-19.626,5.952-29.923C151.527,6.654,141.569,0,130.424,0H27.7C12.559,0,0.242,12.318,0.242,27.459
		v102.724c0,11.145,6.653,21.102,16.95,25.368c3.349,1.387,6.884,2.091,10.507,2.091c7.335,0,14.231-2.856,19.417-8.042l6.686-6.686
		l13.953,13.953c-9.644,21.923-14.693,45.815-14.693,69.886s5.049,47.963,14.693,69.886l-13.953,13.953l-6.685-6.685
		c-5.187-5.187-12.083-8.042-19.418-8.042c-3.623,0-7.158,0.704-10.506,2.091c-10.296,4.264-16.95,14.221-16.95,25.368v102.724
		c0,15.141,12.318,27.459,27.458,27.459l102.724-0.001c11.146,0,21.103-6.653,25.368-16.95c4.265-10.297,1.929-22.043-5.953-29.924
		l-6.685-6.685l14.05-14.05c21.831,9.548,45.609,14.549,69.548,14.549c23.939,0,47.715-5,69.547-14.549l14.05,14.05l-6.685,6.686
		c-7.881,7.88-10.217,19.626-5.952,29.923c4.265,10.297,14.223,16.95,25.369,16.95l102.724,0.001
		c15.141,0,27.459-12.318,27.459-27.459l0-102.724c0-11.146-6.654-21.104-16.952-25.369c-3.347-1.386-6.882-2.09-10.504-2.09
		c-7.335,0-14.231,2.856-19.417,8.042l-6.685,6.686l-13.953-13.954c9.644-21.922,14.693-45.815,14.693-69.885
		s-5.049-47.963-14.693-69.886l13.953-13.954l6.685,6.686c5.187,5.187,12.083,8.042,19.418,8.042c3.623,0,7.158-0.704,10.507-2.091
		c10.297-4.265,16.95-14.223,16.95-25.368l0-102.724C453.263,12.318,440.945,0,425.805,0L425.805,0z M226.752,265.3
		c-21.255,0-38.548-17.292-38.548-38.547s17.293-38.548,38.548-38.548c21.255,0,38.548,17.293,38.548,38.548
		S248.008,265.3,226.752,265.3L226.752,265.3z"/>
</g>
<g>
</g>
<g>
</g>
<g>
</g>
<g>
</g>
<g>
</g>
<g>
</g>
<g>
</g>
<g>
</g>
<g>
</g>
<g>
</g>
<g>
</g>
<g>
</g>
<g>
</g>
<g>
</g>
<g>
</g>
</svg>
