<svg version="1.1" id="Capa_1"
	xmlns="http://www.w3.org/2000/svg"
	xmlns:xlink="http://www.w3.org/1999/xlink" x="0px" y="0px"
	 viewBox="0 0 512 512" style="enable-background:new 0 0 512 512;" xml:space="preserve">
	
	<style>
		.main-banner{
			fill : #00B5EF;
			animation: filled 3s alternate infinite ;
		}

		@keyframes filled {
			20%{
				fill : #00B5EF;
			}
			40%{
				fill : #c70d3a;
			}
			60%{
				fill :#b030b0;
			}
			80%{
				fill : #47e4bb;
			}
			100%{
				fill : #fff6da;
			}
		}
	</style>
	<path style="fill:#303C42;" d="M373.333,0H138.667C109.26,0,85.333,23.927,85.333,53.333C85.333,59.229,90.104,64,96,64h10.667
	v373.333c0,5.896,4.771,10.667,10.667,10.667H192v42.667h-53.333c-5.896,0-10.667,4.771-10.667,10.667S132.771,512,138.667,512
	h234.667c5.896,0,10.667-4.771,10.667-10.667s-4.771-10.667-10.667-10.667H320V448h74.667c5.896,0,10.667-4.771,10.667-10.667V64
	H416c5.896,0,10.667-4.771,10.667-10.667C426.667,23.927,402.74,0,373.333,0z"/>
	<rect x="213.333" y="448" style="fill:#78909C;" width="85.333" height="42.667"/>
	<rect class="main-banner" x="128" y="64" width="256" height="362.667"/>
	<rect x="128" y="64" style="opacity:0.2;fill:#FFFFFF;enable-background:new    ;" width="21.333" height="362.667"/>
	<rect x="362.667" y="64" style="opacity:0.1;enable-background:new    ;" width="21.333" height="362.667"/>
	<path style="fill:#78909C;" d="M108.49,42.667c4.406-12.417,16.271-21.333,30.177-21.333h234.667
	c13.906,0,25.771,8.917,30.177,21.333H108.49z"/>
	<g>
		<path style="opacity:0.2;fill:#FFFFFF;enable-background:new    ;" d="M151.156,32h234.667c5.039,0,9.621,1.491,13.866,3.574
		c-5.759-8.517-15.326-14.241-26.355-14.241H138.667c-13.906,0-25.771,8.917-30.177,21.333h19.251
		C133.598,36.25,141.806,32,151.156,32z"/>
		<path style="fill:#FFFFFF;" d="M181.333,224v64c0,5.896,4.771,10.667,10.667,10.667c5.896,0,10.667-4.771,10.667-10.667v-10.667
		H224V288c0,5.896,4.771,10.667,10.667,10.667s10.667-4.771,10.667-10.667v-64c0-17.646-14.354-32-32-32
		S181.333,206.354,181.333,224z M224,224v32h-21.333v-32c0-5.885,4.781-10.667,10.667-10.667C219.219,213.333,224,218.115,224,224z"
		/>
		<path style="fill:#FFFFFF;" d="M277.333,298.667h21.333c17.646,0,32-14.354,32-32V224c0-17.646-14.354-32-32-32h-21.333
		c-5.896,0-10.667,4.771-10.667,10.667V288C266.667,293.896,271.438,298.667,277.333,298.667z M288,213.333h10.667
		c5.885,0,10.667,4.781,10.667,10.667v42.667c0,5.885-4.781,10.667-10.667,10.667H288V213.333z"/>
		<path style="opacity:0.2;fill:#FFFFFF;enable-background:new    ;" d="M160,128c2.729,0,5.458-1.042,7.542-3.125l21.333-21.333
		c4.167-4.167,4.167-10.917,0-15.083c-4.167-4.167-10.917-4.167-15.083,0l-21.333,21.333c-4.167,4.167-4.167,10.917,0,15.083
		C154.542,126.958,157.271,128,160,128z"/>
		<path style="opacity:0.2;fill:#FFFFFF;enable-background:new    ;" d="M173.792,167.542c2.083,2.083,4.813,3.125,7.542,3.125
		c2.729,0,5.458-1.042,7.542-3.125l42.667-42.667c4.167-4.167,4.167-10.917,0-15.083c-4.167-4.167-10.917-4.167-15.083,0
		l-42.667,42.667C169.625,156.625,169.625,163.375,173.792,167.542z"/>
	</g>
	<linearGradient id="SVGID_1_" gradientUnits="userSpaceOnUse" x1="-35.7031" y1="626.4844" x2="-32.7031" y2="623.4844" gradientTransform="matrix(21.3333 0 0 -21.3333 996.3334 13791.667)">
		<stop  offset="0" style="stop-color:#000000;stop-opacity:0.1"/>
		<stop  offset="1" style="stop-color:#000000;stop-opacity:0"/>
	</linearGradient>
	<polygon style="fill:url(#SVGID_1_);" points="213.333,448 256,490.667 298.667,490.667 298.667,448 "/>
	<linearGradient id="SVGID_2_" gradientUnits="userSpaceOnUse" x1="-45.0855" y1="639.4265" x2="-25.2885" y2="630.1995" gradientTransform="matrix(21.3333 0 0 -21.3333 996.3334 13791.667)">
		<stop  offset="0" style="stop-color:#FFFFFF;stop-opacity:0.2"/>
		<stop  offset="1" style="stop-color:#FFFFFF;stop-opacity:0"/>
	</linearGradient>
	<path style="fill:url(#SVGID_2_);" d="M373.333,0H138.667C109.26,0,85.333,23.927,85.333,53.333C85.333,59.229,90.104,64,96,64
	h10.667v373.333c0,5.896,4.771,10.667,10.667,10.667H192v42.667h-53.333c-5.896,0-10.667,4.771-10.667,10.667
	S132.771,512,138.667,512h234.667c5.896,0,10.667-4.771,10.667-10.667s-4.771-10.667-10.667-10.667H320V448h74.667
	c5.896,0,10.667-4.771,10.667-10.667V64H416c5.896,0,10.667-4.771,10.667-10.667C426.667,23.927,402.74,0,373.333,0z"/>
</svg>
