<svg height="512pt" viewBox="0 0 512 512" width="512pt"
	xmlns="http://www.w3.org/2000/svg">
	<path d="m276.476562 316.929688-113.507812 113.511718 45.542969 45.539063-199.746094 27.253906 27.253906-199.746094 45.539063 45.542969 113.511718-113.507812zm0 0" fill="#e2fc85"/>
	<path d="m235.523438 195.070312 113.507812-113.507812-45.542969-45.542969 199.746094-27.253906-27.253906 199.746094-45.542969-45.542969-113.507812 113.507812zm0 0" fill="#e2fc85"/>
	<g fill="#6ad34d">
		<path d="m62.414062 329.886719-26.394531-26.398438-27.253906 199.746094 30.566406-4.167969zm0 0"/>
		<path d="m96.558594 334.03125 98.507812-98.511719 15 15-98.511718 98.511719zm0 0"/>
		<path d="m265.519531 195.070312 113.507813-113.507812-45.539063-45.542969 169.175781-23.085937.570313-4.167969-199.746094 27.253906 45.542969 45.542969-113.507812 113.507812 81.40625 81.40625 15-14.996093zm0 0"/>
	</g>
	<path d="m0 512 30.628906-224.503906 50.929688 50.929687 113.511718-113.507812 92.011719 92.011719-54.984375 54.988281-10.609375-10.605469 44.382813-44.382812-70.800782-70.800782-113.511718 113.507813-40.152344-40.15625-23.875 174.988281 174.988281-23.875-40.15625-40.15625 54.984375-54.984375 10.609375 10.605469-44.382812 44.378906 50.929687 50.933594zm0 0"/>
	<path d="m316.929688 287.082031-92.011719-92.011719 113.503906-113.507812-50.925781-50.929688 104.945312-14.320312 2.023438 14.863281-74.984375 10.230469 40.15625 40.15625-113.507813 113.507812 70.800782 70.800782 113.507812-113.507813 40.15625 40.15625 23.875-174.988281-80.1875 10.9375-2.027344-14.859375 99.746094-13.609375-30.632812 224.503906-50.929688-50.929687zm0 0"/>
	<path d="m398.574219 141.710938-10.605469-10.605469 10.605469-10.605469 10.605469 10.605469zm-17.679688-17.679688-10.605469-10.605469 10.605469-10.605469 10.605469 10.605469zm0 0" fill="#fff"/>

	<style>

	</style>
</svg>

