<?xml version="1.0" encoding="iso-8859-1"?>
<!-- Generator: Adobe Illustrator 19.0.0, SVG Export Plug-In . SVG Version: 6.00 Build 0)  -->
<svg version="1.1" id="Capa_1" xmlns="http://www.w3.org/2000/svg" xmlns:xlink="http://www.w3.org/1999/xlink" x="0px" y="0px"
	 viewBox="0 0 512 512" style="enable-background:new 0 0 512 512;" xml:space="preserve">
<path style="fill:#303C42;" d="M501.333,149.333c5.896,0,10.667-4.771,10.667-10.667v-32C512,83.135,492.865,64,469.333,64H42.667
	C19.135,64,0,83.135,0,106.667v32c0,5.896,4.771,10.667,10.667,10.667h10.667v277.333H10.667C4.771,426.667,0,431.438,0,437.333
	S4.771,448,10.667,448h42.667C59.229,448,64,443.229,64,437.333s-4.771-10.667-10.667-10.667H42.667v-128h42.667v96
	c0,5.896,4.771,10.667,10.667,10.667h320c5.896,0,10.667-4.771,10.667-10.667v-96h42.667v128h-10.667
	c-5.896,0-10.667,4.771-10.667,10.667S452.771,448,458.667,448h42.667c5.896,0,10.667-4.771,10.667-10.667
	s-4.771-10.667-10.667-10.667h-10.667V149.333H501.333z M469.333,277.333h-42.667v-96c0-5.896-4.771-10.667-10.667-10.667H96
	c-5.896,0-10.667,4.771-10.667,10.667v96H42.667v-128h426.667V277.333z"/>
<path style="fill:#78909C;" d="M21.333,106.667c0-11.76,9.573-21.333,21.333-21.333h426.667c11.76,0,21.333,9.573,21.333,21.333V128
	H21.333V106.667z"/>
<path style="opacity:0.2;fill:#FFFFFF;enable-background:new    ;" d="M32,117.333C32,105.573,41.573,96,53.333,96H480
	c3.12,0,6.034,0.749,8.708,1.958c-3.349-7.406-10.734-12.625-19.375-12.625H42.667c-11.76,0-21.333,9.573-21.333,21.333V128H32
	V117.333z"/>
<rect x="106.667" y="192" style="fill:#00B5EF;" width="298.667" height="192"/>
<g>
	<path style="fill:#FFFFFF;" d="M213.333,234.667c-17.646,0-32,14.354-32,32v64c0,5.896,4.771,10.667,10.667,10.667
		c5.896,0,10.667-4.771,10.667-10.667V320H224v10.667c0,5.896,4.771,10.667,10.667,10.667s10.667-4.771,10.667-10.667v-64
		C245.333,249.021,230.979,234.667,213.333,234.667z M202.667,298.667v-32c0-5.885,4.781-10.667,10.667-10.667
		c5.885,0,10.667,4.781,10.667,10.667v32H202.667z"/>
	<path style="fill:#FFFFFF;" d="M298.667,234.667h-21.333c-5.896,0-10.667,4.771-10.667,10.667v85.333
		c0,5.896,4.771,10.667,10.667,10.667h21.333c17.646,0,32-14.354,32-32v-42.667C330.667,249.021,316.313,234.667,298.667,234.667z
		 M309.333,309.333c0,5.885-4.781,10.667-10.667,10.667H288v-64h10.667c5.885,0,10.667,4.781,10.667,10.667V309.333z"/>
	<rect x="106.667" y="192" style="opacity:0.2;fill:#FFFFFF;enable-background:new    ;" width="21.333" height="192"/>
</g>
<rect x="384" y="192" style="opacity:0.1;enable-background:new    ;" width="21.333" height="192"/>
<linearGradient id="SVGID_1_" gradientUnits="userSpaceOnUse" x1="-47.5151" y1="640.1865" x2="-21.6524" y2="628.1262" gradientTransform="matrix(21.3333 0 0 -21.3333 996.3334 13791.667)">
	<stop  offset="0" style="stop-color:#FFFFFF;stop-opacity:0.2"/>
	<stop  offset="1" style="stop-color:#FFFFFF;stop-opacity:0"/>
</linearGradient>
<path style="fill:url(#SVGID_1_);" d="M501.333,149.333c5.896,0,10.667-4.771,10.667-10.667v-32C512,83.135,492.865,64,469.333,64
	H42.667C19.135,64,0,83.135,0,106.667v32c0,5.896,4.771,10.667,10.667,10.667h10.667v277.333H10.667
	C4.771,426.667,0,431.438,0,437.333S4.771,448,10.667,448h42.667C59.229,448,64,443.229,64,437.333s-4.771-10.667-10.667-10.667
	H42.667v-128h42.667v96c0,5.896,4.771,10.667,10.667,10.667h320c5.896,0,10.667-4.771,10.667-10.667v-96h42.667v128h-10.667
	c-5.896,0-10.667,4.771-10.667,10.667S452.771,448,458.667,448h42.667c5.896,0,10.667-4.771,10.667-10.667
	s-4.771-10.667-10.667-10.667h-10.667V149.333H501.333z M469.333,277.333h-42.667v-96c0-5.896-4.771-10.667-10.667-10.667H96
	c-5.896,0-10.667,4.771-10.667,10.667v96H42.667v-128h426.667V277.333z"/>
<g>
</g>
<g>
</g>
<g>
</g>
<g>
</g>
<g>
</g>
<g>
</g>
<g>
</g>
<g>
</g>
<g>
</g>
<g>
</g>
<g>
</g>
<g>
</g>
<g>
</g>
<g>
</g>
<g>
</g>
</svg>
