<?xml version="1.0" encoding="iso-8859-1"?>
<!-- Generator: Adobe Illustrator 19.0.0, SVG Export Plug-In . SVG Version: 6.00 Build 0)  -->
<svg version="1.1" id="Capa_1" xmlns="http://www.w3.org/2000/svg" xmlns:xlink="http://www.w3.org/1999/xlink" x="0px" y="0px"
	 viewBox="0 0 512 512" style="enable-background:new 0 0 512 512;" xml:space="preserve">
<path style="fill:#303C42;" d="M437.333,42.667h-10.667V32c0-5.896-4.771-10.667-10.667-10.667H266.667V10.667
	C266.667,4.771,261.896,0,256,0c-5.896,0-10.667,4.771-10.667,10.667v10.667H96c-5.896,0-10.667,4.771-10.667,10.667v10.667H74.667
	C68.771,42.667,64,47.438,64,53.333S68.771,64,74.667,64h10.667v10.667c0,5.896,4.771,10.667,10.667,10.667h10.667v277.333H96
	c-5.896,0-10.667,4.771-10.667,10.667V416c0,5.896,4.771,10.667,10.667,10.667h149.333v25.811l-69.292,39.595
	c-5.125,2.917-6.896,9.438-3.979,14.552c2.938,5.135,9.479,6.865,14.563,3.969l58.708-33.551v24.29
	c0,5.896,4.771,10.667,10.667,10.667c5.896,0,10.667-4.771,10.667-10.667v-24.29l58.708,33.551c1.667,0.958,3.479,1.406,5.292,1.406
	c3.688,0,7.292-1.927,9.271-5.375c2.917-5.115,1.146-11.635-3.979-14.552l-69.292-39.595v-25.811H416
	c5.896,0,10.667-4.771,10.667-10.667v-42.667c0-5.896-4.771-10.667-10.667-10.667h-10.667V85.333H416
	c5.896,0,10.667-4.771,10.667-10.667V64h10.667C443.229,64,448,59.229,448,53.333S443.229,42.667,437.333,42.667z"/>
<rect x="106.667" y="384" style="fill:#D8DCDB;" width="298.667" height="21.333"/>
<rect x="128" y="85.333" style="fill:#00B5EF;" width="256" height="277.333"/>
<rect x="128" y="85.333" style="opacity:0.2;fill:#FFFFFF;enable-background:new    ;" width="21.333" height="277.333"/>
<rect x="362.667" y="85.333" style="opacity:0.1;enable-background:new    ;" width="21.333" height="277.333"/>
<rect x="106.667" y="42.667" style="fill:#D8DCDB;" width="298.667" height="21.333"/>
<g>
	<rect x="106.667" y="384" style="opacity:0.2;fill:#FFFFFF;enable-background:new    ;" width="21.333" height="21.333"/>
	<rect x="106.667" y="42.667" style="opacity:0.2;fill:#FFFFFF;enable-background:new    ;" width="21.333" height="21.333"/>
</g>
<rect x="384" y="384" style="opacity:0.1;enable-background:new    ;" width="21.333" height="21.333"/>
<rect x="384" y="42.667" style="opacity:0.1;enable-background:new    ;" width="21.333" height="21.333"/>
<g>
	<path style="fill:#303C42;" d="M192,277.333c5.896,0,10.667-4.771,10.667-10.667V256H224v10.667
		c0,5.896,4.771,10.667,10.667,10.667s10.667-4.771,10.667-10.667v-64c0-17.646-14.354-32-32-32s-32,14.354-32,32v64
		C181.333,272.563,186.104,277.333,192,277.333z M213.333,192c5.875,0,10.667,4.781,10.667,10.667v32h-21.333v-32
		C202.667,196.781,207.458,192,213.333,192z"/>
	<path style="fill:#303C42;" d="M277.333,277.333h21.333c17.646,0,32-14.354,32-32v-42.667c0-17.646-14.354-32-32-32h-21.333
		c-5.896,0-10.667,4.771-10.667,10.667v85.333C266.667,272.563,271.438,277.333,277.333,277.333z M288,192h10.667
		c5.875,0,10.667,4.781,10.667,10.667v42.667c0,5.885-4.792,10.667-10.667,10.667H288V192z"/>
</g>
<linearGradient id="SVGID_1_" gradientUnits="userSpaceOnUse" x1="-45.6111" y1="640.0047" x2="-25.0509" y2="630.4156" gradientTransform="matrix(21.3333 0 0 -21.3333 996.3334 13791.667)">
	<stop  offset="0" style="stop-color:#FFFFFF;stop-opacity:0.2"/>
	<stop  offset="1" style="stop-color:#FFFFFF;stop-opacity:0"/>
</linearGradient>
<path style="fill:url(#SVGID_1_);" d="M437.333,42.667h-10.667V32c0-5.896-4.771-10.667-10.667-10.667H266.667V10.667
	C266.667,4.771,261.896,0,256,0c-5.896,0-10.667,4.771-10.667,10.667v10.667H96c-5.896,0-10.667,4.771-10.667,10.667v10.667H74.667
	C68.771,42.667,64,47.438,64,53.333S68.771,64,74.667,64h10.667v10.667c0,5.896,4.771,10.667,10.667,10.667h10.667v277.333H96
	c-5.896,0-10.667,4.771-10.667,10.667V416c0,5.896,4.771,10.667,10.667,10.667h149.333v25.811l-69.292,39.595
	c-5.125,2.917-6.896,9.438-3.979,14.552c2.938,5.135,9.479,6.865,14.563,3.969l58.708-33.551v24.29
	c0,5.896,4.771,10.667,10.667,10.667c5.896,0,10.667-4.771,10.667-10.667v-24.29l58.708,33.551c1.667,0.958,3.479,1.406,5.292,1.406
	c3.688,0,7.292-1.927,9.271-5.375c2.917-5.115,1.146-11.635-3.979-14.552l-69.292-39.595v-25.811H416
	c5.896,0,10.667-4.771,10.667-10.667v-42.667c0-5.896-4.771-10.667-10.667-10.667h-10.667V85.333H416
	c5.896,0,10.667-4.771,10.667-10.667V64h10.667C443.229,64,448,59.229,448,53.333S443.229,42.667,437.333,42.667z"/>
<g>
</g>
<g>
</g>
<g>
</g>
<g>
</g>
<g>
</g>
<g>
</g>
<g>
</g>
<g>
</g>
<g>
</g>
<g>
</g>
<g>
</g>
<g>
</g>
<g>
</g>
<g>
</g>
<g>
</g>
</svg>
