<?xml version="1.0" encoding="iso-8859-1"?>
<!-- Generator: Adobe Illustrator 19.0.0, SVG Export Plug-In . SVG Version: 6.00 Build 0)  -->
<svg version="1.1" id="Capa_1" xmlns="http://www.w3.org/2000/svg" xmlns:xlink="http://www.w3.org/1999/xlink" x="0px" y="0px"
	 viewBox="0 0 512 512" style="enable-background:new 0 0 512 512;" xml:space="preserve">
<path style="fill:#303C42;" d="M508.875,216.458L402.208,109.792c-2-2-4.708-3.125-7.542-3.125h-96v-32
	C298.667,68.771,293.896,64,288,64H42.667C19.135,64,0,83.135,0,106.667v266.667c0,17.646,14.354,32,32,32h25.266
	C66.1,430.112,89.559,448,117.333,448s51.234-17.888,60.069-42.667h157.197C343.434,430.112,366.892,448,394.667,448
	c27.775,0,51.234-17.888,60.069-42.667h14.598c23.531,0,42.667-19.135,42.667-42.667V224
	C512,221.167,510.875,218.458,508.875,216.458z"/>
<circle style="fill:#546E7A;" cx="117.333" cy="384" r="42.667"/>
<circle style="fill:#303C42;" cx="117.333" cy="384" r="10.667"/>
<path style="fill:#00B5EF;" d="M117.333,320c-35.292,0-64,28.708-64,64H32c-5.885,0-10.667-4.781-10.667-10.667V106.667
	c0-11.76,9.573-21.333,21.333-21.333h234.667v32V384h-96C181.333,348.708,152.625,320,117.333,320z"/>
<circle style="fill:#546E7A;" cx="394.667" cy="384" r="42.667"/>
<path style="fill:#78909C;" d="M490.667,362.667c0,11.76-9.573,21.333-21.333,21.333h-10.667c0-35.292-28.708-64-64-64
	s-64,28.708-64,64h-32V128h91.583l100.417,100.417V362.667z"/>
<g>
	<circle style="fill:#303C42;" cx="394.667" cy="384" r="10.667"/>
	<path style="fill:#303C42;" d="M458.667,256H352c-5.896,0-10.667-4.771-10.667-10.667V160c0-5.896,4.771-10.667,10.667-10.667
		h24.99c2.833,0,5.542,1.125,7.542,3.125l81.677,81.677c2,2,3.125,4.708,3.125,7.542v3.656C469.333,251.229,464.563,256,458.667,256
		z"/>
</g>
<polygon style="fill:#BBDEFB;" points="362.667,234.667 436.573,234.667 372.573,170.667 362.667,170.667 "/>
<linearGradient id="SVGID_1_" gradientUnits="userSpaceOnUse" x1="-34.9893" y1="638.1982" x2="-24.7826" y2="627.9915" gradientTransform="matrix(21.3333 0 0 -21.3333 996.3334 13791.667)">
	<stop  offset="0" style="stop-color:#000000;stop-opacity:0.1"/>
	<stop  offset="1" style="stop-color:#000000;stop-opacity:0"/>
</linearGradient>
<path style="fill:url(#SVGID_1_);" d="M467.682,236.107l-0.19-0.052c1.079,1.697,1.841,3.576,1.841,5.622v3.656
	c0,5.896-4.771,10.667-10.667,10.667H352c-5.896,0-10.667-4.771-10.667-10.667v-74.667L298.667,128v256h32c0-35.292,28.708-64,64-64
	s64,28.708,64,64h10.667c11.76,0,21.333-9.573,21.333-21.333V259.091L467.682,236.107z"/>
<linearGradient id="SVGID_2_" gradientUnits="userSpaceOnUse" x1="-39.3321" y1="630.2285" x2="-37.2818" y2="628.1772" gradientTransform="matrix(21.3333 0 0 -21.3333 996.3334 13791.667)">
	<stop  offset="0" style="stop-color:#000000;stop-opacity:0.1"/>
	<stop  offset="1" style="stop-color:#000000;stop-opacity:0"/>
</linearGradient>
<path style="fill:url(#SVGID_2_);" d="M207.543,384l-43.75-43.75c10.798,11.464,17.54,26.796,17.54,43.75H207.543z"/>
<linearGradient id="SVGID_3_" gradientUnits="userSpaceOnUse" x1="-26.2624" y1="630.1583" x2="-24.4714" y2="628.3593" gradientTransform="matrix(21.3333 0 0 -21.3333 996.3334 13791.667)">
	<stop  offset="0" style="stop-color:#000000;stop-opacity:0.1"/>
	<stop  offset="1" style="stop-color:#000000;stop-opacity:0"/>
</linearGradient>
<path style="fill:url(#SVGID_3_);" d="M480.781,380.193L442.488,341.9c9.944,11.283,16.178,25.913,16.178,42.1h10.667
	C473.641,384,477.424,382.398,480.781,380.193z"/>
<path style="opacity:0.1;enable-background:new    ;" d="M21.333,362.949v10.384C21.333,379.219,26.125,384,32,384h21.333
	c0-7.413,1.516-14.424,3.844-21.051H21.333z"/>
<path style="opacity:0.1;enable-background:new    ;" d="M390.25,128h-0.283l79.366,79.366v134.25
	c0,9.486-6.329,17.27-14.913,20.034c2.622,6.984,4.246,14.461,4.246,22.35h10.667c11.771,0,21.333-9.573,21.333-21.333v-134.25
	L390.25,128z"/>
<path style="opacity:0.1;enable-background:new    ;" d="M277.333,362.949h-99.842c2.328,6.626,3.842,13.638,3.842,21.051h96
	V362.949z"/>
<path style="opacity:0.1;enable-background:new    ;" d="M298.667,362.949V384h32c0-7.413,1.516-14.424,3.844-21.051H298.667z"/>
<g>
	<path style="fill:#FFFFFF;" d="M85.333,256C91.229,256,96,251.229,96,245.333v-10.667h21.333v10.667
		c0,5.896,4.771,10.667,10.667,10.667c5.896,0,10.667-4.771,10.667-10.667v-64c0-17.646-14.354-32-32-32s-32,14.354-32,32v64
		C74.667,251.229,79.438,256,85.333,256z M106.667,170.667c5.885,0,10.667,4.781,10.667,10.667v32H96v-32
		C96,175.448,100.781,170.667,106.667,170.667z"/>
	<path style="fill:#FFFFFF;" d="M170.667,256H192c17.646,0,32-14.354,32-32v-42.667c0-17.646-14.354-32-32-32h-21.333
		c-5.896,0-10.667,4.771-10.667,10.667v85.333C160,251.229,164.771,256,170.667,256z M181.333,170.667H192
		c5.885,0,10.667,4.781,10.667,10.667V224c0,5.885-4.781,10.667-10.667,10.667h-10.667V170.667z"/>
</g>
<linearGradient id="SVGID_4_" gradientUnits="userSpaceOnUse" x1="-47.8427" y1="639.484" x2="-23.1936" y2="627.9894" gradientTransform="matrix(21.3333 0 0 -21.3333 996.3334 13791.667)">
	<stop  offset="0" style="stop-color:#FFFFFF;stop-opacity:0.2"/>
	<stop  offset="1" style="stop-color:#FFFFFF;stop-opacity:0"/>
</linearGradient>
<path style="fill:url(#SVGID_4_);" d="M508.875,216.458L402.208,109.792c-2-2-4.708-3.125-7.542-3.125h-96v-32
	C298.667,68.771,293.896,64,288,64H42.667C19.135,64,0,83.135,0,106.667v266.667c0,17.646,14.354,32,32,32h25.266
	C66.1,430.112,89.559,448,117.333,448s51.234-17.888,60.069-42.667h157.197C343.434,430.112,366.892,448,394.667,448
	c27.775,0,51.234-17.888,60.069-42.667h14.598c23.531,0,42.667-19.135,42.667-42.667V224
	C512,221.167,510.875,218.458,508.875,216.458z"/>
<g>
</g>
<g>
</g>
<g>
</g>
<g>
</g>
<g>
</g>
<g>
</g>
<g>
</g>
<g>
</g>
<g>
</g>
<g>
</g>
<g>
</g>
<g>
</g>
<g>
</g>
<g>
</g>
<g>
</g>
</svg>
