<svg height="512" viewBox="0 0 64 64" width="512" xmlns="http://www.w3.org/2000/svg"><path d="m28 2h34v34h-34z" fill="#003f8a"/><path d="m22 8h34v34h-34z" fill="#1e81ce"/><path d="m15 15h34v34h-34z" fill="#5aaae7"/><path d="m8 22h34v34h-34z" fill="#96c8ef"/><path d="m2 28h34v34h-34z" fill="#d1e7f8"/><path d="m62 1h-34a1 1 0 0 0 -1 1v5h-5a1 1 0 0 0 -1 1v6h-6a1 1 0 0 0 -1 1v6h-6a1 1 0 0 0 -1 1v5h-5a1 1 0 0 0 -1 1v34a1 1 0 0 0 1 1h34a1 1 0 0 0 1-1v-5h5a1 1 0 0 0 1-1v-6h6a1 1 0 0 0 1-1v-6h6a1 1 0 0 0 1-1v-5h5a1 1 0 0 0 1-1v-34a1 1 0 0 0 -1-1zm-27 60h-32v-32h32zm6-6h-4v-27a1 1 0 0 0 -1-1h-27v-4h32zm7-7h-5v-26a1 1 0 0 0 -1-1h-26v-5h32zm7-7h-5v-26a1 1 0 0 0 -1-1h-26v-5h32zm6-6h-4v-27a1 1 0 0 0 -1-1h-27v-4h32z"/><path d="m45 6h10a1 1 0 0 0 0-2h-10a1 1 0 0 0 0 2z"/><path d="m58 6h1a1 1 0 0 0 0-2h-1a1 1 0 0 0 0 2z"/></svg>