<?xml version="1.0" encoding="iso-8859-1"?>
<!-- Generator: Adobe Illustrator 19.0.0, SVG Export Plug-In . SVG Version: 6.00 Build 0)  -->
<svg version="1.1" id="Capa_1" xmlns="http://www.w3.org/2000/svg" xmlns:xlink="http://www.w3.org/1999/xlink" x="0px" y="0px"
	 viewBox="0 0 496 496" style="enable-background:new 0 0 496 496;" xml:space="preserve">
<g>
	<path style="fill:#333333;" d="M144.472,496c-17.832,0-34.864-8.512-45.56-22.784l-4.976-6.624
		C92.72,464.968,90.792,464,88.768,464H62c-1.728,0-3.352,0.672-4.576,1.896l-1.536,1.528c-8.472,8.488-23.288,8.496-31.776-0.008
		l-1.512-1.512c-4.264-4.256-6.6-9.896-6.6-15.896v-25.064c0-2.472-1.368-4.688-3.576-5.792C4.76,415.32,0,407.616,0,399.056
		v-25.064c0-6,2.336-11.64,6.576-15.888l12.36-12.352c3.264-3.264,5.064-7.6,5.064-12.224c0-5.792-2.88-11.168-7.696-14.384
		l-2.408-1.608C5.192,311.752,0,302.048,0,291.592c0-9.768,4.664-19.096,12.48-24.944l10.688-8.024
		c3.576-2.672,4.528-7.584,2.232-11.408c-11.232-18.728-5.144-43.104,13.584-54.336c10.904-6.544,24.968-3.384,32.016,7.2
		c1.92,2.88,5.752,3.728,8.712,1.96l16.104-9.656c5.048-3.032,8.184-8.568,8.184-14.464c0-7.272-4.64-13.696-11.536-16
		l-27.752-9.248c-3.288-1.096-6.328-2.976-8.784-5.432l-25.344-25.344C26.336,117.656,24,112.008,24,106V95.744
		c0-2.168-1.08-4.184-2.88-5.384l-5.496-3.664C5.84,80.176,0,69.264,0,57.504c0-7.936,2.728-15.72,7.688-21.92l16.608-20.752
		C31.832,5.408,43.072,0,55.144,0c13.232,0,25.52,6.576,32.864,17.592l2.352,3.528c1.2,1.8,3.216,2.88,5.384,2.88h11.872
		c1.28,0,2.52-0.376,3.592-1.088l9.112-6.072c14.96-9.968,34.576-11.568,50.952-4.136l-6.608,14.576
		c-11.408-5.176-25.056-4.064-35.464,2.872l-9.12,6.072C116.376,38.696,112.064,40,107.616,40H95.744
		c-7.536,0-14.52-3.744-18.696-10.008l-2.352-3.528C70.328,19.912,63.016,16,55.144,16c-7.184,0-13.872,3.216-18.352,8.824
		L20.184,45.576C17.488,48.952,16,53.184,16,57.504c0,6.4,3.176,12.336,8.496,15.88l5.496,3.664C36.256,81.224,40,88.208,40,95.744
		V106c0,1.728,0.672,3.352,1.896,4.576L67.24,135.92c0.704,0.704,1.584,1.248,2.528,1.56l27.752,9.248
		c13.448,4.496,22.48,17.024,22.48,31.192c0,11.48-6.112,22.28-15.952,28.176l-16.096,9.656c-10.296,6.192-23.592,3.2-30.264-6.8
		c-2.32-3.464-6.912-4.504-10.472-2.352c-11.16,6.696-14.792,21.216-8.096,32.384c6.528,10.888,3.8,24.832-6.352,32.44
		l-10.688,8.024c-3.808,2.848-6.08,7.384-6.08,12.144c0,5.088,2.528,9.816,6.76,12.632l2.416,1.608
		C34.464,312.032,40,322.384,40,333.528c0,8.88-3.464,17.24-9.744,23.528l-12.36,12.352C16.672,370.64,16,372.264,16,373.992v25.064
		c0,2.472,1.368,4.688,3.576,5.792C27.24,408.68,32,416.384,32,424.944v25.064c0,1.728,0.672,3.352,1.896,4.576l1.512,1.512
		c2.472,2.472,6.712,2.464,9.16,0.008l1.536-1.528C50.344,450.344,55.992,448,62,448h26.768c7.032,0,13.752,3.36,17.976,8.992
		l4.976,6.624C119.408,473.872,131.648,480,144.472,480c12.504,0,24.168-5.6,31.976-15.368l12.96-16.2
		c4.288-5.36,10.688-8.432,17.552-8.432h31.248c2.664,0,5.016-1.592,6.008-4.072l9.864-24.664
		c2.464-6.152,7.472-10.872,13.752-12.976l17.544-5.84C296.512,388.728,304,378.344,304,366.6c0-7.272-2.832-14.12-7.984-19.264
		l-10.36-10.368C276.976,328.288,272,316.272,272,304s4.976-24.288,13.656-32.968l32.448-32.448C319.328,237.36,320,235.736,320,234
		v-9.032c0-13.08,5.096-25.376,14.344-34.624S355.888,176,368.968,176h8.56c3.568,0,6.472-2.904,6.472-6.472V166
		c0-6,2.336-11.648,6.584-15.888l15.52-15.52c4.24-4.256,9.888-6.592,15.896-6.592h22.704c2.976,0,5.56-2.016,6.28-4.904
		l2.656-10.624c2.168-8.648,7.44-16.136,14.848-21.072l2.72-1.816c5.504-3.672,8.792-9.816,8.792-16.432
		c0-7.528-4.184-14.296-10.92-17.664l-1.336-0.672c-6.72-3.368-14.64-2.648-20.664,1.872l-10.912,8.184
		c-6.12,4.6-13.712,7.128-21.376,7.128c-11.944,0-23.024-5.928-29.648-15.864l-3.504-5.256c-1.2-1.8-3.216-2.88-5.384-2.88H332
		c-15.024,0-29.376-7.176-38.4-19.2C287.584,20.784,278.016,16,268,16h-8c-5.608,0-11.144,1.488-16,4.288l-8-13.856
		C243.288,2.224,251.592,0,260,0h8c15.024,0,29.376,7.176,38.4,19.2C312.416,27.216,321.984,32,332,32h44.256
		c7.536,0,14.52,3.744,18.696,10.008l3.504,5.248c3.648,5.472,9.752,8.744,16.336,8.744c4.224,0,8.4-1.392,11.776-3.928l10.92-8.184
		c10.896-8.176,25.232-9.472,37.44-3.376l1.336,0.672C488.424,47.272,496,59.52,496,73.152c0,11.976-5.952,23.096-15.92,29.744
		l-2.72,1.816c-4.096,2.728-7.008,6.864-8.2,11.64l-2.656,10.632C463.992,137,455.024,144,444.696,144H422
		c-1.728,0-3.352,0.672-4.576,1.896l-15.52,15.52C400.672,162.64,400,164.264,400,166v3.528C400,181.92,389.92,192,377.528,192
		h-8.56c-8.808,0-17.088,3.432-23.312,9.656S336,216.168,336,224.968V234c0,6-2.336,11.648-6.584,15.888l-32.448,32.448
		C291.272,288.048,288,295.936,288,304s3.272,15.952,8.968,21.656l10.36,10.368C315.504,344.192,320,355.056,320,366.6
		c0,18.64-11.88,35.128-29.568,41.016l-17.536,5.84c-1.8,0.608-3.248,1.968-3.96,3.744l-9.864,24.672
		C255.632,450.464,247.44,456,238.2,456h-31.24c-1.976,0-3.824,0.88-5.056,2.432l-12.96,16.2
		C178.072,488.208,161.864,496,144.472,496z"/>
	<rect x="408" y="392" style="fill:#333333;" width="16" height="16"/>
	<rect x="448" y="344" style="fill:#333333;" width="16" height="16"/>
	<path style="fill:#333333;" d="M392,379.32c-5.16,0-10.008-2.016-13.664-5.664l-44-44c-4.72-4.712-7.32-10.984-7.32-17.656
		s2.6-12.944,7.32-17.656c9.736-9.736,25.576-9.736,35.312,0l4,4c1.696,1.688,3,1.688,4.68,0c7.296-7.296,20.024-7.296,27.32,0l8,8
		c7.528,7.528,7.528,19.784,0,27.312c-1.296,1.288-1.296,3.4,0,4.688c7.52,7.528,7.52,19.784,0,27.312l-8,8
		C402.008,377.304,397.16,379.32,392,379.32z M352,303.04c-2.296,0-4.592,0.864-6.344,2.616c-1.696,1.696-2.632,3.944-2.632,6.344
		s0.936,4.648,2.632,6.344l44,44c1.696,1.688,3,1.688,4.68,0l8-8c1.288-1.288,1.288-3.4,0-4.688c-7.52-7.528-7.52-19.784,0-27.312
		c1.296-1.288,1.296-3.4,0-4.688l-8-8c-1.696-1.688-3-1.688-4.68,0c-7.296,7.296-20.024,7.296-27.32,0l-4-4
		C356.592,303.904,354.296,303.04,352,303.04z"/>
	<path style="fill:#333333;" d="M462.632,272c-11.568,0-22.448-4.504-30.632-12.688c-2.104-2.104-5.024-3.312-8-3.312h-1.4
		c-2.12,0-4.112,0.832-5.608,2.32c-9.368,9.36-24.608,9.376-33.984,0c-4.832-4.832-7.376-11.504-7-18.32
		c0.376-6.816,3.648-13.168,8.984-17.432l18.592-14.872c6.2-4.96,13.984-7.688,21.92-7.688c10.68,0,20.664,4.824,27.296,13.032
		c2.88,0.44,5.944-0.176,8.64-1.792c3.536-2.12,7.592-3.248,11.728-3.248C485.76,208,496,218.24,496,230.832v7.8
		C496,257.032,481.032,272,462.632,272z M422.6,240h1.4c7.296,0,14.16,2.84,19.312,8c5.16,5.16,12.016,8,19.32,8
		c9.576,0,17.368-7.792,17.368-17.368v-7.8c0-3.768-3.064-6.832-6.832-6.832c-1.24,0-2.448,0.336-3.504,0.968
		c-7.456,4.464-16.304,5.424-24.256,2.648l-2.528-0.888l-1.488-2.232c-3.552-5.32-9.488-8.496-15.888-8.496
		c-4.32,0-8.552,1.488-11.928,4.184l-18.592,14.872c-1.808,1.448-2.872,3.512-3,5.824c-0.128,2.312,0.704,4.488,2.336,6.128
		c3.136,3.128,8.224,3.128,11.36,0C410.2,242.488,416.208,240,422.6,240z"/>
</g>
<path style="fill:#FFA64D;" d="M208,224c-12.824,0-24.48-6.512-31.192-17.432l-43.752-71.096C124.512,121.6,120,105.656,120,89.36
	V88c0-48.52,39.48-88,88-88s88,39.48,88,88v1.36c0,16.296-4.512,32.24-13.056,46.12l-43.752,71.096
	C232.48,217.488,220.824,224,208,224z"/>
<path style="fill:#333333;" d="M208,144c-30.88,0-56-25.12-56-56s25.12-56,56-56s56,25.12,56,56S238.88,144,208,144z M208,48
	c-22.056,0-40,17.944-40,40s17.944,40,40,40s40-17.944,40-40S230.056,48,208,48z"/>
<g>
</g>
<g>
</g>
<g>
</g>
<g>
</g>
<g>
</g>
<g>
</g>
<g>
</g>
<g>
</g>
<g>
</g>
<g>
</g>
<g>
</g>
<g>
</g>
<g>
</g>
<g>
</g>
<g>
</g>
</svg>
