<?xml version="1.0" encoding="iso-8859-1"?>
<!-- Generator: Adobe Illustrator 19.0.0, SVG Export Plug-In . SVG Version: 6.00 Build 0)  -->
<svg xmlns="http://www.w3.org/2000/svg" xmlns:xlink="http://www.w3.org/1999/xlink" version="1.1" id="Capa_1" x="0px" y="0px" viewBox="0 0 511.986 511.986" style="enable-background:new 0 0 511.986 511.986;" xml:space="preserve" width="512" height="512">
<g id="XMLID_2838_">
	<g id="XMLID_7519_">
		<path id="XMLID_8369_" style="fill:#2195F2;" d="M391.449,120.443l-27.03,43.03l-8.17,13l-20.22,32.18    c-0.46,0.73-0.8,1.53-1.01,2.37l-6.09,24.91c-0.42,1.69-0.27,3.47,0.41,5.07l11.83,27.73c0.2,0.46,0.35,0.93,0.46,1.42    l14.31,64.91l1.8,8.15c0.36,1.64,0.2,3.34-0.45,4.85c-0.32,0.79-0.78,1.53-1.36,2.19l-61.44,69.98c-1.54,1.76-2.24,4.1-1.92,6.41    l3.62,26.19c0.1,0.75,0.1,1.5-0.02,2.23c-0.26,1.92-1.22,3.71-2.74,5.01l-49.98,42.51c-2.73,2.33-6.67,2.56-9.66,0.58    l-23.15-15.36c-2.83-1.88-4.18-5.32-3.37-8.62c1.47-6,3.89-15.86,5.97-24.12c1.87-7.39,3.46-13.51,3.85-14.41    c0.332-0.772,9.636-8.076,22.277-17.76c2.967-2.273,6.118-2.676,9.38-5.157c23.007-17.501,51.539-40.85,60.033-47.203    c1.61-1.2,2.71-2.96,3.08-4.94l3.34-17.53l2.48-13l3.29-17.27c0.63-3.29-0.85-6.63-3.72-8.37l-11.61-7.09    c-0.43-0.26-0.82-0.56-1.19-0.89l-11.69-10.52c-0.87-0.79-1.91-1.37-3.03-1.72l-21.25-6.5c-3.09-0.95-6.44,0.04-8.52,2.51    l-22.9,27.18c-1.53,1.82-3.78,2.87-6.16,2.87h-9.29c-2.81,0-5.41-1.46-6.87-3.86l-6.48-10.59c-1.45-2.38-1.57-5.34-0.32-7.82    l11.86-23.51c0.49-0.97,0.78-2.02,0.85-3.11l1.39-21.58c0.34-5.23-4.32-9.38-9.47-8.44l-64.06,11.64    c-3.14,0.57-6.31-0.76-8.1-3.39l-7.83-11.53c-2.07-3.04-1.81-7.1,0.63-9.85l11.09-12.53c4.12-4.65,1.64-12.02-4.45-13.23    l-14.08-2.81c-4.53-0.91-7.37-5.43-6.22-9.91l2.14-8.27l3.36-13l0.21-0.83c0.24-0.92,0.63-1.79,1.17-2.57l15-21.69    c1.23-1.77,3.12-2.98,5.25-3.35l22.65-3.93c3.05-0.53,5.52-2.76,6.37-5.74l7.82-27.67c0.78-2.77,2.99-4.92,5.79-5.62l25.97-6.48    c2.42-0.6,4.99-0.05,6.94,1.5l37.48,29.66c5.85,4.63,14.32-0.52,12.89-7.85l-10.18-52.43l-3.58-18.45c-0.68-3.48,1-7,4.14-8.65    l0.25-0.14c4.43-2.34,9.91-0.11,11.43,4.67l7.22,22.57c0.83,2.62,2.95,4.64,5.61,5.34l2.73,0.71c4.47,1.19,8.95-1.64,9.91-6.05    c0.06-0.28,0.11-0.56,0.14-0.85l4.06-36.78c0.4-3.65,3.22-6.57,6.85-7.09l29.05-4.17c2.09-0.3,4.21,0.23,5.91,1.48l28.88,21.2    c1.66,1.22,2.79,3.03,3.15,5.05l3.84,21.16l10.56,58.25C392.919,116.703,392.519,118.743,391.449,120.443z"/>
		<path id="XMLID_8366_" style="fill:#006FAD;" d="M357.289,348.063c-0.32,0.79-0.78,1.53-1.36,2.19l-61.44,69.98    c-1.54,1.76-2.24,4.1-1.92,6.41l3.62,26.19c0.1,0.75,0.1,1.5-0.02,2.23c-0.26,1.92-1.22,3.71-2.74,5.01l-49.98,42.51    c-2.73,2.33-6.67,2.56-9.66,0.58l-23.15-15.36c-2.83-1.88-4.18-5.32-3.37-8.62c1.47-6,3.89-15.86,5.97-24.12    c1.87-7.39,3.46-13.51,3.85-14.41c0.331-0.77,9.596-8.045,22.197-17.698c3.151-2.414,6.511-2.977,9.992-5.624    c22.913-17.424,51.072-40.495,59.501-46.798c1.61-1.2,2.71-2.96,3.08-4.94l3.34-17.53l2.48-13h38.26l1.8,8.15    C358.099,344.853,357.939,346.553,357.289,348.063z"/>
		<path id="XMLID_7748_" style="fill:#E4F4F0;" d="M294.489,420.233c-1.54,1.76-2.24,4.1-1.92,6.41l3.62,26.19    c0.1,0.75,0.1,1.5-0.02,2.23c-0.26,1.92-1.22,3.71-2.74,5.01l-49.98,42.51c-2.73,2.33-6.67,2.56-9.66,0.58l-23.15-15.36    c-2.83-1.88-4.18-5.32-3.37-8.62c1.47-6,3.89-15.86,5.97-24.12c1.87-7.39,3.46-13.51,3.85-14.41    c0.96-2.23,76.86-59.03,91.69-70.12c1.61-1.2,2.71-2.96,3.08-4.94l3.34-17.53h42.09c-0.32,0.79-0.78,1.53-1.36,2.19    L294.489,420.233z"/>
		<g id="XMLID_7734_">
			<path id="XMLID_7744_" style="fill:#FE4080;" d="M296.169,455.063c-0.26,1.92-1.22,3.71-2.74,5.01l-49.98,42.51     c-2.73,2.33-6.67,2.56-9.66,0.58l-23.15-15.36c-2.83-1.88-4.18-5.32-3.37-8.62c1.47-6,3.89-15.86,5.97-24.12H296.169z"/>
		</g>
		<path id="XMLID_8370_" style="fill:#006FAD;" d="M391.449,120.443l-27.03,43.03l-8.17,13h-234.56l3.36-13l0.21-0.83    c0.24-0.92,0.63-1.79,1.17-2.57l15-21.69c1.23-1.77,3.12-2.98,5.25-3.35l22.65-3.93c3.05-0.53,5.52-2.76,6.37-5.74l7.82-27.67    c0.78-2.77,2.99-4.92,5.79-5.62l25.97-6.48c2.42-0.6,4.99-0.05,6.94,1.5l37.48,29.66c5.85,4.63,14.32-0.52,12.89-7.85    l-10.18-52.43l-3.58-18.45c-0.68-3.48,1-7,4.14-8.65l0.25-0.14c4.43-2.34,9.91-0.11,11.43,4.67l7.22,22.57    c0.83,2.62,2.95,4.64,5.61,5.34l2.73,0.71c4.47,1.19,8.95-1.64,9.91-6.05c0.06-0.28,0.11-0.56,0.14-0.85l4.06-36.78    c0.4-3.65,3.22-6.57,6.85-7.09l29.05-4.17c2.09-0.3,4.21,0.23,5.91,1.48l28.88,21.2c1.66,1.22,2.79,3.03,3.15,5.05l3.84,21.16    l10.56,58.25C392.919,116.703,392.519,118.743,391.449,120.443z"/>
		<path id="XMLID_7681_" style="fill:#E4F4F0;" d="M391.449,120.443l-27.03,43.03h-239.37l0.21-0.83c0.24-0.92,0.63-1.79,1.17-2.57    l15-21.69c1.23-1.77,3.12-2.98,5.25-3.35l22.65-3.93c3.05-0.53,5.52-2.76,6.37-5.74l7.82-27.67c0.78-2.77,2.99-4.92,5.79-5.62    l25.97-6.48c2.42-0.6,4.99-0.05,6.94,1.5l37.48,29.66c5.85,4.63,14.32-0.52,12.89-7.85l-10.18-52.43l-3.58-18.45    c-0.68-3.48,1-7,4.14-8.65l0.25-0.14c4.43-2.34,9.91-0.11,11.43,4.67l7.22,22.57c0.83,2.62,2.95,4.64,5.61,5.34l2.73,0.71    c4.47,1.19,8.95-1.64,9.91-6.05c0.06-0.28,0.11-0.56,0.14-0.85l4.06-36.78c0.4-3.65,3.22-6.57,6.85-7.09l29.05-4.17    c2.09-0.3,4.21,0.23,5.91,1.48l28.88,21.2c1.66,1.22,2.79,3.03,3.15,5.05l3.84,21.16l10.56,58.25    C392.919,116.703,392.519,118.743,391.449,120.443z"/>
		<g id="XMLID_7544_">
			<path id="XMLID_7738_" style="fill:#FE4080;" d="M274.649,33.903l7.22,22.57h-19.46l-3.58-18.45c-0.68-3.48,1-7,4.14-8.65     l0.25-0.14C267.649,26.894,273.129,29.124,274.649,33.903z"/>
			<path id="XMLID_7741_" style="fill:#FE4080;" d="M381.999,56.473h-81.88c0.06-0.28,0.11-0.56,0.14-0.85l4.06-36.78     c0.4-3.65,3.22-6.57,6.85-7.09l29.05-4.17c2.09-0.3,4.21,0.23,5.91,1.48l28.88,21.2c1.66,1.22,2.79,3.03,3.15,5.05     L381.999,56.473z"/>
		</g>
	</g>
	<g id="XMLID_2839_">
		<path id="XMLID_2848_" d="M348.949,268.543c-0.206-0.938-0.502-1.863-0.883-2.757l-5.392-12.637    c-1.625-3.81-6.03-5.579-9.842-3.955c-3.81,1.626-5.581,6.032-3.955,9.842l5.39,12.631c0.015,0.035,0.026,0.068,0.033,0.103    l15.171,68.793h-25.206l4.069-21.364c1.205-6.326-1.679-12.829-7.175-16.183l-11.617-7.088c-0.028-0.018-0.056-0.039-0.08-0.06    l-11.685-10.521c-1.674-1.507-3.698-2.653-5.852-3.313l-21.255-6.508c-5.97-1.828-12.422,0.077-16.444,4.849l-22.905,27.187    c-0.105,0.124-0.258,0.195-0.42,0.195h-9.296c-0.19,0-0.37-0.101-0.469-0.263l-6.476-10.594c-0.1-0.163-0.108-0.363-0.022-0.534    l11.856-23.507c0.948-1.88,1.498-3.899,1.633-6.001l1.393-21.586c0.31-4.809-1.576-9.406-5.174-12.611    c-3.598-3.205-8.378-4.55-13.124-3.688l-16.488,2.997c-4.075,0.74-6.778,4.645-6.038,8.72s4.641,6.782,8.72,6.038l16.488-2.997    c0.08-0.014,0.263-0.047,0.464,0.13c0.2,0.178,0.188,0.366,0.183,0.445l-1.393,21.586c-0.005,0.074-0.024,0.146-0.058,0.212    l-11.856,23.507c-2.44,4.839-2.21,10.488,0.617,15.112l6.476,10.595c2.805,4.588,7.889,7.439,13.267,7.439h9.296    c4.596,0,8.93-2.016,11.892-5.53l22.905-27.187c0.143-0.168,0.37-0.234,0.581-0.171l21.255,6.508    c0.076,0.023,0.147,0.064,0.207,0.117l11.687,10.523c0.713,0.641,1.488,1.219,2.303,1.716l11.616,7.087    c0.194,0.118,0.296,0.348,0.253,0.572l-9.104,47.8c-0.026,0.137-0.097,0.251-0.205,0.332c-5.727,4.28-25.951,19.41-45.765,34.387    c-3.304,2.498-3.958,7.201-1.46,10.505c1.475,1.951,3.718,2.978,5.989,2.978c1.575,0,3.163-0.495,4.517-1.518    c19.785-14.955,39.982-30.064,45.701-34.338c3.115-2.328,5.231-5.716,5.959-9.541l2.178-11.436h19.877l-52.428,59.723    c-2.981,3.396-4.336,7.91-3.718,12.385l2.747,19.892h-64.975c0.317-1.202,0.572-2.143,0.767-2.84    c1.645-1.395,5.837-4.793,16.498-12.994c3.283-2.526,3.897-7.234,1.371-10.518s-7.235-3.896-10.518-1.371    c-19.647,15.115-19.873,15.638-20.825,17.844c-0.406,0.943-1.163,2.698-10.224,39.719c-1.552,6.344,1.063,13.034,6.508,16.648    l23.148,15.359c2.6,1.725,5.596,2.575,8.583,2.575c3.613,0,7.215-1.244,10.089-3.688l49.978-42.515    c4.067-3.459,6.059-8.683,5.328-13.971l-3.617-26.192c-0.021-0.158,0.026-0.317,0.131-0.437l61.432-69.979    c3.253-3.706,4.561-8.793,3.499-13.606L348.949,268.543z M238.591,496.872c-0.186,0.158-0.457,0.174-0.66,0.04l-23.147-15.359    c-0.196-0.13-0.287-0.359-0.231-0.584c1.789-7.31,3.294-13.399,4.543-18.405h59.827L238.591,496.872z"/>
		<path id="XMLID_2855_" d="M160.559,238.183l-13.396,2.435c-0.215,0.039-0.43-0.053-0.552-0.232l-7.827-11.523    c-0.141-0.208-0.124-0.484,0.043-0.672l11.088-12.53c3.734-4.219,4.89-9.926,3.093-15.265c-1.797-5.34-6.169-9.186-11.694-10.289    l-14.078-2.81c-0.058-0.011-0.232-0.046-0.357-0.247c-0.126-0.201-0.082-0.373-0.067-0.43l4.041-15.647h219.988l-21.167,33.687    c-0.888,1.413-1.541,2.953-1.939,4.578l-2.666,10.894c-0.984,4.024,1.479,8.083,5.502,9.068c4.021,0.982,8.083-1.479,9.068-5.502    l2.665-10.892c0.014-0.059,0.037-0.114,0.069-0.165l55.426-88.209c2.071-3.295,2.829-7.218,2.135-11.047l-14.395-79.409    c-0.713-3.931-2.879-7.397-6.099-9.759L350.565,3.019c-3.302-2.424-7.353-3.442-11.412-2.857l-29.047,4.17    c-7.021,1.009-12.467,6.637-13.245,13.686l-4.06,36.787c-0.008,0.068-0.028,0.25-0.235,0.392    c-0.208,0.142-0.385,0.096-0.451,0.079l-2.722-0.717c-0.183-0.048-0.327-0.184-0.384-0.364l-7.214-22.575    c-1.405-4.396-4.661-7.918-8.935-9.663c-4.273-1.745-9.064-1.508-13.146,0.65l-0.253,0.134c-6.098,3.224-9.311,9.939-7.996,16.71    l13.763,70.883c0.039,0.201,0.073,0.375-0.254,0.574c-0.326,0.198-0.465,0.088-0.626-0.039l-37.472-29.657    c-3.755-2.97-8.77-4.052-13.415-2.893L187.495,84.8c-5.395,1.346-9.686,5.506-11.198,10.856l-7.819,27.663    c-0.057,0.202-0.228,0.356-0.435,0.392l-22.651,3.931c-4.081,0.708-7.773,3.069-10.13,6.477l-14.997,21.688    c-1.044,1.509-1.807,3.176-2.267,4.957l-5.708,22.106c-1.064,4.121-0.376,8.551,1.886,12.155s5.954,6.148,10.126,6.981    l14.078,2.81c0.117,0.023,0.312,0.062,0.413,0.363c0.102,0.301-0.03,0.45-0.109,0.54l-11.088,12.53    c-4.715,5.328-5.216,13.158-1.219,19.042l7.827,11.523c2.925,4.307,7.775,6.813,12.864,6.813c0.921,0,1.852-0.082,2.779-0.251    l13.396-2.435c4.075-0.741,6.778-4.645,6.038-8.72C168.538,240.145,164.638,237.44,160.559,238.183z M311.771,19.662    c0.028-0.249,0.22-0.447,0.468-0.483l29.046-4.17c0.143-0.019,0.288,0.016,0.404,0.101l28.879,21.199    c0.113,0.083,0.189,0.206,0.214,0.344l2.233,12.32h-64.479L311.771,19.662z M266.474,36l0.253-0.134    c0.063-0.032,0.229-0.12,0.464-0.023c0.238,0.097,0.294,0.275,0.316,0.341l4.086,12.789h-2.999l-2.404-12.382    C266.144,36.352,266.258,36.114,266.474,36z M147.599,142.651c0.083-0.121,0.214-0.205,0.358-0.229l22.651-3.932    c5.857-1.017,10.686-5.37,12.303-11.09l7.819-27.662c0.053-0.189,0.205-0.336,0.396-0.383l25.966-6.481    c0.167-0.042,0.34-0.004,0.475,0.102l37.471,29.656c5.155,4.08,12.115,4.508,17.731,1.092s8.436-9.794,7.183-16.248l-8.446-43.5    h6.065c2.034,2.451,4.803,4.248,8,5.09l2.723,0.717c4.378,1.154,9.029,0.345,12.762-2.218c1.445-0.992,2.688-2.211,3.705-3.589    h70.973l9.442,52.087c0.024,0.135-0.002,0.273-0.076,0.39l-24.834,39.522h-221.88L147.599,142.651z"/>
	</g>
</g>















</svg>
