<svg id="Capa_1" enable-background="new 0 0 512 512" height="512" viewBox="0 0 512 512" width="512" xmlns="http://www.w3.org/2000/svg"><path d="m226 60c-2.329 0-4.629.542-6.709 1.582l-60 30c-5.083 2.549-8.291 7.734-8.291 13.418v61c0 3.984 1.582 7.793 4.395 10.605l22.354 22.354-6.021 12.041 39.272 30h90v-181z" fill="#ff637b"/><path d="m451 211v-15c0-3.984-1.582-7.793-4.395-10.605l-22.354-22.354 25.166-50.332c2.402-4.819 2.051-11.547-.938-16.029l-60-90c-2.782-4.175-7.469-6.68-12.479-6.68h-30c-5.684 0-10.869 3.208-13.418 8.291l-25.854 51.709h-5.728v181h90z" fill="#ff637b"/><path d="m451 211v-15c0-3.984-1.582-7.793-4.395-10.605l-22.354-22.354 25.166-50.332c2.402-4.819 2.051-11.547-.938-16.029l-60-90c-2.782-4.175-7.469-6.68-12.479-6.68h-30c-5.684 0-10.869 3.208-13.418 8.291l-25.854 51.709h-5.728v181h90z" fill="#e63950"/><path d="m196 512h-60c-3.984 0-7.793-1.582-10.605-4.395l-25.606-25.605h-23.789c-8.291 0-15-6.709-15-15v-30c0-3.984 1.582-7.793 4.395-10.605l30-30c2.812-2.813 6.621-4.395 10.605-4.395h60c3.984 0 7.793 1.582 10.605 4.395l30 30c2.813 2.812 4.395 6.621 4.395 10.605v60c0 8.291-6.709 15-15 15z" fill="#5f5acf"/><path d="m301 211h-129.272l-19.146 38.291c-1.04 2.08-1.582 4.38-1.582 6.709v31c0 5.2 2.695 10.02 7.119 12.759 4.409 2.739 9.917 2.944 14.59.659l38.291-19.146v29.517l-25.605 25.605c-5.859 5.859-5.859 15.352 0 21.211l60 60c2.812 2.813 6.621 4.395 10.605 4.395h30c5.684 0 10.869-3.208 13.418-8.291l1.582-3.164 24.272-48.545h80.728c5.684 0 10.869-3.208 13.418-8.291l30-60c1.04-2.08 1.582-4.38 1.582-6.709v-76z" fill="#5f5acf"/><path d="m406 362c5.684 0 10.869-3.208 13.418-8.291l30-60c1.04-2.08 1.582-4.38 1.582-6.709v-76h-150v199.545l24.272-48.545z" fill="#534dcb"/></svg>