<svg height="426pt" viewBox="0 -24 426.4136 426" width="426pt" xmlns="http://www.w3.org/2000/svg"><path d="m282.96875 138.722656c14.878906 2.167969 33.941406 3.753906 33.941406 3.753906s66.726563-23.550781 82.429688-19.625c15.703125 3.925782 0 3.925782 3.925781 27.476563s19.625 58.878906 15.699219 94.203125c-3.921875 35.328125-31.398438 58.875-31.398438 58.875s-7.851562 23.550781-7.851562 31.402344c0 7.851562-39.25-7.851563-54.953125-19.625-15.699219-11.777344-27.472657-19.625-31.398438 0s-7.851562 43.175781-54.953125 43.175781c-47.097656 0-43.175781-27.472656-43.175781-27.472656l-23.550781 3.925781v19.625l-54.949219-23.550781-27.476563 3.925781-35.328124 35.324219s-19.625 3.925781-31.398438 0c-11.777344-3.925781-15.703125-35.324219-15.703125-35.324219s7.851563 0 19.625-11.777344 11.777344-47.101562 11.777344-47.101562l90.277343-39.253906s11.773438 15.703124 35.324219 3.925781c23.550781-11.773438 74.578125-19.625 62.804688-35.324219-11.777344-15.703125-27.476563-11.777344-27.476563-15.703125s3.925782-27.476563-7.851562-31.402344c-11.777344-3.921875-27.476563 7.851563-31.402344 15.703125-3.921875 7.851563-11.773438 31.402344-11.773438 31.402344s-19.625-19.625-27.476562-19.625-7.851562-19.625-7.851562-19.625l15.703124-19.625s39.25-31.402344 58.875-31.402344c9.554688 0 27.480469 3.71875 43.816407 7.992188" fill="#fff"/><path d="m36.054688 378.722656c-5.324219 0-10.929688-.527344-15.6875-2.113281-14.714844-4.894531-19.269532-32.585937-20.3125005-40.953125-.2460935-1.949219.3593745-3.902344 1.6562505-5.367188 1.292968-1.46875 3.15625-2.308593 5.113281-2.308593-.1875 0 5.6875-.667969 14.800781-9.773438 7.121094-7.121093 9.777344-29.707031 9.777344-42.273437 0-2.722656 1.613281-5.179688 4.101562-6.261719l90.28125-39.253906c2.910156-1.246094 6.292969-.359375 8.179688 2.167969.839844 1.046874 9.246094 10.714843 26.8125 1.914062 7.808594-3.898438 18.226562-7.320312 28.300781-10.628906 10.503906-3.445313 29.867187-9.804688 32.378906-14.113282-.0625-.066406-.152343-.207031-.28125-.386718-6.082031-8.101563-13.214843-9.59375-18.421875-10.679688-3.644531-.765625-10.421875-2.179687-10.421875-9.113281 0-.667969.078125-1.800781.203125-3.273437 1.433594-17.382813-1.507812-21.027344-3.386718-21.65625-7.652344-2.519532-20.382813 6.78125-23.132813 12.28125-3.042969 6.078124-9.269531 24.078124-11.410156 30.503906-.746094 2.242187-2.605469 3.941406-4.90625 4.480468-2.300781.566407-4.71875-.136718-6.394531-1.8125-8.929688-8.917968-19.59375-17.164062-22.820313-17.632812-.003906 0-.007813 0-.007813 0-13.441406 0-14.5-20.238281-14.5-26.445312 0-1.554688.527344-3.054688 1.496094-4.265626l15.703125-19.621093c.316407-.394531.675781-.746094 1.066407-1.066407 4.207031-3.367187 41.738281-32.898437 63.140624-32.898437 12.765626 0 36.101563 5.746094 45.542969 8.210937 3.648438.953126 5.832031 4.6875 4.875 8.332032-.953125 3.648437-4.6875 5.808594-8.332031 4.882812-18.597656-4.867187-34.332031-7.777344-42.085938-7.777344-12.367187 0-39.414062 17.863282-54.023437 29.449219l-13.65625 17.058594c.253906 4.359375 1.148437 8.828125 2.132813 10.5625 6.695312.75 15.808593 7.527344 23.28125 14.152344 2.671874-7.578125 6.296874-17.445313 8.6875-22.21875 4.875-9.78125 23.640624-24.496094 39.664062-19.121094 14.210938 4.730469 13.589844 23.8125 12.828125 33.78125 6.21875 1.3125 16.996094 3.957031 25.796875 15.699219 3.742188 4.984375 3.4375 9.503906 2.519531 12.417968-3.238281 10.285157-17.792969 15.535157-41.273437 23.238282-9.609375 3.15625-19.542969 6.414062-26.453125 9.867187-18.507813 9.253907-32.535157 4.101563-39.914063-1.917969l-82.019531 35.660157c-.421875 10.730469-2.601563 36.339843-13.675781 47.40625-6.695313 6.691406-12.464844 10.144531-16.746094 11.910156 2.175781 11.269531 6.417969 22.640625 10.152344 23.882813 7.304687 2.4375 19.757812 1.136718 25.929687.136718l33.8125-33.8125c1.039063-1.042968 2.398438-1.71875 3.863281-1.933594l27.476563-3.917968c1.242187-.179688 2.5-.015625 3.652344.484375l45.433593 19.46875v-9.277344c0-3.339844 2.414063-6.183594 5.707032-6.730469l23.554687-3.921875c2.125-.34375 4.335938.328125 5.890625 1.855469 1.554688 1.519531 2.296875 3.691406 1.984375 5.847656-.003906.105469-.515625 5.339844 3.84375 10.191406 5.570313 6.207032 16.835938 9.488282 32.578125 9.488282 40.742188 0 44.300782-17.839844 48.066406-36.730469l.1875-.957031c.660157-3.300782 2.667969-13.339844 11.015626-16.527344 9.699218-3.710938 20.621093 4.488281 31.179687 12.410156 12.023437 9.011719 35.210937 18.519532 44.503906 20.152344 1.570313-9.867188 6.574219-25.179688 7.722657-28.632812.390624-1.167969 1.09375-2.214844 2.027343-3.015626.253907-.21875 25.5-22.351562 29.070313-54.449218 2.589844-23.328125-3.871094-46.707032-9.566406-67.335938-2.492188-9.003906-4.839844-17.511718-6.085938-25-1.789062-10.726562-.007812-17.558594 1.636719-21.84375-.15625-.039062-.316407-.082031-.484375-.128906-9.472656-2.359375-51.59375 9.949219-78.496094 19.449219-.914062.3125-1.890625.453125-2.84375.359375-.785156-.058594-19.441406-1.632813-34.359375-3.804688-3.730469-.539062-6.316406-4.007812-5.773437-7.742187.542968-3.730469 4.035156-6.363281 7.738281-5.765625 12.175781 1.773437 27.394531 3.171875 32.089843 3.585937 14.148438-4.945312 68.722657-23.386719 84.957032-19.316406 5.269531 1.3125 9.449218 2.636719 11.421875 6.644531 1.867187 3.78125.394531 7.160156-.675781 9.628906-1.382813 3.171876-3.273438 7.527344-1.746094 16.699219 1.132812 6.78125 3.390625 14.953125 5.78125 23.605469 5.726562 20.734375 12.855468 46.542969 9.976562 72.476562-3.679687 33.132813-26.179687 56.25-32.265625 61.964844-3.054687 9.394532-6.945312 23.179688-6.945312 27.554688 0 3.339844-1.808594 6.238281-4.832031 7.753906-11.59375 5.789062-50.257813-13.828125-61.042969-21.914062-4.164063-3.125-15.277344-11.445313-18.117188-10.574219.003907 0-1.394531.960937-2.496093 6.453125l-.183594.941406c-4.015625 20.140625-9.515625 47.71875-61.457032 47.71875-20.296874 0-34.792968-4.84375-43.085937-14.402344-3.554687-4.109375-5.347656-8.359375-6.21875-11.957031l-10.597656 1.769531v13.839844c0 2.292969-1.15625 4.433594-3.070313 5.699219-1.914062 1.257812-4.335937 1.484375-6.445312.574219l-53.191406-22.792969-23.332032 3.332031-33.71875 33.710938c-.957031.953124-2.167968 1.601562-3.488281 1.867187-1.394531.277344-9.859375 1.894531-19.210937 1.894531zm0 0" fill="#602f75"/><path d="m139.695312 327.886719c0 18.851562-15.28125 34.132812-34.132812 34.132812s-34.132812-15.28125-34.132812-34.132812c0-18.851563 15.28125-34.132813 34.132812-34.132813s34.132812 15.28125 34.132812 34.132813zm0 0" fill="#00e7ff"/><path d="m330.84375 177.699219c0-6.28125-15.28125-11.378907-34.132812-11.378907-18.851563 0-34.136719 5.097657-34.136719 11.378907 0 6.285156 15.285156 11.378906 34.136719 11.378906 18.851562 0 34.132812-5.09375 34.132812-11.378906zm0 0" fill="#ea3457"/><path d="m296.710938 195.90625c-18.898438 0-40.960938-4.765625-40.960938-18.207031 0-13.4375 22.0625-18.207031 40.960938-18.207031 18.894531 0 40.957031 4.769531 40.957031 18.207031 0 13.441406-22.0625 18.207031-40.957031 18.207031zm-25.84375-18.207031c3.796874 2.023437 12.800781 4.554687 25.84375 4.554687 13.039062 0 22.046874-2.53125 25.839843-4.554687-3.792969-2.019531-12.800781-4.550781-25.839843-4.550781-13.042969 0-22.046876 2.53125-25.84375 4.550781zm53.496093 1.328125h.070313zm0 0" fill="#ea3457"/><path d="m22.527344 248.457031-3.925782-15.699219 7.851563-11.777343-7.851563-7.851563 7.851563-11.773437-7.851563-19.625 7.851563-54.953125s31.398437 39.253906 35.324219 39.253906c3.925781 0-11.773438 11.773438-7.851563 15.699219 3.925781 3.925781 19.625 15.703125 23.550781 19.625 3.925782 3.925781 0 15.703125 0 19.625 0 3.925781-11.773437 23.550781-11.773437 23.550781zm0 0" fill="#fff"/><path d="m22.523438 255.285156c-3.101563 0-5.855469-2.105468-6.621094-5.171875l-3.925782-15.707031c-.464843-1.867188-.125-3.839844.941407-5.441406l4.746093-7.113282-3.890624-3.890624c-2.300782-2.300782-2.660157-5.90625-.855469-8.613282l5.859375-8.792968-6.515625-16.292969c-.445313-1.105469-.585938-2.3125-.417969-3.5l7.851562-54.949219c.382813-2.691406 2.332032-4.898438 4.960938-5.617188 2.613281-.695312 5.417969.199219 7.125 2.316407 12.570312 15.707031 28.1875 33.972656 32.324219 37.101562 1.925781.671875 3.703125 2.097657 4.492187 3.839844 2.101563 4.640625-.984375 8.167969-4.253906 11.894531-.796875.910156-2.140625 2.441406-3.132812 3.746094 2.355468 1.992188 5.714843 4.679688 8.789062 7.148438 5.183594 4.144531 10.082031 8.058593 12.304688 10.277343 5.347656 5.355469 3.738281 14.3125 2.5625 20.855469-.265626 1.476562-.542969 2.757812-.558594 3.609375 0 1.589844 0 5.816406-12.75 27.0625-1.121094 1.867187-3.066406 3.085937-5.238282 3.285156l-43.175781 3.925781c-.207031.023438-.417969.027344-.621093.027344zm3.433593-21.257812 1.773438 7.105468 33.875-3.078124c4.179687-7.183594 8.378906-15.121094 9.058593-17.570313.058594-1.597656.390626-3.4375.765626-5.53125.398437-2.214844 1.304687-7.265625.871093-9.113281-1.957031-1.847656-6.65625-5.601563-10.828125-8.941406-5.214844-4.171876-10.136718-8.113282-12.371094-10.34375-6.160156-6.152344-.429687-13.914063 3.753907-18.808594-4.347657-4.066406-11.035157-11.378906-21.859375-24.519532l-5.378906 37.660157 7.171874 17.933593c.835938 2.085938.589844 4.445313-.660156 6.320313l-4.746094 7.121094 3.894532 3.890625c2.300781 2.300781 2.660156 5.90625.851562 8.613281zm44.695313-13.054688v.007813zm-8.859375-61.769531c.203125 0 .410156.011719.617187.03125-.195312-.019531-.398437-.03125-.617187-.03125zm-.015625 0h.011718c-.003906 0-.007812 0-.011718 0zm0 0" fill="#602f75"/><path d="m296.710938 7.035156c-33.105469 0-59.941407 26.835938-59.941407 59.941406 0 33.101563 59.941407 103.898438 59.941407 103.898438s59.941406-70.796875 59.941406-103.898438c0-33.105468-26.839844-59.941406-59.941406-59.941406zm0 83.25c-15.082032 0-27.308594-12.222656-27.308594-27.304687s12.226562-27.308594 27.308594-27.308594c15.082031 0 27.304687 12.226563 27.304687 27.308594s-12.222656 27.304687-27.304687 27.304687zm0 0" fill="#ffe600"/><path d="m296.710938 177.699219c-2.007813 0-3.914063-.886719-5.210938-2.414063-6.300781-7.445312-61.558594-73.707031-61.558594-108.3125 0-36.8125 29.953125-66.765625 66.769532-66.765625 36.816406 0 66.765624 29.953125 66.765624 66.765625 0 34.605469-55.257812 100.867188-61.558593 108.3125-1.296875 1.527344-3.203125 2.414063-5.207031 2.414063zm0-163.839844c-29.289063 0-53.113282 23.828125-53.113282 53.113281 0 22.726563 34.546875 70.195313 53.113282 93.175782 18.5625-22.980469 53.113281-70.449219 53.113281-93.175782 0-29.285156-23.828125-53.113281-53.113281-53.113281zm0 83.253906c-18.820313 0-34.136719-15.3125-34.136719-34.132812 0-18.820313 15.316406-34.132813 34.136719-34.132813 18.816406 0 34.132812 15.3125 34.132812 34.132813 0 18.820312-15.316406 34.132812-34.132812 34.132812zm0-54.613281c-11.292969 0-20.480469 9.1875-20.480469 20.480469s9.1875 20.480469 20.480469 20.480469c11.292968 0 20.476562-9.1875 20.476562-20.480469s-9.183594-20.480469-20.476562-20.480469zm0 0" fill="#602f75"/></svg>