<svg height="512" viewBox="0 0 64 64" width="512" xmlns="http://www.w3.org/2000/svg"><g id="Filled_outline" data-name="Filled outline"><rect fill="#aabece" height="46" rx="2" width="58" x="3" y="3"/><path d="m14 57h36v4h-36z" fill="#394d5c"/><path d="m43 57h-22l4-8h14z" fill="#7d8d9c"/><path d="m3 7h58v34h-58z" fill="#f4f4e6"/><circle cx="32" cy="45" fill="#394d5c" r="2"/><path d="m56 44h2v2h-2z" fill="#55b56a"/><path d="m52 44h2v2h-2z" fill="#e1462b"/><path d="m10 14h32v20h-32z" fill="#55b56a"/><path d="m25 29h-9v-2h8v-2h-7a1 1 0 0 1 -1-1v-4a1 1 0 0 1 1-1h9v2h-8v2h7a1 1 0 0 1 1 1v4a1 1 0 0 1 -1 1z" fill="#fcf05a"/><path d="m22 17h2v3h-2z" fill="#fcf05a"/><path d="m22 28h2v3h-2z" fill="#fcf05a"/><path d="m18 17h2v3h-2z" fill="#fcf05a"/><path d="m18 28h2v3h-2z" fill="#fcf05a"/><path d="m9 11h2v26h-2z" fill="#394d5c"/><path d="m35 14a7 7 0 0 0 7 7v-7z" fill="#c8d952"/><path d="m35 34a7 7 0 0 1 7-7v7z" fill="#c8d952"/><g fill="#2d75bb"><path d="m45 14h8v2h-8z"/><path d="m51.707 18.707-1.414-1.414 2.293-2.293-2.293-2.293 1.414-1.414 3 3a1 1 0 0 1 0 1.414z"/><path d="m45 23h8v2h-8z"/><path d="m51.707 27.707-1.414-1.414 2.293-2.293-2.293-2.293 1.414-1.414 3 3a1 1 0 0 1 0 1.414z"/><path d="m45 32h8v2h-8z"/><path d="m51.707 36.707-1.414-1.414 2.293-2.293-2.293-2.293 1.414-1.414 3 3a1 1 0 0 1 0 1.414z"/></g><path d="m59 2h-54a3 3 0 0 0 -3 3v42a3 3 0 0 0 3 3h18.382l-3 6h-6.382a1 1 0 0 0 -1 1v4a1 1 0 0 0 1 1h36a1 1 0 0 0 1-1v-4a1 1 0 0 0 -1-1h-6.382l-3-6h18.382a3 3 0 0 0 3-3v-42a3 3 0 0 0 -3-3zm-54 2h54a1 1 0 0 1 1 1v1h-56v-1a1 1 0 0 1 1-1zm55 36h-56v-32h56zm-11 20h-34v-2h34zm-7.618-4h-18.764l3-6h12.764zm17.618-8h-54a1 1 0 0 1 -1-1v-5h56v5a1 1 0 0 1 -1 1z"/><path d="m35 45a3 3 0 1 0 -3 3 3 3 0 0 0 3-3zm-3 1a1 1 0 1 1 1-1 1 1 0 0 1 -1 1z"/><path d="m56 44h2v2h-2z"/><path d="m52 44h2v2h-2z"/><path d="m18 31h2v-2h2v2h2v-2h1a1 1 0 0 0 1-1v-4a1 1 0 0 0 -1-1h-7v-2h8v-2h-2v-2h-2v2h-2v-2h-2v2h-1a1 1 0 0 0 -1 1v4a1 1 0 0 0 1 1h7v2h-8v2h2z"/><path d="m11 35h32v-22h-32v-2h-2v26h2zm30-2h-4.917a6.017 6.017 0 0 1 4.917-4.917zm0-18v4.917a6.017 6.017 0 0 1 -4.917-4.917zm-6.931 0a8.008 8.008 0 0 0 6.931 6.931v4.138a8.008 8.008 0 0 0 -6.931 6.931h-23.069v-18z"/><path d="m50.293 17.293 1.414 1.414 3-3a1 1 0 0 0 0-1.414l-3-3-1.414 1.414 1.293 1.293h-6.586v2h6.586z"/><path d="m50.293 26.293 1.414 1.414 3-3a1 1 0 0 0 0-1.414l-3-3-1.414 1.414 1.293 1.293h-6.586v2h6.586z"/><path d="m50.293 35.293 1.414 1.414 3-3a1 1 0 0 0 0-1.414l-3-3-1.414 1.414 1.293 1.293h-6.586v2h6.586z"/></g></svg>