<svg version="1.1" id="Capa_1"
	xmlns="http://www.w3.org/2000/svg"
	xmlns:xlink="http://www.w3.org/1999/xlink" x="0px" y="0px"
	 viewBox="0 0 496 496" style="enable-background:new 0 0 496 496;" xml:space="preserve">
	
	<style>
		.pin{
			transform: translateY(-100%);
			animation: slidedown .75s alternate infinite;
			animation-timing-function: cubic-bezier(.17,.67,.83,.67);
		}

		@keyframes slidedown{
			70%{
				transform: translateY(0%);
			}
			100%{
				transform: translateY(0%);
			}
		}
	</style>
	<g>
		<path style="fill:#333333;" d="M297.328,496c-13.312,0-25.832-5.176-35.232-14.592c-6.072-6.064-14.136-9.408-22.712-9.408h-2.016 c-6.896,0-13.744,2.28-19.256,6.424l-12.256,9.184c-7.216,5.416-16.152,8.392-25.168,8.392h-2.752 C154.816,496,136,477.184,136,454.064c0-11.2,4.36-21.736,12.28-29.656l29.784-29.784c3.824-3.824,5.936-8.92,5.936-14.344 c0-11.176-9.104-20.28-20.28-20.28h-16c-9.696,0-18.808-3.776-25.656-10.624l-15.44-15.44C102.8,330.112,97.704,328,92.28,328 C72.272,328,56,311.728,56,291.72v-0.408l-3.408-3.408c-8.12-8.112-12.592-18.92-12.592-30.4c0-13.464,6.432-26.32,17.2-34.4 l6.552-4.912c5.16-3.88,8.248-10.048,8.248-16.504c0-7.856-4.368-14.928-11.4-18.448l-5.24-2.616 C45.88,175.88,40,166.36,40,155.776C40,140.464,52.464,128,67.776,128h0.912l15.032-15.032c5.776-5.784,13.472-8.968,21.656-8.968 C113.44,104,120,97.44,120,89.376v-4.032c0-2.256-0.536-4.528-1.544-6.552L98.888,39.68C97,35.88,96,31.64,96,27.416 C96,12.296,108.296,0,123.416,0c11.04,0,20.44,5.808,25.112,15.16L156.944,32h4.336c11.896,0,22.936,5.904,29.536,15.808 C194.24,52.936,199.96,56,206.128,56c7.56,0,14.272-4.536,17.088-11.568c6.96-17.416,23.24-28.432,41.6-28.432 c11.92,0,23.144,4.64,31.568,13.08l2.928,2.92h14.064c16.488,0,32.624,6.688,44.28,18.344l3.72,3.72 c6.32,6.312,15.064,9.936,24,9.936C402.256,64,416,77.744,416,94.624c0,8.184-3.184,15.872-8.968,21.656l-0.888,0.888 C402.24,121.08,400,126.48,400,132s2.24,10.92,6.144,14.832c6.352,6.352,9.856,14.8,9.856,23.792v1.528 c0,15.352-9.208,28.952-23.464,34.656c-10.048,4.016-16.536,13.6-16.536,24.416v13.352c0,14.784-7.872,28.68-20.544,36.272 l-13.416,8.056c-3.728,2.24-6.04,6.32-6.04,10.664c0,6.856,5.576,12.432,12.432,12.432h38.728c15.904,0,28.84,12.936,28.84,28.84 c0,9.664-4.8,18.632-12.848,24C396.168,369.504,392,377.296,392,385.688v11.368c0,14.368,6.856,28.096,18.352,36.72l1.904,1.424 c7.36,5.52,11.744,14.28,11.744,23.472C424,474.84,410.84,488,394.664,488h-3.552c-6.304,0-12.552-2.088-17.592-5.864l-16.4-12.296 c-2.92-2.168-6.952-2.136-9.8,0.16l-18.856,15.088C319.648,492.128,308.592,496,297.328,496z M237.368,456h2.016 c12.848,0,24.936,5.008,34.024,14.096c6.392,6.392,14.88,9.904,23.92,9.904c7.648,0,15.152-2.632,21.144-7.416l18.848-15.088 c8.552-6.856,20.64-7.024,29.392-0.464l16.4,12.296c2.296,1.72,5.136,2.664,8,2.664h3.552C402.016,472,408,466.016,408,458.664 c0-4.168-1.992-8.16-5.328-10.664l-1.904-1.424C385.248,434.944,376,416.432,376,397.056v-11.368c0-13.752,6.832-26.52,18.28-34.16 c3.576-2.384,5.72-6.376,5.72-10.688c0-7.08-5.76-12.84-12.848-12.84h-38.728C332.752,328,320,315.248,320,299.568 c0-9.928,5.288-19.272,13.808-24.384l13.424-8.056c7.88-4.72,12.768-13.36,12.768-22.552v-13.352c0-17.4,10.44-32.816,26.6-39.28 c8.144-3.256,13.4-11.024,13.4-19.792v-1.528c0-4.712-1.84-9.144-5.176-12.488C387.944,151.256,384,141.736,384,132 s3.944-19.256,10.824-26.144l0.888-0.888c2.728-2.72,4.288-6.488,4.288-10.344C400,86.56,393.44,80,385.376,80 c-13.152,0-26.016-5.328-35.312-14.624l-3.72-3.72C337.664,52.976,325.648,48,313.376,48h-20.688l-7.608-7.608 C279.664,34.976,272.472,32,264.816,32c-11.792,0-22.232,7.072-26.608,18.016C232.808,63.512,220.264,72,206.128,72 c-11.52,0-22.216-5.728-28.616-15.32l0,0C173.88,51.24,167.816,48,161.28,48h-14.224l-12.84-25.688 C132.264,18.424,128.352,16,124,16c-6.88,0-12,5.12-12,11.416c0,1.768,0.416,3.528,1.2,5.12l19.56,39.112 c2.12,4.24,3.24,8.976,3.24,13.696v4.032c0,16.88-13.744,30.624-30.624,30.624c-3.848,0-7.624,1.56-10.344,4.28L75.312,144h-7.536 C61.28,144,56,149.28,56,155.776c0,4.488,2.488,8.528,6.504,10.536l5.24,2.616C80.24,175.176,88,187.728,88,201.688 c0,11.464-5.48,22.416-14.64,29.296l-6.56,4.912c-6.76,5.072-10.8,13.152-10.8,21.608c0,7.112,2.88,14.072,7.904,19.096L72,284.688 v7.032C72,302.896,81.104,312,92.28,312c9.696,0,18.8,3.776,25.656,10.624l15.44,15.44c3.824,3.824,8.92,5.936,14.344,5.936h16 c20.008,0,36.28,16.272,36.28,36.28c0,9.696-3.776,18.808-10.624,25.656l-29.784,29.784c-4.896,4.896-7.592,11.416-7.592,18.344 C152,468.368,163.632,480,177.936,480h2.752c5.576,0,11.112-1.84,15.568-5.184l12.248-9.192 C216.776,459.424,227.024,456,237.368,456z"/>
		<path style="fill:#333333;" d="M403.032,56H388c-11.032,0-20-8.968-20-20v-9.168c0-3.08,0.728-6.16,2.104-8.928l3.424-6.856 C376.944,4.232,383.808,0,391.416,0H436c11.032,0,20,8.968,20,20s-8.968,20-20,20h-7.032c-1.056,0-2.088,0.432-2.832,1.176 l-8.968,8.968C413.448,53.864,408.296,56,403.032,56z M391.416,16c-1.504,0-2.904,0.872-3.584,2.216l-3.408,6.832 c-0.272,0.544-0.424,1.168-0.424,1.784V36c0,2.2,1.8,4,4,4h15.032c1.056,0,2.088-0.432,2.824-1.176l8.968-8.968 c3.728-3.72,8.88-5.856,14.144-5.856H436c2.2,0,4-1.8,4-4s-1.8-4-4-4H391.416z"/>
	</g>
	
	<g class="pin">
		<path style="fill:#FFA64D;" d="M232,352c-12.92,0-24.536-7.176-30.312-18.736l-48.64-97.288C147.136,224.16,144,210.904,144,197.664 C144,150.432,182.432,112,229.664,112h4.672C281.568,112,320,150.432,320,197.664c0,13.24-3.136,	26.496-9.048,38.312l-48.64,97.288 C256.536,344.824,244.92,352,232,352z"/>
		<path style="fill:#333333;" d="M232,248c-26.472,0-48-21.528-48-48s21.528-48,48-48s48,21.528,48,48S258.472,248,232,248z M232,168 c-17.648,0-32,14.352-32,32s14.352,32,32,32s32-14.352,32-32S249.648,168,232,168z"/>
	</g>

	<g>
		<rect x="336" y="96" style="fill:#333333;" width="16" height="16"/>
		<rect x="96" y="136" style="fill:#333333;" width="16" height="16"/>
		<rect x="128" y="272" style="fill:#333333;" width="16" height="16"/>
		<rect x="216" y="408" style="fill:#333333;" width="16" height="16"/>
		<rect x="152" y="344" style="fill:#333333;" width="16" height="16"/>
		<rect x="328" y="376" style="fill:#333333;" width="16" height="16"/>
	</g>
</svg>
