<svg height="512" viewBox="0 0 64 64" width="512" xmlns="http://www.w3.org/2000/svg"><g id="Report-Data_Analytic" data-name="Report-Data Analytic"><path d="m36 25h-28a1 1 0 0 0 -1 1v6a1 1 0 0 0 1 1h28a1 1 0 0 0 1-1v-6a1 1 0 0 0 -1-1z" fill="#c6c5ca"/><path d="m36 14h-28a1 1 0 0 0 -1 1v6a1 1 0 0 0 1 1h28a1 1 0 0 0 1-1v-6a1 1 0 0 0 -1-1z" fill="#d8d7da"/><path d="m61 23v22h-42v-22a3.657 3.657 0 0 1 .13-1 3.992 3.992 0 0 1 3.87-3h34a3.707 3.707 0 0 1 1.49.3 3.976 3.976 0 0 1 2.51 3.7z" fill="#5aaae7"/><path d="m30 34v-7a6.979 6.979 0 0 0 -6.92 6 5.474 5.474 0 0 0 -.08 1 7 7 0 0 0 14 0z" fill="#ff5023"/><path d="m39.32 28a6.97 6.97 0 0 0 -6.32-4v7h7a6.844 6.844 0 0 0 -.68-3z" fill="#ffd422"/><path d="m37 8v2a1 1 0 0 1 -1 1h-28a1 1 0 0 1 -1-1v-6a1 1 0 0 1 1-1h28a1 1 0 0 1 1 1z" fill="#c6c5ca"/><path d="m61 23v22h-27.44a68.608 68.608 0 0 0 24.93-25.7 3.976 3.976 0 0 1 2.51 3.7z" fill="#3d9ae2"/><path d="m19 45h42v2a4 4 0 0 1 -4 4h-34a4 4 0 0 1 -4-4z" fill="#c6c5ca"/><path d="m48 57a2.015 2.015 0 0 1 2 2 2.006 2.006 0 0 1 -2 2h-16a2.015 2.015 0 0 1 -2-2 2.006 2.006 0 0 1 2-2z" fill="#898890"/><path d="m46 57h-12l.67-4 .33-2h10l.33 2z" fill="#acabb1"/><path d="m45.33 53h-10.66l.33-2h10z" fill="#898890"/><path d="m12 6h2v2h-2z"/><path d="m30 6h2v2h-2z"/><path d="m26 6h2v2h-2z"/><path d="m22 6h2v2h-2z"/><path d="m12 17h2v2h-2z"/><path d="m12 28h2v2h-2z"/><path d="m57 18h-19v-1h3a1 1 0 0 0 1-1v-8a1 1 0 0 0 -1-1h-3v-3a2 2 0 0 0 -2-2h-28a2 2 0 0 0 -2 2v3h-3a1 1 0 0 0 -1 1v8a1 1 0 0 0 1 1h3v2h-3a1 1 0 0 0 -1 1v8a1 1 0 0 0 1 1h3v3a2 2 0 0 0 2 2h10v13a5.006 5.006 0 0 0 5 5h10.82l-.667 4h-1.153a3 3 0 0 0 0 6h16a3 3 0 0 0 0-6h-1.153l-.667-4h10.82a5.006 5.006 0 0 0 5-5v-24a5.006 5.006 0 0 0 -5-5zm3 5v21h-40v-21a3 3 0 0 1 3-3h34a3 3 0 0 1 3 3zm-37-5a5 5 0 0 0 -4.576 3h-10.424v-6h28v3zm-15-14h28v6h-28zm-4 11v-6h2v1a2 2 0 0 0 2 2h28a2 2 0 0 0 2-2v-1h2v6h-2a2 2 0 0 0 -2-2h-28a2 2 0 0 0 -2 2zm2 11v1h-2v-6h2a2 2 0 0 0 2 2h10v1h-10a2 2 0 0 0 -2 2zm2 6v-6h10v6zm41 27a1 1 0 0 1 -1 1h-16a1 1 0 0 1 0-2h16a1 1 0 0 1 1 1zm-4.18-3h-9.64l.667-4h8.306zm12.18-6h-34a3 3 0 0 1 -3-3v-1h40v1a3 3 0 0 1 -3 3z"/><path d="m54 47h2v2h-2z"/><path d="m30 42a8.009 8.009 0 0 0 8-8 1 1 0 0 0 -1-1h-6v-6a1 1 0 0 0 -1-1 8 8 0 0 0 0 16zm-1-13.917v5.917a1 1 0 0 0 1 1h5.917a6 6 0 1 1 -6.917-6.917z"/><path d="m33 32h7a1 1 0 0 0 1-1 8.009 8.009 0 0 0 -8-8 1 1 0 0 0 -1 1v7a1 1 0 0 0 1 1zm1-6.917a6.017 6.017 0 0 1 4.917 4.917h-4.917z"/><path d="m45 24h2v2h-2z"/><path d="m49 24h8v2h-8z"/><path d="m45 28h12v2h-12z"/><path d="m45 32h12v2h-12z"/><path d="m48 39.414 2.293 2.293a1 1 0 0 0 1.414 0l4-4-1.414-1.414-3.293 3.293-2.293-2.293a1 1 0 0 0 -1.414 0l-3 3 1.414 1.414z"/></g></svg>