<svg id="Layer_1" enable-background="new 0 0 128 128" height="512" viewBox="0 0 128 128" width="512" xmlns="http://www.w3.org/2000/svg"><path d="m118.444 86.363h-2.399c-3.062 0-5.554 2.491-5.554 5.553v1.963l-19.506-5.052c-.78-2.749-2.689-5.022-5.196-6.289v-12.604c3.14-1.586 5.341-4.753 5.558-8.452l3.135-.434c2.95-.408 5.017-3.14 4.609-6.09l-1.351-9.765v-.001l-2.93-21.179c0-.002-.001-.004-.001-.006l-.028-.203c-.003-.024-.018-.043-.023-.067-.682-3.833-4.281-6.483-8.171-5.948l-67.543 9.344c-1.673.231-3.137 1.192-4.016 2.635s-1.061 3.184-.499 4.777l3.809 10.801-2.988.413c-.856.119-1.614.563-2.136 1.251-.521.688-.743 1.539-.625 2.395l1.663 12.021c.119.856.563 1.614 1.251 2.135.567.43 1.245.656 1.945.656.149 0 .299-.01.45-.031l8.146-1.127.272 1.967c.374 2.7 2.694 4.661 5.346 4.661.245 0 .494-.017.744-.051l11.733-1.623 27.529-3.808c.869 2.498 2.684 4.55 5.02 5.729v12.604c-3.309 1.671-5.588 5.094-5.588 9.047 0 5.59 4.548 10.138 10.139 10.138 2.806 0 5.348-1.146 7.185-2.994l22.068 5.716v4.281c0 3.062 2.491 5.553 5.554 5.553h2.399c.552 0 1-.448 1-1v-25.916c-.001-.552-.449-1-1.001-1z" fill="#e6e7e8"/><path d="m21.239 46.849c-2.166.3-4.244-.966-4.971-3.028l-.582-1.652-4.202.581c-1.222.169-2.075 1.296-1.906 2.518l1.663 12.021c.169 1.222 1.297 2.075 2.518 1.906l9.137-1.264-1.536-11.1z" fill="#0089ef"/><path d="m77.237 78.447c1.259 0 2.459.255 3.551.716v-13.853c-1.092.461-2.291.716-3.551.716-1.261 0-2.459-.262-3.55-.724v13.862c1.092-.462 2.291-.717 3.55-.717z" fill="#6dc9f7"/><path d="m107.49 99.671v-8.5l-21.325-5.523c.135.625.21 1.272.21 1.938 0 2.312-.865 4.417-2.28 6.026z" fill="#6dc9f7"/><path d="m114.444 109.28h-2.4c-2.515 0-4.553-2.039-4.553-4.553v-16.81c0-2.515 2.039-4.553 4.553-4.553h2.4z" fill="#6dc9f7"/><circle cx="77.238" cy="87.586" fill="#fa759e" r="9.139"/><path d="m86.362 56.609-3.606.499c-.102 2.569-2.026 4.776-4.662 5.141s-5.087-1.237-5.883-3.682l-3.832.53c.99 3.978 4.575 6.929 8.858 6.929 5.047 0 9.139-4.091 9.139-9.139 0-.094-.011-.185-.014-.278z" fill="#fa759e"/><path d="m94.099 51.096-1.351-9.767c.476 3.442-1.928 6.619-5.371 7.095l-43.536 6.023c-2.733.378-5.373-1.15-6.407-3.708l-.613-1.518c-1.019-2.521-3.622-4.028-6.316-3.655l-9.144 1.265 1.945 14.057c.333 2.407 2.555 4.089 4.962 3.756l43.943-6.079c-.098-.301-.175-.613-.22-.938-.41-2.961 1.659-5.694 4.62-6.103 2.961-.41 5.694 1.659 6.103 4.62.045.325.055.646.042.962l7.587-1.05c2.408-.331 4.089-2.553 3.756-4.96z" fill="#6dc9f7"/><path d="m11.47 30.213 4.798 13.608c.727 2.062 2.805 3.328 4.971 3.028l9.266-1.282c2.694-.373 5.296 1.133 6.316 3.655l.613 1.518c1.034 2.558 3.674 4.086 6.407 3.708l43.536-6.023c3.442-.476 5.847-3.653 5.371-7.095l-2.93-21.178c-.476-3.442-3.653-5.847-7.095-5.371l-67.543 9.343c-2.885.399-4.678 3.343-3.71 6.089z" fill="#0089ef"/><circle cx="77.352" cy="56.887" fill="#fff" r="5.413"/><path d="m82.714 56.145c-.302-2.183-1.868-3.877-3.856-4.454-2.548.73-4.241 3.236-3.867 5.938.302 2.183 1.868 3.877 3.856 4.454 2.548-.73 4.241-3.236 3.867-5.938z" fill="#fa759e"/><g fill="#3a2c60"><path d="m114.443 82.363h-2.399c-3.062 0-5.554 2.491-5.554 5.553v1.963l-19.506-5.052c-.78-2.75-2.689-5.022-5.197-6.289v-12.604c3.14-1.586 5.341-4.753 5.558-8.452l3.135-.434c2.95-.408 5.017-3.14 4.609-6.09l-1.351-9.767-2.93-21.179c-.552-3.983-4.235-6.774-8.223-6.224l-67.543 9.344c-1.673.231-3.137 1.192-4.016 2.635s-1.061 3.184-.499 4.777l3.808 10.801-2.988.414c-.856.119-1.614.563-2.135 1.251-.521.69-.743 1.54-.624 2.396l1.663 12.021c.119.856.563 1.614 1.251 2.135.567.43 1.245.656 1.944.656.149 0 .3-.01.45-.031l8.146-1.127.272 1.966c.374 2.7 2.694 4.661 5.346 4.661.245 0 .494-.017.744-.051l11.733-1.623c.547-.076.929-.581.854-1.128-.076-.548-.579-.929-1.128-.854l-11.733 1.624c-1.852.261-3.578-1.045-3.834-2.902l-1.808-13.066 8.153-1.128c2.247-.309 4.403.939 5.251 3.039l.613 1.518c1.084 2.683 3.672 4.391 6.501 4.391.321 0 .645-.022.97-.067l30.352-4.199c-2.285 1.226-3.692 3.772-3.334 6.485l-15.135 2.094c-.547.076-.929.581-.854 1.128.069.5.498.863.989.863.046 0 .092-.003.139-.009l11.531-1.595c.877 2.543 2.706 4.571 5.02 5.736v12.598c-3.309 1.671-5.588 5.094-5.588 9.047 0 5.59 4.548 10.138 10.138 10.138 2.806 0 5.348-1.146 7.185-2.994l22.067 5.715v4.281c0 3.062 2.491 5.553 5.554 5.553h2.399c.552 0 1-.448 1-1v-25.918c.004-.552-.443-1-.996-1zm-100.821-24.158c-.326.047-.651-.04-.913-.238-.263-.199-.432-.488-.477-.814l-1.663-12.021c-.045-.326.04-.65.238-.913s.488-.432.814-.477l3.393-.47.311.882c.782 2.218 2.873 3.682 5.171 3.73l1.272 9.195zm30.082-4.749c-2.28.314-4.479-.955-5.342-3.091l-.613-1.518c-1.071-2.65-3.628-4.337-6.422-4.337-.317 0-.637.021-.958.066l-9.142 1.265c-.001 0-.001 0-.002 0s-.001 0-.002.001l-.12.017c-1.686.238-3.324-.763-3.891-2.37l-4.799-13.609c-.361-1.024-.244-2.144.321-3.072s1.506-1.545 2.583-1.694l67.543-9.344c2.881-.403 5.567 1.626 5.967 4.517l2.93 21.179c.4 2.891-1.626 5.568-4.517 5.967zm43.811-4.041c1.929-.267 3.639-1.27 4.815-2.822.041-.054.075-.112.114-.167l.665 4.807c.257 1.857-1.045 3.577-2.902 3.834l-6.509.9c-.243-1.68-1.12-3.169-2.475-4.194-.748-.567-1.595-.948-2.485-1.144zm-13.681 4.808c.711-.939 1.746-1.546 2.914-1.708.205-.028.41-.042.614-.042.955 0 1.879.309 2.654.895.94.711 1.547 1.746 1.708 2.914.162 1.167-.141 2.328-.853 3.268s-1.746 1.546-2.914 1.708c-1.166.162-2.328-.141-3.268-.853s-1.547-1.746-1.708-2.914c-.162-1.167.141-2.328.853-3.268zm-4.14 5.701 1.878-.26c.436.909 1.082 1.71 1.909 2.336 1.125.852 2.469 1.301 3.856 1.301.296 0 .594-.021.892-.062 1.697-.234 3.201-1.116 4.235-2.482.626-.827 1.03-1.773 1.203-2.766l1.661-.23c-.438 4.078-3.9 7.264-8.092 7.264-3.36 0-6.32-2.049-7.542-5.101zm4.993 6.777c.818.212 1.673.324 2.55.324.882 0 1.734-.125 2.551-.338v11.098c-.817-.213-1.668-.338-2.551-.338-.882 0-1.734.125-2.55.338zm2.55 29.023c-4.487 0-8.138-3.651-8.138-8.138 0-4.488 3.651-8.139 8.138-8.139 4.488 0 8.139 3.651 8.139 8.139 0 4.487-3.651 8.138-8.139 8.138zm8.548-2.708c1.002-1.572 1.591-3.432 1.591-5.43 0-.202-.019-.399-.03-.599l19.145 4.958v6.433zm27.658 15.264h-1.399c-1.959 0-3.554-1.594-3.554-3.553v-16.81c0-1.959 1.594-3.553 3.554-3.553h1.399z"/><path d="m50.466 60.565-5.385.745c-.547.076-.929.581-.854 1.128.069.5.498.863.989.863.046 0 .092-.003.139-.009l5.385-.745c.547-.076.929-.581.854-1.128-.076-.548-.582-.931-1.128-.854z"/><path d="m82.294 36.49c.58-.08.984-.615.904-1.195s-.615-.984-1.195-.904l-11.428 1.581c-.58.08-.984.615-.904 1.195s.615.984 1.195.904z"/><path d="m82.806 40.195-11.428 1.581c-.58.08-.984.615-.904 1.195.08.58.615.984 1.195.904l11.428-1.581c.58-.08.984-.615.904-1.195s-.615-.985-1.195-.904z"/></g></svg>