<svg id="Capa_1" enable-background="new 0 0 511.858 511.858" height="512" viewBox="0 0 511.858 511.858" width="512" xmlns="http://www.w3.org/2000/svg"><path d="m475.902 92.016h-141.524c-14.335 0-25.956-11.621-25.956-25.956v-35.864h193.436v35.864c0 14.335-11.621 25.956-25.956 25.956z" fill="#5c90ae"/><path d="m448.478 92.018v101.665c0-25.089-20.341-45.441-45.441-45.441s-45.441 20.351-45.441 45.441v-101.665z" fill="#bdd3dd"/><path d="m292.406 161.093 65.187 32.593-174.503 85.434.635 78.102-45.443 19.995-38.461-85.473-89.963-29.393 259.782-102.267c7.388-2.908 15.664-2.541 22.766 1.009z" fill="#5c90ae"/><path d="m458.013 213.955v59.982l-167.557 141.388c-10.609 8.952-22.414 16.38-35.075 22.07l-92.522 41.581c-15.347 6.897-33.375-.022-40.167-15.415l-84.729-192.03 61.862 20.214 38.462 85.474 45.441-20.001-.637-78.103 174.507-85.432c0 25.099 20.341 45.451 45.441 45.451s45.441-20.352 45.441-45.451z" fill="#bdd3dd"/><circle cx="403.035" cy="193.687" fill="#5c90ae" r="45.443"/><path d="m69.316 342.589 32.619 73.932-38.031 18.596-33.145-75.381z" fill="#5c90ae"/><path d="m501.858 20.196h-346.452c-5.522 0-10 4.477-10 10s4.478 10 10 10h143.016v25.864c0 19.826 16.13 35.956 35.956 35.956h13.219v75.492l-50.719-25.359c-9.626-4.812-20.889-5.312-30.901-1.37l-74.365 29.275c-5.139 2.023-7.665 7.829-5.642 12.968s7.83 7.666 12.968 5.642l74.364-29.275c4.744-1.866 10.078-1.629 14.632.648l47.108 23.554-156.349 76.542c-3.456 1.692-5.635 5.216-5.604 9.063l.583 71.521-30.338 13.351-34.391-76.427c-1.155-2.566-3.338-4.528-6.014-5.402l-61.862-20.213c-.008-.003-.016-.003-.024-.006l-1.665-.544 77.977-30.696c5.139-2.023 7.665-7.829 5.642-12.968-2.022-5.139-7.83-7.666-12.968-5.642l-103.834 40.876c-8.539 3.361-8.154 15.964.558 18.81l23.863 7.797 25.525 57.851-29.445 13.094c-5.031 2.237-7.307 8.122-5.091 13.162l33.145 75.382c2.251 5.119 8.508 7.423 13.547 4.958l28.689-14.028 16.557 37.525c6.566 14.879 21.891 24.568 38.181 24.044 5.25-.169 10.445-1.393 15.234-3.545l92.523-41.581c13.51-6.071 26.101-13.994 37.425-23.548l167.557-141.387c2.252-1.9 3.551-4.696 3.551-7.643v-59.982c0-1.472-.325-2.925-.951-4.256l-8.584-18.249v-89.433h17.424c19.826 0 35.956-16.129 35.956-35.956v-35.865c-.001-5.523-4.478-10-10.001-10zm-432.991 401.363-24.945-56.733 20.293-9.024 24.69 55.959zm334.169-192.429c-19.304 0-35.439-16.16-35.439-35.447 0-13.435 7.514-25.148 18.561-31.156 5.021-2.731 10.772-4.283 16.879-4.283 19.542 0 35.441 15.899 35.442 35.442 0 5.184-1.128 10.106-3.135 14.548-5.564 12.306-17.948 20.896-32.308 20.896zm-35.44-78.049v-49.063h70.882v49.063c-15.514-12.929-37.484-16.402-56.214-8.798-5.289 2.147-10.289 5.131-14.668 8.798zm-116.314 277.193-92.523 41.581c-10.161 4.568-22.43-.16-26.917-10.331l-75.683-171.526 36.357 11.879 36.647 81.443c2.221 4.932 8.209 7.229 13.152 5.052l45.438-19.997c3.618-1.592 6.006-5.284 5.975-9.239l-.586-71.803 6.529-3.196 61.499 141.194c-3.23 1.771-6.522 3.43-9.888 4.943zm196.731-158.983-164.004 138.391c-1.898 1.601-3.849 3.133-5.826 4.628l-60.533-138.976 132.012-64.63c5.577 19.806 22.317 35.316 42.494 39.348 16.259 3.249 33.392-1.107 46.17-11.652 3.646-3.009 6.922-6.492 9.687-10.326zm43.845-203.231c0 8.798-7.158 15.956-15.956 15.956h-141.524c-8.798 0-15.956-7.158-15.956-15.956v-25.864h173.437v25.864z"/><path d="m412.268 189.862c-1.674-4.018-5.874-6.56-10.217-6.126-4.327.432-7.971 3.732-8.823 7.996-1.733 8.675 8.329 15.202 15.562 10.127 3.78-2.651 5.256-7.731 3.478-11.997z"/><path d="m147.088 210.602c4.926 7.324 16.614 4.883 18.163-3.834 1.631-9.173-9.684-15.343-16.559-9.122-3.63 3.283-4.311 8.888-1.604 12.956z"/><path d="m101.748 34.022c1.645 3.946 5.701 6.447 9.964 6.141 4.347-.312 8.048-3.53 9.012-7.772 1.984-8.735-8.168-15.49-15.499-10.369-3.786 2.645-5.252 7.74-3.477 12z"/></svg>