<?xml version="1.0" encoding="iso-8859-1"?>
<!-- Generator: Adobe Illustrator 19.0.0, SVG Export Plug-In . SVG Version: 6.00 Build 0)  -->
<svg version="1.1" id="Capa_1" xmlns="http://www.w3.org/2000/svg" xmlns:xlink="http://www.w3.org/1999/xlink" x="0px" y="0px"
	 viewBox="0 0 512 512" style="enable-background:new 0 0 512 512;" xml:space="preserve">
<path style="fill:#4DBBEB;" d="M501.994,313.431v140.088h-20.013c-22.104,0-40.025-17.921-40.025-40.025v-60.038
	c0-22.104,17.921-40.025,40.025-40.025H501.994z"/>
<path style="fill:#57555C;" d="M441.956,353.456v60.038H352.18c-15.55,0-29.699-9.016-36.273-23.114l-39.945-85.664l54.414-25.376
	l34.562,74.116H441.956z"/>
<path style="fill:#F0E6DE;" d="M431.959,165.719c14.019,30.059,1.011,65.771-29.038,79.79
	c-3.771,1.759-27.32,12.742-217.646,101.493c-10.016,4.673-21.924,0.33-26.597-9.686l-42.286-90.687l290.191-135.325
	L431.959,165.719z"/>
<path style="fill:#4DBBEB;" d="M398.128,93.173l8.455,18.131L116.392,246.629c-17.091,7.975-35.552,9.386-52.563,5.283
	c-22.874-5.513-43.107-21.023-53.824-43.997l308.343-143.78C348.398,50.116,384.119,63.125,398.128,93.173z"/>
<path style="fill:#57555C;" d="M116.392,246.629l42.286,90.687l-36.273,16.921c-10.026,4.673-21.924,0.34-26.597-9.686
	l-33.831-72.545c-3.162-6.774-2.201-14.409,1.851-20.093C80.84,256.015,99.301,254.604,116.392,246.629z"/>
<path d="M282.637,224.315c-5.013,2.331-7.174,8.285-4.843,13.298c2.331,5.003,8.285,7.174,13.298,4.843
	c5.003-2.341,7.174-8.295,4.843-13.298C293.593,224.145,287.64,221.984,282.637,224.315z"/>
<path d="M50.585,258.273c-1.069,5.994-0.329,12.274,2.325,17.96l33.831,72.543c6.985,14.99,24.787,21.568,39.896,14.527
	l28.747-13.409c8.633,8.811,22.244,11.716,34.121,6.176l81.616-38.06l35.717,76.596c8.183,17.552,25.981,28.893,45.341,28.893
	h80.776c4.649,22.809,24.863,40.025,49.025,40.025h20.013c5.525,0,10.006-4.48,10.006-10.006V313.431
	c0-5.526-4.481-10.006-10.006-10.006h-20.013c-24.161,0-44.376,17.216-49.025,40.025h-61.644l-27.639-59.272l63.479-29.602
	c35.001-16.329,50.198-58.088,33.875-93.087c-1.21-2.595-32.026-68.678-33.83-72.544C390.84,53.861,349.206,38.7,314.119,55.066
	L5.777,198.846c-2.405,1.122-4.267,3.153-5.174,5.648c-0.907,2.494-0.786,5.246,0.335,7.652
	C10.973,233.658,28.728,250.012,50.585,258.273z M118.179,345.167c-5.018,2.34-10.958,0.181-13.301-4.845l-33.833-72.548
	c-0.664-1.424-0.95-2.96-0.909-4.485c14.418,2.047,28.329,0.522,41.187-3.85l34.058,73.04L118.179,345.167z M481.981,323.437h10.006
	v120.075h-10.006c-16.552,0-30.019-13.466-30.019-30.019v-60.038C451.963,336.904,465.429,323.437,481.981,323.437z
	 M355.869,357.685c1.644,3.524,5.18,5.778,9.069,5.778h67.012v40.025h-79.77c-11.615,0-22.293-6.805-27.204-17.337l-35.717-76.598
	l36.277-16.917L355.869,357.685z M398.692,236.44L181.045,337.934c-5.019,2.34-10.965,0.157-13.297-4.847l-38.059-81.618
	l272.055-126.867l21.147,45.345C434.55,194.947,423.694,224.776,398.692,236.44z M322.579,73.203
	c25.057-11.688,54.796-0.865,66.482,24.199l4.227,9.063L112.163,237.561c0,0-0.001,0-0.001,0.001l0,0
	c-31.907,14.886-69.422,3.705-88.215-25.107L322.579,73.203z"/>
<path d="M373.316,182.026l-54.404,25.376c-5.008,2.335-7.174,8.289-4.838,13.298c1.698,3.64,5.306,5.779,9.075,5.779
	c1.416,0,2.856-0.302,4.224-0.941l54.404-25.376c5.008-2.335,7.174-8.29,4.838-13.298
	C384.279,181.857,378.326,179.69,373.316,182.026z"/>
<g>
</g>
<g>
</g>
<g>
</g>
<g>
</g>
<g>
</g>
<g>
</g>
<g>
</g>
<g>
</g>
<g>
</g>
<g>
</g>
<g>
</g>
<g>
</g>
<g>
</g>
<g>
</g>
<g>
</g>
</svg>
