<?xml version="1.0" encoding="iso-8859-1"?>
<!-- Generator: Adobe Illustrator 19.0.0, SVG Export Plug-In . SVG Version: 6.00 Build 0)  -->
<svg version="1.1" id="Capa_1" xmlns="http://www.w3.org/2000/svg" xmlns:xlink="http://www.w3.org/1999/xlink" x="0px" y="0px"
	 viewBox="0 0 512 512" style="enable-background:new 0 0 512 512;" xml:space="preserve">
<path style="fill:#423E38;" d="M196.296,415.593H35.306c-10.174,0-18.422-8.248-18.422-18.422s8.247-18.422,18.422-18.422h143.997
	l13.766-170.429c0.82-10.141,9.716-17.701,19.845-16.879c10.141,0.819,17.698,9.704,16.879,19.845l-15.135,187.367
	C213.886,408.222,205.895,415.593,196.296,415.593z"/>
<path style="fill:#45748C;" d="M217.598,245.349l-25.94-9.671c-19.533-7.282-29.465-29.02-22.182-48.553l6.358-17.055l96.676,36.042
	l-6.358,17.055C258.87,242.7,237.132,252.631,217.598,245.349z"/>
<g>
	<polygon style="fill:#2D5872;" points="182.198,172.442 175.834,170.07 175.217,171.725 	"/>
	<path style="fill:#2D5872;" d="M234.186,191.824l-19.544,52.423l2.956,1.102c19.533,7.282,41.271-2.649,48.553-22.182l6.358-17.055
		L234.186,191.824z"/>
</g>
<path style="fill:#CCDFED;" d="M471.543,251.905l-54.59-20.352l25.329-67.941l54.59,20.352c6.058,2.259,9.138,9.001,6.88,15.059
	l-17.15,46.003C484.343,251.083,477.601,254.163,471.543,251.905z"/>
<path style="fill:#8EB0BC;" d="M414.041,257.251l-113.403-42.278l32.137-86.203l123.386,45.999l-28.415,76.219
	C425.691,256.503,419.555,259.306,414.041,257.251z"/>
<path style="fill:#CCDFED;" d="M405.002,189.921l53.343,19.887c4.435,1.654,9.371-0.602,11.025-5.037l17.112-45.901
	c1.654-4.435-0.602-9.371-5.037-11.025L155.329,26.266c-13.454-5.016-28.427,1.825-33.443,15.279l-32.822,88.039
	c-5.016,13.454,1.825,28.427,15.279,33.443l210.609,78.517c4.624,1.724,9.81,0.959,13.739-2.028l62.572-47.567
	C395.193,188.962,400.378,188.197,405.002,189.921z"/>
<path style="fill:#9EBECC;" d="M405.002,147.255c-4.625-1.724-9.81-0.959-13.739,2.028l-62.572,47.567
	c-3.929,2.987-9.114,3.752-13.739,2.028l-210.609-78.517c-3.719-1.387-6.93-3.537-9.528-6.203l-5.751,15.426
	c-5.016,13.454,1.825,28.427,15.279,33.443l210.609,78.517c4.624,1.724,9.81,0.959,13.739-2.028l62.572-47.567
	c3.929-2.987,9.114-3.752,13.739-2.028l53.343,19.887c4.435,1.653,9.371-0.602,11.025-5.037l10.888-29.205L405.002,147.255z"/>
<path style="fill:#45748C;" d="M34.285,487.39H13.483c-3.304,0-5.983-2.679-5.983-5.983V318.434c0-3.304,2.679-5.983,5.983-5.983
	h20.802c15.921,0,28.827,12.906,28.827,28.827v117.285C63.112,474.484,50.206,487.39,34.285,487.39z"/>
<path style="fill:#2D5872;" d="M34.285,312.451H22.612V487.39h11.673c15.921,0,28.827-12.906,28.827-28.827V341.278
	C63.112,325.358,50.206,312.451,34.285,312.451z"/>
<circle style="fill:#45748C;" cx="191" cy="388.63" r="42.924"/>
<path style="fill:#2D5872;" d="M190.997,345.705c-7.324,0-14.217,1.839-20.25,5.073c13.494,7.234,22.674,21.469,22.674,37.851
	c0,16.382-9.18,30.617-22.674,37.851c6.033,3.234,12.926,5.073,20.25,5.073c23.706,0,42.924-19.218,42.924-42.924
	S214.703,345.705,190.997,345.705z"/>
<path d="M229.596,140.974l-95.427-35.576c-3.881-1.447-8.2,0.526-9.647,4.407c-1.447,3.881,0.526,8.201,4.407,9.647l95.427,35.576
	c0.864,0.322,1.749,0.475,2.619,0.475c3.042,0,5.903-1.864,7.028-4.882C235.451,146.74,233.477,142.42,229.596,140.974z"/>
<path d="M238.866,114.605l-21.288-7.936c-3.878-1.445-8.2,0.527-9.647,4.408s0.527,8.2,4.408,9.647l21.287,7.935
	c0.864,0.322,1.749,0.475,2.619,0.475c3.042,0,5.903-1.864,7.028-4.882C244.721,120.371,242.747,116.052,238.866,114.605z"/>
<path d="M138.199,93.083l41.438,15.449c0.864,0.322,1.749,0.475,2.619,0.475c3.042,0,5.903-1.864,7.028-4.882
	c1.447-3.881-0.526-8.201-4.407-9.647l-41.438-15.449c-3.882-1.448-8.2,0.526-9.647,4.407
	C132.344,87.317,134.318,91.636,138.199,93.083z"/>
<path d="M248.961,88.406L153.534,52.83c-3.881-1.448-8.2,0.526-9.647,4.407s0.526,8.201,4.407,9.647l95.427,35.576
	c0.864,0.322,1.749,0.475,2.619,0.475c3.042,0,5.903-1.864,7.028-4.882C254.816,94.173,252.842,89.853,248.961,88.406z"/>
<path d="M510.253,186.952c-2.132-4.666-5.954-8.224-10.76-10.015l-10.308-3.843l4.326-11.604c3.095-8.303-1.142-17.576-9.445-20.672
	L157.949,19.239c-8.384-3.126-17.483-2.799-25.623,0.918c-8.139,3.719-14.343,10.384-17.468,18.768l-32.822,88.039
	c-3.126,8.384-2.8,17.484,0.919,25.623c3.718,8.139,10.383,14.343,18.767,17.468l58.672,21.873
	c-3.599,19.084,5.541,38.592,22.598,47.999l-8.154,100.95c-14.415,4.892-25.928,16.125-31.176,30.373h-73.05v-29.971
	c0-20.031-16.296-36.327-36.327-36.327H13.483C6.048,304.951,0,311,0,318.434v162.973c0,7.434,6.048,13.483,13.483,13.483h20.802
	c20.031,0,36.327-16.296,36.327-36.327v-35.471h83.628c9.205,9.812,22.274,15.96,36.758,15.96c27.804,0,50.424-22.62,50.424-50.424
	c0-14.254-5.955-27.135-15.495-36.315l2.765-34.221c0.333-4.129-2.743-7.746-6.871-8.079c-4.125-0.336-7.746,2.743-8.079,6.871
	l-2.082,25.766c-6.31-2.847-13.3-4.445-20.66-4.445c-0.301,0-0.598,0.018-0.897,0.023l7.459-92.345l17.42,6.494
	c1.283,0.478,2.574,0.893,3.87,1.248l-2.288,28.326c-0.333,4.129,2.743,7.746,6.872,8.079c0.206,0.017,0.409,0.025,0.612,0.025
	c3.868,0,7.15-2.974,7.467-6.897l2.265-28.048c14.736-1.011,28.454-9.231,36.101-22.366l42.454,15.827
	c2.506,0.934,5.102,1.393,7.68,1.393c4.702,0,9.336-1.527,13.218-4.478l9.142-6.95l69.049,25.742
	c2.065,0.77,4.211,1.154,6.351,1.154c2.568,0,5.129-0.552,7.535-1.651c4.411-2.015,7.772-5.627,9.466-10.171l2.425-6.505
	l31.724,11.827c2.204,0.822,4.464,1.211,6.689,1.211c7.792,0,15.138-4.779,18.017-12.498l17.15-46.002
	C512.572,196.835,512.385,191.618,510.253,186.952z M55.612,458.563c0,11.76-9.567,21.327-21.327,21.327H15V319.951h19.285
	c11.76,0,21.327,9.567,21.327,21.327V458.563z M70.612,408.093v-21.844h70.022c-0.037,0.789-0.06,1.581-0.06,2.379
	c0,6.896,1.395,13.472,3.912,19.465H70.612z M190.997,353.205c19.533,0,35.424,15.891,35.424,35.424s-15.891,35.424-35.424,35.424
	s-35.424-15.891-35.424-35.424S171.464,353.205,190.997,353.205z M220.219,238.322l-25.935-9.669
	c-0.001-0.001-0.003-0.001-0.004-0.002l-0.617-0.25c-0.013-0.005-0.028-0.008-0.041-0.014c-12.716-5.08-20.18-17.991-18.869-31.107
	l80.761,30.108C247.788,238.348,233.336,243.211,220.219,238.322z M435.313,209.225c0,0,0,0.107,0,0.108
	S435.313,209.225,435.313,209.225l-14.593,39.144c-0.397,1.065-1.201,1.564-1.645,1.768c-0.444,0.202-1.348,0.484-2.413,0.086
	l-60.16-22.428l39.301-29.876c1.893-1.439,4.352-1.802,6.579-0.971L435.313,209.225L435.313,209.225z M407.622,182.894
	c-7.075-2.637-14.887-1.484-20.897,3.085l-62.573,47.567c-1.894,1.438-4.353,1.8-6.58,0.971l0,0l0,0l0,0L106.963,156
	c-4.63-1.727-8.311-5.152-10.365-9.647c-2.053-4.494-2.233-9.519-0.507-14.149l32.822-88.039c1.727-4.63,5.152-8.311,9.647-10.364
	c2.452-1.12,5.061-1.683,7.678-1.683c2.181,0,4.367,0.391,6.472,1.175l326.117,121.579c0.553,0.207,0.836,0.825,0.63,1.377
	l-17.113,45.902c-0.128,0.343-0.374,0.516-0.558,0.6c-0.184,0.083-0.476,0.157-0.819,0.03l0,0c-0.002-0.001,0.005,0.002,0.002,0.001
	c-0.002-0.001,0,0-0.002-0.001L407.622,182.894z M496.725,196.403l-17.15,46.002c-0.81,2.173-3.237,3.283-5.412,2.473
	l-31.725-11.827l6.929-18.585l6.359,2.371c4.023,1.499,8.388,1.343,12.292-0.441c3.905-1.784,6.881-4.981,8.38-9.003l7.547-20.243
	l10.308,3.843c1.053,0.392,1.89,1.171,2.356,2.193C497.077,194.207,497.118,195.35,496.725,196.403z"/>
<g>
</g>
<g>
</g>
<g>
</g>
<g>
</g>
<g>
</g>
<g>
</g>
<g>
</g>
<g>
</g>
<g>
</g>
<g>
</g>
<g>
</g>
<g>
</g>
<g>
</g>
<g>
</g>
<g>
</g>
</svg>
