<?xml version="1.0" encoding="iso-8859-1"?>
<!-- Generator: Adobe Illustrator 21.0.0, SVG Export Plug-In . SVG Version: 6.00 Build 0)  -->
<svg xmlns="http://www.w3.org/2000/svg" xmlns:xlink="http://www.w3.org/1999/xlink" version="1.1" id="Capa_1" x="0px" y="0px" viewBox="0 0 512 512" style="enable-background:new 0 0 512 512;" xml:space="preserve" width="512" height="512">
<g>
	<circle style="fill:#546E7A;" cx="445" cy="366" r="40"/>
	<circle style="fill:#546E7A;" cx="252" cy="249" r="40"/>
	<path style="fill:#455A64;" d="M252,209c-5.306,0-10.367,1.042-15,2.919c14.657,5.935,25,20.296,25,37.081   c0,16.785-10.343,31.146-25,37.081c4.633,1.876,9.694,2.919,15,2.919c22.091,0,40-17.909,40-40C292,226.909,274.091,209,252,209z"/>
	<path style="fill:#546E7A;" d="M147.203,312.456l-65.511,65.592c-4.497,4.503-11.788,4.503-16.285,0l-54.535-54.603   c-4.497-4.503-4.497-11.803,0-16.305l65.511-65.592L147.203,312.456z"/>
	<path style="fill:#455A64;" d="M125.957,291.184l-65.51,65.592c-4.497,4.503-11.788,4.503-16.285,0l21.246,21.272   c4.497,4.502,11.788,4.502,16.285,0l65.51-65.592L125.957,291.184z"/>
	<path style="fill:#CFD8DC;" d="M345.5,149.368l-161.081,161.28c-30.723,30.761-80.534,30.761-111.257,0l-49.185-49.246   l216.71-216.978L345.5,149.368z"/>
	<path style="fill:#B0BEC5;" d="M324.254,128.096l-161.081,161.28c-30.723,30.761-80.535,30.761-111.257,0l21.246,21.272   c30.723,30.761,80.534,30.761,111.257,0L345.5,149.368L324.254,128.096z"/>
	<path style="fill:#FF663B;" d="M163.492,184.113L163.492,184.113c-5.867-5.874-5.867-15.398,0-21.272l38.243-38.29   c5.867-5.874,15.379-5.874,21.246,0l0,0c5.867,5.874,5.867,15.398,0,21.272l-38.243,38.29   C178.871,189.987,169.359,189.987,163.492,184.113z"/>
	<rect x="444.5" y="7.5" style="fill:#CFD8DC;" width="60" height="497"/>
	<rect x="474.5" y="7.5" style="fill:#B0BEC5;" width="30" height="497"/>
	<circle style="fill:#546E7A;" cx="315" cy="355" r="21"/>
	<path style="fill:#455A64;" d="M315,334c-4.248,0-8.195,1.271-11.5,3.44c5.718,3.752,9.5,10.21,9.5,17.56   c0,7.35-3.782,13.808-9.5,17.56c3.305,2.169,7.252,3.44,11.5,3.44c11.598,0,21-9.402,21-21C336,343.402,326.598,334,315,334z"/>
	<g>
		<path d="M196.421,119.25l-38.244,38.29c-8.777,8.788-8.777,23.085,0,31.872c8.794,8.805,23.055,8.815,31.86,0l38.244-38.29    c8.777-8.788,8.777-23.085,0-31.872C219.419,110.378,205.154,110.507,196.421,119.25z M217.667,140.523l-38.244,38.29    c-2.939,2.943-7.693,2.943-10.633,0c0,0,0,0,0,0c-2.939-2.942-2.939-7.729,0-10.672l38.243-38.29    c2.941-2.944,7.694-2.943,10.634,0C220.606,132.792,220.606,137.58,217.667,140.523z"/>
		<path d="M212.008,207.146c1.464,1.462,3.382,2.193,5.3,2.193c1.921,0,3.842-0.733,5.307-2.2l27.621-27.654    c2.927-2.931,2.924-7.679-0.007-10.606c-2.93-2.927-7.679-2.925-10.607,0.007l-27.621,27.654    C209.074,199.471,209.077,204.219,212.008,207.146z"/>
		<path d="M504.5,0h-60.001c-4.143,0-7.5,3.358-7.5,7.5V31c0,4.142,3.357,7.5,7.5,7.5c4.143,0,7.5-3.358,7.5-7.5V15H497v482h-45.001    V63.667c0-4.142-3.357-7.5-7.5-7.5c-4.143,0-7.5,3.358-7.5,7.5v255.516c-18.943,3.253-34.131,17.844-38.331,36.429l-55.584-5.417    c-2.292-13.433-14.01-23.694-28.087-23.694c-2.155,0-4.251,0.248-6.27,0.703l-23.53-44.278    c8.815-8.628,14.299-20.646,14.299-33.925c0-11.637-4.198-22.65-11.715-31.233l63.022-63.099c2.925-2.928,2.925-7.671,0-10.6    L245.986,39.125c-1.407-1.409-3.316-2.2-5.307-2.2s-3.9,0.792-5.307,2.2L95.305,179.362c-2.927,2.931-2.924,7.679,0.007,10.606    c2.93,2.927,7.679,2.924,10.607-0.007L240.68,55.038l94.217,94.331L215.627,268.781c-0.022,0.021-0.043,0.043-0.064,0.064    l-36.459,36.503c-13.443,13.458-31.315,20.871-50.323,20.87c-19.009,0-36.881-7.412-50.323-20.87l-32.834-32.873    c-0.023-0.023-0.042-0.049-0.065-0.071c-0.022-0.022-0.046-0.04-0.069-0.062l-10.926-10.94L83.308,212.6    c2.927-2.931,2.924-7.679-0.007-10.606c-2.93-2.927-7.679-2.924-10.607,0.007l-54.036,54.102c-2.924,2.928-2.924,7.672,0,10.6    l10.997,11.01l-24.106,24.13c-7.399,7.415-7.399,19.48,0.002,26.897l54.538,54.607c3.589,3.597,8.365,5.578,13.45,5.578    c5.084,0,9.861-1.981,13.446-5.575l42.092-42.139c22.907-0.077,44.434-9.038,60.64-25.263l31.09-31.128    c8.579,7.495,19.573,11.679,31.186,11.679c7.48,0,14.558-1.743,20.858-4.836l22.633,42.59c-5.528,5.202-8.99,12.575-8.99,20.746    c0,15.715,12.785,28.5,28.501,28.5c12.15,0,22.543-7.645,26.636-18.376l56.094,5.467c0.32,3.334,0.982,6.618,1.995,9.805    c1.255,3.947,5.471,6.13,9.42,4.875c3.947-1.255,6.13-5.472,4.875-9.42c-1.008-3.169-1.519-6.484-1.519-9.851    c0-15.085,10.458-27.896,24.501-31.491v62.997c-2.167-0.549-4.276-1.315-6.311-2.315c-3.721-1.828-8.212-0.294-10.039,3.423    c-1.827,3.717-0.295,8.212,3.422,10.039c4.126,2.028,8.454,3.415,12.928,4.172V504.5c0,4.142,3.357,7.5,7.5,7.5H504.5    c4.143,0,7.5-3.358,7.5-7.5V7.5C512,3.358,508.642,0,504.5,0z M76.37,372.752c-0.754,0.756-1.759,1.172-2.83,1.172    c-1.071,0-2.077-0.417-2.834-1.175l-54.539-54.607c-1.569-1.573-1.569-4.132-0.003-5.702l24.091-24.115l27.589,27.622    c11.74,11.754,26.277,19.674,42.103,23.19L76.37,372.752z M231.448,274.167l45.691-45.747c4.725,5.753,7.355,12.969,7.355,20.579    c0,17.92-14.579,32.5-32.501,32.5C244.401,281.5,237.197,278.878,231.448,274.167z M314.995,368.5c-7.445,0-13.5-6.056-13.5-13.5    s6.056-13.5,13.5-13.5s13.5,6.056,13.5,13.5S322.44,368.5,314.995,368.5z"/>
	</g>
</g>















</svg>
