<svg height="512" viewBox="0 0 64 64" width="512" xmlns="http://www.w3.org/2000/svg"><path d="m28 28a2.006 2.006 0 0 0 2 2h20a2.006 2.006 0 0 0 2-2v-4h-24z" fill="#c2dff6"/><path d="m24 24h4v4h-4z" fill="#a7a9ac"/><path d="m54 16h-28.592a2 2 0 0 0 -1.508 3.317l4.1 4.683h26a2 2 0 0 0 2-2v-4a2 2 0 0 0 -2-2z" fill="#2488ff"/><path d="m36 32a2 2 0 0 0 2 2h4a2 2 0 0 0 2-2v-2h-8z" fill="#ebfec0"/><path d="m55 47v10a4 4 0 0 0 4 4h2v-18h-2a4 4 0 0 0 -4 4z" fill="#ff3051"/><path d="m59 43h2v18h-2z" fill="#e52b49"/><path d="m41 52a4.011 4.011 0 1 0 1.21-2.86 3.981 3.981 0 0 0 -1.21 2.86z" fill="#d7fc7e"/><path d="m45 48a4 4 0 0 1 1.471.287l-4.158-14.319a1.9 1.9 0 0 1 -.313.032h-4c-.055 0-.107-.012-.161-.016l4.29 15.252c.029-.03.051-.067.081-.1a3.983 3.983 0 0 1 2.79-1.136z" fill="#ffdaaa"/><path d="m55 50h-6.555a3.881 3.881 0 0 1 0 4h6.555z" fill="#ffdaaa"/><path d="m28 24h24v2h-24z" fill="#9bc9ff"/><path d="m61 42h-2a5.006 5.006 0 0 0 -5 5v2h-5.026a5 5 0 0 0 -1.921-1.547l-3.574-12.859a2.989 2.989 0 0 0 1.521-2.594v-1h5a3 3 0 0 0 3-3v-3h1a3 3 0 0 0 3-3v-4a3 3 0 0 0 -3-3h-28.592a3 3 0 0 0 -2.258 4.976l2.65 3.024h-1.8a1 1 0 0 0 -1 1v4a1 1 0 0 0 1 1h3.184a3 3 0 0 0 2.816 2h5v1a3 3 0 0 0 2.207 2.88l3.9 14.023a4.95 4.95 0 0 0 -1.107 3.097 4.983 4.983 0 0 0 8.974 3h5.026v2a5.006 5.006 0 0 0 5 5h2a1 1 0 0 0 1-1v-18a1 1 0 0 0 -1-1zm-18.2 5.532-3.484-12.532h2.2l3.34 12.015a4.934 4.934 0 0 0 -2.056.517zm-18.3-29.945a.986.986 0 0 1 .908-.587h28.592a1 1 0 0 1 1 1v4a1 1 0 0 1 -1 1h-25.546l-3.8-4.342a.984.984 0 0 1 -.154-1.071zm.5 7.413h2v2h-2zm4 3v-3h22v3a1 1 0 0 1 -1 1h-20a1 1 0 0 1 -1-1zm8 3h6v1a1 1 0 0 1 -1 1h-4a1 1 0 0 1 -1-1zm8 24a3 3 0 1 1 3-3 3 3 0 0 1 -3 3zm4.9-2a5 5 0 0 0 0-2h4.1v2zm10.1 7h-1a3 3 0 0 1 -3-3v-10a3 3 0 0 1 3-3h1z"/><path d="m51 21h1a1 1 0 0 0 0-2h-1a1 1 0 0 0 0 2z"/><path d="m39 21h8a1 1 0 0 0 0-2h-8a1 1 0 0 0 0 2z"/><path d="m16 13.141a.989.989 0 0 0 .5-.135q.517-.3 1.059-.557a1 1 0 1 0 -.86-1.8q-.614.293-1.2.631a1 1 0 0 0 .5 1.866z"/><path d="m11.831 17.245 7.462 7.462a1 1 0 0 0 1.414-1.414l-7.594-7.593c.31-.328.627-.65.968-.951a1 1 0 0 0 -1.323-1.5c-.373.328-.718.681-1.058 1.038l-2.8-2.8c-.008-.008-.019-.011-.027-.018s-.012-.019-.02-.027a.985.985 0 0 0 -.144-.082.939.939 0 0 0 -.173-.1.951.951 0 0 0 -.184-.036.962.962 0 0 0 -.192-.025.961.961 0 0 0 -.182.036.955.955 0 0 0 -.189.049 1.077 1.077 0 0 0 -.163.109 1 1 0 0 0 -.14.093c-.008.008-.011.019-.018.027s-.019.012-.027.02a21.971 21.971 0 0 0 0 28.94c.008.008.018.01.026.018s.01.021.019.029a.925.925 0 0 0 .205.136 1.041 1.041 0 0 0 .112.075 1 1 0 0 0 .39.082 1 1 0 0 0 .361-.07 1.079 1.079 0 0 0 .107-.064.991.991 0 0 0 .192-.114c.008-.008.011-.019.02-.027s.019-.01.027-.018l2.8-2.8a16.89 16.89 0 0 0 5 3.643 1 1 0 1 0 .86-1.8 14.935 14.935 0 0 1 -4.445-3.263l7.592-7.592a1 1 0 0 0 -1.414-1.414l-7.457 7.456a14.935 14.935 0 0 1 -.005-17.5zm-1.424 18.934-2.135 2.135a19.883 19.883 0 0 1 0-24.628l2.128 2.127a16.937 16.937 0 0 0 .008 20.366z"/><path d="m34.172 7.171a1 1 0 0 0 .673-.26l.236-.217a12.357 12.357 0 0 1 15.805-.029l.268.244a1 1 0 0 0 1.346-1.478l-.3-.273a14.373 14.373 0 0 0 -18.431.029l-.27.245a1 1 0 0 0 .674 1.739z"/><path d="m38.922 11.3a1 1 0 1 0 1.28 1.536 4.372 4.372 0 0 1 5.6 0 1 1 0 1 0 1.28-1.536 6.367 6.367 0 0 0 -8.16 0z"/><path d="m31 41h-2v-2a1 1 0 0 0 -2 0v2h-2a1 1 0 0 0 0 2h2v2a1 1 0 0 0 2 0v-2h2a1 1 0 0 0 0-2z"/><path d="m49.707 8.293a10.377 10.377 0 0 0 -13.412 0 1 1 0 0 0 1.349 1.474 8.343 8.343 0 0 1 10.716 0 1 1 0 0 0 1.349-1.474z"/></svg>