<?xml version="1.0" encoding="iso-8859-1"?>
<!-- Generator: Adobe Illustrator 19.0.0, SVG Export Plug-In . SVG Version: 6.00 Build 0)  -->
<svg version="1.1" id="Capa_1"
	xmlns="http://www.w3.org/2000/svg"
	xmlns:xlink="http://www.w3.org/1999/xlink" x="0px" y="0px"
	 viewBox="0 0 512 512" style="enable-background:new 0 0 512 512;" xml:space="preserve">
	<rect x="429.315" y="189.079" transform="matrix(-0.9659 -0.2588 0.2588 -0.9659 821.5558 563.9622)" style="fill:#E4EAF8;" width="37.17" height="77.65"/>
	<rect x="429.567" y="187.236" transform="matrix(-0.9659 -0.2588 0.2588 -0.9659 808.5473 558.5638)" style="fill:#C2C7D0;" width="22.946" height="77.65"/>
	<path style="fill:#FEA82F;" d="M103.437,347.715c0-4.82,0.85-9.44,2.402-13.723H45.094v43.728h71.767
	C108.625,370.348,103.437,359.639,103.437,347.715z"/>
	<path style="fill:#FF9052;" d="M103.913,353.856c-0.307-2.004-0.475-4.052-0.475-6.142c0-4.82,0.85-9.44,2.402-13.723H45.095v19.864
	L103.913,353.856L103.913,353.856z"/>
	<path style="fill:#FEA82F;" d="M178.83,249.954l-30.392,57.785c16.336,1.917,29.674,13.608,34.017,29.07l39.657-75.258
	L178.83,249.954z"/>
	<path style="fill:#FF9052;" d="M198.807,255.308l-19.977-5.353l-30.392,57.785c7.012,0.823,13.468,3.45,18.902,7.4L198.807,255.308z
	"/>
	<path style="fill:#E4EAF8;" d="M34.133,278.494H7.458v154.722h26.676c8.814,0,15.959-7.145,15.959-15.959V294.454
	C50.093,285.639,42.948,278.494,34.133,278.494z"/>
	<path style="fill:#C2C7D0;" d="M34.62,278.519c-0.163-0.005-0.322-0.024-0.487-0.024H7.458v154.722h26.675
	c0.164,0,0.323-0.02,0.487-0.024V278.519z"/>
	<path style="fill:#FFFFFF;" d="M385.65,307.639l-258.079-69.152c-12.656-3.391-20.236-16.52-16.845-29.176l35.871-133.873
	c3.391-12.656,16.52-20.236,29.176-16.845l258.079,69.152c12.656,3.391,20.236,16.52,16.845,29.176l-35.871,133.873
	C411.435,303.45,398.305,311.03,385.65,307.639z"/>
	<path style="fill:#E4EAF8;" d="M175.775,58.594c-12.656-3.391-25.785,4.189-29.176,16.845l-6.847,25.555l-29.024,108.319
	c-3.39,12.655,4.189,25.784,16.845,29.175l7.791,2.088c-5.335-5.249-7.796-13.149-5.731-20.856l38.769-144.691
	c1.911-7.131,7.257-12.47,13.784-14.718L175.775,58.594z"/>
	<path style="fill:#ABFFDB;" d="M434.222,127.845l-258.817-69.35c-12.453-3.336-25.371,4.122-28.707,16.574l-11.48,42.845
	l304.099,81.483l11.48-42.845C454.132,144.1,446.674,131.181,434.222,127.845z"/>
	<path style="fill:#92E0C0;" d="M182.186,60.311l-6.784-1.818c-12.452-3.334-25.368,4.124-28.704,16.575l-11.48,42.845l20.24,5.424
	l12.944-48.309C170.313,67.897,175.66,62.559,182.186,60.311z"/>
	<ellipse style="fill:#FF9052;" cx="372.188" cy="247.224" rx="16.193" ry="16.193"/>
	<path style="fill:#FF8031;" d="M378.924,243.027c0.798-2.978,2.388-5.525,4.468-7.507c-1.904-1.826-4.278-3.213-7.005-3.944
	c-8.639-2.314-17.518,2.812-19.833,11.45c-2.314,8.639,2.812,17.518,11.45,19.833c5.661,1.517,11.412-0.176,15.365-3.944
	C379.244,254.96,377.34,248.939,378.924,243.027z"/>
	<path style="fill:#ABFFDB;" d="M465.595,289.025l-2.599-0.697c-7.681-2.059-12.24-9.954-10.182-17.636l20.731-77.369
	c2.059-7.681,9.954-12.24,17.636-10.182l2.599,0.697c7.681,2.059,12.24,9.954,10.182,17.636l-20.731,77.369
	C481.173,286.525,473.277,291.084,465.595,289.025z"/>
	<path style="fill:#92E0C0;" d="M472.576,275.185l20.731-77.369c1.142-4.262,4.084-7.555,7.785-9.298
	c-1.836-2.199-4.335-3.881-7.313-4.679l-2.599-0.697c-7.681-2.059-15.577,2.5-17.636,10.182l-20.731,77.369
	c-2.059,7.682,2.5,15.577,10.182,17.636l2.599,0.697c3.42,0.917,6.879,0.515,9.851-0.884
	C472.545,284.666,471.316,279.889,472.576,275.185z"/>
	<path style="fill:#E4EAF8;" d="M143.699,306.453c-22.752,0-41.261,18.51-41.261,41.261s18.51,41.262,41.261,41.262
	s41.261-18.51,41.261-41.262C184.961,324.963,166.452,306.453,143.699,306.453z M143.699,362.908
	c-8.378,0-15.194-6.815-15.194-15.193s6.815-15.193,15.194-15.193s15.194,6.815,15.194,15.193S152.077,362.908,143.699,362.908z"/>
	<path style="fill:#C2C7D0;" d="M122.433,347.715c0-19.305,13.328-35.549,31.264-40.03c-3.203-0.801-6.55-1.232-9.998-1.232
	c-22.752,0-41.261,18.51-41.261,41.261s18.51,41.262,41.261,41.262c3.447,0,6.794-0.431,9.998-1.232
	C135.761,383.264,122.433,367.019,122.433,347.715z"/>
	<path style="fill:#92E0C0;" d="M214.098,113.009c-0.643,0-1.296-0.083-1.946-0.257l-30.623-8.205c-4-1.072-6.374-5.184-5.302-9.184
	c1.071-4,5.182-6.375,9.184-5.303l30.623,8.205c4,1.072,6.374,5.184,5.302,9.184C220.438,110.8,217.409,113.009,214.098,113.009z"/>
	<path style="fill:#474D54;" d="M509.058,186.798c-2.925-5.066-7.647-8.689-13.297-10.203l-2.6-0.696
	c-9.559-2.563-19.362,1.641-24.31,9.661l-16.817-4.506l6.009-22.422c0.001-0.002,0.001-0.005,0.002-0.007l0.035-0.132
	c4.415-16.477-5.399-33.475-21.876-37.891l-260.88-69.904c-7.411-1.985-15.167-0.954-21.843,2.9
	c-6.677,3.854-11.447,10.058-13.433,17.467l-0.033,0.123c0,0.002-0.001,0.003-0.001,0.005l-37.106,138.482
	c-4.129,15.411,5.049,31.309,20.459,35.438l43.492,11.653l-22.756,43.19c-0.121-0.001-0.242-0.002-0.363-0.002
	c-18.717,0-34.954,10.823-42.782,26.539H57.632v-32.039c0-12.935-10.523-23.458-23.458-23.458H14.997v-14.077
	c0-4.141-3.356-7.498-7.498-7.498S0,252.78,0,256.921V454.79c0,4.141,3.356,7.498,7.498,7.498s7.498-3.357,7.498-7.498v-14.076
	h19.178c12.935,0,23.458-10.523,23.458-23.458v-32.04h56.558c2.692,2.135,5.635,3.993,8.792,5.52
	c1.052,0.508,2.162,0.749,3.257,0.749c2.786,0,5.464-1.561,6.757-4.237c1.802-3.728,0.24-8.212-3.488-10.015
	c-10.791-5.215-17.921-16.078-18.494-27.973c-0.002-0.044-0.004-0.088-0.006-0.132c-0.003-0.068-0.006-0.136-0.008-0.204
	c-0.003-0.088-0.006-0.176-0.009-0.263c-0.001-0.047-0.003-0.093-0.004-0.14c-0.003-0.106-0.005-0.212-0.006-0.318
	c-0.001-0.036-0.001-0.071-0.001-0.107c-0.002-0.128-0.003-0.256-0.003-0.384c0-0.131,0.001-0.262,0.002-0.393
	c0-0.041,0.001-0.081,0.002-0.122c0.002-0.095,0.003-0.189,0.005-0.284c0.001-0.039,0.002-0.079,0.003-0.118
	c0.003-0.098,0.006-0.196,0.009-0.294c0.001-0.032,0.002-0.065,0.004-0.097c0.004-0.112,0.009-0.224,0.015-0.335
	c0.001-0.019,0.002-0.039,0.003-0.058c0.889-17.278,15.224-31.062,32.72-31.062c1.202,0,2.387,0.066,3.555,0.192
	c0.103,0.016,0.205,0.031,0.309,0.043c1.537,0.18,3.041,0.466,4.507,0.849c0.039,0.01,0.077,0.02,0.115,0.031
	c0.035,0.009,0.07,0.019,0.105,0.028c10.226,2.781,18.479,10.404,22.134,20.241c0.301,0.818,0.573,1.653,0.811,2.502
	c0.022,0.079,0.046,0.157,0.07,0.234c0.754,2.754,1.157,5.653,1.157,8.643c0,12.493-7.273,24.079-18.531,29.519
	c-3.728,1.802-5.29,6.286-3.488,10.014c1.801,3.728,6.282,5.293,10.015,3.489c16.402-7.927,27.002-24.814,27.002-43.022
	c0-3.405-0.359-6.727-1.04-9.933l34.531-65.439L386.055,315.5c2.476,0.664,4.991,0.992,7.492,0.992
	c5.016,0,9.976-1.321,14.451-3.905c6.708-3.873,11.5-10.105,13.494-17.547l6.564-24.496l16.817,4.506
	c0.276,9.419,6.665,17.961,16.223,20.521l2.6,0.696c1.892,0.507,3.792,0.749,5.663,0.749c9.667,0,18.537-6.461,21.156-16.232
	l5.787-21.596c1.072-4-1.302-8.112-5.302-9.184c-4.001-1.068-8.112,1.302-9.184,5.303l-5.787,21.595
	c-0.985,3.675-4.777,5.867-8.452,4.88l-2.6-0.697c-3.676-0.985-5.865-4.776-4.881-8.452l0,0l20.73-77.368
	c0.003-0.012-0.003,0.012,0,0l0,0c0.985-3.676,4.773-5.867,8.452-4.88l2.6,0.697c1.781,0.477,3.269,1.619,4.19,3.215
	s1.167,3.456,0.69,5.237l-5.888,21.973c-1.072,4,1.302,8.111,5.302,9.184c4.002,1.073,8.112-1.303,9.184-5.303l5.888-21.973
	C512.759,197.764,511.982,191.864,509.058,186.798z M42.635,417.257c0,4.666-3.796,8.461-8.461,8.461H14.997V285.993h19.178
	c4.665,0,8.461,3.796,8.461,8.461V417.257z M57.632,370.222V341.49h38.751c-0.111,0.848-0.198,1.699-0.264,2.553
	c0,0.001,0,0.002,0,0.003c-0.03,0.391-0.055,0.783-0.075,1.176c-0.001,0.02-0.002,0.04-0.003,0.06
	c-0.009,0.188-0.018,0.375-0.025,0.563c-0.001,0.024-0.002,0.049-0.003,0.073c-0.006,0.173-0.012,0.346-0.016,0.519
	c0,0.021-0.001,0.042-0.002,0.063c-0.005,0.182-0.008,0.363-0.01,0.545c0,0.039-0.001,0.078-0.001,0.118
	c-0.002,0.184-0.003,0.367-0.003,0.551c0,0.135,0.001,0.27,0.002,0.405c0,0.034,0.001,0.069,0.001,0.103
	c0.001,0.104,0.003,0.209,0.004,0.313c0,0.03,0.001,0.06,0.002,0.09c0.002,0.114,0.005,0.229,0.008,0.343
	c0,0.017,0.001,0.035,0.001,0.052c0.205,7.466,2.164,14.72,5.629,21.202L57.632,370.222L57.632,370.222z M210.136,268.363
	l-27.342,51.814c-5.677-8.08-13.754-14.224-23.165-17.517l22.084-41.912l18.251,4.89L210.136,268.363z M407.006,291.158
	c-0.958,3.573-3.269,6.57-6.508,8.441c-3.238,1.87-6.991,2.373-10.563,1.415l-262.688-70.387l0,0c-0.003-0.001,0.003,0.001,0,0l0,0
	c-7.424-1.989-11.845-9.647-9.856-17.07l37.106-138.482c0.958-3.573,3.269-6.57,6.508-8.44c2.165-1.25,4.56-1.89,6.977-1.89
	c1.198,0,2.402,0.157,3.586,0.475l260.613,69.831c8.565,2.294,13.668,11.127,11.377,19.692l0,0c-0.001,0.003,0.001-0.003,0,0l0,0
	l0,0l0,0L407.006,291.158L407.006,291.158z M448.153,195.539l15.931,4.269l0,0l-16.216,60.519l-15.931-4.269L448.153,195.539z"/>
	<g></g>
	<g></g>
	<g></g>
	<g></g>
	<g></g>
	<g></g>
	<g></g>
	<g></g>
	<g></g>
	<g></g>
	<g></g>
	<g></g>
	<g></g>
	<g></g>
	<g></g>
</svg>
