<svg height="487pt" viewBox="0 -53 487.832 487" width="487pt" xmlns="http://www.w3.org/2000/svg"><g fill="#78b9eb"><path d="m248.425781 209.121094 76.207031 44c3.824219 2.210937 8.71875.898437 10.925782-2.925782l12-20.800781 20-34.640625-41.597656-24zm0 0"/><path d="m106.929688 118.195312 20.796874 12 28-48.503906 28-48.496094-20.796874-12c-7.652344-4.417968-17.4375-1.796874-21.859376 5.855469l-40 69.285157c-4.417968 7.652343-1.792968 17.4375 5.859376 21.859374zm0 0"/><path d="m125.601562 165.921875-9.121093 31.679687 16.398437 9.441407c7.265625-5.953125 17.457032-6.785157 25.585938-2.089844 8.132812 4.699219 12.503906 13.941406 10.976562 23.207031l16.320313 9.441406 22.957031-23.679687-81.519531-47.082031zm0 0"/><path d="m160 243.121094c-7.121094 4.953125-16.449219 5.386718-24 1.121094v50.160156h-88v-40h-40v120h40v-40.960938l128-7.039062v-32h-16zm0 0"/></g><path d="m210.640625 2.5625c-7.652344-4.421875-17.433594-1.800781-21.855469 5.847656l-8 13.855469-13.855468-8c-11.492188-6.597656-26.15625-2.664063-32.800782 8.800781l-40 69.289063c-3.1875 5.515625-4.050781 12.070312-2.398437 18.222656 1.648437 6.152344 5.679687 11.394531 11.199219 14.574219l13.855468 8-8 13.847656c-4.382812 7.640625-1.765625 17.382812 5.855469 21.800781l1.542969.890625-9.128906 31.695313 13.539062 7.78125c-7.613281 13.074219-4.457031 29.75 7.40625 39.136719v38.097656h-72v-40h-56v136h56v-41.394532l128-7.039062v-47.566406h-16v-39.671875c2.203125-1.964844 4.089844-4.25 5.601562-6.785157l.054688-.113281 13.527344 7.824219 22.945312-23.65625 12.144532 7.007812 25.855468-12.796874 72.503906 41.855468c2.429688 1.410156 5.191407 2.148438 8 2.144532 5.726563.003906 11.023438-3.046876 13.894532-8l8-13.855469 20.800781 12 20-34.640625 13.855469 8c19.136718 11.046875 43.605468 4.488281 54.648437-14.648438l28-48.488281zm-85.839844 116.695312-13.863281-8c-3.824219-2.210937-5.132812-7.105468-2.921875-10.929687l40-69.269531c2.210937-3.828125 7.101563-5.136719 10.929687-2.929688l13.847657 8-13.273438 23zm36.800781 107.558594v.167969c-.265624 1.738281-.863281 3.40625-1.761718 4.914063-1.066406 1.867187-2.550782 3.464843-4.335938 4.664062-1.101562.757812-2.300781 1.359375-3.566406 1.792969-.386719.132812-.800781.148437-1.183594.253906-.871094.25-1.757812.414063-2.65625.496094-.511718 0-1.027344-.054688-1.546875-.070313-.777343-.015625-1.558593-.085937-2.328125-.21875-.558594-.144531-1.105468-.320312-1.648437-.527344-.609375-.195312-1.210938-.433593-1.789063-.710937l-1.320312-1.417969h-1.152344c-2.558594-1.96875-4.390625-4.726562-5.214844-7.847656-1.035156-3.703125-.542968-7.667969 1.367188-11.007812.9375-1.554688 2.140625-2.933594 3.558594-4.070313 4.710937-3.839844 11.300781-4.367187 16.5625-1.328125 5.210937 3.023438 7.988281 8.972656 6.957031 14.910156zm-121.601562 139.585938h-24v-104h24zm128-47.570313-112 6.152344v-22.582031h112zm-24-32.429687v-31.410156c.800781.082031 1.648438.074218 2.472656.089843.214844 0 .429688.070313.648438.070313h.429687c.9375 0 1.863281-.109375 2.792969-.207032.519531-.054687 1.046875-.070312 1.601562-.152343h.054688v31.609375zm51.832031-70.679688-11.472656 11.832032-6.617187-3.832032c0-.929687-.140626-1.847656-.246094-2.761718-.039063-.328126-.039063-.65625-.089844-.976563-.207031-1.40625-.515625-2.796875-.917969-4.160156-.105469-.359375-.257812-.703125-.375-1.054688-.335937-.992187-.699219-1.96875-1.128906-2.921875-.214844-.46875-.464844-.925781-.703125-1.390625-.417969-.800781-.847656-1.597656-1.335938-2.351562-.296874-.472657-.609374-.929688-.9375-1.375-.511718-.726563-1.0625-1.425781-1.648437-2.097657-.351563-.414062-.695313-.800781-1.078125-1.222656-.664062-.695312-1.378906-1.34375-2.113281-1.984375-.359375-.304687-.6875-.632812-1.0625-.929687-1.144531-.902344-2.347657-1.71875-3.609375-2.445313-1.285156-.734375-2.621094-1.375-4-1.914062-.390625-.152344-.800782-.261719-1.199219-.40625-.96875-.335938-1.9375-.648438-2.921875-.890625-.503906-.117188-1.007812-.207032-1.519531-.300782-.902344-.167968-1.800781-.304687-2.710938-.394531-.550781-.054687-1.097656-.09375-1.648437-.117187-.878906-.042969-1.761719 0-2.640625 0-.558594 0-1.121094 0-1.671875.085937-.925782.089844-1.839844.25-2.757813.425781-.488281.09375-.976562.152344-1.464843.261719-1.339844.320313-2.65625.734375-3.9375 1.234375-.4375.167969-.863282.398438-1.296876.589844-.726562.328125-1.46875.625-2.175781 1l-6.695312-3.847656 4.570312-15.832032 4 2.3125zm132.800781 30.472656-63.265624-36.53125 60.335937-29.824218 24 13.859375 6.929687 4zm36.800782-15.714843-6.929688-4 12-20.800781 6.929688 4zm80.496094-27.429688c-3.183594 5.519531-8.425782 9.546875-14.578126 11.195313-6.152343 1.652344-12.707031.789062-18.222656-2.398438l-13.855468-8-41.601563-24-31.425781-18.140625-103.398438 51.09375-100.207031-57.824219 80-138.558593 263.269531 152zm0 0" fill="#006df0"/></svg>