<svg
	xmlns="http://www.w3.org/2000/svg"
	xmlns:xlink="http://www.w3.org/1999/xlink" version="1.1" id="Capa_1" x="0px" y="0px" viewBox="0 0 512.011 512.011" style="enable-background:new 0 0 512.011 512.011;" xml:space="preserve" width="512" height="512">
	<g>
		<g>
			<path style="fill-rule:evenodd;clip-rule:evenodd;fill:#6A87C1;" d="M50,426.014v-39.999v-20c0-11-9-20-20-20H10v120h20    c11,0,20-9,20-20V426.014z"/>
			<path style="fill-rule:evenodd;clip-rule:evenodd;fill:#808080;" d="M126.292,386.015H50v39.999l76.292,0    c-2.211-6.255-3.414-12.987-3.414-20C122.878,399.001,124.081,392.27,126.292,386.015z"/>
			
			<path style="fill-rule:evenodd;clip-rule:evenodd;fill:#6A87C1;" d="M182.878,346.014c-26.125,0-48.35,16.696-56.586,40    c-2.211,6.256-3.414,12.987-3.414,20c0,7.013,1.203,13.745,3.414,20c8.237,23.304,30.461,39.999,56.586,39.999    c33.137,0,59.999-26.862,59.999-60c0-14.884-5.419-28.503-14.395-38.987c-8.743-10.223-20.865-17.469-34.636-20.013    C190.29,346.358,186.624,346.014,182.878,346.014z"/>
			<path style="fill-rule:evenodd;clip-rule:evenodd;fill:#808080;" d="M222.808,296.854l-28.962,50.164    c13.771,2.54,25.893,9.786,34.637,20.009l28.968-50.173L222.808,296.854z"/>

			<path style="fill-rule:evenodd;clip-rule:evenodd;fill:#A3BFEE;" d="M222.808,296.854l34.642,20l99.923,57.69    c9.526,5.5,21.82,2.206,27.32-7.32l10.001-17.323l29.999-51.959l-140.311-81.008l-64.642,31.961l-102.178-58.993l-10,17.32    c-5.5,9.526-2.206,21.82,7.32,27.32L222.808,296.854z"/>
			<path style="fill-rule:evenodd;clip-rule:evenodd;fill:#6A87C1;" d="M284.382,216.934l140.311,81.008l21.544-10.651l43.1-21.309    l9.999-17.32c5.5-9.526,2.206-21.819-7.32-27.319L197.561,51.339c-19.053-11-43.646-4.4-54.639,14.64l-50,86.603    c-5.5,9.526-2.206,21.82,7.321,27.321l17.32,9.999l102.178,58.993L284.382,216.934z"/>
			<path style="fill-rule:evenodd;clip-rule:evenodd;fill:#808080;" d="M424.693,297.942l-29.999,51.959l17.322,10.001    c9.527,5.501,21.822,2.206,27.323-7.322l19.994-34.631c5.501-9.528,2.207-21.823-7.321-27.324l-5.776-3.335L424.693,297.942z"/>
		</g>
		<g>
			<path d="M510.97,230.905c-2.078-7.756-7.034-14.227-13.954-18.222L271.842,82.679c-4.784-2.763-10.899-1.123-13.66,3.66    c-2.761,4.783-1.123,10.898,3.66,13.66l225.175,130.005c2.293,1.324,3.94,3.482,4.635,6.077s0.349,5.287-0.976,7.581    l-8.485,14.697l-40.315,19.932c-0.019,0.009-0.037,0.018-0.055,0.027l-16.764,8.288l-135.676-78.333    c-2.895-1.673-6.434-1.787-9.432-0.304l-59.845,29.589l-114.863-66.316c-4.775-2.757-6.417-8.885-3.66-13.66l50-86.603    c3.982-6.897,10.455-11.843,18.226-13.927c7.772-2.081,15.853-1.037,22.752,2.946c4.783,2.76,10.898,1.123,13.66-3.66    c2.761-4.783,1.123-10.898-3.66-13.66c-11.527-6.654-24.998-8.411-37.932-4.943c-12.93,3.467-23.715,11.722-30.367,23.244    l-50,86.603c-8.271,14.326-3.345,32.71,10.98,40.98l8.66,5l-5,8.66c-3.996,6.92-5.052,15.003-2.974,22.758    c2.078,7.756,7.034,14.228,13.955,18.223l99.265,57.311l-20.638,35.747c-1.86-0.149-3.734-0.247-5.631-0.247    c-27.868,0-51.977,16.372-63.232,40H60v-10c0-16.542-13.458-30-30-30H10c-5.523,0-10,4.478-10,10v119.999c0,5.522,4.477,10,10,10    h20c16.542,0,30-13.458,30-29.999v-10.001h59.646c11.255,23.627,35.365,40,63.232,40c38.598,0,70-31.402,70-70    c0-14.749-4.597-28.439-12.416-39.736l20.649-35.763l21.981,12.69c1.575,0.909,3.294,1.342,4.991,1.342    c3.456,0,6.817-1.794,8.669-5.002c2.762-4.783,1.123-10.898-3.66-13.66l-30.641-17.69h0h0l-34.637-19.998    c-0.002-0.001-0.003-0.002-0.005-0.003s-0.003-0.001-0.005-0.002l-107.92-62.308c-2.294-1.324-3.94-3.483-4.636-6.078    s-0.349-5.288,0.976-7.582l5-8.66l93.517,53.992c2.896,1.672,6.434,1.786,9.432,0.304l59.845-29.589l127.016,73.333L386.034,344.9    c0,0-0.001,0.001-0.001,0.001l-0.001,0.002l-10.001,17.322c-2.757,4.774-8.885,6.414-13.66,3.66    c-4.783-2.76-10.899-1.122-13.66,3.66c-2.762,4.783-1.123,10.898,3.66,13.66c4.603,2.657,9.718,4.015,14.91,4.015    c2.615,0,5.25-0.345,7.848-1.041c7.755-2.078,14.227-7.033,18.222-13.954l5.002-8.663l8.663,5.001    c4.712,2.721,9.863,4.014,14.95,4.014c10.377,0,20.482-5.382,26.033-14.996l19.994-34.631c6.388-11.063,4.899-24.544-2.706-33.922    l28.482-14.082c1.77-0.875,3.241-2.254,4.228-3.964l10-17.319C511.993,246.742,513.048,238.66,510.97,230.905z M40,446.015    c0,5.514-4.486,9.999-10,9.999H20v-99.999h10c5.514,0,10,4.486,10,10V446.015z M60,416.014v-19.999h53.604    c-0.47,3.268-0.726,6.604-0.726,9.999c0,3.396,0.256,6.732,0.726,10H60z M182.878,456.014c-27.57,0-50-22.43-50-50    c0-27.569,22.43-49.999,50-49.999c27.57,0,50,22.43,50,49.999C232.877,433.584,210.448,456.014,182.878,456.014z M226.155,351.057    c-5.222-4.121-11.04-7.513-17.306-10.027l17.619-30.517l17.322,10.001L226.155,351.057z M447.013,299.285    c4.776,2.758,6.418,8.888,3.661,13.664L430.68,347.58c-2.759,4.776-8.889,6.418-13.663,3.662l-8.662-5.001l23.485-40.677    l14.033-6.938L447.013,299.285z"/>
			<path d="M283.511,252.62l-24.9,12.312c-4.951,2.447-6.98,8.445-4.532,13.396c1.744,3.526,5.288,5.569,8.972,5.569    c1.488,0,3-0.333,4.424-1.038l24.9-12.312c4.951-2.447,6.98-8.445,4.532-13.396C294.459,252.2,288.461,250.169,283.511,252.62z"/>
			<path d="M340.21,282.153c-2.448-4.951-8.447-6.983-13.396-4.531l-24.9,12.312c-4.951,2.447-6.98,8.445-4.532,13.396    c1.744,3.526,5.288,5.569,8.972,5.569c1.488,0,3-0.333,4.424-1.038l24.9-12.312C340.628,293.102,342.658,287.104,340.21,282.153z"/>
			<path d="M354.08,332.862l24.9-12.312c4.951-2.447,6.98-8.445,4.532-13.396c-2.448-4.951-8.447-6.982-13.396-4.531l-24.9,12.312    c-4.951,2.447-6.98,8.445-4.532,13.396c1.744,3.526,5.288,5.569,8.972,5.569C351.144,333.9,352.656,333.567,354.08,332.862z"/>
			<path d="M152.562,129.28c-4.782-2.761-10.899-1.122-13.66,3.66c-2.762,4.783-1.123,10.898,3.66,13.66l42.429,24.497    c1.575,0.909,3.294,1.342,4.991,1.342c3.456,0,6.817-1.794,8.669-5.002c2.762-4.783,1.123-10.898-3.66-13.66L152.562,129.28z"/>
			<path d="M158.902,98.298c-2.762,4.783-1.123,10.898,3.66,13.66l42.429,24.497c1.575,0.909,3.294,1.342,4.991,1.342    c3.456,0,6.817-1.794,8.669-5.002c2.762-4.783,1.123-10.898-3.66-13.66l-42.429-24.497    C167.781,91.878,161.665,93.515,158.902,98.298z"/>
			<path d="M197.377,396.014h-4.5v-4.5c0-5.522-4.477-10-10-10s-10,4.478-10,10v4.5h-4.5c-5.523,0-10,4.478-10,10s4.477,10,10,10h4.5    v4.5c0,5.522,4.477,10,10,10s10-4.478,10-10v-4.5h4.5c5.523,0,10-4.478,10-10S202.9,396.014,197.377,396.014z"/>
			<path d="M226.964,79.858c1.634,1.006,3.443,1.484,5.231,1.484c3.357,0,6.637-1.69,8.526-4.76    c2.895-4.704,1.428-10.863-3.276-13.758l-0.006-0.004c-4.704-2.893-10.858-1.424-13.754,3.277    C220.791,70.802,222.26,76.963,226.964,79.858z"/>
			<path d="M326.925,345.467l-0.006-0.003c-5.013-2.317-10.953-0.125-13.267,4.89c-2.314,5.015-0.123,10.957,4.892,13.271    c1.357,0.627,2.782,0.923,4.184,0.923c3.78,0,7.398-2.154,9.086-5.812C334.128,353.722,331.939,347.781,326.925,345.467z"/>
		</g>
	</g>
</svg>
