<?xml version="1.0" encoding="iso-8859-1"?>
<!-- Generator: Adobe Illustrator 19.0.0, SVG Export Plug-In . SVG Version: 6.00 Build 0)  -->
<svg version="1.1" id="Layer_1" xmlns="http://www.w3.org/2000/svg" xmlns:xlink="http://www.w3.org/1999/xlink" x="0px" y="0px"
	 viewBox="0 0 512.001 512.001" style="enable-background:new 0 0 512.001 512.001;" xml:space="preserve">
<rect x="373.802" y="371.644" style="fill:#CCCCCC;" width="92.885" height="49.922"/>
<g>
	
		<rect x="74.675" y="282.87" transform="matrix(0.7835 -0.6214 0.6214 0.7835 -180.9734 130.8356)" style="fill:#464655;" width="45.192" height="84.515"/>
	<path style="fill:#464655;" d="M29.328,310.677L8.565,327.146l66.566,83.921l20.763-16.469
		c11.263-8.935,13.152-25.308,4.217-36.571l-34.212-43.133C56.965,303.63,40.592,301.742,29.328,310.677z"/>
</g>
<path style="opacity:0.1;enable-background:new    ;" d="M37.321,326.664c7.063-5.602,16.133-6.945,24.121-4.394l-0.153-0.193
	l35.406-28.084l41.649,52.507l2.878-2.283l-52.52-66.213l-35.406,28.084l0.153,0.193c-7.988-2.552-17.058-1.208-24.121,4.394
	l-20.763,16.47l10.871,13.704L37.321,326.664z"/>
<rect x="230.5" y="302.735" transform="matrix(-0.6245 -0.781 0.781 -0.6245 193.9601 748.6411)" style="fill:#CCCCCC;" width="92.883" height="49.921"/>
<path style="opacity:0.1;enable-background:new    ;" d="M373.799,421.566h36.154c2.528-7.874,3.907-16.258,3.907-24.962
	c0-8.703-1.378-17.087-3.907-24.962h-36.154V421.566z"/>
<circle style="fill:#999999;" cx="332.019" cy="396.607" r="53.291"/>
<circle style="fill:#CCCCCC;" cx="332.019" cy="396.607" r="24.962"/>
<path style="opacity:0.1;enable-background:new    ;" d="M321.903,396.604c0-11.201,7.377-20.679,17.539-23.839
	c-2.344-0.73-4.838-1.123-7.423-1.123c-13.785,0-24.962,11.175-24.962,24.962c0,13.785,11.175,24.962,24.962,24.962
	c2.584,0,5.078-0.393,7.423-1.123C329.281,417.282,321.903,407.804,321.903,396.604z"/>
<polygon style="opacity:0.1;enable-background:new    ;" points="267.419,275.836 228.427,307.012 256.766,342.456 295.879,311.432 
	"/>
<polygon style="fill:#B3B3B3;" points="391.476,199.164 155.27,386.523 105.114,323.291 312.935,100.146 "/>
<polygon style="opacity:0.1;enable-background:new    ;" points="296.671,227.231 302.839,173.751 344.872,140.41 312.935,100.146 
	105.114,323.291 132.321,357.592 "/>
<polygon style="fill:#CCCCCC;" points="114.58,335.226 269.666,212.212 275.833,158.732 327.131,118.042 301.312,36.488 
	41.245,242.772 "/>
<path style="fill:#B3B3B3;" d="M449.488,371.643v49.922c0,29.795,24.153,53.949,53.949,53.949V317.694
	C473.641,317.694,449.488,341.847,449.488,371.643z"/>
<path d="M332.02,430.125c18.486,0,33.526-15.039,33.526-33.525s-15.039-33.526-33.526-33.526c-18.487,0-33.525,15.04-33.525,33.526
	C298.495,415.085,313.533,430.125,332.02,430.125z M332.02,380.203c9.041,0,16.397,7.355,16.397,16.397
	c0,9.041-7.355,16.396-16.397,16.396c-9.041,0-16.396-7.355-16.396-16.396C315.623,387.558,322.979,380.203,332.02,380.203z"/>
<path d="M190.745,274.806c2.855,3.599,8.38,4.286,12.033,1.389l13.64-10.82c3.707-2.939,4.328-8.326,1.389-12.031
	c-2.939-3.708-8.327-4.329-12.033-1.389l-13.642,10.82C188.428,265.714,187.806,271.1,190.745,274.806z"/>
<path d="M321.527,72.259c-4.211-12.464-8.566-25.351-11.886-37.784c-0.041-0.167-0.088-0.335-0.14-0.504
	c-1.063-3.44-4.277-5.907-7.877-6.037c-1.223-0.045-2.428,0.166-3.559,0.634c-1.778,0.737-3.153,2.123-4.602,3.341
	c-11.373,9.572-23.576,18.94-35.402,28.017c-12.11,9.298-24.634,18.912-36.644,29.003c-3.621,3.043-4.09,8.446-1.047,12.067
	c3.043,3.623,8.446,4.09,12.067,1.047c11.721-9.849,24.091-19.346,36.054-28.53c9.342-7.171,18.917-14.522,28.212-22.066
	c2.698,8.834,5.682,17.665,8.599,26.294c4.145,12.269,8.415,24.905,11.781,37.328c-7.09,5.598-14.249,11.086-21.21,16.423
	c-8.456,6.483-17.2,13.186-25.833,20.094c-1.876,1.501-3.035,3.72-3.195,6.117c-0.233,3.485-0.47,6.998-0.726,10.523l-4.16,36.072
	c-0.183,1.012-0.349,2.027-0.547,3.035c-0.126,0.292-0.287,0.579-0.474,0.869l-7.917,6.281c-3.288,2.34-6.243,4.793-9.106,7.223
	l-11.12,8.82c-0.025,0.021-0.048,0.043-0.073,0.065c-2.89,2.409-3.932,6.792-2.352,10.237c0.492,1.072,1.248,1.99,2.077,2.819
	c2.819,2.583,7.226,2.787,10.389,0.731c0.022-0.014,0.045-0.023,0.066-0.038c4.032-2.717,7.612-5.762,11.074-8.707
	c0.267-0.227,0.531-0.451,0.796-0.676c3.322-2.634,6.465-5.56,10.057-7.835c1.804-1.142,8.409-6.814,10.161-8.203
	c1.78-1.411,2.926-3.473,3.186-5.729l0.726-6.292c2.223-12.451,3.389-24.884,4.278-37.095l0.758-6.57l41.809-33.162l53.701,67.701
	L156.657,374.486c0,0-20.698-26.093-20.699-26.097l-9.346-11.78l3.741-2.968l8.483-6.728c11.18-8.756,21.342-16.861,32.1-25.441
	l4.881-3.893c0,0,0.035-0.029,0.053-0.042c4.181-3.345,4.281-10.209-0.089-13.455c-3.119-2.317-7.5-2.382-10.572,0.049
	l-43.558,34.55l-5.683,4.507c0,0-4.144-5.225-4.164-5.248c0,0-28.367-35.762-28.37-35.765l-30.125-37.981
	c12.948-10.184,25.546-20.29,38.77-30.897c10.771-8.64,21.909-17.576,33.243-26.549c24.756-19.129,50.354-38.909,74.774-59.051
	c3.648-3.01,4.167-8.407,1.158-12.058c-3.01-3.647-8.407-4.167-12.057-1.158c-24.211,19.969-49.699,39.664-74.428,58.774
	c-11.457,9.069-22.616,18.021-33.409,26.678c-15.473,12.413-30.09,24.138-45.373,36.072c-1.633,1.276-2.833,3.272-3.183,5.313
	c-0.225,1.312-0.142,2.712,0.256,3.966c0.388,1.036,0.871,1.886,1.475,2.803l30.16,38.023l-13.628,10.81
	c-1.827-0.295-3.691-0.452-5.58-0.452c-7.762,0-15.392,2.661-21.483,7.493l-20.763,16.47c-1.78,1.411-2.926,3.473-3.186,5.729
	c-0.26,2.258,0.386,4.524,1.797,6.305l66.566,83.921c1.691,2.131,4.191,3.242,6.716,3.242c1.865,0,3.742-0.605,5.317-1.854
	l20.764-16.469c7.923-6.284,12.35-15.364,12.998-24.736l13.645-10.823l20.7,26.097c1.69,2.131,4.191,3.242,6.716,3.242
	c1.865,0,3.742-0.605,5.317-1.854l76.985-61.064l35.808,44.783c-2.076,6.179-3.219,12.782-3.219,19.65
	c0,34.106,27.748,61.854,61.855,61.854c21.756,0,40.91-11.301,51.94-28.329h57.564c4.19,30.43,30.349,53.949,61.912,53.949
	c4.73,0,8.565-3.833,8.565-8.565V317.69c0-4.731-3.835-8.565-8.565-8.565c-12.742,0-25.01,3.821-35.478,11.049
	c-3.893,2.688-4.869,8.022-2.181,11.915c2.688,3.891,8.022,4.868,11.914,2.181c5.214-3.601,11.045-6.035,17.182-7.209v139.072
	c-20.944-4.014-36.818-22.473-36.819-44.573c0,0,0-49.923,0-49.927c0-4.769,0.747-9.485,2.218-14.017
	c1.461-4.499-1.003-9.331-5.501-10.791c-4.499-1.456-9.33,1.004-10.79,5.501c-1.141,3.513-1.953,7.107-2.455,10.747h-57.563
	c-11.03-17.029-30.185-28.329-51.94-28.329c-2.118,0-4.213,0.107-6.278,0.317l-35.633-44.565l106.69-84.627
	c1.78-1.411,2.926-3.473,3.186-5.729c0.26-2.258-0.387-4.524-1.799-6.305l-63.857-80.505
	C330.718,99.503,326.057,85.667,321.527,72.259z M90.572,387.883L76.519,399.03l-55.922-70.501l14.053-11.146
	c3.121-2.476,6.868-3.783,10.838-3.783c5.183,0,10.427,2.487,13.701,6.614l34.212,43.133
	C99.479,371.01,97.767,381.716,90.572,387.883z M110.223,357.871c-0.043-0.08-0.096-0.154-0.139-0.234
	c-0.943-1.73-2.038-3.392-3.261-4.937l-34.214-43.133c-0.011-0.015-0.024-0.027-0.035-0.041c-1.255-1.576-2.657-3.086-4.183-4.406
	c-0.015-0.013-0.027-0.027-0.041-0.04l6.992-5.545c0,0,32.527,41.008,32.53,41.012l9.344,11.78L110.223,357.871z M440.923,380.203
	v32.794h-49.264c0.023-0.083,0.042-0.169,0.065-0.254c2.129-8.037,2.694-16.448,1.548-24.69c-0.356-2.562-0.876-5.104-1.55-7.602
	c-0.023-0.083-0.041-0.167-0.064-0.25h49.264V380.203z M312.779,356.27c0.127-0.061,0.252-0.121,0.379-0.182
	c5.879-2.77,12.361-4.215,18.86-4.215c21.601,0,40.301,16.395,44.065,37.506c0.426,2.387,0.661,4.796,0.661,7.222
	c0,24.364-20.419,44.725-44.726,44.725c-24.662,0-44.726-20.063-44.726-44.725C287.294,379.563,297.481,363.657,312.779,356.27z
	 M307.574,339.769c-0.721-0.851-10.337,5.694-11.137,6.254c-2.776,1.947-5.391,4.12-7.811,6.495
	c-0.674,0.661-7.11,7.171-6.662,7.731c-0.027-0.034-30.968-38.73-30.968-38.73l25.694-20.38
	C276.69,301.141,307.566,339.759,307.574,339.769z"/>
<g>
</g>
<g>
</g>
<g>
</g>
<g>
</g>
<g>
</g>
<g>
</g>
<g>
</g>
<g>
</g>
<g>
</g>
<g>
</g>
<g>
</g>
<g>
</g>
<g>
</g>
<g>
</g>
<g>
</g>
</svg>
