<svg height="496pt" viewBox="0 -27 496 495" width="496pt" xmlns="http://www.w3.org/2000/svg"><path d="m483.28125 45.21875c2.957031 2.882812 4.71875 6.882812 4.71875 11.28125 0 8.800781-7.199219 16-16 16h-128c-4.398438 0-8.398438-1.761719-11.28125-4.71875-2.957031-2.882812-4.71875-6.882812-4.71875-11.28125 0-8.800781 7.199219-16 16-16h128c4.398438 0 8.398438 1.761719 11.28125 4.71875zm0 0" fill="#ccd1d9"/><path d="m152 40.5c8.800781 0 16 7.199219 16 16 0 4.398438-1.761719 8.398438-4.71875 11.28125-2.882812 2.957031-6.882812 4.71875-11.28125 4.71875h-128c-8.800781 0-16-7.199219-16-16 0-4.398438 1.761719-8.398438 4.71875-11.28125 2.882812-2.957031 6.882812-4.71875 11.28125-4.71875zm0 0" fill="#ccd1d9"/><g fill="#fcd770"><path d="m392 72.5h32v48h-32zm0 0"/><path d="m424 24.5v16h-32v-16c0-4.398438 1.761719-8.398438 4.71875-11.28125 2.882812-2.957031 6.882812-4.71875 11.28125-4.71875 8.800781 0 16 7.199219 16 16zm0 0"/><path d="m104 24.5v16h-32v-16c0-8.800781 7.199219-16 16-16 4.398438 0 8.398438 1.761719 11.28125 4.71875 2.957031 2.882812 4.71875 6.882812 4.71875 11.28125zm0 0"/><path d="m72 72.5h32v48h-32zm0 0"/></g><path d="m440 120.5v47.039062l-47.039062-17.679687-16.960938-6.320313v-23.039062zm0 0" fill="#ccd1d9"/><path d="m120 120.5v23.039062l-16.960938 6.320313-47.039062 17.679687v-47.039062zm0 0" fill="#ccd1d9"/><path d="m360 137.539062v78.960938h-32v-88l.960938-2.640625zm0 0" fill="#fcd770"/><path d="m392 152.5v64h-32v-78.960938l16 6 16.960938 6.320313zm0 0" fill="#fcd770"/><path d="m440 167.539062 8.640625 3.199219c9.28125 3.441407 15.359375 12.320313 15.359375 22.160157 0 6.480468-2.640625 12.402343-6.878906 16.722656-4.320313 4.238281-10.242188 6.878906-16.722656 6.878906h-48.398438v-64l.960938-2.640625zm0 0" fill="#969faa"/><path d="m56 167.539062 47.039062-17.679687.960938 2.640625v64h-48.398438c-13.042968 0-23.601562-10.558594-23.601562-23.601562 0-9.839844 6.078125-18.71875 15.359375-22.160157zm0 0" fill="#969faa"/><path d="m168 168.5v48h-32v-78.960938l31.039062-11.679687.960938 2.640625zm0 0" fill="#fcd770"/><path d="m120 143.539062 16-6v78.960938h-32v-64l-.960938-2.640625zm0 0" fill="#fcd770"/><path d="m328.960938 125.859375-.960938 2.640625v40l-61.121094-22.960938 5.121094-41.039062zm0 0" fill="#969faa"/><path d="m224 104.5 5.121094 41.039062-61.121094 22.960938v-40l-.960938-2.640625zm0 0" fill="#969faa"/><path d="m328 168.5v48h-32v-16h-96v16h-32v-48l61.121094-22.960938 2.878906 22.960938h32l2.878906-22.960938zm0 0" fill="#ccd1d9"/><path d="m229.121094 145.539062-5.121094-41.039062h48l-5.121094 41.039062-2.878906 22.960938h-32zm0 0" fill="#b4dd7f"/><path d="m296 216.5v16h-32v-32h32zm0 0" fill="#b4dd7f"/><path d="m232 200.5v32h-32v-32zm0 0" fill="#b4dd7f"/><path d="m232 200.5h32v32h-32zm0 0" fill="#b4dd7f"/><path d="m200 232.5h96v-16h32l-24 56h-112l-24-56h32zm0 0" fill="#838f9b"/><path d="m272 272.5h32v32h-32zm0 0" fill="#fcd770"/><path d="m272 272.5v32h-48v-32zm0 0" fill="#fcd770"/><path d="m192 272.5h32v32h-32zm0 0" fill="#fcd770"/><path d="m248 336.5c-5.601562 0-10.960938.960938-16 2.71875v-34.71875h32v34.71875c-5.039062-1.757812-10.398438-2.71875-16-2.71875zm0 0" fill="#838f9b"/><path d="m136 400.5v16h-32v-64h32zm0 0" fill="#ccd1d9"/><path d="m136 368.5h32v32h-32zm0 0" fill="#838f9b"/><path d="m328 352.5v64c0 4.398438-3.601562 8-8 8h-45.519531c12.960937-8.558594 21.519531-23.28125 21.519531-40s-8.558594-31.441406-21.519531-40h45.519531c4.398438 0 8 3.601562 8 8zm0 0" fill="#ccd1d9"/><path d="m176 344.5h45.519531c-12.960937 8.558594-21.519531 23.28125-21.519531 40s8.558594 31.441406 21.519531 40h-45.519531c-4.398438 0-8-3.601562-8-8v-64c0-4.398438 3.601562-8 8-8zm0 0" fill="#ccd1d9"/><path d="m274.480469 424.5c-7.601563 5.121094-16.71875 8-26.480469 8s-18.878906-2.878906-26.480469-8c-12.960937-8.558594-21.519531-23.28125-21.519531-40s8.558594-31.441406 21.519531-40c3.28125-2.160156 6.800781-3.921875 10.480469-5.28125 5.039062-1.757812 10.398438-2.71875 16-2.71875s10.960938.960938 16 2.71875c3.679688 1.359375 7.199219 3.121094 10.480469 5.28125 12.960937 8.558594 21.519531 23.28125 21.519531 40s-8.558594 31.441406-21.519531 40zm0 0" fill="#69d6f4"/><path d="m264 384.5c0 8.835938-7.164062 16-16 16s-16-7.164062-16-16 7.164062-16 16-16 16 7.164062 16 16zm0 0" fill="#4fc1e9"/><path d="m248 360.5c-13.230469 0-24 10.769531-24 24s10.769531 24 24 24 24-10.769531 24-24-10.769531-24-24-24zm0 32c-4.414062 0-8-3.59375-8-8s3.585938-8 8-8 8 3.59375 8 8-3.585938 8-8 8zm0 0"/><path d="m472 32.5h-40v-8c0-13.230469-10.769531-24-24-24s-24 10.769531-24 24v8h-40c-13.230469 0-24 10.769531-24 24s10.769531 24 24 24h40v32h-16v19.457031l-94.542969-35.457031h-50.90625l-94.550781 35.457031v-19.457031h-16v-32h40c13.230469 0 24-10.769531 24-24s-10.769531-24-24-24h-40v-8c0-13.230469-10.769531-24-24-24s-24 10.769531-24 24v8h-40c-13.230469 0-24 10.769531-24 24s10.769531 24 24 24h40v32h-16v49.449219l-3.488281 1.304687c-12.273438 4.605469-20.511719 16.511719-20.511719 29.621094 0 17.441406 14.183594 31.625 31.625 31.625h107.101562l21.273438 49.640625v38.359375h40v21.480469c-1.609375.765625-3.175781 1.609375-4.695312 2.519531h-43.304688c-8.824219 0-16 7.175781-16 16v8h-16v-16h-48v80h48v-16h16v8c0 8.824219 7.175781 16 16 16h43.304688c8.40625 5.046875 18.199218 8 28.695312 8s20.289062-2.953125 28.695312-8h43.304688c8.824219 0 16-7.175781 16-16v-64c0-8.824219-7.175781-16-16-16h-43.304688c-1.519531-.910156-3.085937-1.753906-4.695312-2.519531v-21.480469h40v-38.359375l21.273438-49.640625h107.101562c17.441406 0 31.625-14.183594 31.625-31.625 0-13.109375-8.238281-25.007812-20.511719-29.613281l-3.488281-1.3125v-49.449219h-16v-32h40c13.230469 0 24-10.769531 24-24s-10.769531-24-24-24zm-344 376h-16v-48h16zm16-16v-16h16v16zm256-368c0-4.40625 3.585938-8 8-8s8 3.59375 8 8v8h-16zm-208 168v16h-16v-34.457031l46.457031-17.414063 2.480469 19.871094h46.125l2.480469-19.871094 46.457031 17.414063v34.457031h-16v-16zm16 32v-16h16v16zm32-16h16v16h-16zm32 0h16v16h-16zm-144-59.457031v59.457031h-16v-53.457031zm16-6 16-6v71.457031h-16zm176 13.914062-44.414062-16.65625 3.09375-24.753906 41.320312 15.496094zm-63.0625 3.542969h-17.875l-6-48h29.882812zm-36.523438-20.199219-44.414062 16.65625v-25.914062l41.320312-15.496094zm115.585938-3.257812 16 6v65.457031h-16zm32 12 16 6v53.457031h-16zm-288-124.542969c0-4.40625 3.585938-8 8-8s8 3.59375 8 8v8h-16zm-64 32c0-4.40625 3.585938-8 8-8h128c4.414062 0 8 3.59375 8 8s-3.585938 8-8 8h-128c-4.414062 0-8-3.59375-8-8zm64 24h16v32h-16zm-16 48h48v9.457031l-48 18zm-24 64.375c0-6.480469 4.070312-12.359375 10.144531-14.632812l45.855469-17.199219v47.457031h-40.375c-8.617188 0-15.625-7.007812-15.625-15.625zm160 87.625h16v16h-16zm32 16v-16h32v16zm-56 56h26.113281c-6.351562 9.078125-10.113281 20.105469-10.113281 32s3.761719 22.921875 10.113281 32h-26.113281zm32 32c0-22.054688 17.945312-40 40-40s40 17.945312 40 40-17.945312 40-40 40-40-17.945312-40-40zm112 32h-26.113281c6.351562-9.078125 10.113281-20.105469 10.113281-32s-3.761719-22.921875-10.113281-32h26.113281zm-64-87.359375c-2.625-.375-5.28125-.640625-8-.640625s-5.375.265625-8 .640625v-16.640625h16zm24-32.640625v-16h16v16zm18.726562-32h-101.453124l-17.144532-40h11.871094v16h112v-16h11.871094zm157.273438-71.625c0 8.617188-7.007812 15.625-15.625 15.625h-40.375v-47.457031l45.855469 17.199219c6.074219 2.273437 10.144531 8.152343 10.144531 14.632812zm-72-54.917969v-9.457031h48v27.449219zm32-25.457031h-16v-32h16zm56-48h-128c-4.414062 0-8-3.59375-8-8s3.585938-8 8-8h128c4.414062 0 8 3.59375 8 8s-3.585938 8-8 8zm0 0"/></svg>