<svg height="496pt" viewBox="0 -27 496 495" width="496pt" xmlns="http://www.w3.org/2000/svg"><path d="m168 216.5h-72v-64l72-24zm0 0" fill="#f0bc5e"/><path d="m400 216.5h-72v-88l72 24zm0 0" fill="#f0bc5e"/><path d="m320 352.5v64h-48v16h48c8.824219 0 16-7.175781 16-16v-64c0-8.824219-7.175781-16-16-16h-48v16zm0 0"/><path d="m160 352.5v8h-16v-16h-48v80h48v-16h16v8c0 8.824219 7.175781 16 16 16h48v-16h-48v-64h48v-16h-48c-8.824219 0-16 7.175781-16 16zm-32 56h-16v-48h16zm16-16v-16h16v16zm0 0"/><path d="m472 32.5h-40v-8c0-13.230469-10.769531-24-24-24s-24 10.769531-24 24v8h-40c-13.230469 0-24 10.769531-24 24s10.769531 24 24 24h40v32h-16v19.457031l-94.542969-35.457031h-50.90625l-94.550781 35.457031v-19.457031h-16v-32h40c13.230469 0 24-10.769531 24-24s-10.769531-24-24-24h-40v-8c0-13.230469-10.769531-24-24-24s-24 10.769531-24 24v8h-40c-13.230469 0-24 10.769531-24 24s10.769531 24 24 24h40v32h-16v49.457031l-3.488281 1.304688c-12.273438 4.605469-20.511719 16.511719-20.511719 29.613281 0 17.441406 14.183594 31.625 31.625 31.625h107.101562l21.273438 49.640625v38.359375h40v24h16v-24h16v24h16v-24h40v-38.359375l21.273438-49.640625h107.101562c17.441406 0 31.625-14.183594 31.625-31.625 0-13.101562-8.238281-25.007812-20.511719-29.613281l-3.488281-1.3125v-49.449219h-16v-32h40c13.230469 0 24-10.769531 24-24s-10.769531-24-24-24zm-72-8c0-4.40625 3.585938-8 8-8s8 3.59375 8 8v8h-16zm-208 168v16h-16v-34.457031l46.457031-17.414063 2.480469 19.871094h46.125l2.480469-19.871094 46.457031 17.414063v34.457031h-16v-16zm16 32v-16h16v16zm32-16h16v16h-16zm32 0h16v16h-16zm48-51.542969-44.414062-16.65625 3.09375-24.753906 41.320312 15.496094zm-63.0625 3.542969h-17.875l-6-48h29.882812zm-36.523438-20.199219-44.414062 16.65625v-25.914062l41.320312-15.496094zm-60.414062 68.199219h-16v-65.457031l16-6zm176-71.457031 16 6v65.457031h-16zm-256-112.542969c0-4.40625 3.585938-8 8-8s8 3.59375 8 8v8h-16zm-64 32c0-4.40625 3.585938-8 8-8h128c4.414062 0 8 3.59375 8 8s-3.585938 8-8 8h-128c-4.414062 0-8-3.59375-8-8zm64 24h16v32h-16zm-16 48h48v9.457031l-48 18zm-24 64.375c0-6.480469 4.078125-12.359375 10.144531-14.632812l77.855469-29.199219v59.457031h-72.375c-8.617188 0-15.625-7.007812-15.625-15.625zm160 87.625h16v16h-16zm32 16v-16h32v16zm48 0v-16h16v16zm18.726562-32h-101.453124l-17.144532-40h11.871094v16h112v-16h11.871094zm157.273438-71.625c0 8.617188-7.007812 15.625-15.625 15.625h-72.375v-59.457031l77.855469 29.191406c6.066406 2.28125 10.144531 8.160156 10.144531 14.640625zm-72-54.917969v-9.457031h48v27.449219zm32-25.457031h-16v-32h16zm56-48h-128c-4.414062 0-8-3.59375-8-8s3.585938-8 8-8h128c4.414062 0 8 3.59375 8 8s-3.585938 8-8 8zm0 0"/><path d="m248 440.5c-30.871094 0-56-25.128906-56-56s25.128906-56 56-56 56 25.128906 56 56-25.128906 56-56 56zm0 0" fill="#f0bc5e"/><path d="m248 416.5c-17.648438 0-32-14.351562-32-32s14.351562-32 32-32 32 14.351562 32 32-14.351562 32-32 32zm0-48c-8.824219 0-16 7.175781-16 16s7.175781 16 16 16 16-7.175781 16-16-7.175781-16-16-16zm0 0"/></svg>