<svg height="512pt" viewBox="0 -17 512 512" width="512pt" xmlns="http://www.w3.org/2000/svg"><path d="m349.867188 256.007812v17.066407c0 14.140625-11.460938 25.601562-25.601563 25.601562h-136.53125c-14.140625 0-25.601563-11.460937-25.601563-25.601562v-17.066407zm0 0" fill="#1566c0"/><path d="m162.132812 238.941406-102.398437-8.53125v34.132813l92.464844 15.410156c2.472656.410156 5.003906-.285156 6.917969-1.90625 1.910156-1.621094 3.015624-4 3.015624-6.507813zm0 0" fill="#37474f"/><path d="m435.199219 102.410156v34.132813l-85.332031 76.800781h-187.734376l-85.332031-76.800781v-34.132813l129.960938 56.832032c4.320312 1.9375 9.003906 2.925781 13.738281 2.898437h71c4.734375.027344 9.417969-.960937 13.738281-2.898437l104.363281-45.65625zm0 0" fill="#1566c0"/><path d="m349.867188 238.941406 102.398437-8.53125v34.132813l-92.464844 15.410156c-2.472656.410156-5.003906-.285156-6.917969-1.90625-1.910156-1.621094-3.015624-4-3.015624-6.507813zm0 0" fill="#37474f"/><path d="m162.132812 213.34375h187.734376v42.664062h-187.734376zm0 0" fill="#0377bc"/><path d="m324.265625 256.007812v17.066407c0 14.140625-11.460937 25.601562-25.597656 25.601562h-110.933594c-14.140625 0-25.601563-11.460937-25.601563-25.601562v-17.066407zm0 0" fill="#2296f3"/><path d="m409.601562 113.585938v22.957031l-85.335937 76.800781h-162.132813l-85.332031-76.800781v-22.957031l104.363281 45.65625c4.316407 1.9375 9.003907 2.925781 13.738282 2.898437h96.597656c4.734375.027344 9.417969-.960937 13.738281-2.898437zm0 0" fill="#2296f3"/><path d="m162.132812 213.34375h162.132813v42.664062h-162.132813zm0 0" fill="#02a9f4"/><path d="m358.144531 469.34375h-42.410156c-9.414063-.03125-17.039063-7.65625-17.066406-17.066406.070312-9.398438 7.667969-17 17.066406-17.070313h30.890625l-30.722656-102.398437h-119.804688l-30.722656 102.398437h30.890625c9.414063.03125 17.039063 7.65625 17.066406 17.070313-.070312 9.394531-7.667969 16.996094-17.066406 17.066406h-42.410156c-8.082031-.011719-15.683594-3.839844-20.507813-10.328125-4.824218-6.484375-6.300781-14.867187-3.980468-22.613281l37.628906-125.523438c2.15625-7.25 8.824218-12.214844 16.386718-12.203125h145.234376c7.5625-.011719 14.230468 4.953125 16.386718 12.203125l37.628906 125.523438c2.320313 7.746094.84375 16.128906-3.980468 22.613281-4.824219 6.488281-12.425782 10.316406-20.507813 10.328125zm0 0" fill="#37474f"/><path d="m332.800781 469.34375h-17.066406c-9.414063-.03125-17.039063-7.65625-17.066406-17.066406.070312-9.398438 7.667969-17 17.066406-17.070313h30.890625l-30.722656-102.398437h-123.050782l-30.71875 102.398437h30.890626c6.90625-.019531 13.136718 4.132813 15.777343 10.515625 2.636719 6.378906 1.160157 13.722656-3.746093 18.585938-3.160157 3.242187-7.503907 5.058594-12.03125 5.035156h-39.167969c-8.082031-.011719-15.683594-3.839844-20.507813-10.328125-4.824218-6.484375-6.300781-14.867187-3.980468-22.613281l37.628906-125.523438c2.15625-7.25 8.824218-12.214844 16.386718-12.203125h119.890626c7.5625-.011719 14.230468 4.953125 16.386718 12.203125l37.628906 125.523438c2.320313 7.746094.84375 16.128906-3.980468 22.613281-4.824219 6.488281-12.425782 10.316406-20.507813 10.328125zm0 0" fill="#607d8b"/><path d="m298.667969 375.476562c0 23.5625-19.105469 42.664063-42.667969 42.664063s-42.667969-19.101563-42.667969-42.664063c0-23.566406 19.105469-42.667968 42.667969-42.667968s42.667969 19.101562 42.667969 42.667968zm0 0" fill="#00bcd4"/><g fill="#607d8b"><path d="m51.199219 85.34375h17.066406c4.714844 0 8.535156 3.820312 8.535156 8.53125v51.199219c0 4.714843-3.820312 8.535156-8.535156 8.535156h-17.066406c-4.710938 0-8.53125-3.820313-8.53125-8.535156v-51.199219c0-4.710938 3.820312-8.53125 8.53125-8.53125zm0 0"/><path d="m34.132812 213.34375h17.066407c4.714843 0 8.535156 3.820312 8.535156 8.53125v51.199219c0 4.714843-3.820313 8.535156-8.535156 8.535156h-17.066407c-4.710937 0-8.53125-3.820313-8.53125-8.535156v-51.199219c0-4.710938 3.820313-8.53125 8.53125-8.53125zm0 0"/><path d="m460.800781 153.609375h-17.066406c-4.714844 0-8.535156-3.820313-8.535156-8.535156v-51.199219c0-4.710938 3.820312-8.53125 8.535156-8.53125h17.066406c4.710938 0 8.53125 3.820312 8.53125 8.53125v51.199219c0 4.714843-3.820312 8.535156-8.53125 8.535156zm0 0"/><path d="m477.867188 281.609375h-17.066407c-4.714843 0-8.535156-3.820313-8.535156-8.535156v-51.199219c0-4.710938 3.820313-8.53125 8.535156-8.53125h17.066407c4.710937 0 8.53125 3.820312 8.53125 8.53125v51.199219c0 4.714843-3.820313 8.535156-8.53125 8.535156zm0 0"/></g><path d="m8.535156 59.742188h25.597656c4.714844 0 8.535157-3.820313 8.535157-8.535157 0-4.710937-3.820313-8.53125-8.535157-8.53125h-25.597656c-4.714844 0-8.535156 3.820313-8.535156 8.53125 0 4.714844 3.820312 8.535157 8.535156 8.535157zm0 0"/><path d="m110.933594 59.742188c4.710937 0 8.53125-3.820313 8.53125-8.535157 0-4.710937-3.820313-8.53125-8.53125-8.53125h-25.601563c-4.710937 0-8.53125 3.820313-8.53125 8.53125 0 4.714844 3.820313 8.535157 8.53125 8.535157zm0 0"/><path d="m25.601562 187.742188c0-4.714844-3.820312-8.535157-8.535156-8.535157h-8.53125c-4.714844 0-8.535156 3.820313-8.535156 8.535157 0 4.710937 3.820312 8.535156 8.535156 8.535156h8.53125c4.714844 0 8.535156-3.824219 8.535156-8.535156zm0 0"/><path d="m76.800781 196.277344c4.710938 0 8.53125-3.824219 8.53125-8.535156 0-4.714844-3.820312-8.535157-8.53125-8.535157h-8.535156c-4.710937 0-8.53125 3.820313-8.53125 8.535157 0 4.710937 3.820313 8.535156 8.53125 8.535156zm0 0"/><path d="m477.867188 204.808594v-17.066406c0-4.714844-3.820313-8.535157-8.535157-8.535157-4.710937 0-8.53125 3.820313-8.53125 8.535157v17.066406c-9.425781 0-17.066406 7.640625-17.066406 17.066406v.683594l-85.335937 7.109375v-12.527344l70.625-63.53125c3.035156 5.257813 8.636718 8.507813 14.710937 8.53125h17.066406c9.425781 0 17.066407-7.640625 17.066407-17.066406v-51.199219c0-9.425781-7.640626-17.066406-17.066407-17.066406v-25.601563c0-4.710937-3.820312-8.53125-8.535156-8.53125-4.710937 0-8.53125 3.820313-8.53125 8.53125v25.601563c-9.425781 0-17.066406 7.640625-17.066406 17.066406v2.953125l-124.9375 54.613281c-3.222657 1.433594-6.714844 2.164063-10.242188 2.140625h-70.988281c-3.554688.023438-7.074219-.722656-10.316406-2.183593l-124.851563-54.570313v-2.953125c0-9.425781-7.640625-17.066406-17.066406-17.066406v-25.601563c0-4.710937-3.820313-8.53125-8.53125-8.53125-4.714844 0-8.535156 3.820313-8.535156 8.53125v25.601563c-9.425781 0-17.066407 7.640625-17.066407 17.066406v51.199219c0 9.425781 7.640626 17.066406 17.066407 17.066406h17.066406c6.074219-.023437 11.675781-3.273437 14.710937-8.53125l70.625 63.53125v12.527344l-85.335937-7.109375v-.683594c0-9.425781-7.640625-17.066406-17.066406-17.066406v-17.066406c0-4.714844-3.820313-8.535157-8.53125-8.535157-4.714844 0-8.535157 3.820313-8.535157 8.535157v17.066406c-9.425781 0-17.066406 7.640625-17.066406 17.066406v51.199219c0 9.425781 7.640625 17.066406 17.066406 17.066406h17.066407c8.808593-.042969 16.132812-6.78125 16.914062-15.554687l82.679688 13.78125c.929687.160156 1.871093.238281 2.816406.238281 1.230469-.015625 2.460937-.164063 3.660156-.441407 1.863281 3.761719 4.402344 7.148438 7.492188 9.992188-2.746094 2.902344-4.773438 6.410156-5.921875 10.238281l-37.667969 125.542969c-3.097656 10.335938-1.128906 21.527344 5.3125 30.183594s16.597656 13.757812 27.390625 13.753906h42.390625c14.140625 0 25.601563-11.460938 25.601563-25.597656 0-14.140625-11.460938-25.601563-25.601563-25.601563h-19.421875l25.601562-85.332031h15.496094c-18.449218 20.496094-17.34375 51.925781 2.496094 71.082031 19.839844 19.152344 51.285156 19.152344 71.125 0 19.839844-19.15625 20.945312-50.585937 2.496094-71.082031h15.496094l25.601562 85.332031h-19.421875c-14.140625 0-25.601563 11.460938-25.601563 25.601563 0 14.136718 11.460938 25.597656 25.601563 25.597656h42.390625c10.792969.003906 20.949219-5.097656 27.390625-13.753906s8.410156-19.847656 5.3125-30.183594l-37.667969-125.550781c-1.148437-3.828125-3.175781-7.335938-5.921875-10.242188 3.089844-2.835937 5.628907-6.222656 7.492188-9.980469 1.203125.28125 2.433593.429688 3.667969.441407.945312 0 1.886718-.078125 2.816406-.238281l82.679687-13.78125c.78125 8.769531 8.101563 15.507812 16.90625 15.554687h17.066407c9.425781 0 17.066406-7.640625 17.066406-17.066406v-51.199219c0-9.425781-7.640625-17.066406-17.066406-17.066406zm-136.535157 68.265625c0 9.425781-7.640625 17.066406-17.066406 17.066406h-136.53125c-9.425781 0-17.066406-7.640625-17.066406-17.066406v-8.53125h170.664062zm-85.332031-51.199219h85.332031v25.601562h-170.664062v-25.601562zm187.734375-128h17.066406v51.199219h-17.066406zm-392.535156 51.199219v-51.199219h17.066406v51.199219zm34.132812-29.617188 117.921875 51.566407c5.425782 2.433593 11.304688 3.679687 17.246094 3.652343h71c5.910156.03125 11.761719-1.203125 17.160156-3.617187l118.007813-51.601563v17.289063l-80.078125 72.0625h-181.179688l-80.078125-72.0625zm-51.199219 157.617188v-51.199219h17.066407v51.199219zm34.132813-15.761719v-17.628906l85.335937 7.109375v24.746093zm221.867187 118.164062c0 18.851563-15.28125 34.132813-34.132812 34.132813s-34.132812-15.28125-34.132812-34.132813c0-18.851562 15.28125-34.132812 34.132812-34.132812s34.132812 15.28125 34.132812 34.132812zm38.503907-68.269531c3.765625 0 7.089843 2.46875 8.175781 6.078125l37.65625 125.558594c1.546875 5.164062.5625 10.757812-2.65625 15.085938-3.21875 4.324218-8.292969 6.875-13.6875 6.878906h-42.390625c-4.714844 0-8.535156-3.820313-8.535156-8.53125 0-4.714844 3.820312-8.535156 8.535156-8.535156h30.890625c2.699219 0 5.238281-1.273438 6.847656-3.441407 1.613282-2.164062 2.105469-4.964843 1.328125-7.550781l-30.722656-102.398438c-1.085937-3.609374-4.40625-6.078124-8.175781-6.074218h-119.804688c-3.769531-.003906-7.089844 2.464844-8.175781 6.074218l-30.722656 102.398438c-.777344 2.585938-.285157 5.386719 1.328125 7.550781 1.609375 2.167969 4.148437 3.441407 6.847656 3.441407h30.890625c4.714844 0 8.535156 3.820312 8.535156 8.535156 0 4.710937-3.820312 8.53125-8.535156 8.53125h-42.390625c-5.394531 0-10.472656-2.554688-13.691406-6.882813s-4.203125-9.921875-2.652344-15.089843l37.65625-125.542969c1.082031-3.609375 4.40625-6.085938 8.175781-6.085938zm29.761719-35.675781v-24.746094l85.335937-7.109375v17.628907zm119.46875 1.542969h-17.066407v-51.199219h17.066407zm0 0"/><path d="m503.464844 42.675781h-25.597656c-4.714844 0-8.535157 3.820313-8.535157 8.53125 0 4.714844 3.820313 8.535157 8.535157 8.535157h25.597656c4.714844 0 8.535156-3.820313 8.535156-8.535157 0-4.710937-3.820312-8.53125-8.535156-8.53125zm0 0"/><path d="m426.667969 59.742188c4.710937 0 8.53125-3.820313 8.53125-8.535157 0-4.710937-3.820313-8.53125-8.53125-8.53125h-25.601563c-4.710937 0-8.53125 3.820313-8.53125 8.53125 0 4.714844 3.820313 8.535157 8.53125 8.535157zm0 0"/><path d="m503.464844 179.207031h-8.53125c-4.714844 0-8.535156 3.820313-8.535156 8.535157 0 4.710937 3.820312 8.535156 8.535156 8.535156h8.53125c4.714844 0 8.535156-3.824219 8.535156-8.535156 0-4.714844-3.820312-8.535157-8.535156-8.535157zm0 0"/><path d="m435.199219 179.207031c-4.710938 0-8.53125 3.820313-8.53125 8.535157 0 4.710937 3.820312 8.535156 8.53125 8.535156h8.535156c4.710937 0 8.53125-3.824219 8.53125-8.535156 0-4.714844-3.820313-8.535157-8.53125-8.535157zm0 0"/><path d="m273.066406 375.476562c0 4.710938-3.820312 8.53125-8.53125 8.53125-4.714844 0-8.535156-3.820312-8.535156-8.53125 0-4.714843 3.820312-8.535156 8.535156-8.535156 4.710938 0 8.53125 3.820313 8.53125 8.535156zm0 0"/><path d="m313.089844 76.636719c3.367187 0 6.421875-1.984375 7.792968-5.0625 1.367188-3.078125.800782-6.671875-1.453124-9.179688-16.183594-17.980469-39.238282-28.246093-63.429688-28.246093s-47.246094 10.265624-63.429688 28.246093c-3.039062 3.515625-2.707031 8.816407.746094 11.925781 3.453125 3.109376 8.757813 2.882813 11.9375-.507812 12.945313-14.386719 31.390625-22.605469 50.746094-22.605469s37.800781 8.21875 50.746094 22.605469c1.621094 1.796875 3.921875 2.824219 6.34375 2.824219zm0 0"/><path d="m338.441406 53.769531c3.371094-.003906 6.425782-1.988281 7.792969-5.070312 1.371094-3.078125.796875-6.679688-1.460937-9.179688-22.65625-25.15625-54.921876-39.519531-88.773438-39.519531s-66.117188 14.363281-88.773438 39.519531c-2.117187 2.25-2.855468 5.472657-1.921874 8.421875.933593 2.949219 3.386718 5.160156 6.414062 5.785156 3.03125.621094 6.160156-.441406 8.179688-2.78125 19.421874-21.570312 47.078124-33.882812 76.101562-33.882812s56.679688 12.3125 76.101562 33.882812c1.617188 1.796876 3.921876 2.824219 6.339844 2.824219zm0 0"/><path d="m217.925781 85.238281c-3.160156 3.5-2.882812 8.898438.617188 12.054688s8.894531 2.878906 12.054687-.617188c6.472656-7.214843 15.710938-11.335937 25.402344-11.335937s18.929688 4.121094 25.402344 11.335937c3.160156 3.496094 8.554687 3.773438 12.054687.617188s3.777344-8.554688.617188-12.054688c-9.707031-10.800781-23.550781-16.96875-38.074219-16.96875s-28.367188 6.167969-38.074219 16.96875zm0 0"/></svg>