<?xml version="1.0" encoding="iso-8859-1"?>
<!-- Generator: Adobe Illustrator 19.0.0, SVG Export Plug-In . SVG Version: 6.00 Build 0)  -->
<svg version="1.1" id="Layer_1" xmlns="http://www.w3.org/2000/svg" xmlns:xlink="http://www.w3.org/1999/xlink" x="0px" y="0px"
	 viewBox="0 0 512 512" style="enable-background:new 0 0 512 512;" xml:space="preserve">
<g>
	<g>
		<path d="M309.771,195.89c-2.741-2.454-5.677-4.74-8.722-6.794c-4.766-3.215-11.234-1.956-14.446,2.808
			c-3.215,4.765-1.958,11.233,2.808,14.446c2.262,1.527,4.444,3.225,6.48,5.048c1.987,1.777,4.466,2.653,6.937,2.653
			c2.857,0,5.702-1.17,7.758-3.466C314.419,206.303,314.055,199.723,309.771,195.89z"/>
	</g>
</g>
<g>
	<g>
		<path d="M501.594,245.593h-15.33c-2.545-57.662-26.198-111.51-67.273-152.584c-41.074-41.075-94.922-64.729-152.584-67.274V10.406
			C266.406,4.659,261.747,0,256,0c-5.747,0-10.406,4.659-10.406,10.406v15.329c-57.662,2.545-111.51,26.199-152.584,67.274
			c-41.075,41.074-64.729,94.922-67.273,152.584h-15.33C4.659,245.593,0,250.252,0,256c0,5.748,4.659,10.407,10.406,10.407h15.33
			c2.545,57.662,26.198,111.51,67.273,152.584c41.074,41.074,94.922,64.728,152.584,67.273v15.33
			c0,5.747,4.659,10.406,10.406,10.406c5.748,0,10.407-4.659,10.407-10.406v-15.33c57.662-2.545,111.51-26.198,152.584-67.273
			s64.728-94.922,67.273-152.584h15.33c5.747,0,10.406-4.659,10.406-10.406C512,250.252,507.341,245.593,501.594,245.593z
			 M245.593,465.432c-107.361-5.273-193.752-91.665-199.025-199.025h27.101c5.219,92.436,79.489,166.706,171.925,171.925V465.432z
			 M245.593,417.477c-80.954-5.164-145.906-70.116-151.07-151.07h81.52c4.682,36.159,33.39,64.868,69.55,69.55V417.477z
			 M245.593,314.913c-24.665-4.346-44.16-23.84-48.507-48.507h48.507V314.913z M245.593,245.593h-48.507
			c4.346-24.665,23.84-44.16,48.507-48.507V245.593z M245.593,176.044c-36.159,4.682-64.868,33.39-69.55,69.55h-81.52
			c5.164-80.954,70.116-145.906,151.07-151.07V176.044z M245.593,73.669c-92.436,5.219-166.706,79.489-171.925,171.925H46.568
			c5.273-107.361,91.665-193.752,199.025-199.025V73.669z M266.406,94.523c80.954,5.164,145.906,70.116,151.07,151.07h-81.512
			c-0.913-7.098-2.743-14.019-5.519-20.662c-2.216-5.304-8.312-7.805-13.614-5.59c-5.303,2.216-7.806,8.311-5.59,13.614
			c1.706,4.082,2.923,8.311,3.681,12.639h-48.516V94.523z M266.406,266.406h48.507c-4.346,24.666-23.84,44.16-48.507,48.507V266.406
			z M266.406,335.956c36.159-4.682,64.868-33.39,69.55-69.55h81.52c-5.164,80.954-70.116,145.906-151.07,151.07V335.956z
			 M266.406,465.432v-27.101c92.436-5.219,166.706-79.489,171.925-171.925h27.101C460.159,373.767,373.767,460.159,266.406,465.432z
			 M438.331,245.593c-5.219-92.436-79.489-166.706-171.925-171.925V46.568c107.361,5.273,193.752,91.665,199.025,199.025H438.331z"
			/>
	</g>
</g>
<g>
</g>
<g>
</g>
<g>
</g>
<g>
</g>
<g>
</g>
<g>
</g>
<g>
</g>
<g>
</g>
<g>
</g>
<g>
</g>
<g>
</g>
<g>
</g>
<g>
</g>
<g>
</g>
<g>
</g>
</svg>
