<?xml version="1.0" encoding="iso-8859-1"?>
<!-- Generator: Adobe Illustrator 19.0.0, SVG Export Plug-In . SVG Version: 6.00 Build 0)  -->
<svg version="1.1" id="Capa_1" xmlns="http://www.w3.org/2000/svg" xmlns:xlink="http://www.w3.org/1999/xlink" x="0px" y="0px"
	 viewBox="0 0 512 512" style="enable-background:new 0 0 512 512;" xml:space="preserve">
<g>
	<g>
		<path d="M405,311.5c4.142,0,7.5-3.357,7.5-7.5v-8c0-16.952-6.604-32.898-18.599-44.905c-5.262-5.257-11.283-9.478-17.813-12.562
			C387.252,230.234,394.5,216.948,394.5,202c0-25.089-20.411-45.5-45.5-45.5c-15.886,0-29.888,8.189-38.029,20.562
			c0.008-0.383,0.029-0.763,0.029-1.149c0-30.327-24.673-55-55-55c-30.327,0-55,24.673-55,55c0,0.385,0.021,0.765,0.029,1.149
			C192.888,164.689,178.886,156.5,163,156.5c-25.089,0-45.5,20.411-45.5,45.5c0,14.959,7.258,28.252,18.436,36.55
			c-2.13,1.004-4.211,2.123-6.227,3.366c-3.525,2.175-4.621,6.795-2.447,10.32c2.174,3.525,6.794,4.622,10.321,2.447
			c7.62-4.699,16.409-7.184,25.417-7.184c7.657,0,15.059,1.766,21.77,5.15c-10.238,14.325-16.27,31.853-16.27,50.763V344.5h-54V296
			c0-7.381,1.612-14.464,4.792-21.053c1.8-3.73,0.236-8.214-3.494-10.014c-3.731-1.803-8.214-0.236-10.015,3.494
			C101.614,277.066,99.5,286.343,99.5,296v56c0,4.143,3.358,7.5,7.5,7.5h61.5v23.913c0,4.143,3.358,7.5,7.5,7.5h16
			c4.142,0,7.5-3.357,7.5-7.5s-3.358-7.5-7.5-7.5h-8.5v-72.5c0-39.977,32.523-72.5,72.5-72.5s72.5,32.523,72.5,72.5v72.5H224.167
			c-4.142,0-7.5,3.357-7.5,7.5s3.358,7.5,7.5,7.5H336c4.142,0,7.5-3.357,7.5-7.5V359.5H405c4.142,0,7.5-3.357,7.5-7.5v-16
			c0-4.143-3.358-7.5-7.5-7.5c-4.142,0-7.5,3.357-7.5,7.5v8.5h-54v-41.087c0-18.911-6.032-36.438-16.27-50.763
			c6.711-3.384,14.113-5.15,21.77-5.15c12.949,0,25.13,5.045,34.294,14.201c9.161,9.17,14.206,21.351,14.206,34.299v8
			C397.5,308.143,400.858,311.5,405,311.5z M163,232.5c-16.818,0-30.5-13.683-30.5-30.5s13.682-30.5,30.5-30.5
			s30.5,13.683,30.5,30.5S179.818,232.5,163,232.5z M194.738,241.002c-1.527-0.885-3.084-1.705-4.671-2.455
			c10.794-8.015,17.92-20.692,18.394-35.026c4.184,7.176,9.932,13.332,16.792,17.974
			C213.735,225.833,203.366,232.532,194.738,241.002z M256,215.913c-22.056,0-40-17.944-40-40c0-22.056,17.944-40,40-40
			c22.056,0,40,17.944,40,40C296,197.969,278.056,215.913,256,215.913z M317.262,241.002c-8.628-8.47-18.997-15.169-30.515-19.507
			c6.86-4.642,12.608-10.798,16.792-17.974c0.474,14.334,7.599,27.011,18.394,35.026
			C320.347,239.297,318.79,240.117,317.262,241.002z M349,232.5c-16.818,0-30.5-13.683-30.5-30.5s13.682-30.5,30.5-30.5
			s30.5,13.683,30.5,30.5S365.818,232.5,349,232.5z"/>
	</g>
</g>
<g>
	<g>
		<path d="M78.5,40.5h-41C16.822,40.5,0,57.322,0,78v41c0,12.406,10.093,22.5,22.5,22.5S45,131.406,45,119V85.5h33.5
			C90.907,85.5,101,75.406,101,63S90.907,40.5,78.5,40.5z M78.5,70.5h-41c-4.142,0-7.5,3.357-7.5,7.5v41c0,4.136-3.364,7.5-7.5,7.5
			S15,123.136,15,119V78c0-12.406,10.093-22.5,22.5-22.5h41c4.136,0,7.5,3.364,7.5,7.5S82.636,70.5,78.5,70.5z"/>
	</g>
</g>
<g>
	<g>
		<path d="M474.5,40.5h-41C421.093,40.5,411,50.594,411,63s10.093,22.5,22.5,22.5H467V119c0,12.406,10.093,22.5,22.5,22.5
			c12.407,0,22.5-10.094,22.5-22.5V78C512,57.322,495.178,40.5,474.5,40.5z M497,119c0,4.136-3.364,7.5-7.5,7.5s-7.5-3.364-7.5-7.5
			V78c0-4.143-3.358-7.5-7.5-7.5h-41c-4.136,0-7.5-3.364-7.5-7.5s3.364-7.5,7.5-7.5h41c12.407,0,22.5,10.094,22.5,22.5V119z"/>
	</g>
</g>
<g>
	<g>
		<path d="M489.5,370.5c-12.407,0-22.5,10.094-22.5,22.5v33.5h-33.5c-12.407,0-22.5,10.094-22.5,22.5s10.093,22.5,22.5,22.5h41
			c20.678,0,37.5-16.822,37.5-37.5v-41C512,380.594,501.907,370.5,489.5,370.5z M497,434c0,12.406-10.093,22.5-22.5,22.5h-41
			c-4.136,0-7.5-3.364-7.5-7.5s3.364-7.5,7.5-7.5h41c4.142,0,7.5-3.357,7.5-7.5v-41c0-4.136,3.364-7.5,7.5-7.5s7.5,3.364,7.5,7.5
			V434z"/>
	</g>
</g>
<g>
	<g>
		<path d="M78.5,426.5H45V393c0-12.406-10.093-22.5-22.5-22.5S0,380.594,0,393v41c0,20.678,16.822,37.5,37.5,37.5h41
			c12.407,0,22.5-10.094,22.5-22.5S90.907,426.5,78.5,426.5z M78.5,456.5h-41C25.093,456.5,15,446.406,15,434v-41
			c0-4.136,3.364-7.5,7.5-7.5s7.5,3.364,7.5,7.5v41c0,4.143,3.358,7.5,7.5,7.5h41c4.136,0,7.5,3.364,7.5,7.5
			S82.636,456.5,78.5,456.5z"/>
	</g>
</g>
<g>
	<g>
		<path d="M256,0c-12.407,0-22.5,10.094-22.5,22.5v40c0,12.406,10.093,22.5,22.5,22.5c12.407,0,22.5-10.094,22.5-22.5v-40
			C278.5,10.094,268.407,0,256,0z M263.5,62.5c0,4.136-3.364,7.5-7.5,7.5s-7.5-3.364-7.5-7.5v-40c0-4.136,3.364-7.5,7.5-7.5
			s7.5,3.364,7.5,7.5V62.5z"/>
	</g>
</g>
<g>
	<g>
		<path d="M256,427c-12.407,0-22.5,10.094-22.5,22.5v40c0,12.406,10.093,22.5,22.5,22.5s22.5-10.094,22.5-22.5v-40
			C278.5,437.094,268.407,427,256,427z M263.5,489.5c0,4.136-3.364,7.5-7.5,7.5s-7.5-3.364-7.5-7.5v-40c0-4.136,3.364-7.5,7.5-7.5
			s7.5,3.364,7.5,7.5V489.5z"/>
	</g>
</g>
<g>
	<g>
		<path d="M489.5,233.5h-40c-12.407,0-22.5,10.094-22.5,22.5s10.093,22.5,22.5,22.5h40c12.407,0,22.5-10.094,22.5-22.5
			S501.907,233.5,489.5,233.5z M489.5,263.5h-40c-4.136,0-7.5-3.364-7.5-7.5s3.364-7.5,7.5-7.5h40c4.136,0,7.5,3.364,7.5,7.5
			S493.636,263.5,489.5,263.5z"/>
	</g>
</g>
<g>
	<g>
		<path d="M62.5,233.5h-40C10.093,233.5,0,243.594,0,256s10.093,22.5,22.5,22.5h40c12.407,0,22.5-10.094,22.5-22.5
			S74.907,233.5,62.5,233.5z M62.5,263.5h-40c-4.136,0-7.5-3.364-7.5-7.5s3.364-7.5,7.5-7.5h40c4.136,0,7.5,3.364,7.5,7.5
			S66.636,263.5,62.5,263.5z"/>
	</g>
</g>
<g>
	<g>
		<path d="M298.027,279c-3.402-2.361-8.075-1.517-10.438,1.884l-32.384,46.651l-29.168-28.987c-2.938-2.92-7.687-2.905-10.606,0.032
			c-2.92,2.938-2.905,7.687,0.033,10.606l35.514,35.294c1.41,1.403,3.314,2.18,5.285,2.18c0.226,0,0.454-0.01,0.681-0.031
			c2.209-0.201,4.216-1.37,5.481-3.191l37.486-54C302.273,286.035,301.43,281.362,298.027,279z"/>
	</g>
</g>
<g>
</g>
<g>
</g>
<g>
</g>
<g>
</g>
<g>
</g>
<g>
</g>
<g>
</g>
<g>
</g>
<g>
</g>
<g>
</g>
<g>
</g>
<g>
</g>
<g>
</g>
<g>
</g>
<g>
</g>
</svg>
