<svg height="512pt" viewBox="-11 0 512 512" width="512pt" xmlns="http://www.w3.org/2000/svg"><path d="m245 22c-135.308594 0-245 109.691406-245 245 0 127.386719 97.226562 232.054688 221.515625 243.875h46.96875c124.289063-11.820312 221.515625-116.488281 221.515625-243.875 0-135.308594-109.691406-245-245-245zm0 0" fill="#f9ce00"/><path d="m221.515625 510.875c7.730469.734375 15.5625 1.125 23.484375 1.125s15.753906-.390625 23.484375-1.125v-73.742188h-46.96875zm0 0" fill="#1d3ba8"/><path d="m244.953125 476.800781h.09375c10.898437 0 20.144531 7.054688 23.4375 16.84375v-56.511719h-46.96875v56.511719c3.292969-9.789062 12.539063-16.84375 23.4375-16.84375zm0 0" fill="#122894"/><path d="m126.03125 230.113281v193.238281h237.9375v-193.238281c-31.828125 19.945313-73.4375 32.023438-118.96875 32.023438s-87.140625-12.078125-118.96875-32.023438zm0 0" fill="#e8f3fc"/><path d="m174.496094 395.167969v-143.273438c-17.78125-5.40625-34.117188-12.792969-48.464844-21.78125v193.238281h67.277344c-11.023438-4.625-18.8125-15.539062-18.8125-28.183593zm0 0" fill="#b7dbf6"/><path d="m307.738281 382.410156h-125.476562c-4.230469 0-7.65625-3.429687-7.65625-7.65625 0-4.230468 3.425781-7.660156 7.65625-7.660156h125.476562c4.230469 0 7.65625 3.429688 7.65625 7.660156 0 4.226563-3.425781 7.65625-7.65625 7.65625zm0 0" fill="#b7dbf6"/><path d="m307.738281 351.78125h-125.476562c-4.230469 0-7.65625-3.429688-7.65625-7.660156 0-4.230469 3.425781-7.65625 7.65625-7.65625h125.476562c4.230469 0 7.65625 3.425781 7.65625 7.65625 0 4.230468-3.425781 7.660156-7.65625 7.660156zm0 0" fill="#b7dbf6"/><path d="m270.429688 314h-50.859376c-4.226562 0-7.65625-3.425781-7.65625-7.65625s3.425782-7.660156 7.65625-7.660156h50.859376c4.226562 0 7.65625 3.429687 7.65625 7.660156s-3.429688 7.65625-7.65625 7.65625zm0 0" fill="#06daf7"/><path d="m126.03125 232.113281c31.828125 19.945313 73.433594 32.023438 118.96875 32.023438 45.53125 0 87.140625-12.078125 118.96875-32.023438v-176.550781h-237.9375zm0 0" fill="#ef4a8a"/><path d="m174.496094 86.105469c0-16.800781 13.742187-30.542969 30.542968-30.542969h-79.007812v176.550781c14.347656 8.988281 30.683594 16.371094 48.464844 21.78125zm0 0" fill="#e5387f"/><path d="m363.96875 15.316406h-237.9375c-4.226562 0-7.65625-3.429687-7.65625-7.660156s3.429688-7.65625 7.65625-7.65625h237.9375c4.226562 0 7.65625 3.429688 7.65625 7.65625 0 4.230469-3.429688 7.660156-7.65625 7.660156zm0 0" fill="#406bcc"/><path d="m189.488281 7.65625c0-4.226562 3.425781-7.65625 7.65625-7.65625h-71.113281c-4.226562 0-7.65625 3.429688-7.65625 7.65625 0 4.230469 3.429688 7.660156 7.65625 7.660156h71.113281c-4.226562 0-7.65625-3.429687-7.65625-7.660156zm0 0" fill="#284cb2"/><path d="m357.109375 37.691406c-4.230469 0-7.660156-3.425781-7.660156-7.65625v-22.378906c0-4.226562 3.429687-7.65625 7.660156-7.65625 4.226563 0 7.65625 3.429688 7.65625 7.65625v22.378906c0 4.230469-3.429687 7.65625-7.65625 7.65625zm0 0" fill="#1d3ba8"/><path d="m133.84375 37.691406c-4.230469 0-7.660156-3.425781-7.660156-7.65625v-22.378906c0-4.226562 3.429687-7.65625 7.660156-7.65625 4.226562 0 7.65625 3.429688 7.65625 7.65625v22.378906c0 4.230469-3.429688 7.65625-7.65625 7.65625zm0 0" fill="#122894"/><path d="m178.496094 37.691406c-4.230469 0-7.65625-3.425781-7.65625-7.65625v-22.378906c0-4.226562 3.425781-7.65625 7.65625-7.65625 4.230468 0 7.65625 3.429688 7.65625 7.65625v22.378906c0 4.230469-3.425782 7.65625-7.65625 7.65625zm0 0" fill="#122894"/><g fill="#1d3ba8"><path d="m312.453125 37.691406c-4.226563 0-7.65625-3.425781-7.65625-7.65625v-22.378906c0-4.226562 3.429687-7.65625 7.65625-7.65625 4.230469 0 7.660156 3.429688 7.660156 7.65625v22.378906c0 4.230469-3.429687 7.65625-7.660156 7.65625zm0 0"/><path d="m267.800781 37.691406c-4.226562 0-7.65625-3.425781-7.65625-7.65625v-22.378906c0-4.226562 3.425781-7.65625 7.65625-7.65625s7.660157 3.429688 7.660157 7.65625v22.378906c0 4.230469-3.429688 7.65625-7.660157 7.65625zm0 0"/><path d="m223.148438 37.691406c-4.226563 0-7.65625-3.425781-7.65625-7.65625v-22.378906c0-4.226562 3.425781-7.65625 7.65625-7.65625 4.230468 0 7.660156 3.429688 7.660156 7.65625v22.378906c-.003906 4.230469-3.429688 7.65625-7.660156 7.65625zm0 0"/></g><path d="m363.96875 450.917969h-237.9375c-7.613281 0-13.785156-6.171875-13.785156-13.785157 0-7.613281 6.171875-13.78125 13.785156-13.78125h237.9375c7.609375 0 13.78125 6.167969 13.78125 13.78125 0 7.613282-6.171875 13.785157-13.78125 13.785157zm0 0" fill="#406bcc"/><path d="m363.96875 57.605469h-237.9375c-7.613281 0-13.785156-6.171875-13.785156-13.785157 0-7.613281 6.171875-13.785156 13.785156-13.785156h237.9375c7.609375 0 13.78125 6.171875 13.78125 13.785156 0 7.613282-6.171875 13.785157-13.78125 13.785157zm0 0" fill="#406bcc"/><path d="m182.75 437.132812c0-7.613281 6.171875-13.78125 13.78125-13.78125h-70.5c-7.609375 0-13.78125 6.167969-13.78125 13.78125 0 7.613282 6.171875 13.785157 13.78125 13.785157h70.5c-7.609375 0-13.78125-6.171875-13.78125-13.785157zm0 0" fill="#284cb2"/><path d="m182.75 43.820312c0-7.613281 6.171875-13.785156 13.78125-13.785156h-70.5c-7.609375 0-13.78125 6.171875-13.78125 13.785156 0 7.613282 6.171875 13.785157 13.78125 13.785157h70.5c-7.609375 0-13.78125-6.171875-13.78125-13.785157zm0 0" fill="#284cb2"/><path d="m287.238281 132.640625c-13.472656-23.332031-43.304687-31.324219-66.636719-17.855469-23.328124 13.472656-31.324218 43.304688-17.851562 66.636719 13.46875 23.328125 43.304688 31.324219 66.632812 17.851563 23.332032-13.46875 31.324219-43.304688 17.855469-66.632813zm0 0" fill="#fe99b8"/><path d="m255.738281 193.769531c-3.160156-4.183593-3.644531-9.371093-1.941406-13.757812.574219-1.488281-.175781-3.175781-1.691406-3.691407-6.816407-2.308593-12.851563-7.003906-16.734375-13.726562-3.84375-6.660156-4.90625-14.160156-3.558594-21.164062.300781-1.558594-.734375-3.097657-2.296875-3.351563-4.074219-.652344-7.832031-3.066406-10.054687-6.917969-3.199219-5.546875-2.230469-12.351562 1.929687-16.796875-.257813.144531-.523437.277344-.78125.425781-23.332031 13.46875-31.324219 43.304688-17.851563 66.636719 13.46875 23.328125 43.300782 31.324219 66.632813 17.851563.105469-.058594.203125-.125.304687-.183594-5.191406.988281-10.6875-.996094-13.957031-5.324219zm0 0" fill="#fc7ba7"/><path d="m264.496094 145.769531c-6.21875-10.769531-19.992188-14.460937-30.761719-8.242187-10.773437 6.21875-14.460937 19.992187-8.242187 30.761718 6.21875 10.773438 19.992187 14.460938 30.761718 8.242188 10.769532-6.21875 14.460938-19.992188 8.242188-30.761719zm0 0" fill="#f95d95"/></svg>