<svg height="512pt" viewBox="0 0 512.001 512" width="512pt" xmlns="http://www.w3.org/2000/svg"><path d="m504.5 34.363281v443.230469c0 14.839844-12.023438 26.863281-26.863281 26.863281h-443.269531c-14.84375 0-26.863282-12.023437-26.863282-26.863281v-443.230469c0-14.839843 12.019532-26.863281 26.863282-26.863281h443.269531c14.839843 0 26.863281 12.023438 26.863281 26.863281zm0 0" fill="#e5f4ff"/><path d="m477.636719 7.5h-31.273438c7.808594 33.234375 11.949219 67.886719 11.949219 103.503906 0 169.003906-93.023438 316.289063-230.660156 393.453125h249.984375c14.839843 0 26.863281-12.023437 26.863281-26.859375v-443.234375c0-14.839843-12.023438-26.863281-26.863281-26.863281zm0 0" fill="#c4daec"/><path d="m504.5 34.363281v51.164063h-496.996094v-51.164063c0-14.839843 12.019532-26.863281 26.863282-26.863281h443.269531c14.839843 0 26.863281 12.023438 26.863281 26.863281zm0 0" fill="#c4daec"/><path d="m477.636719 7.5h-31.269531c5.933593 25.257812 9.742187 51.332031 11.230468 78.027344h46.902344v-51.164063c0-14.839843-12.019531-26.863281-26.863281-26.863281zm0 0" fill="#a3c0d9"/><path d="m34.367188 7.5h93.984374c-11.1875 0-20.265624 9.167969-20.265624 20.464844 0 5.644531-2.265626 10.769531-5.925782 14.46875-3.667968 3.710937-8.734375 5.996094-14.328125 5.996094h-80.328125v-14.066407c0-14.839843 12.019532-26.863281 26.863282-26.863281zm0 0" fill="#83a7c5"/><path d="m504.5 34.363281v14.066407h-260.582031c-11.191407 0-20.265625-9.164063-20.265625-20.464844 0-5.644532-2.265625-10.769532-5.9375-14.46875-3.667969-3.710938-8.722656-5.996094-14.316406-5.996094h274.238281c14.839843 0 26.863281 12.023438 26.863281 26.863281zm0 0" fill="#83a7c5"/><path d="m504.5 48.429688v-14.066407c0-14.839843-12.023438-26.863281-26.863281-26.863281h-31.269531c3.152343 13.421875 5.6875 27.078125 7.609374 40.929688zm0 0" fill="#628db2"/><path d="m468.769531 472.953125h-164.617187c-2.082032 0-3.769532-1.691406-3.769532-3.773437v-155.867188c0-2.085938 1.6875-3.773438 3.769532-3.773438h164.613281c2.085937 0 3.773437 1.6875 3.773437 3.773438v155.867188c0 2.082031-1.6875 3.773437-3.769531 3.773437zm0 0" fill="#6193ff"/><path d="m468.769531 309.539062h-56.429687c-27.230469 55.414063-65.507813 104.417969-111.957032 144.148438v15.492188c0 2.082031 1.6875 3.769531 3.773438 3.769531h164.613281c2.082031 0 3.769531-1.6875 3.769531-3.769531v-155.867188c0-2.085938-1.6875-3.773438-3.769531-3.773438zm0 0" fill="#407bff"/><path d="m466.628906 272.726562h-418.1875c-3.117187 0-5.644531-2.527343-5.644531-5.644531v-139.558593c0-3.117188 2.527344-5.644532 5.644531-5.644532h418.1875c3.117188 0 5.644532 2.527344 5.644532 5.644532v139.558593c0 3.117188-2.527344 5.644531-5.644532 5.644531zm0 0" fill="#fff"/><path d="m466.628906 121.878906h-8.460937c-1.257813 53.058594-11.679688 103.847656-29.753907 150.847656h38.214844c3.117188 0 5.644532-2.527343 5.644532-5.644531v-139.558593c0-3.117188-2.527344-5.644532-5.644532-5.644532zm0 0" fill="#e5f4ff"/><path d="m76.996094 322.664062c0-11.394531-9.238282-20.636718-20.632813-20.636718s-20.632812 9.242187-20.632812 20.636718c0 11.398438 9.238281 20.636719 20.632812 20.636719s20.632813-9.238281 20.632813-20.636719zm0 0" fill="#ffbe7c"/><path d="m477.640625 0h-443.28125c-18.945313 0-34.359375 15.414062-34.359375 34.363281v443.230469c0 18.949219 15.414062 34.363281 34.359375 34.363281h443.28125c18.945313 0 34.359375-15.414062 34.359375-34.363281v-443.230469c0-18.949219-15.414062-34.363281-34.359375-34.363281zm19.359375 34.363281v6.570313h-253.085938c-7.039062 0-12.761718-5.816406-12.761718-12.96875 0-4.675782-1.152344-9.085938-3.175782-12.964844h249.664063c10.675781 0 19.359375 8.683594 19.359375 19.363281zm-293.605469-19.363281c7.035157 0 12.761719 5.816406 12.761719 12.964844 0 15.421875 12.449219 27.96875 27.757812 27.96875h253.089844v22.097656h-482.003906v-22.097656h72.828125c15.308594 0 27.757813-12.546875 27.757813-27.96875 0-7.148438 5.726562-12.964844 12.761718-12.964844zm-169.035156 0h69.40625c-2.023437 3.878906-3.175781 8.289062-3.175781 12.964844 0 7.152344-5.726563 12.96875-12.761719 12.96875h-72.828125v-6.570313c0-10.679687 8.683594-19.363281 19.359375-19.363281zm443.28125 481.957031h-443.28125c-10.675781 0-19.359375-8.683593-19.359375-19.363281v-384.566406h482v384.566406c0 10.679688-8.683594 19.363281-19.359375 19.363281zm0 0"/><path d="m468.769531 302.039062h-164.613281c-6.21875 0-11.273438 5.058594-11.273438 11.273438v155.867188c0 6.214843 5.054688 11.269531 11.273438 11.269531h22.835938c4.140624 0 7.5-3.355469 7.5-7.5 0-4.140625-3.359376-7.496094-7.5-7.496094h-19.109376v-148.414063h157.160157v148.414063h-103.3125c-4.140625 0-7.5 3.355469-7.5 7.496094 0 4.144531 3.359375 7.5 7.5 7.5h107.039062c6.214844 0 11.269531-5.054688 11.269531-11.269531v-155.867188c0-6.214844-5.054687-11.273438-11.269531-11.273438zm0 0"/><path d="m48.441406 280.222656h328.507813c4.140625 0 7.496093-3.355468 7.496093-7.496094 0-4.144531-3.355468-7.5-7.496093-7.5h-326.652344v-135.847656h414.476563v135.847656h-51.566407c-4.140625 0-7.5 3.355469-7.5 7.5 0 4.140626 3.359375 7.496094 7.5 7.496094h53.417969c7.25 0 13.144531-5.894531 13.144531-13.140625v-139.558593c0-7.25-5.894531-13.144532-13.144531-13.144532h-418.183594c-7.246094 0-13.144531 5.894532-13.144531 13.144532v139.558593c0 7.246094 5.898437 13.140625 13.144531 13.140625zm0 0"/><path d="m373.78125 448.972656c.515625 1.863282 2.152344 2.796875 4.917969 2.796875 2.25 0 4.417969-.613281 6.507812-1.835937 2.089844-1.21875 3.132813-2.664063 3.132813-4.339844 0-.191406-.0625-.542969-.191406-1.058594l-18.03125-58.828125c-.515626-1.605469-1.6875-2.84375-3.519532-3.710937-1.832031-.867188-3.9375-1.300782-6.316406-1.300782s-4.480469.433594-6.3125 1.300782c-1.832031.867187-3.007812 2.105468-3.519531 3.710937l-17.933594 58.828125c-.128906.515625-.195313.867188-.195313 1.058594 0 1.675781 1.046876 3.121094 3.136719 4.339844 2.085938 1.222656 4.253907 1.835937 6.507813 1.835937 2.761718 0 4.398437-.933593 4.914062-2.796875l3.28125-12.058594h20.34375zm-20.535156-23.628906 7.039062-25.84375 7.039063 25.84375zm0 0"/><path d="m400.488281 381.273438c-1.925781 0-3.503906.449218-4.722656 1.347656-1.222656.902344-1.832031 1.964844-1.832031 3.183594v61.429687c0 1.222656.609375 2.285156 1.832031 3.183594 1.21875.902343 2.796875 1.351562 4.722656 1.351562h17.066407c7.199218 0 12.953124-1.835937 17.257812-5.5 4.308594-3.664062 6.460938-9.414062 6.460938-17.261719v-24.976562c0-7.84375-2.152344-13.597656-6.460938-17.261719-4.304688-3.664062-10.058594-5.496093-17.257812-5.496093zm25.746094 22.757812v24.976562c0 6.429688-2.894531 9.644532-8.679687 9.644532h-8.578126v-44.265625h8.578126c5.785156 0 8.679687 3.214843 8.679687 9.644531zm0 0"/><path d="m421.046875 358.519531c1.464844 1.464844 3.382813 2.195313 5.300781 2.195313 1.921875 0 3.839844-.730469 5.304688-2.195313l3.476562-3.476562 3.476563 3.476562c1.460937 1.464844 3.382812 2.195313 5.300781 2.195313 1.921875 0 3.839844-.730469 5.304688-2.195313 2.929687-2.929687 2.929687-7.675781 0-10.605469l-3.476563-3.476562 3.476563-3.480469c2.929687-2.929687 2.929687-7.675781 0-10.605469-2.929688-2.929687-7.679688-2.929687-10.605469 0l-3.476563 3.476563-3.476562-3.476563c-2.925782-2.925781-7.675782-2.929687-10.605469 0-2.925781 2.929688-2.929687 7.675782 0 10.605469l3.480469 3.480469-3.480469 3.476562c-2.929687 2.929688-2.929687 7.675782 0 10.605469zm0 0"/><path d="m385.84375 183.746094c0-4.140625-3.359375-7.5-7.5-7.5h-241.617188c-4.140624 0-7.5 3.359375-7.5 7.5s3.359376 7.5 7.5 7.5h241.617188c4.140625 0 7.5-3.355469 7.5-7.5zm0 0"/><path d="m192.882812 209.347656c-4.140624 0-7.496093 3.359375-7.496093 7.5s3.355469 7.5 7.496093 7.5h129.300782c4.140625 0 7.5-3.359375 7.5-7.5s-3.359375-7.5-7.5-7.5zm0 0"/><path d="m35.398438 322.664062c0 13.539063 11.011718 24.550782 24.546874 24.550782 13.535157 0 24.546876-11.011719 24.546876-24.550782 0-13.539062-11.011719-24.550781-24.546876-24.550781-13.535156 0-24.546874 11.015625-24.546874 24.550781zm34.097656 0c0 5.265626-4.285156 9.550782-9.550782 9.550782-5.261718 0-9.546874-4.285156-9.546874-9.550782 0-5.265624 4.285156-9.550781 9.546874-9.550781 5.265626 0 9.550782 4.285157 9.550782 9.550781zm0 0"/><path d="m186.28125 308.121094c0-4.140625-3.359375-7.5-7.5-7.5h-73.207031c-4.140625 0-7.5 3.359375-7.5 7.5s3.359375 7.5 7.5 7.5h73.207031c4.140625 0 7.5-3.359375 7.5-7.5zm0 0"/><path d="m105.574219 327.703125c-4.140625 0-7.5 3.359375-7.5 7.5s3.359375 7.5 7.5 7.5h23.066406c4.140625 0 7.5-3.359375 7.5-7.5s-3.359375-7.5-7.5-7.5zm0 0"/><path d="m266.261719 373.839844h-223.921875c-4.140625 0-7.5 3.359375-7.5 7.5s3.359375 7.5 7.5 7.5h223.921875c4.140625 0 7.5-3.359375 7.5-7.5s-3.359375-7.5-7.5-7.5zm0 0"/><path d="m266.261719 412.707031h-223.921875c-4.140625 0-7.5 3.359375-7.5 7.5s3.359375 7.5 7.5 7.5h223.921875c4.140625 0 7.5-3.359375 7.5-7.5s-3.359375-7.5-7.5-7.5zm0 0"/><path d="m202.082031 451.574219h-159.742187c-4.140625 0-7.5 3.359375-7.5 7.5s3.359375 7.5 7.5 7.5h159.742187c4.140625 0 7.496094-3.359375 7.496094-7.5s-3.355469-7.5-7.496094-7.5zm0 0"/></svg>