<svg height="512pt" viewBox="-11 0 512 512" width="512pt"
	xmlns="http://www.w3.org/2000/svg">
	<path d="m245 22c-135.308594 0-245 109.691406-245 245 0 127.550781 97.476562 232.320312 222 243.917969h46c124.523438-11.597657 222-116.367188 222-243.917969 0-135.308594-109.691406-245-245-245zm0 0" fill="#06daf7"/>
	<path d="m245 29.664062c-5.523438 0-10-4.476562-10-10v-9.664062c0-5.523438 4.476562-10 10-10s10 4.476562 10 10v9.664062c0 5.523438-4.476562 10-10 10zm0 0" fill="#284cb2"/>
	<path d="m227.6875 112.082031h34.625v304.035157h-34.625zm0 0" fill="#1d3ba8"/>
	<path d="m227.6875 112.082031v121.996094c0-9.5625 7.75-17.3125 17.3125-17.3125s17.3125 7.75 17.3125 17.3125v-121.996094zm0 0" fill="#122894"/>
	<path d="m227.6875 416.117188-5.6875 38.316406h46l-5.6875-38.316406zm0 0" fill="#122894"/>
	<path d="m225.8125 87.082031h38.375c12.019531-6.730469 20.144531-19.578125 20.144531-34.332031 0-21.722656-17.609375-39.332031-39.332031-39.332031s-39.332031 17.609375-39.332031 39.332031c0 14.753906 8.125 27.601562 20.144531 34.332031zm0 0" fill="#fce275"/>
	<path d="m259.859375 68.75c-15.28125 0-27.667969-12.386719-27.667969-27.667969 0-12.945312 8.890625-23.808593 20.898438-26.828125-2.609375-.546875-5.316406-.839844-8.089844-.839844-21.722656 0-39.335938 17.609376-39.335938 39.332032 0 14.757812 8.128907 27.605468 20.148438 34.335937h38.375c11.65625-6.527343 19.628906-18.816406 20.097656-33.011719-4.648437 8.734376-13.84375 14.679688-24.425781 14.679688zm0 0" fill="#f9ce00"/>
	<path d="m304.292969 151.414062h-41.980469c-5.523438 0-10-4.476562-10-10 0-5.519531 4.476562-10 10-10h41.980469c5.523437 0 10 4.480469 10 10 0 5.523438-4.476563 10-10 10zm0 0" fill="#1d3ba8"/>
	<path d="m227.6875 151.414062h-41.980469c-5.523437 0-10-4.476562-10-10 0-5.519531 4.476563-10 10-10h41.980469c5.523438 0 10 4.480469 10 10 0 5.523438-4.476562 10-10 10zm0 0" fill="#284cb2"/>
	<path d="m304.292969 426.117188h-41.980469c-5.523438 0-10-4.476563-10-10 0-5.519532 4.476562-10 10-10h41.980469c5.523437 0 10 4.480468 10 10 0 5.523437-4.476563 10-10 10zm0 0" fill="#1d3ba8"/>
	<path d="m227.6875 426.117188h-41.980469c-5.523437 0-10-4.476563-10-10 0-5.519532 4.476563-10 10-10h41.980469c5.523438 0 10 4.480468 10 10 0 5.523437-4.476562 10-10 10zm0 0" fill="#284cb2"/>
	<path d="m307.847656 280.546875v127.898437h148.832032v-127.898437c-22.628907 7.53125-47.839844 11.734375-74.414063 11.734375-26.578125 0-51.785156-4.203125-74.417969-11.734375zm0 0" fill="#e8f3fc"/>
	<g fill="#b7dbf6">
		<path d="m349.753906 377.488281v-87.355469c-14.683594-1.957031-28.734375-5.203124-41.90625-9.585937v127.898437h65.742188c-13.71875-3.617187-23.835938-16.101562-23.835938-30.957031zm0 0"/>
		<path d="m406.253906 368.78125h-47.976562c-4.140625 0-7.5-3.355469-7.5-7.5 0-4.140625 3.359375-7.5 7.5-7.5h47.976562c4.140625 0 7.5 3.359375 7.5 7.5 0 4.144531-3.359375 7.5-7.5 7.5zm0 0"/>
		<path d="m406.253906 338.78125h-47.976562c-4.140625 0-7.5-3.355469-7.5-7.5 0-4.140625 3.359375-7.5 7.5-7.5h47.976562c4.140625 0 7.5 3.359375 7.5 7.5 0 4.144531-3.359375 7.5-7.5 7.5zm0 0"/>
	</g>
	<path d="m307.847656 282.546875c22.632813 7.53125 47.839844 11.734375 74.417969 11.734375s51.785156-4.203125 74.417969-11.734375v-133.285156h-148.835938zm0 0" fill="#f9ce00"/>
	<path d="m349.753906 180.21875c0-14.855469 10.117188-27.34375 23.835938-30.957031h-65.742188v133.285156c13.171875 4.382813 27.222656 7.628906 41.90625 9.585937zm0 0" fill="#f4b500"/>
	<path d="m414.777344 221.992188c0 17.957031-14.554688 32.511718-32.511719 32.511718s-32.511719-14.554687-32.511719-32.511718c0-17.953126 14.554688-32.511719 32.511719-32.511719s32.511719 14.558593 32.511719 32.511719zm0 0" fill="#fcecac"/>
	<path d="m393.359375 232.3125c-11.828125 0-21.417969-9.585938-21.417969-21.414062 0-10.132813 7.042969-18.597657 16.492188-20.828126-2-.382812-4.058594-.589843-6.167969-.589843-17.957031 0-32.511719 14.554687-32.511719 32.511719 0 17.957031 14.554688 32.511718 32.511719 32.511718 17.953125 0 32.511719-14.554687 32.511719-32.511718 0-2.109376-.210938-4.171876-.59375-6.167969-2.226563 9.449219-10.695313 16.488281-20.824219 16.488281zm0 0" fill="#fce275"/>
	<path d="m456.679688 154.914062h-148.832032c-7.457031 0-13.5-6.042968-13.5-13.5 0-7.453124 6.042969-13.5 13.5-13.5h148.832032c7.457031 0 13.5 6.046876 13.5 13.5 0 7.457032-6.042969 13.5-13.5 13.5zm0 0" fill="#406bcc"/>
	<path d="m456.679688 429.617188h-148.832032c-7.457031 0-13.5-6.042969-13.5-13.5 0-7.457032 6.042969-13.5 13.5-13.5h148.832032c7.457031 0 13.5 6.042968 13.5 13.5 0 7.457031-6.042969 13.5-13.5 13.5zm0 0" fill="#406bcc"/>
	<path d="m349.753906 141.414062c0-7.453124 6.042969-13.5 13.5-13.5h-55.40625c-7.457031 0-13.5 6.046876-13.5 13.5 0 7.457032 6.042969 13.5 13.5 13.5h55.40625c-7.457031 0-13.5-6.042968-13.5-13.5zm0 0" fill="#284cb2"/>
	<path d="m349.753906 416.117188c0-7.457032 6.042969-13.5 13.5-13.5h-55.40625c-7.457031 0-13.5 6.042968-13.5 13.5 0 7.457031 6.042969 13.5 13.5 13.5h55.40625c-7.457031 0-13.5-6.042969-13.5-13.5zm0 0" fill="#284cb2"/>
	<path d="m262.3125 153.914062h-34.625c-6.902344 0-12.5-5.59375-12.5-12.5 0-6.902343 5.597656-12.5 12.5-12.5h34.625c6.902344 0 12.5 5.597657 12.5 12.5 0 6.90625-5.597656 12.5-12.5 12.5zm0 0" fill="#5488e2"/>
	<path d="m222 510.917969c7.574219.703125 15.242188 1.082031 23 1.082031s15.425781-.378906 23-1.082031v-35.484375h-46zm0 0" fill="#1d3ba8"/>
	<path d="m245 493.71875c10.410156 0 19.316406 6.410156 23 15.5v-33.785156h-46v33.785156c3.683594-9.089844 12.589844-15.5 23-15.5zm0 0" fill="#122894"/>
	<path d="m283.917969 465.847656c0-7.453125-6.046875-13.5-13.5-13.5h-50.832031c-7.457032 0-13.5 6.046875-13.5 13.5 0 7.457032 6.042968 13.5 13.5 13.5h50.832031c7.453125 0 13.5-6.042968 13.5-13.5zm0 0" fill="#5488e2"/>
	<path d="m241.582031 465.847656c0-7.453125 6.046875-13.5 13.5-13.5h-35.5c-7.453125 0-13.5 6.046875-13.5 13.5 0 7.457032 6.046875 13.5 13.5 13.5h35.5c-7.453125 0-13.5-6.042968-13.5-13.5zm0 0" fill="#406bcc"/>
	<path d="m275.917969 98.582031c0-7.453125-6.046875-13.5-13.5-13.5h-34.832031c-7.457032 0-13.5 6.046875-13.5 13.5 0 7.457031 6.042968 13.5 13.5 13.5h34.832031c7.453125 0 13.5-6.042969 13.5-13.5zm0 0" fill="#f9ce00"/>
	<path d="m243.894531 98.582031c0-7.453125 6.042969-13.5 13.5-13.5h-29.8125c-7.453125 0-13.5 6.046875-13.5 13.5 0 7.457031 6.046875 13.5 13.5 13.5h29.8125c-7.457031 0-13.5-6.042969-13.5-13.5zm0 0" fill="#f4b500"/>
	<path d="m252.304688 128.914062h-24.617188c-6.902344 0-12.5 5.597657-12.5 12.5 0 6.90625 5.597656 12.5 12.5 12.5h24.617188c-4.929688-2.007812-8.410157-6.84375-8.410157-12.5 0-5.652343 3.480469-10.488281 8.410157-12.5zm0 0" fill="#406bcc"/>
	<path d="m262.3125 428.617188h-34.625c-6.902344 0-12.5-5.597657-12.5-12.5 0-6.902344 5.597656-12.5 12.5-12.5h34.625c6.902344 0 12.5 5.597656 12.5 12.5 0 6.902343-5.597656 12.5-12.5 12.5zm0 0" fill="#5488e2"/>
	<path d="m252.304688 403.617188h-24.617188c-6.902344 0-12.5 5.597656-12.5 12.5 0 6.902343 5.597656 12.5 12.5 12.5h24.617188c-4.929688-2.007813-8.410157-6.84375-8.410157-12.5 0-5.652344 3.480469-10.488282 8.410157-12.5zm0 0" fill="#406bcc"/>
	<path d="m33.320312 280.546875v127.898437h148.832032v-127.898437c-22.632813 7.53125-47.839844 11.734375-74.417969 11.734375s-51.785156-4.203125-74.414063-11.734375zm0 0" fill="#e8f3fc"/>
	<path d="m75.222656 377.488281v-87.355469c-14.679687-1.957031-28.730468-5.203124-41.902344-9.585937v127.898437h65.738282c-13.71875-3.617187-23.835938-16.101562-23.835938-30.957031zm0 0" fill="#b7dbf6"/>
	<path d="m131.722656 368.78125h-47.976562c-4.140625 0-7.5-3.355469-7.5-7.5 0-4.140625 3.359375-7.5 7.5-7.5h47.976562c4.140625 0 7.5 3.359375 7.5 7.5 0 4.144531-3.359375 7.5-7.5 7.5zm0 0" fill="#b7dbf6"/>
	<path d="m131.722656 338.78125h-47.976562c-4.140625 0-7.5-3.355469-7.5-7.5 0-4.140625 3.359375-7.5 7.5-7.5h47.976562c4.140625 0 7.5 3.359375 7.5 7.5 0 4.144531-3.359375 7.5-7.5 7.5zm0 0" fill="#b7dbf6"/>
	<path d="m33.320312 282.546875c22.628907 7.53125 47.839844 11.734375 74.414063 11.734375 26.578125 0 51.785156-4.203125 74.417969-11.734375v-133.285156h-148.832032zm0 0" fill="#ef4a8a"/>
	<path d="m75.222656 180.21875c0-14.855469 10.117188-27.34375 23.835938-30.957031h-65.738282v133.285156c13.171876 4.382813 27.222657 7.628906 41.902344 9.585937zm0 0" fill="#e5387f"/>
	<path d="m140.246094 221.992188c0 17.957031-14.554688 32.511718-32.511719 32.511718s-32.511719-14.554687-32.511719-32.511718c0-17.953126 14.554688-32.511719 32.511719-32.511719s32.511719 14.558593 32.511719 32.511719zm0 0" fill="#fc7ba7"/>
	<path d="m118.832031 232.3125c-11.828125 0-21.417969-9.585938-21.417969-21.414062 0-10.132813 7.039063-18.597657 16.488282-20.828126-1.996094-.382812-4.058594-.589843-6.167969-.589843-17.957031 0-32.511719 14.554687-32.511719 32.511719 0 17.957031 14.554688 32.511718 32.511719 32.511718s32.511719-14.554687 32.511719-32.511718c0-2.109376-.207032-4.171876-.589844-6.167969-2.230469 9.449219-10.695312 16.488281-20.824219 16.488281zm0 0" fill="#f95d95"/>
	<path d="m182.152344 154.914062h-148.832032c-7.457031 0-13.5-6.042968-13.5-13.5 0-7.453124 6.042969-13.5 13.5-13.5h148.832032c7.457031 0 13.5 6.046876 13.5 13.5 0 7.457032-6.042969 13.5-13.5 13.5zm0 0" fill="#406bcc"/>
	<path d="m182.152344 429.617188h-148.832032c-7.457031 0-13.5-6.042969-13.5-13.5 0-7.457032 6.042969-13.5 13.5-13.5h148.832032c7.457031 0 13.5 6.042968 13.5 13.5 0 7.457031-6.042969 13.5-13.5 13.5zm0 0" fill="#406bcc"/>
	<path d="m75.222656 141.414062c0-7.453124 6.046875-13.5 13.5-13.5h-55.402344c-7.457031 0-13.5 6.046876-13.5 13.5 0 7.457032 6.042969 13.5 13.5 13.5h55.402344c-7.453125 0-13.5-6.042968-13.5-13.5zm0 0" fill="#284cb2"/>
	<path d="m75.222656 416.117188c0-7.457032 6.046875-13.5 13.5-13.5h-55.402344c-7.457031 0-13.5 6.042968-13.5 13.5 0 7.457031 6.042969 13.5 13.5 13.5h55.402344c-7.453125 0-13.5-6.042969-13.5-13.5zm0 0" fill="#284cb2"/>
</svg>