<svg height="512pt" viewBox="0 0 512 512" width="512pt" xmlns="http://www.w3.org/2000/svg"><path d="m502 70v306c-23.375 0-472.167969 0-492 0v-306zm0 0" fill="#91eb90"/><path d="m256 163-37.5 75-52.5-105-90 180h255zm0 0" fill="#f2f2f2"/><path d="m286 502h-60c0-27.265625 0-102.425781 0-126h60zm0 0" fill="#61729b"/><g fill="#020202"><path d="m256 153c-3.789062 0-7.25 2.140625-8.945312 5.527344l-28.554688 57.113281-43.554688-87.113281c-1.695312-3.386719-5.15625-5.527344-8.945312-5.527344s-7.25 2.140625-8.945312 5.527344l-90 180c-3.316407 6.636718 1.515624 14.472656 8.945312 14.472656h255c7.417969 0 12.269531-7.824219 8.945312-14.472656l-75-150c-1.695312-3.386719-5.15625-5.527344-8.945312-5.527344zm-163.820312 150 73.820312-147.640625 73.820312 147.640625zm170 0-32.5-65 26.320312-52.640625 58.820312 117.640625zm0 0"/><path d="m442 203c5.523438 0 10-4.476562 10-10s-4.476562-10-10-10h-96c-5.523438 0-10 4.476562-10 10s4.476562 10 10 10zm0 0"/><path d="m442 123h-96c-5.523438 0-10 4.476562-10 10s4.476562 10 10 10h96c5.523438 0 10-4.476562 10-10s-4.476562-10-10-10zm0 0"/><path d="m502 60h-116v-40h20c5.523438 0 10-4.476562 10-10s-4.476562-10-10-10h-60c-5.523438 0-10 4.476562-10 10s4.476562 10 10 10h20v40h-100v-40h20c5.523438 0 10-4.476562 10-10s-4.476562-10-10-10h-60c-5.523438 0-10 4.476562-10 10s4.476562 10 10 10h20v40h-100v-40h20c5.523438 0 10-4.476562 10-10s-4.476562-10-10-10h-60c-5.523438 0-10 4.476562-10 10s4.476562 10 10 10h20v40h-116c-5.523438 0-10 4.476562-10 10v306c0 5.523438 4.476562 10 10 10h86v10c0 16.542969 13.457031 30 30 30h90v66h-50c-5.523438 0-10 4.476562-10 10s4.476562 10 10 10h180c5.523438 0 10-4.476562 10-10s-4.476562-10-10-10h-50v-66h90c16.542969 0 30-13.457031 30-30v-10h86c5.523438 0 10-4.476562 10-10v-98c0-5.523438-4.476562-10-10-10s-10 4.476562-10 10v88h-472v-286h472v108c0 5.523438 4.476562 10 10 10s10-4.476562 10-10v-118c0-5.523438-4.476562-10-10-10zm-376 346c-5.515625 0-10-4.484375-10-10v-10h100v20zm110 86v-106h40v106zm160-96c0 5.515625-4.484375 10-10 10h-90v-20h100zm0 0"/><path d="m512 233c0 5.523438-4.476562 10-10 10s-10-4.476562-10-10 4.476562-10 10-10 10 4.476562 10 10zm0 0"/></g></svg>