<svg id="Capa_1" enable-background="new 0 0 511.996 511.996" height="512" viewBox="0 0 511.996 511.996" width="512" xmlns="http://www.w3.org/2000/svg"><path d="m270.998 511.996c-8.284 0-15-6.716-15-15v-181.997c0-8.284 6.716-15 15-15s15 6.716 15 15v181.997c0 8.284-6.716 15-15 15z" fill="#eee1dc"/><path d="m255.998 194.999v-179.999c0-8.284 6.716-15 15-15 35.919 0 69.711 13.762 95.151 38.75 6.841 6.72 12.865 14.049 18.02 21.869 14.209 21.552-128.171 142.664-128.171 134.38z" fill="#00864f"/><path d="m270.998 209.999h120c8.284 0 15-6.716 15-15v-60.997c0-26.549-7.629-51.826-21.838-73.378l-128.162 128.163v6.212c0 8.284 6.716 15 15 15z" fill="#00a863"/><path d="m270.998 209.998h179.999c8.284 0 15 6.716 15 15 0 35.919-13.762 69.711-38.75 95.151-6.72 6.841-14.049 12.864-21.869 18.02-21.551 14.209-142.664-128.171-134.38-128.171z" fill="#0079c2"/><path d="m255.998 224.998v120c0 8.284 6.716 15 15 15h60.997c26.549 0 51.826-7.629 73.378-21.838l-128.162-128.162h-6.212c-8.285 0-15.001 6.716-15.001 15z" fill="#0050c3"/><path d="m240.998 209.999h-179.999c-8.284 0-15-6.716-15-15 0-35.919 13.762-69.711 38.75-95.151 6.72-6.841 14.049-12.864 21.869-18.02 21.551-14.209 142.664 128.171 134.38 128.171z" fill="#ff7c48"/><path d="m255.998 194.999v-120c0-8.284-6.716-15-15-15h-60.997c-26.549 0-51.826 7.629-73.378 21.838l128.162 128.162h6.212c8.285 0 15.001-6.715 15.001-15z" fill="#ff415b"/><path d="m255.998 224.999v179.999c0 8.284-6.716 15-15 15-35.919 0-69.711-13.762-95.151-38.75-6.841-6.72-12.865-14.049-18.02-21.869-14.209-21.552 128.171-142.664 128.171-134.38z" fill="#ffd222"/><path d="m240.998 209.999h-120c-8.284 0-15 6.716-15 15v60.997c0 26.549 7.629 51.826 21.838 73.378l128.162-128.162v-6.212c0-8.285-6.716-15.001-15-15.001z" fill="#fdbf00"/></svg>