<?xml version="1.0" encoding="iso-8859-1"?>
<!-- Generator: Adobe Illustrator 19.0.0, SVG Export Plug-In . SVG Version: 6.00 Build 0)  -->
<svg version="1.1" id="Layer_1" xmlns="http://www.w3.org/2000/svg" xmlns:xlink="http://www.w3.org/1999/xlink" x="0px" y="0px"
	 viewBox="0 0 512.001 512.001" style="enable-background:new 0 0 512.001 512.001;" xml:space="preserve">
<rect x="234.276" y="179.645" style="fill:#997668;" width="43.454" height="323.519"/>
<g>
	<rect x="234.276" y="179.645" style="opacity:0.3;fill:#222222;enable-background:new    ;" width="21.728" height="323.519"/>
	<polygon style="opacity:0.3;fill:#222222;enable-background:new    ;" points="234.274,179.639 234.274,359.264 277.728,315.81 
		277.728,179.639 	"/>
</g>
<path style="fill:#95D600;" d="M412.618,202.274l-89.381-89.382l-67.235,67.234L401.5,325.627
	C420.255,292.413,440.463,230.119,412.618,202.274z"/>
<polygon style="opacity:0.2;fill:#218649;enable-background:new    ;" points="256.002,180.126 390.96,180.618 323.237,112.892 "/>
<path style="fill:#FFC843;" d="M278.148,23.512l-89.382,89.379l67.235,67.234L401.5,34.627
	C368.287,15.874,305.992-4.334,278.148,23.512z"/>
<polygon style="opacity:0.1;fill:#222222;enable-background:new    ;" points="256.002,180.126 256.49,45.169 188.766,112.892 "/>
<path style="fill:#675DC6;" d="M99.384,157.982l89.382,89.383l67.235-67.238L110.499,34.629
	C91.747,67.842,71.539,130.134,99.384,157.982z"/>
<polygon style="opacity:0.3;fill:#222222;enable-background:new    ;" points="256.002,180.126 121.041,179.639 188.766,247.364 "/>
<path style="fill:#229CD2;" d="M233.855,336.745l89.382-89.382l-67.235-67.237l-145.5,145.501
	C143.715,344.381,206.009,364.59,233.855,336.745z"/>
<polygon style="opacity:0.2;fill:#222222;enable-background:new    ;" points="256.002,180.126 255.512,315.088 323.237,247.363 "/>
<circle style="fill:#FFFFFF;" cx="256.006" cy="180.128" r="39.13"/>
<path style="opacity:0.2;fill:#222222;enable-background:new    ;" d="M256.002,140.994c-21.612,0-39.132,17.521-39.132,39.132
	c0,21.612,17.52,39.133,39.132,39.133V140.994z"/>
<path style="fill:#1E252B;" d="M419.362,195.529l-83.613-83.614l72.007-72.007c1.956-1.956,2.884-4.713,2.51-7.453
	c-0.374-2.74-2.008-5.148-4.417-6.507c-20.278-11.45-45.162-20.442-66.567-24.054c-29.672-5.009-52.977-0.033-67.392,14.384
	L188.278,99.89l-72.009-72.007c-1.956-1.956-4.713-2.884-7.453-2.51s-5.148,2.008-6.507,4.417
	c-11.45,20.277-20.442,45.162-24.054,66.567c-5.008,29.672-0.033,52.975,14.384,67.392l83.613,83.613l-72.007,72.008
	c-1.956,1.956-2.884,4.713-2.51,7.453c0.374,2.74,2.008,5.148,4.417,6.507c20.277,11.45,45.162,20.442,66.567,24.054
	c7.493,1.265,14.58,1.892,21.222,1.892c11.862,0,22.287-2.018,31.067-5.975v149.852c0,4.886,3.961,8.848,8.848,8.848h43.873
	c4.886,0,8.848-3.961,8.848-8.848V296.536l37.149-37.149l72.009,72.007c1.67,1.67,3.926,2.592,6.256,2.592
	c0.398,0,0.797-0.027,1.197-0.081c2.74-0.374,5.148-2.008,6.507-4.417c11.45-20.278,20.442-45.162,24.054-66.567
	C438.754,233.25,433.779,209.948,419.362,195.529z M284.404,28.791c21.325-21.327,70.125-8.375,102.314,7.132L282.492,140.15
	c-7.596-5.05-16.703-8.002-26.49-8.002c-10.038,0-19.362,3.104-27.073,8.395l-28.138-28.138L284.404,28.791z M286.286,180.126
	c0,16.699-13.585,30.285-30.284,30.285s-30.284-13.587-30.284-30.285s13.585-30.284,30.284-30.284
	C272.7,149.842,286.286,163.428,286.286,180.126z M105.153,151.237c-21.325-21.325-8.373-70.126,7.132-102.312l104.132,104.13
	c-5.29,7.712-8.394,17.035-8.394,27.072c0,10.038,3.104,19.362,8.395,27.073l-27.651,27.651L105.153,151.237z M268.88,494.306
	h-26.177V340.409l26.177-26.177V494.306z M227.599,330.489c-21.325,21.324-70.126,8.373-102.312-7.132l103.642-103.644
	c7.712,5.291,17.035,8.395,27.073,8.395c10.288,0,19.822-3.265,27.643-8.799l27.568,27.568L227.599,330.489z M399.718,310.355
	L295.979,206.616c5.05-7.597,8.002-16.704,8.002-26.49c0-10.288-3.267-19.821-8.801-27.643l28.057-28.055l83.613,83.614
	C428.176,229.367,415.224,278.168,399.718,310.355z"/>
<g>
</g>
<g>
</g>
<g>
</g>
<g>
</g>
<g>
</g>
<g>
</g>
<g>
</g>
<g>
</g>
<g>
</g>
<g>
</g>
<g>
</g>
<g>
</g>
<g>
</g>
<g>
</g>
<g>
</g>
</svg>
