<?xml version="1.0" encoding="iso-8859-1"?>
<!-- Generator: Adobe Illustrator 19.0.0, SVG Export Plug-In . SVG Version: 6.00 Build 0)  -->
<svg version="1.1" id="Capa_1" xmlns="http://www.w3.org/2000/svg" xmlns:xlink="http://www.w3.org/1999/xlink" x="0px" y="0px"
	 viewBox="0 0 512.001 512.001" style="enable-background:new 0 0 512.001 512.001;" xml:space="preserve">
<path style="fill:#D39852;" d="M273.124,224.674h-34.246v273.803c0,7.469,6.055,13.524,13.524,13.524h7.199
	c7.469,0,13.524-6.055,13.524-13.524L273.124,224.674L273.124,224.674z"/>
<polygon style="opacity:0.1;enable-background:new    ;" points="238.878,331.562 273.124,365.808 273.124,224.674 238.878,224.674 
	"/>
<path style="fill:#F3BB62;" d="M386.409,184.497c0,0,22.053-22.053,40.176-40.176s20.912-64.835-5.971-90.012
	s-58.035-8.535-44.806,12.802c-9.815,6.401-79.63,30.67-79.63,77.21L386.409,184.497z"/>
<path style="opacity:0.2;fill:#AC6A22;enable-background:new    ;" d="M322.115,98.271c-14.375,11.86-25.938,27.11-25.938,46.05
	l90.231,40.176c0,0,22.053-22.053,40.176-40.176C368.321,130.23,334.581,112.87,322.115,98.271z"/>
<path style="fill:#FCDF81;" d="M359.305,211.6l67.28-67.28H256.001v80.353h71.743C339.582,224.674,350.935,219.971,359.305,211.6z"
	/>
<path style="fill:#7D9EDF;" d="M256.001,314.905c0,0,22.053,22.053,40.176,40.176c18.123,18.124,64.835,20.912,90.012-5.971
	c25.177-26.884,8.534-58.035-12.802-44.806c-6.401-9.815-30.67-79.63-77.21-79.63L256.001,314.905z"/>
<path style="opacity:0.15;fill:#003A63;enable-background:new    ;" d="M342.227,250.611c-11.86-14.375-27.11-25.938-46.05-25.938
	l-40.176,90.232c0,0,22.053,22.053,40.176,40.176C310.269,296.817,327.628,263.077,342.227,250.611z"/>
<path style="fill:#98D2E6;" d="M228.898,287.802l67.28,67.28V184.497h-80.353v71.743
	C215.825,268.078,220.527,279.431,228.898,287.802z"/>
<path style="fill:#F3BB62;" d="M125.593,184.497c0,0-22.053,22.053-40.176,40.176c-18.124,18.124-20.912,64.835,5.971,90.012
	c26.884,25.177,58.035,8.535,44.806-12.802c9.815-6.401,79.63-30.67,79.63-77.21L125.593,184.497z"/>
<path style="opacity:0.2;fill:#AC6A22;enable-background:new    ;" d="M189.887,270.723c14.375-11.86,25.938-27.11,25.938-46.05
	l-90.231-40.176c0,0-22.053,22.053-40.176,40.176C143.681,238.765,177.421,256.124,189.887,270.723z"/>
<path style="fill:#FCDF81;" d="M152.697,157.394l-67.28,67.28h170.584v-80.353h-71.743
	C172.42,144.321,161.067,149.023,152.697,157.394z"/>
<path style="fill:#D76976;" d="M256.001,54.09c0,0-22.053-22.053-40.176-40.176C197.701-4.21,150.99-6.999,125.813,19.885
	s-8.534,58.035,12.802,44.806c6.401,9.815,30.67,79.63,77.21,79.63L256.001,54.09z"/>
<path style="opacity:0.2;fill:#893529;enable-background:new    ;" d="M169.775,118.383c11.86,14.375,27.11,25.938,46.05,25.938
	l40.176-90.231c0,0-22.053-22.053-40.176-40.176C201.733,72.177,184.374,105.917,169.775,118.383z"/>
<path style="fill:#F895C6;" d="M283.104,81.193l-67.28-67.28v170.584h80.353v-71.743C296.177,100.916,291.475,89.563,283.104,81.193
	z"/>
<circle style="fill:#495059;" cx="256.001" cy="184.5" r="40.18"/>
<g>
	<circle style="fill:#FFF4D1;" cx="256.001" cy="184.5" r="7.574"/>
	<rect x="238.881" y="411.5" style="fill:#FFF4D1;" width="34.25" height="15"/>
	<rect x="238.881" y="371.75" style="fill:#FFF4D1;" width="34.25" height="15"/>
</g>
<g>
</g>
<g>
</g>
<g>
</g>
<g>
</g>
<g>
</g>
<g>
</g>
<g>
</g>
<g>
</g>
<g>
</g>
<g>
</g>
<g>
</g>
<g>
</g>
<g>
</g>
<g>
</g>
<g>
</g>
</svg>
