<svg height="411pt" viewBox="-11 0 411 411.392" width="411pt" xmlns="http://www.w3.org/2000/svg"><path d="m184.515625 411.390625c-3.773437 0-6.828125-3.054687-6.828125-6.824219v-382.292968c0-3.769532 3.054688-6.828126 6.828125-6.828126s6.828125 3.058594 6.828125 6.828126v382.292968c0 3.769532-3.054688 6.824219-6.828125 6.824219zm0 0" fill="#602f75"/><path d="m198.167969 165.632812c0-40.492187 31.578125-73.316406 70.527343-73.316406 38.953126 0 70.527344 32.824219 70.527344 73.316406zm0 0" fill="#ea3457"/><path d="m339.222656 172.457031h-141.054687c-3.773438 0-6.824219-3.054687-6.824219-6.824219 0-44.191406 34.699219-80.144531 77.351562-80.144531 42.652344 0 77.351563 35.953125 77.351563 80.144531 0 3.769532-3.050781 6.824219-6.824219 6.824219zm-133.894531-13.652343h126.734375c-3.285156-33.464844-30.453125-59.664063-63.367188-59.664063-32.914062 0-60.078124 26.199219-63.367187 59.664063zm0 0" fill="#602f75"/><path d="m137.367188 145.152344h47.148437c0 39.730468-31.574219 71.9375-70.527344 71.9375-38.949219 0-70.523437-32.207032-70.523437-71.9375h51.90625" fill="#ea3457"/><path d="m113.988281 223.917969c-42.652343 0-77.351562-35.332031-77.351562-78.765625 0-3.769532 3.054687-6.824219 6.828125-6.824219h51.910156c3.773438 0 6.828125 3.054687 6.828125 6.824219 0 3.769531-3.054687 6.828125-6.828125 6.828125h-44.738281c3.347656 32.707031 30.484375 58.285156 63.351562 58.285156 32.867188 0 60.007813-25.578125 63.355469-58.285156h-39.972656c-3.773438 0-6.828125-3.058594-6.828125-6.828125 0-3.769532 3.054687-6.824219 6.828125-6.824219h47.144531c3.773437 0 6.828125 3.054687 6.828125 6.824219 0 43.433594-34.699219 78.765625-77.355469 78.765625zm0 0" fill="#602f75"/><path d="m184.515625 161.53125c38.226563 0 69.214844 31.574219 69.214844 70.527344 0 38.949218-30.988281 70.523437-69.214844 70.523437zm0 0" fill="#00e7ff"/><path d="m184.515625 309.410156c-3.773437 0-6.828125-3.058594-6.828125-6.828125v-141.050781c0-3.769531 3.054688-6.828125 6.828125-6.828125 41.925781 0 76.039063 34.699219 76.039063 77.355469 0 42.652344-34.113282 77.351562-76.039063 77.351562zm6.828125-140.671875v126.636719c31.199219-3.480469 55.558594-30.550781 55.558594-63.320312 0-32.765626-24.359375-59.835938-55.558594-63.316407zm0 0" fill="#602f75"/><path d="m191.34375 147.878906c-38.226562 0-69.214844-31.578125-69.214844-70.527344 0-38.953124 30.988282-70.523437 69.214844-70.523437zm0 0" fill="#ffe600"/><path d="m191.34375 154.703125c-41.925781 0-76.042969-34.699219-76.042969-77.351563 0-42.652343 34.113281-77.351562 76.042969-77.351562 3.773438 0 6.824219 3.054688 6.824219 6.828125v141.046875c0 3.769531-3.050781 6.828125-6.824219 6.828125zm-6.828125-140.671875c-31.199219 3.484375-55.558594 30.554688-55.558594 63.320312 0 32.769532 24.359375 59.835938 55.558594 63.320313zm0 0" fill="#602f75"/><g fill="#00e7ff"><path d="m82.117188 49.578125h-75.09375c-3.773438 0-6.828126-3.054687-6.828126-6.824219 0-3.773437 3.054688-6.828125 6.828126-6.828125h75.09375c3.773437 0 6.824218 3.054688 6.824218 6.828125 0 3.769532-3.050781 6.824219-6.824218 6.824219zm0 0"/><path d="m88.941406 83.710938h-54.613281c-3.773437 0-6.824219-3.054688-6.824219-6.824219s3.050782-6.828125 6.824219-6.828125h54.613281c3.773438 0 6.828125 3.058594 6.828125 6.828125s-3.054687 6.824219-6.828125 6.824219zm0 0"/><path d="m382.488281 206.59375h-88.746093c-3.773438 0-6.828126-3.058594-6.828126-6.828125s3.054688-6.828125 6.828126-6.828125h88.746093c3.773438 0 6.828125 3.058594 6.828125 6.828125s-3.054687 6.828125-6.828125 6.828125zm0 0"/><path d="m334.703125 240.726562h-47.789063c-3.773437 0-6.824218-3.058593-6.824218-6.828124 0-3.769532 3.050781-6.828126 6.824218-6.828126h47.789063c3.773437 0 6.828125 3.058594 6.828125 6.828126 0 3.769531-3.054688 6.828124-6.828125 6.828124zm0 0"/></g></svg>