<svg height="512pt" viewBox="-124 0 512 512" width="512pt" xmlns="http://www.w3.org/2000/svg"><path d="m148.523438 391.148438h-32.621094v-179.335938c0-9.007812 7.304687-16.308594 16.3125-16.308594 9.003906 0 16.308594 7.300782 16.308594 16.308594zm0 0" fill="#b9c394"/><path d="m105.308594 487.90625v-144.128906c0-9.160156 7.417968-16.589844 16.578125-16.589844h20.65625c9.164062 0 16.582031 7.429688 16.582031 16.589844v144.128906c0 9.160156-7.417969 16.589844-16.582031 16.589844h-20.65625c-9.160157 0-16.578125-7.429688-16.578125-16.589844zm0 0" fill="#ffcb6f"/><path d="m105.304688 487.90625v-144.125c0-9.167969 7.417968-16.59375 16.585937-16.59375h20.652344c.28125 0 .566406.007812.851562.019531-8.746093.476563-15.675781 7.710938-15.675781 16.570313v144.128906c0 8.851562 6.929688 16.09375 15.675781 16.570312-.285156.011719-.570312.019532-.851562.019532h-20.652344c-9.167969.003906-16.585937-7.433594-16.585937-16.589844zm0 0" fill="#ff9b36"/><path d="m256.929688 100.421875v131.265625c0 9.160156-11.152344 13.652344-17.503907 7.054688l-71.929687-74.738282v-156.507812zm0 0" fill="#fc4265"/><path d="m256.929688 100.421875h-89.433594v-92.925781zm0 0" fill="#c61a4f"/><path d="m238.746094 25-74.738282 71.941406h-156.507812l92.921875-89.445312h131.269531c9.15625 0 13.652344 11.152344 7.054688 17.503906zm0 0" fill="#77bc4d"/><path d="m100.421875 7.496094v89.445312h-92.921875zm0 0" fill="#479838"/><path d="m96.933594 100.421875v156.507813l-89.433594-92.925782v-131.265625c0-9.160156 11.152344-13.652343 17.5-7.054687zm0 0" fill="#ffcb6f"/><path d="m96.933594 164.003906v92.925782l-89.433594-92.925782zm0 0" fill="#ff9b36"/><path d="m212.25 210.496094-48.242188 46.433594h-131.269531c-9.15625 0-13.652343-11.152344-7.054687-17.503907l74.738281-71.929687h70.429687zm0 0" fill="#70efef"/><path d="m212.25 210.496094-48.242188 46.433594v-89.433594h6.84375zm0 0" fill="#42d2d9"/><path d="m188.617188 132.210938c0 31.148437-25.253907 56.398437-56.402344 56.398437-31.148438 0-56.398438-25.25-56.398438-56.398437 0-31.148438 25.25-56.398438 56.398438-56.398438 31.148437 0 56.402344 25.25 56.402344 56.398438zm0 0" fill="#d0daad"/><path d="m75.816406 132.214844c0-31.152344 25.25-56.402344 56.398438-56.402344 5.515625 0 10.855468.792969 15.890625 2.269531-23.40625 6.867188-40.5 28.503907-40.5 54.132813 0 25.625 17.09375 47.265625 40.5 54.132812-5.035157 1.472656-10.375 2.269532-15.890625 2.269532-31.148438-.003907-56.398438-25.253907-56.398438-56.402344zm0 0" fill="#b9c394"/><path d="m256.929688 157.234375c4.140624 0 7.5-3.355469 7.5-7.5v-49.3125c0-1.9375-.753907-3.804687-2.097657-5.199219l-41.226562-42.835937 22.839843-21.980469c5.21875-5.027344 6.84375-12.617188 4.132813-19.339844-2.707031-6.722656-9.140625-11.066406-16.390625-11.066406h-64.210938c-4.140624 0-7.5 3.355469-7.5 7.5s3.359376 7.5 7.5 7.5h64.210938c1.570312 0 2.230469 1.050781 2.480469 1.675781s.507812 1.835938-.625 2.925781l-63.523438 61.140626c-10.59375-7.804688-23.667969-12.425782-37.804687-12.425782-8.597656 0-16.800782 1.714844-24.292969 4.808594v-58.125h25.03125c4.140625 0 7.5-3.355469 7.5-7.5s-3.359375-7.5-7.5-7.5h-32.53125c-1.941406 0-3.804687.75-5.203125 2.097656l-42.832031 41.226563-21.980469-22.839844c-5.027344-5.226563-12.617188-6.847656-19.339844-4.136719-6.722656 2.710938-11.066406 9.144532-11.066406 16.394532v131.265624c0 1.9375.75 3.804688 2.097656 5.199219l41.226563 42.832031-22.839844 21.984376c-5.222656 5.027343-6.847656 12.617187-4.136719 19.339843 2.710938 6.722657 9.144532 11.066407 16.390625 11.066407h75.667969v59.402343c-6.394531 4.335938-10.601562 11.660157-10.601562 19.949219v34.957031c0 4.140625 3.355468 7.5 7.5 7.5 4.140624 0 7.5-3.359375 7.5-7.5v-34.957031c0-5.011719 4.078124-9.089844 9.085937-9.089844h20.648437c5.007813 0 9.085938 4.078125 9.085938 9.089844v144.128906c0 5.011719-4.078125 9.089844-9.085938 9.089844h-20.648437c-5.011719 0-9.085937-4.078125-9.085937-9.089844v-74.648437c0-4.144531-3.359376-7.5-7.5-7.5-4.144532 0-7.5 3.355469-7.5 7.5v74.648437c0 13.285156 10.804687 24.089844 24.085937 24.089844h20.648437c13.28125 0 24.085938-10.804688 24.085938-24.089844v-144.128906c0-8.289062-4.210938-15.613281-10.601562-19.949219v-59.402343h7.980468c1.941406 0 3.804688-.75 5.203125-2.097657l42.832031-41.222656 21.980469 22.835937c3.414063 3.542969 8.003907 5.429688 12.703125 5.429688 2.226563 0 4.476563-.421875 6.636719-1.292969 6.726563-2.710937 11.070313-9.144531 11.070313-16.394531v-47.429688c0-4.140624-3.359376-7.5-7.5-7.5-4.144532 0-7.5 3.359376-7.5 7.5v47.429688c0 1.574219-1.050782 2.230469-1.675782 2.480469s-1.835937.507812-2.925781-.625l-61.140625-63.523438c7.804688-10.59375 12.425781-23.667969 12.425781-37.804687 0-8.597656-1.714843-16.800782-4.808593-24.292969h58.125v41.8125c0 4.144531 3.355468 7.5 7.5 7.5zm-75.816407-25.019531c0 26.960937-21.9375 48.898437-48.898437 48.898437-26.964844 0-48.898438-21.9375-48.898438-48.898437 0-26.964844 21.933594-48.898438 48.898438-48.898438 26.960937 0 48.898437 21.933594 48.898437 48.898438zm-88.191406-107.085938v56.75c-.648437.507813-1.292969 1.027344-1.921875 1.558594l-28.210938-29.308594zm-76.25 5.132813c.628906-.253907 1.839844-.507813 2.925781.625l61.140625 63.523437c-7.800781 10.59375-12.425781 23.667969-12.425781 37.804688 0 8.597656 1.71875 16.796875 4.8125 24.292968h-58.125v-123.765624c0-1.574219 1.046875-2.230469 1.671875-2.480469zm8.457031 141.246093h56.75c.507813.652344 1.027344 1.292969 1.558594 1.921876l-29.308594 28.207031zm5.128906 76.246094c-.25-.625-.503906-1.835937.625-2.925781l63.527344-61.140625c10.59375 7.804688 23.667969 12.425781 37.804688 12.425781 8.59375 0 16.796875-1.714843 24.289062-4.808593v58.125h-123.765625c-1.570312 0-2.226562-1.050782-2.480469-1.675782zm110.765626 71.9375h-17.617188v-55.261718h17.617188zm30.484374-80.390625v-56.75c.648438-.507812 1.292969-1.027343 1.921876-1.558593l28.207031 29.308593zm9.484376-148.300781 29.304687-28.207031 29.003906 30.128906h-56.75c-.507812-.648437-1.027343-1.292969-1.558593-1.921875zm0 0"/></svg>