<svg height="512pt" viewBox="-66 0 512 512" width="512pt" xmlns="http://www.w3.org/2000/svg"><path d="m190.378906 190.378906 148.058594-148.058594h-78.894531c-10.128907 0-24.277344 5.859376-31.441407 13.023438l-86.378906 86.378906zm0 0" fill="#0084ff"/><path d="m333.050781 264.917969c0-10.128907-5.859375-24.277344-13.023437-31.441407l-86.378906-86.378906-43.277344 43.273438 142.679687 142.675781zm0 0" fill="#1eb615"/><path d="m121.796875 339.019531c10.128906 0 24.277344-5.859375 31.441406-13.023437l86.378907-86.378906-49.246094-49.246094-148.644532 148.648437zm0 0" fill="#ffd41d"/><path d="m46.882812 116.652344c0 10.128906 5.859376 24.277344 13.023438 31.441406l86.378906 86.378906 44.09375-44.09375-143.496094-143.496094zm0 0" fill="#ff1a1a"/><path d="m380.75 227.667969c0-12.96875-6.914062-29.660157-16.082031-38.832031l-78.984375-78.984376 78.988281-78.988281c9.304687-9.304687 7.332031-17.492187 6.054687-20.582031-1.28125-3.09375-5.675781-10.27734375-18.835937-10.28125h-124.214844c-12.96875.00390625-29.664062 6.917969-38.832031 16.085938l-78.992188 78.992187-78.988281-78.992187c-4.761719-4.761719-9.769531-7.175782-14.875-7.175782-7.957031 0-15.98437475 6.171875-15.988281 19.960938l.00390625 124.214844c0 12.96875 6.91406275 29.660156 16.08203175 38.832031l78.984374 78.980469-78.988281 78.992187c-9.304687 9.300781-7.335937 17.492187-6.054687 20.582031s5.675781 10.277344 18.835937 10.28125l124.214844-.003906c8.410156 0 18.375-2.917969 26.847656-7.460938v117.8125h-59.535156c-5.773437 0-10.449219 4.679688-10.449219 10.449219s4.675782 10.449219 10.449219 10.449219h104.988281c5.769532 0 10.449219-4.679688 10.449219-10.449219s-4.679687-10.449219-10.449219-10.449219h-24.554687v-135.351562l70.074219-70.074219 78.992187 78.988281c4.761719 4.765626 9.765625 7.175782 14.875 7.175782 7.953125 0 15.984375-6.167969 15.988281-19.960938zm-177.125-196.804688c5.210938-5.214843 16.675781-9.964843 24.050781-9.964843h117.40625l-81.421875 81.425781c-.050781.046875-.101562.085937-.148437.132812l-73.136719 73.136719-17.890625-17.886719 64.378906-64.378906c4.078125-4.078125 4.078125-10.695313 0-14.777344-4.082031-4.078125-10.695312-4.078125-14.78125 0l-64.375 64.378907-33.074219-33.078126zm-172.761719 146.273438c-5.214843-5.214844-9.964843-16.679688-9.964843-24.050781v-117.410157l154.695312 154.695313-65.746094 65.75zm146.265625 172.753906c-5.210937 5.210937-16.675781 9.960937-24.050781 9.960937h-117.410156l154.710937-154.695312 17.941406 17.941406-64.261718 64.265625c-4.082032 4.078125-4.082032 10.695313 0 14.777344 2.039062 2.039063 4.714844 3.058594 7.386718 3.058594 2.675782 0 5.347657-1.019531 7.386719-3.058594l64.265625-64.265625 33.023438 33.023438zm28.027344-159.511719 65.75-65.75 78.984375 78.984375c5.214844 5.214844 9.960937 16.679688 9.960937 24.054688l.003907 117.40625zm0 0"/><path d="m253.375 72.488281c2.664062 0 5.332031-1.015625 7.367188-3.039062l.175781-.171875c4.089843-4.070313 4.109375-10.6875.042969-14.777344-4.070313-4.09375-10.6875-4.113281-14.777344-.046875l-.175782.175781c-4.089843 4.066406-4.109374 10.683594-.042968 14.773438 2.042968 2.058594 4.726562 3.085937 7.410156 3.085937zm0 0"/><path d="m260.363281 491.101562h-.597656c-5.773437 0-10.449219 4.679688-10.449219 10.449219s4.675782 10.449219 10.449219 10.449219h.597656c5.769531 0 10.449219-4.679688 10.449219-10.449219s-4.679688-10.449219-10.449219-10.449219zm0 0"/><path d="m120.152344 311.265625-.171875.171875c-4.082031 4.082031-4.082031 10.699219 0 14.78125 2.039062 2.039062 4.714843 3.058594 7.386719 3.058594 2.675781 0 5.347656-1.019532 7.390624-3.058594l.171876-.175781c4.082031-4.078125 4.082031-10.695313 0-14.777344-4.082032-4.082031-10.695313-4.082031-14.777344 0zm0 0"/></svg>