<svg id="Layer_1" height="512" viewBox="0 0 512 512" width="512" xmlns="http://www.w3.org/2000/svg" data-name="Layer 1"><path d="m459.79 236.632a6.017 6.017 0 0 1 .92 11.38l-60.92 25.94 41.1 96.54a11.987 11.987 0 0 1 .61 7.59l-9.09 37.02a6.022 6.022 0 0 1 -11.39.92l-24.28-57.03-95.98 40.86a12.056 12.056 0 0 1 -7.59.61l-37.02-9.1a6.017 6.017 0 0 1 -.92-11.38l60.91-25.93-40.87-96a12.056 12.056 0 0 1 -.61-7.59l9.1-37.02a6.017 6.017 0 0 1 11.38-.92l24.05 56.49 95.99-40.86a11.99 11.99 0 0 1 7.59-.62zm-84.36 77.64a17.455 17.455 0 1 0 -17.46 17.46 17.455 17.455 0 0 0 17.46-17.46z" fill="#6fe3ff"/><path d="m357.97 296.822a17.455 17.455 0 1 1 -17.45 17.45 17.455 17.455 0 0 1 17.45-17.45z" fill="#e48e66"/><path d="m233.68 43.772a6.022 6.022 0 0 1 .92 11.39l-60.92 25.93 41.1 96.55a12.053 12.053 0 0 1 .62 7.59l-9.1 37.02a6.024 6.024 0 0 1 -11.39.92l-24.28-57.04-95.98 40.86a11.987 11.987 0 0 1 -7.59.61l-37.02-9.1a6.017 6.017 0 0 1 -.92-11.38l60.91-25.93-40.87-96a12.056 12.056 0 0 1 -.61-7.59l9.1-37.02a6.017 6.017 0 0 1 11.38-.92l24.05 56.49 95.99-40.86a12.059 12.059 0 0 1 7.59-.62zm-84.36 77.64a17.455 17.455 0 1 0 -17.46 17.46 17.455 17.455 0 0 0 17.46-17.46z" fill="#6fe3ff"/><path d="m131.86 103.962a17.455 17.455 0 1 1 -17.45 17.45 17.455 17.455 0 0 1 17.45-17.45z" fill="#e48e66"/><g fill="#63316d"><path d="m181.551 84.263 55.4-23.581a12.022 12.022 0 0 0 -1.839-22.737l-37.024-9.1a18.18 18.18 0 0 0 -11.368.926l-90.47 38.51-21.7-50.966a12.017 12.017 0 0 0 -22.729 1.834l-9.1 37.026a18.179 18.179 0 0 0 .918 11.367l38.519 90.479-55.384 23.579a12.016 12.016 0 0 0 1.834 22.728l37 9.1a18.109 18.109 0 0 0 11.392-.916l48.86-20.8v216.8a6 6 0 1 0 12 0v-221.912l29.6-12.6 21.933 51.524a11.841 11.841 0 0 0 11.006 7.309c.337 0 .678-.014 1.02-.041a11.866 11.866 0 0 0 10.708-9.111l9.1-37.025a18.137 18.137 0 0 0 -.928-11.367zm28.022 99.537-9.11 37.034h-.028v-.012l-24.281-57.04a6 6 0 0 0 -7.87-3.171l-95.984 40.859a5.978 5.978 0 0 1 -3.81.305l-37.034-9.109v-.02h.012l60.91-25.93a6 6 0 0 0 3.17-7.871l-40.868-96a6.015 6.015 0 0 1 -.306-3.81l9.112-37.035h.019v.013l24.055 56.487a6 6 0 0 0 7.87 3.17l95.987-40.859a6.018 6.018 0 0 1 3.811-.315l37.022 9.056a.227.227 0 0 1 .017.079l-.017.008-60.92 25.93a6 6 0 0 0 -3.17 7.87l41.102 96.561a6.073 6.073 0 0 1 .311 3.8z"/><path d="m131.86 97.962a23.455 23.455 0 1 0 23.46 23.449 23.476 23.476 0 0 0 -23.46-23.449zm0 34.91a11.455 11.455 0 1 1 11.46-11.461 11.469 11.469 0 0 1 -11.46 11.461z"/><path d="m461.222 230.806-37.022-9.106a18.077 18.077 0 0 0 -11.368.927l-90.47 38.511-21.7-50.966a12.017 12.017 0 0 0 -22.73 1.833l-9.1 37.024a18.172 18.172 0 0 0 .917 11.369l38.519 90.48-55.385 23.577a12.016 12.016 0 0 0 1.834 22.728l37.024 9.1a18.167 18.167 0 0 0 11.368-.917l48.86-20.8v111.434a6 6 0 0 0 12 0v-116.537l29.6-12.6 21.93 51.51a11.838 11.838 0 0 0 11 7.317c.336 0 .675-.012 1.015-.04a11.872 11.872 0 0 0 10.717-9.117l9.085-37a18.111 18.111 0 0 0 -.911-11.39l-38.75-91.02 55.4-23.589a12.016 12.016 0 0 0 -1.839-22.726zm-2.863 11.685-60.92 25.94a6 6 0 0 0 -3.169 7.871l41.1 96.536a5.967 5.967 0 0 1 .305 3.813l-9.045 37.021a.206.206 0 0 1 -.082.016v-.017l-24.28-57.03a5.992 5.992 0 0 0 -7.871-3.17l-95.985 40.859a6.029 6.029 0 0 1 -3.81.306l-37.033-9.111v-.019h.013l60.91-25.93a6 6 0 0 0 3.171-7.871l-40.869-96a6.011 6.011 0 0 1 -.3-3.811l9.106-37.034h.019v.014l24.049 56.49a6 6 0 0 0 7.871 3.17l96.005-40.866a5.961 5.961 0 0 1 3.793-.309l37.033 9.111v.017z"/><path d="m357.97 290.821a23.455 23.455 0 1 0 23.46 23.45 23.477 23.477 0 0 0 -23.46-23.45zm0 34.91a11.455 11.455 0 1 1 11.46-11.46 11.468 11.468 0 0 1 -11.46 11.46z"/><path d="m418.839 133.914a6 6 0 0 0 -8.485.009 19.97 19.97 0 0 0 0 28.191 23.459 23.459 0 0 0 33.126 0 27.8 27.8 0 0 0 0-39.274 33.05 33.05 0 0 0 -23.343-9.729h-199.167a6 6 0 0 0 0 12h199.135a21.106 21.106 0 0 1 14.895 6.213 15.778 15.778 0 0 1 0 22.3 11.445 11.445 0 0 1 -16.158 0 7.956 7.956 0 0 1 0-11.231 6 6 0 0 0 -.003-8.479z"/><path d="m337.062 161.778a6 6 0 0 0 -8.485 0 17.056 17.056 0 0 0 0 24.124 19.833 19.833 0 0 0 28.046 0 23.28 23.28 0 0 0 0-32.924 27.464 27.464 0 0 0 -19.4-8.087h-84.523a6 6 0 0 0 0 12h84.487a15.509 15.509 0 0 1 10.95 4.572 11.28 11.28 0 0 1 0 15.955 7.834 7.834 0 0 1 -11.075 0 5.058 5.058 0 0 1 0-7.154 6 6 0 0 0 0-8.486z"/><path d="m287.06 62.441h105.94a27.485 27.485 0 0 0 19.359-8.088 23.315 23.315 0 0 0 0-32.935 19.855 19.855 0 0 0 -28.046 0 17.087 17.087 0 0 0 0 24.135 6 6 0 1 0 8.486-8.485 5.073 5.073 0 0 1 0-7.165 7.84 7.84 0 0 1 11.074 0 11.291 11.291 0 0 1 0 15.966 15.539 15.539 0 0 1 -10.917 4.572h-105.896a6 6 0 0 0 0 12z"/><path d="m448.541 41.266a21.156 21.156 0 0 0 0 29.942 6 6 0 0 0 8.478-8.492 9.158 9.158 0 0 1 0-12.962 12.979 12.979 0 0 1 18.335 0 17.695 17.695 0 0 1 0 25.038 23.431 23.431 0 0 1 -16.544 6.92h-212.25a6 6 0 0 0 0 12h212.282a35.376 35.376 0 0 0 25-10.436 29.695 29.695 0 0 0 0-42.007 24.99 24.99 0 0 0 -35.301-.003z"/></g></svg>