<svg id="Layer_1" enable-background="new 0 0 511.999 511.999" height="512" viewBox="0 0 511.999 511.999" width="512" xmlns="http://www.w3.org/2000/svg"><g clip-rule="evenodd" fill-rule="evenodd"><path d="m327.354 120.003c11.911 33.668 44.093 67.164 55.494 67.164 11.634 0 44.91-34.882 56.196-69.232 2.398-7.285 3.804-14.548 3.804-21.448 0-32.889-26.968-60.267-59.812-60.475v-.005l-.188.002-.188-.002v.005c-32.845.208-59.812 27.586-59.812 60.475 0 7.553 1.684 15.539 4.506 23.516zm75.494-23.516c0 11.046-8.954 20-20 20s-20-8.954-20-20 8.954-20 20-20 20 8.954 20 20z" fill="#ff5d7d"/><ellipse cx="382.848" cy="96.487" fill="#fff" rx="20" ry="20" transform="matrix(.707 -.707 .707 .707 43.907 298.975)"/><path d="m382.848 187.168c-11.401 0-43.583-33.496-55.494-67.164-23.956 2.516-47.83 5.927-71.801 9.352-6.441.92-12.89 1.842-19.348 2.746-33.999 33.524-1.557 70.329-28.616 89.18-27.493 19.153-47.188-10.25-78.057 4.711-22.432 10.872-12.864 36.688-42.188 48.742-29.433 12.099-42.234-24.337-77.344-1.493v189.572c85.431 22.891 166.057 11.37 245.553.011 80.952-11.568 160.796-22.971 246.446-.313v-333.47c-21.309-5.637-42.259-9.165-62.956-11.107-11.286 34.351-44.561 69.233-56.195 69.233zm-276.613 136.595c7.916-1.864 16.609.265 22.752 6.389 1.728 1.722 4.015 2.667 6.342 2.677 2.327-.01 4.615-.955 6.342-2.677 6.143-6.123 14.836-8.253 22.752-6.389 9.029 2.126 16.527 9.725 18.646 18.735 6.146 26.121-32.849 59.019-47.741 62.256-14.892-3.237-53.886-36.135-47.741-62.256 2.122-9.01 9.619-16.608 18.648-18.735z" fill="#a0e5a5"/><path d="m207.589 221.282c27.06-18.851-5.383-55.657 28.616-89.18-73.245 10.253-147.696 18.278-226.205-2.758v143.898c35.111-22.844 47.911 13.592 77.344 1.492 29.324-12.054 19.756-37.87 42.188-48.742 30.869-14.961 50.564 14.443 78.057-4.71z" fill="#99ebfa"/><path d="m141.672 330.152c-1.728 1.722-4.015 2.667-6.342 2.677-2.327-.01-4.615-.955-6.342-2.677-6.143-6.123-14.836-8.253-22.752-6.389-9.029 2.126-16.527 9.725-18.646 18.735-6.146 26.121 32.849 59.019 47.741 62.256 14.892-3.237 53.887-36.135 47.741-62.256-2.12-9.011-9.617-16.609-18.646-18.735-7.918-1.864-16.61.266-22.754 6.389z" fill="#ff9eb1"/></g><path d="m504.557 119.375c-17.355-4.591-34.781-7.913-52.932-10.122.778-4.218 1.223-8.492 1.223-12.766 0-38.501-31.104-70.042-69.406-70.472-.134-.005-.27-.008-.405-.008l-.162.002c-.287-.003-.435-.001-.619.006-38.302.43-69.407 31.971-69.407 70.472 0 4.994.601 9.987 1.64 14.89-20.251 2.358-40.573 5.254-60.349 8.079-39.646 5.665-80.641 11.522-121.644 12.812-5.521.174-9.854 4.789-9.681 10.31.17 5.413 4.611 9.686 9.989 9.686.106 0 .214-.002.32-.005 27.617-.869 54.991-3.726 81.906-7.207-6.505 14.565-6.024 28.858-5.638 40.267.503 14.858.394 22.245-7.52 27.758-10.465 7.294-19.01 5.126-30.839 2.123-12.328-3.13-27.67-7.023-45.862 1.794-13.705 6.643-18.529 17.836-22.405 26.83-4.026 9.343-7.206 16.723-19.224 21.662-8.814 3.621-15.001 1.284-25.179-3.156-9.717-4.238-22.203-9.672-38.363-4.833v-115.354c7.064 1.633 14.227 3.077 21.41 4.314 5.451.944 10.615-2.714 11.553-8.156s-2.714-10.615-8.156-11.553c-10.895-1.878-21.734-4.254-32.218-7.063-3.005-.804-6.211-.166-8.677 1.726-2.466 1.892-3.912 4.823-3.912 7.933v143.721.041 189.708c0 4.526 3.04 8.488 7.412 9.659 36.997 9.913 73.095 13.521 108.48 13.52 48.213-.001 95.099-6.698 141.075-13.268 81.649-11.667 158.773-22.687 242.474-.545 3.001.792 6.199.148 8.658-1.744s3.899-4.82 3.899-7.924v-333.47c.001-4.538-3.055-8.507-7.441-9.667zm-121.833-73.363c.041-.001.083-.001.124-.002.042.001.084.001.125.002 27.501.174 49.875 22.816 49.875 50.475 0 14.491-7.801 33.57-21.401 52.346-12.621 17.423-24.553 26.757-28.599 28.222-4.046-1.465-15.978-10.799-28.599-28.223-13.601-18.775-21.401-37.854-21.401-52.345 0-27.659 22.374-50.301 49.876-50.475zm109.275 403.738c-82.986-18.951-161.662-7.713-237.865 3.177-75.416 10.775-153.333 21.908-234.134 2.127v-176.079c12.174-6.241 19.985-2.843 30.365 1.686 7.003 3.055 15.141 6.604 24.807 6.604 4.912 0 10.22-.917 15.974-3.282 19.556-8.038 25.34-21.46 29.987-32.245 3.675-8.526 6.079-13.509 12.761-16.747 11.624-5.634 21.17-3.212 32.22-.406 13.023 3.304 29.229 7.417 47.191-5.099 17.188-11.974 16.598-29.438 16.075-44.846-.507-14.984-.979-29.18 11.651-43.12 5.341-.752 10.662-1.512 15.958-2.269 20.939-2.991 42.512-6.069 63.829-8.472 5.67 13.108 13.225 24.441 18.726 31.815 4.308 5.773 26.64 34.573 43.303 34.573s38.996-28.8 43.304-34.573c5.792-7.763 13.859-19.916 19.607-33.908 15.88 1.792 31.131 4.472 46.24 8.136v312.928z"/><path d="m166.718 314.03c-11.341-2.673-23.001.446-31.388 8.345-8.391-7.899-20.048-11.021-31.387-8.345-12.619 2.971-23.104 13.491-26.089 26.178-2.534 10.77.275 23.039 8.125 35.48 12.312 19.514 34.771 36.131 47.227 38.838.699.152 1.412.229 2.124.229s1.425-.076 2.124-.229c12.456-2.707 34.915-19.324 47.227-38.839 7.849-12.441 10.658-24.71 8.124-35.479-2.984-12.686-13.468-23.206-26.087-26.178zm1.048 50.987c-9.057 14.354-24.872 26.125-32.436 29.264-7.563-3.139-23.379-14.909-32.436-29.264-3.433-5.441-7.186-13.367-5.571-20.229 1.269-5.394 5.876-10.036 11.206-11.291 1.127-.266 2.261-.396 3.381-.396 3.736 0 7.322 1.446 10.017 4.133.001 0 .001.001.001.001 3.597 3.584 8.34 5.57 13.448 5.594 5.015-.023 9.757-2.009 13.357-5.595 3.502-3.492 8.507-4.89 13.399-3.737 5.328 1.255 9.935 5.897 11.203 11.292 1.615 6.86-2.137 14.786-5.569 20.228z"/><path d="m382.848 126.486c16.542 0 30-13.458 30-30s-13.458-30-30-30-30 13.458-30 30 13.458 30 30 30zm0-40c5.514 0 10 4.486 10 10s-4.486 10-10 10-10-4.486-10-10 4.486-10 10-10z"/><path d="m270.901 335.134c-5.529-.331-10.247 3.88-10.572 9.393-.313 5.274-4.696 9.406-9.981 9.406h-27.5c-5.522 0-10 4.478-10 10s4.478 10 10 10h27.5c15.856 0 29.011-12.398 29.946-28.227.326-5.513-3.879-10.246-9.393-10.572z"/><path d="m317.849 270.117h-27.501c-16.542 0-30 13.458-30 30 0 5.522 4.478 10 10 10s10-4.478 10-10c0-5.514 4.486-10 10-10h27.501c5.522 0 10-4.478 10-10s-4.478-10-10-10z"/><path d="m382.848 217.168c-5.522 0-10 4.478-10 10v32.949c0 5.514-4.485 10-9.999 10-5.522 0-10 4.478-10 10s4.478 10 10 10c16.542 0 29.999-13.458 29.999-30v-32.949c0-5.522-4.478-10-10-10z"/><path d="m87.82 151.721c5.522 0 10-4.478 10-10s-4.478-10-10-10h-.007c-5.522 0-9.996 4.478-9.996 10s4.481 10 10.003 10z"/></svg>