<svg id="Layer_1" enable-background="new 0 0 512 512" height="512" viewBox="0 0 512 512" width="512" xmlns="http://www.w3.org/2000/svg"><path d="m425.55 352.463 6.894-7.982c3.087-3.575 3.306-8.805.528-12.626l-18.702-25.716c-2.367-3.254-6.148-5.18-10.172-5.18h-13.08c-2.389 0-4.327-1.937-4.327-4.327v-28.612c0-3.778-4.502-5.741-7.271-3.171l-10.533 9.781c-.8.743-1.852 1.156-2.944 1.156h-19.146c-2.39 0-4.327-1.937-4.327-4.327v-6.314c0-2.389-1.937-4.327-4.327-4.327h-19.2c-2.949 0-4.653-3.346-2.918-5.731l2.502-3.439 2.072-2.574c1.089-1.44 1.19-3.458.14-5.022l-22.397-26.835c-.865-1.288-.974-2.941-.286-4.332l32.028-64.697c.556-1.122 1.57-1.949 2.781-2.266 58.261-15.259 54.888-14.479 55.87-14.447l15.067.502c2.535.084 4.598-2.019 4.465-4.552l-3.011-14.577c-.113-2.148-1.787-3.887-3.929-4.081l-11.158-1.014c-3.338-.303-5.078-4.124-3.116-6.842l10.127-14.021c1.607-2.225.762-5.366-1.745-6.484l-36.871-16.45c-1.521-.679-3.296-.424-4.565.655l-10.146 8.624c-.885.753-2.036 1.117-3.194 1.012l-18.692-1.699c-1.239-.113-2.37-.753-3.103-1.758l-35.148-48.166c-.288-.395-.641-.738-1.044-1.015l-19.385-13.328c-1.118-.769-2.532-.968-3.819-.539l-6.703 2.234c-2.756.919-3.842 4.239-2.16 6.609l9.592 13.516c1.168 1.645 1.043 3.879-.3 5.385l-36.63 41.05c-.353.395-.775.722-1.245.965l-41.46 21.378c-.885.457-1.586 1.205-1.984 2.118l-16.48 37.843c-.757 1.739-2.559 2.782-4.445 2.573l-5.768-.641c-1.95-.217-3.51-1.718-3.801-3.658l-1.118-7.456c-.26-1.731-1.536-3.135-3.235-3.557l-12.927-3.214-9.697-2.826c-3.205-.934-4.189-4.992-1.769-7.291l4.553-4.325c1.902-1.807 1.771-4.877-.277-6.515l-17.52-15.561c-1.895-1.516-4.666-1.177-6.14.75l-22.017 28.791c-1.1 1.438-1.188 3.408-.221 4.939l23.916 33.763c1.431 2.265.479 5.274-1.994 6.304l-6.866 2.861c-2.473 1.031-3.425 4.039-1.994 6.304l8.074 12.292c.872 1.381 2.449 2.153 4.075 1.996l15.713-1.521c1.664-.161 3.272.651 4.13 2.086l109.156 182.588c1.113 1.863 1.786 3.955 1.966 6.118l2.01 21.279c.398 4.777 2.908 9.127 6.844 11.862l149.599 96.947c2.082 1.447 4.956.802 6.22-1.396l27.662-48.108c.791-1.375.766-3.073-.066-4.424l-14.101-22.915c-.564-.917-.766-2.012-.567-3.07l13.08-69.325c.142-.751.479-1.45.977-2.027z" fill="#24d3b5"/><path d="m415.007 473.732-16.439 28.599c-1.27 2.2-4.14 2.84-6.22 1.4l-149.604-96.956c-3.93-2.73-6.44-7.08-6.84-11.86l-2.01-21.279c-.18-2.16-.85-4.25-1.97-6.12l-109.156-182.583c-.86-1.43-2.46-2.25-4.13-2.09l-15.709 1.52c-1.63.16-3.2-.61-4.08-1.99l-8.07-12.289c-1.43-2.27-.48-5.28 1.99-6.31l6.87-2.86c2.47-1.03 3.43-4.04 2-6.3l-23.919-33.769c-.97-1.53-.88-3.5.22-4.94l16.39-21.429 19.159 27.039c1.43 2.27.48 5.27-1.99 6.3l-6.87 2.87c-2.47 1.03-3.43 4.03-1.99 6.3l31.209 23.389c.88 1.38 2.45 2.15 4.08 1.99l15.709-1.52c1.67-.16 3.27.66 4.13 2.09l109.156 182.583c1.12 1.87 1.79 3.96 1.97 6.12l2.01 21.279c.4 4.78 2.91 9.13 6.84 11.86z" fill="#20b7a1"/><path d="m438.116 349.387c5.4-6.25 5.78-15.269.92-21.939l-18.699-25.719c-3.77-5.18-9.84-8.27-16.239-8.27h-9.91v-25.439c0-10.32-12.329-15.669-19.869-8.67l-9.62 8.94h-14.729v-3.14c0-6.533-5.296-11.83-11.829-11.83h-11.35c3.27-4.6 2.61-10.61-.29-14.07l-20.789-24.909 30.449-61.528 52.788-13.83 14.61.49c7.97.26 13.369-7.23 12.059-13.559l-2.93-14.17c-.63-5.5-5.1-9.94-10.68-10.45l-5.61-.51 6.86-9.5c4.4-6.09 2.08-14.679-4.77-17.729l-36.869-16.449c-4.13-1.84-9.03-1.14-12.48 1.79l-9.13 7.76-15.929-1.45c-37.298-51.108-34.819-48.178-37.159-49.778-25.708-17.678-21.778-17.478-36.528-12.568-7.52 2.51-10.5 11.599-5.9 18.069l8.12 11.45-34.549 38.729-40.939 21.109c-2.41 1.24-4.34 3.3-5.42 5.79l-15.549 35.689-1.02-.11-.75-5.04c-.72-4.75-4.19-8.57-8.85-9.72-15.009-3.74-11.57-2.83-17.029-4.42 6.18-5.87 5.07-13.94-.02-18.179-.23-.21-17.469-15.529-17.709-15.719-5.18-4.14-12.74-3.22-16.779 2.05l-22.019 28.798c-3.2 4.18-3.12 9.93-.38 13.829l21.489 30.339-3.2 1.33c-6.76 2.82-9.36 11.039-5.45 17.229.02.04.05.08.07.11l8.05 12.25c2.4 3.76 6.64 5.82 11.089 5.39l13.72-1.33 33.689 56.358c1.35 2.26 3.8 3.65 6.43 3.65h.01c5.82 0 9.42-6.35 6.44-11.35l-34.729-58.078c-2.33-3.9-6.77-6.14-11.29-5.7l-13.809 1.33-4.92-7.49 3.34-1.39c3.22-1.34 5.67-4.02 6.72-7.35 1.06-3.33.59-6.93-1.27-9.88-.07-.11-.15-.22-.22-.33l-22.439-31.667 18.519-24.219 12.38 11c-1.82 1.74-7.19 5.88-5.39 13.309.99 4.1 4.13 7.38 8.18 8.56 12.74 3.72 6.61 2.07 20.859 5.61l.8 5.36c.792 5.304 5.056 9.41 10.386 10l5.773.639c5.18.58 10.069-2.25 12.149-7.03l16.029-36.809c43.918-22.649 41.848-21.249 43.858-23.499l36.629-41.048c3.7-4.14 4.03-10.2.82-14.719l-7.11-10.02 1.14-.38 17.639 12.119 34.829 47.738c2 2.74 5.09 4.49 8.48 4.8 26.639 2.42 21.339 4.1 36.049-8.4l31.479 14.05-7.84 10.86c-5.36 7.41-.6 17.869 8.51 18.699l8.77.79 1.72 8.33c-16.699-.55-3.03-2.96-69.017 14.319-3.31.87-6.08 3.13-7.6 6.2l-32.029 64.698c-1.87 3.79-1.57 8.33.78 11.84.15.21.31.42.47.62l20.449 24.499c-.7.86-.33.39-3.07 4.16-5.34 7.33-.09 17.639 8.98 17.639h16.029v3.14c0 6.506 5.323 11.83 11.83 11.83h19.139c5.66 0 8.15-3.25 13.249-7.99v21.329c0 6.53 5.31 11.829 11.83 11.829 13.559 0 15.219-.62 17.189 2.09l18.699 25.719c.73 1.01.68 2.37-.14 3.31l-6.89 7.99c-2.87 3.32-1.57-.29-15.749 74.857-.55 2.9 0 5.88 1.55 8.39l13.11 21.309-25.059 43.568-67.747-43.938c-4.991-3.235-11.582.348-11.582 6.295 0 2.543 1.288 4.913 3.422 6.295l70.367 45.627c5.68 3.84 13.449 2.06 16.879-3.9l27.659-48.108c2.17-3.77 2.1-8.4-.18-12.1l-13.46-21.869 12.7-67.277z"/><path d="m297.559 433.366-50.616-32.801c-2.06-1.47-3.36-3.75-3.57-6.35l-2.01-21.199c-.27-3.28-1.31-6.52-3-9.34l-58.628-97.416c-1.35-2.26-3.8-3.65-6.44-3.65-4.38 0-7.51 3.6-7.51 7.51 0 1.28.34 2.6 1.08 3.83l58.618 97.416c.53.88.85 1.88.94 2.98l2 21.189c.59 7.04 4.25 13.379 10.04 17.399.07.05.14.09.2.14l50.736 32.882c4.991 3.235 11.582-.348 11.582-6.295 0-2.543-1.288-4.912-3.422-6.295z"/></svg>