<svg id="Layer_1" enable-background="new 0 0 512 512" height="512" viewBox="0 0 512 512" width="512" xmlns="http://www.w3.org/2000/svg"><path d="m425.526 352.447 6.892-7.98c3.087-3.574 3.305-8.803.528-12.622l-18.698-25.71c-2.366-3.254-6.146-5.179-10.169-5.179h-13.077c-2.389 0-4.326-1.937-4.326-4.326v-28.605c0-3.777-4.501-5.74-7.269-3.17l-10.531 9.779c-.8.743-1.852 1.156-2.943 1.156h-19.142c-2.389 0-4.326-1.937-4.326-4.326v-6.312c0-2.389-1.937-4.326-4.326-4.326h-19.196c-2.949 0-4.652-3.346-2.917-5.73l2.502-3.438 2.072-2.574c1.089-1.44 1.19-3.457.14-5.021l-22.392-26.828c-.865-1.288-.974-2.94-.286-4.331l32.021-64.682c.555-1.122 1.57-1.948 2.781-2.265 58.247-15.255 54.875-14.476 55.857-14.443l15.063.502c2.534.084 4.597-2.019 4.464-4.551l-3.01-14.573c-.113-2.147-1.786-3.886-3.928-4.08l-11.155-1.014c-3.338-.303-5.077-4.123-3.115-6.84l10.124-14.018c1.607-2.225.762-5.365-1.744-6.483l-36.862-16.446c-1.52-.678-3.295-.424-4.564.654l-10.143 8.622c-.885.752-2.036 1.117-3.193 1.012l-18.689-1.699c-1.239-.113-2.369-.753-3.103-1.758l-35.14-48.154c-.288-.395-.641-.738-1.044-1.015l-19.38-13.324c-1.118-.769-2.531-.968-3.818-.539l-6.702 2.234c-2.756.919-3.841 4.238-2.16 6.607l9.59 13.513c1.167 1.645 1.043 3.878-.3 5.383l-36.621 41.04c-.353.395-.775.722-1.245.965l-41.45 21.372c-.885.456-1.586 1.204-1.983 2.118l-16.476 37.834c-.757 1.739-2.559 2.781-4.443 2.572l-5.766-.641c-1.949-.217-3.509-1.718-3.8-3.657l-1.118-7.455c-.26-1.73-1.536-3.134-3.234-3.556l-12.923-3.213-9.694-2.826c-3.204-.934-4.188-4.99-1.769-7.289l4.552-4.324c1.901-1.806 1.771-4.875-.277-6.514l-17.516-15.557c-1.894-1.516-4.664-1.177-6.138.75l-22.013 28.784c-1.099 1.437-1.188 3.407-.221 4.937l23.91 33.755c1.43 2.265.479 5.272-1.993 6.303l-6.865 2.86c-2.473 1.03-3.424 4.038-1.993 6.303l8.072 12.289c.872 1.381 2.448 2.153 4.074 1.996l15.709-1.52c1.664-.161 3.272.651 4.129 2.086l109.129 182.544c1.113 1.862 1.786 3.954 1.966 6.116l2.009 21.273c.398 4.776 2.907 9.125 6.842 11.859l149.563 96.924c2.081 1.446 4.955.801 6.218-1.396l27.655-48.097c.791-1.375.765-3.072-.066-4.423l-14.098-22.909c-.564-.917-.766-2.011-.567-3.069l13.077-69.308c.142-.75.479-1.449.978-2.026z" fill="#24d3b5"/><path d="m414.985 473.687-16.435 28.593c-1.27 2.199-4.139 2.839-6.218 1.4l-149.568-96.933c-3.929-2.729-6.438-7.078-6.838-11.857l-2.009-21.274c-.18-2.159-.85-4.249-1.969-6.118l-109.132-182.54c-.86-1.43-2.459-2.249-4.129-2.089l-15.706 1.519c-1.629.16-3.199-.61-4.079-1.989l-8.068-12.286c-1.43-2.269-.48-5.279 1.989-6.308l6.868-2.859c2.469-1.03 3.429-4.039 1.999-6.298l-23.913-33.76c-.97-1.53-.88-3.499.22-4.939l16.386-21.424 19.155 27.033c1.43 2.269.48 5.269-1.989 6.298l-6.868 2.869c-2.469 1.03-3.429 4.029-1.989 6.298l31.201 23.383c.88 1.38 2.449 2.149 4.079 1.989l15.706-1.519c1.67-.16 3.269.66 4.129 2.089l109.129 182.539c1.12 1.869 1.79 3.959 1.969 6.118l2.009 21.274c.4 4.779 2.909 9.128 6.838 11.857z" fill="#20b7a1"/><path d="m234.443 222.76c0-46.739 38.215-84.553 85.104-83.9 45.176.629 82.052 37.487 82.703 82.663.433 30.051-14.936 56.539-38.33 71.699-3.469 2.248-6.365 5.275-8.401 8.873l-30.134 53.233c-3.096 5.468-10.972 5.468-14.068 0l-30.134-53.232c-2.04-3.604-4.944-6.632-8.418-8.885-23.062-14.953-38.322-40.918-38.322-70.451z" fill="#766d78"/><path d="m335.854 336.843-10.469 18.489c-3.1 5.46-10.969 5.46-14.069 0l-30.128-53.237c-2.04-3.6-4.95-6.63-8.419-8.889-23.069-14.949-38.328-40.917-38.328-70.445 0-46.737 38.217-84.554 85.105-83.905 5.57.08 11.009.71 16.279 1.83-37.928 8.06-66.386 41.747-66.386 82.075 0 29.528 15.259 55.496 38.328 70.445 3.47 2.26 6.379 5.29 8.419 8.889z" fill="#655e67"/><path d="m370.192 222.911c0 22.578-14.429 41.777-34.568 48.897-5.4 1.9-11.209 2.94-17.269 2.94-6.059 0-11.879-1.04-17.279-2.95-20.139-7.11-34.568-26.318-34.568-48.887 0-22.578 14.429-41.777 34.568-48.897 5.4-1.91 11.219-2.95 17.279-2.95s11.869 1.04 17.269 2.95c20.139 7.109 34.568 26.318 34.568 48.897z" fill="#e04955"/><path d="m335.624 174.014v97.794c-5.4 1.9-11.209 2.94-17.269 2.94-6.059 0-11.879-1.04-17.279-2.95v-97.784c5.4-1.91 11.219-2.95 17.279-2.95s11.869 1.04 17.269 2.95z" fill="#fff5f4"/><path d="m438.129 349.39c5.251-6.069 5.851-15.138.924-21.938l-18.706-25.713c-3.762-5.18-9.832-8.273-16.237-8.273h-9.91v-19.635c28.485-42.239 17.121-100.909-28-128.871l22.764-5.961c.048.002 14.719.488 14.719.488 7.203.096 12.432-5.826 12.086-12.432-.048-.932-.033-.591-3.069-15.283-.62-5.5-5.088-9.937-10.685-10.461l-5.606-.507 6.851-9.499c4.432-6.109 2.051-14.694-4.755-17.732-40.308-17.982-38.252-17.473-41.684-17.473-2.79 0-5.502.989-7.67 2.812l-9.12 7.762-15.934-1.449c-37.384-51.23-34.796-48.128-37.163-49.778-25.812-17.746-21.78-17.488-36.534-12.562-4.832 1.616-8.079 6.129-8.079 11.23 0 4.82 1.856 6.374 10.31 18.283l-8.505 9.532c-2.758 3.09-2.488 7.831.602 10.588 3.092 2.759 7.832 2.489 10.589-.602 10.606-11.885 13.193-13.619 13.193-19.292 0-4.841-2.019-6.615-9.297-16.868l1.142-.382 17.657 12.139 34.798 47.685c2.003 2.769 5.104 4.531 8.496 4.833 26.646 2.425 21.288 4.159 36.041-8.397l31.48 14.044c-8.304 11.513-10.084 12.999-10.084 17.774 0 6.17 4.63 11.238 10.763 11.787l8.76.792 1.721 8.327c-16.448-.546-5.09-2.416-55.581 10.805-58.318-17.406-117.46 26.433-117.46 87.598 0 31.108 15.604 59.797 41.741 76.743 4.93 3.197 5.517 5.484 15.363 22.875 2.041 3.606 6.621 4.875 10.22 2.832 3.605-2.04 4.873-6.616 2.832-10.221l-9.39-16.588c-2.596-4.588-6.354-8.558-10.865-11.484-21.854-14.169-34.902-38.154-34.902-64.158 0-42.132 34.276-76.408 76.408-76.408 61.396 0 98.021 70.071 62.479 120.427-1.053 1.326-7.581 11.461-20.99 20.15-9.043 5.863-8.428 7.198-40.981 64.704-.063.11-.168.296-.509.296-.34 0-.444-.186-.508-.296l-5.964-10.536c-2.04-3.606-6.616-4.873-10.22-2.832-3.605 2.04-4.873 6.616-2.832 10.22l5.964 10.536c5.968 10.546 21.15 10.551 27.12 0 43.026-76.004 25.717-48.844 47.29-68.045v5.66c0 6.522 5.306 11.828 11.829 11.828 13.6 0 15.219-.615 17.183 2.093l18.702 25.707c.731 1.01.675 2.381-.134 3.316-7.294 8.444-8.831 9.59-9.564 13.521-14.143 74.967-13.285 69.924-13.285 71.524 0 2.179.601 4.313 1.749 6.192l13.113 21.307-25.049 43.568-146.791-95.132c-2.054-1.463-3.35-3.741-3.568-6.345-2.936-31.081-.454-22.922-13.51-44.761-2.126-3.554-6.732-4.714-10.285-2.589-3.554 2.126-4.714 6.73-2.589 10.285l8.503 14.224c1.049 1.75.741.883 2.941 24.17.632 7.564 4.861 14.023 10.234 17.527l149.53 96.908c5.726 3.86 13.464 1.99 16.87-3.91l27.664-48.116c2.143-3.74 2.098-8.384-.19-12.088l-13.451-21.856 12.695-67.291z"/><path d="m129.215 181.081c-2.367-3.94-6.835-6.134-11.281-5.691l-13.81 1.337-4.918-7.49c2.766-1.151 10.618-3.47 10.618-12.317 0-2.531-.845-4.935-2.048-6.628l-22.436-31.678 18.517-24.21 12.381 10.995-2.05 1.946c-6.533 6.215-4.029 17.347 4.839 19.923 12.718 3.711 6.585 2.062 20.856 5.608l.805 5.359c.791 5.291 5.058 9.405 10.391 10.005l5.778.641c5.147.576 10.073-2.322 12.133-7.04l16.027-36.799c49.034-25.286 40.083-19.267 50.327-30.746 2.758-3.09 2.488-7.831-.602-10.588-3.089-2.757-7.831-2.487-10.588.602l-6.075 6.806-40.936 21.11c-2.404 1.242-4.327 3.29-5.424 5.788l-15.549 35.7-1.01-.112-.758-5.049c-.71-4.727-4.172-8.541-8.848-9.723-15.004-3.728-11.563-2.82-17.028-4.416 2.606-2.47 4.234-5.282 4.234-9.098 0-3.531-1.547-6.827-4.251-9.08l-17.411-15.463c-4.699-4.187-12.747-3.88-17.076 1.801-24.017 31.401-24.452 30.71-24.452 35.974 0 5.002.216 4.057 23.538 36.981-2.653 1.104-10.478 3.415-10.478 12.257 0 4.552 1.587 5.947 9.915 18.63 2.392 3.752 6.585 5.855 11.125 5.422l13.707-1.326 84.231 140.89c1.405 2.349 3.892 3.652 6.444 3.652 1.309 0 2.637-.343 3.842-1.063 3.554-2.126 4.714-6.73 2.589-10.285z"/><path d="m373.696 200.146c-12.551-30.518-47.592-45.136-78.107-32.583-30.588 12.577-45.165 47.512-32.584 78.106 9.498 23.094 31.873 37.083 55.423 37.083 42.434 0 71.418-43.335 55.268-82.606zm-30.573 58.935v-72.324c25.464 17.391 25.307 55 0 72.324zm-49.546-72.352v72.324c-25.278-17.265-25.527-54.92 0-72.324zm14.999 78.889v-85.443c6.223-1.427 12.806-1.541 19.549.012v85.455c-6.567 1.504-13.238 1.43-19.549-.024z"/></svg>