<svg id="FilledOutline" height="512" viewBox="0 0 512 512" width="512"
	xmlns="http://www.w3.org/2000/svg">
	<path d="m456 288c0 110.46-89.54 200-200 200q-7.545 0-14.94-.55a199.976 199.976 0 1 1 212.74-229.25 201.875 201.875 0 0 1 2.2 29.8z" fill="#0093ba"/>
	<path d="m200 296-24 40-48 8-38.44 54.92a200.2 200.2 0 0 1 -11.88-201.57l2.32 2.65 48 40 56 24z" fill="#88bf40"/>
	<path d="m398.19 147.36-6.19 4.64-40 8-32 48-8 80-32 16-56-72-32-24-8-48-56-16-2.36-7.67a199.977 199.977 0 0 1 272.55 11.03z" fill="#88bf40"/>
	<path d="m456 288c0 110.46-89.54 200-200 200q-7.545 0-14.94-.55l-17.06-55.45 80-16 40-56 8-56 72-16 29.8-29.8a201.875 201.875 0 0 1 2.2 29.8z" fill="#88bf40"/>
	<g fill="#ef5249">
		<path d="m408 232c0 24-24 40-24 40s-24-16-24-40a24 24 0 0 1 48 0z"/>
		<path d="m328 24h144a16 16 0 0 1 16 16v96a16 16 0 0 1 -16 16h-24l-48 24v-24h-72a16 16 0 0 1 -16-16v-96a16 16 0 0 1 16-16z"/>
		<path d="m280 144c0 24-24 40-24 40s-24-16-24-40a24 24 0 0 1 48 0z"/>
		<path d="m160 216c0 24-24 40-24 40s-24-16-24-40a24 24 0 0 1 48 0z"/>
		<path d="m288 360c0 24-24 40-24 40s-24-16-24-40a24 24 0 0 1 48 0z"/>
	</g>
	<path d="m464 288a208.232 208.232 0 0 0 -25.489-99.846l-14.03 7.692a191.449 191.449 0 0 1 20.725 59.634l-25.216 25.22-27.99 6.216v-10.93c7.473-6.033 24-21.873 24-43.986a32 32 0 0 0 -64 0c0 22.113 16.527 37.953 24 43.986v14.486l-25.735 5.718a8 8 0 0 0 -6.185 6.678l-7.724 54.07-37.027 51.837-27.329 5.466v-10.255c7.473-6.033 24-21.873 24-43.986a32 32 0 0 0 -64 0c0 22.113 16.527 37.953 24 43.986v13.455l-33.569 6.714a8 8 0 0 0 -6.077 10.2l13.493 43.858a192.192 192.192 0 0 1 -130.5-79.32l33.284-47.552 44.687-7.447a8 8 0 0 0 5.545-3.776l24-40a8 8 0 0 0 .295-7.694l-16-32a8 8 0 0 0 -4-3.776l-16-6.857-6.3 14.707 13.306 5.7 12.726 25.451-19.84 33.067-44.356 7.392a8 8 0 0 0 -5.239 3.3l-31.46 44.947a191.712 191.712 0 0 1 -9.7-173.706l10.591 8.826 10.242-12.291-13.553-11.284a193.234 193.234 0 0 1 35.115-45.935 7.981 7.981 0 0 0 3.112 1.728l51.138 14.607 7.168 43.012a8 8 0 0 0 3.092 5.088l31.143 23.357 55.343 71.154a7.994 7.994 0 0 0 9.892 2.244l32-16a8 8 0 0 0 4.382-6.359l7.8-78.017 20.224-30.341-13.312-8.876-21.33 32a7.988 7.988 0 0 0 -1.3 3.642l-7.561 75.612-22.191 11.1-51.974-66.822a7.937 7.937 0 0 0 -1.516-1.494l-29.436-22.077-7.472-44.838a8 8 0 0 0 -5.694-6.377l-49.948-14.271a191.067 191.067 0 0 1 119.75-42.037 194.211 194.211 0 0 1 30.73 2.444l2.54-15.8a210.352 210.352 0 0 0 -33.27-2.644c-114.691 0-208 93.309-208 208s93.309 208 208 208 208-93.309 208-208zm-96-56a16 16 0 0 1 32 0c0 13.56-9.974 24.447-15.986 29.778-6.014-5.353-16.014-16.291-16.014-29.778zm-120 128a16 16 0 0 1 32 0c0 13.56-9.974 24.447-15.986 29.778-6.014-5.353-16.014-16.291-16.014-29.778zm8 120c-2.993 0-5.968-.078-8.928-.215l-12.823-41.677 21.751-4.35v22.242h16v-25.442l33.569-6.713a8 8 0 0 0 4.941-3.2l40-56a8.016 8.016 0 0 0 1.41-3.518l7.217-50.523 16.863-3.742v29.138h16v-32.694l33.735-7.5a8.014 8.014 0 0 0 3.922-2.153l17.943-17.941q.4 6.129.4 12.288c0 105.869-86.131 192-192 192z"/>
	<path d="m264 224v-36.014c7.473-6.033 24-21.873 24-43.986a32 32 0 0 0 -64 0c0 22.113 16.527 37.953 24 43.986v36.014zm-24-80a16 16 0 0 1 32 0c0 13.56-9.974 24.447-15.986 29.778-6.014-5.353-16.014-16.291-16.014-29.778z"/>
	<path d="m144 312v-52.014c7.473-6.033 24-21.873 24-43.986a32 32 0 0 0 -64 0c0 22.113 16.527 37.953 24 43.986v52.014zm-24-96a16 16 0 0 1 32 0c0 13.56-9.974 24.447-15.986 29.778-6.014-5.353-16.014-16.291-16.014-29.778z"/>
	<path d="m472 16h-144a24.028 24.028 0 0 0 -24 24v96a24.028 24.028 0 0 0 24 24h64v16a8 8 0 0 0 11.578 7.155l46.311-23.155h22.111a24.028 24.028 0 0 0 24-24v-96a24.028 24.028 0 0 0 -24-24zm8 120a8.009 8.009 0 0 1 -8 8h-24a7.994 7.994 0 0 0 -3.578.845l-36.422 18.211v-11.056a8 8 0 0 0 -8-8h-72a8.009 8.009 0 0 1 -8-8v-96a8.009 8.009 0 0 1 8-8h144a8.009 8.009 0 0 1 8 8z"/>
	<path d="m352 48h16v16h-16z"/>
	<path d="m336 80h128v16h-128z"/>
	<path d="m336 112h96v16h-96z"/>
	<path d="m384 48h80v16h-80z"/>
	<path d="m117.43 111.992a222.492 222.492 0 0 1 123.114-47.468l-1.088-15.962a240.16 240.16 0 0 0 -211.672 164.958l15.216 4.96a223.529 223.529 0 0 1 74.43-106.488z"/>
	<path d="m19.554 246.63 15.763 2.74c.9-5.167 1.993-10.363 3.251-15.445l-15.529-3.85c-1.351 5.447-2.522 11.018-3.485 16.555z"/>
	<path d="m379.581 474.855 8.838 13.338a240.366 240.366 0 0 0 98.331-133.993l-15.381-4.4a224.354 224.354 0 0 1 -91.788 125.055z"/>
	<path d="m280 208h16v16h-16z"/>
	<path d="m96 296h16v16h-16z"/>
	<path d="m408 320h16v16h-16z"/>
	<path d="m288 440h16v16h-16z"/>
</svg>