<svg height="496pt" viewBox="-2 0 496 496" width="496pt" xmlns="http://www.w3.org/2000/svg"><path d="m132.910156 8v336l16-16 12.480469 12.480469 30.320313-30.320313 4.5625-4.480468c-19.601563-24.558594-31.363282-55.757813-31.363282-89.679688 0-79.519531 64.480469-144 144-144 79.523438 0 144 64.480469 144 144s-64.476562 144-144 144c-34.078125 0-65.4375-11.839844-90.078125-31.679688l-34.800781 34.800782 12.878906 12.878906-64 64v48h352v-480zm0 0" fill="#e6e9ed"/><g fill="#b4dd7f"><path d="m436.910156 424c8.800782 0 16 7.199219 16 16s-7.199218 16-16 16c-8.796875 0-16-7.199219-16-16 0-3.121094.882813-6 2.480469-8.480469 2.800781-4.480469 7.839844-7.519531 13.519531-7.519531zm0 0"/><path d="m388.910156 400c0 3.121094-.878906 6-2.476562 8.480469-2.800782 4.480469-7.839844 7.519531-13.523438 7.519531-5.679687 0-10.71875-3.039062-13.519531-7.519531-1.597656-2.480469-2.480469-5.359375-2.480469-8.480469 0-8.800781 7.203125-16 16-16 8.800782 0 16 7.199219 16 16zm0 0"/><path d="m322.433594 431.519531c1.597656 2.480469 2.476562 5.359375 2.476562 8.480469 0 8.800781-7.199218 16-16 16-8.796875 0-16-7.199219-16-16s7.203125-16 16-16c5.683594 0 10.722656 3.039062 13.523438 7.519531zm0 0"/><path d="m228.910156 440c0 8.835938-7.160156 16-16 16-8.835937 0-16-7.164062-16-16s7.164063-16 16-16c8.839844 0 16 7.164062 16 16zm0 0"/></g><path d="m70.910156 488c-18.796875 0-34-15.199219-34-33.921875 0-9.039063 3.601563-17.679687 10-24l86-86.078125 16-16 48 48-64 64v.078125l-38 38c-6.398437 6.320313-15.039062 9.921875-24 9.921875zm0 0" fill="#cf9e76"/><path d="m196.273438 305.679688c6.636718 8.398437 14.238281 16 22.558593 22.640624l-34.800781 34.800782-22.640625-22.640625 30.320313-30.320313zm0 0" fill="#aab2bd"/><path d="m116.910156 216-24 32h-80l16-32-16-32h80zm0 0" fill="#fcd770"/><path d="m164.910156 216c0-79.519531 64.480469-144 144-144 79.523438 0 144 64.480469 144 144s-64.476562 144-144 144c-34.078125 0-65.4375-11.839844-90.078125-31.679688-8.320312-6.640624-15.921875-14.242187-22.558593-22.640624-19.601563-24.558594-31.363282-55.757813-31.363282-89.679688zm0 0" fill="#ffeaa7"/><path d="m196.910156 216c0-61.839844 50.160156-112 112-112 61.84375 0 112 50.160156 112 112s-50.15625 112-112 112c-61.839844 0-112-50.160156-112-112zm0 0" fill="#ffc729"/><path d="m244.910156 216c0-35.359375 28.640625-64 64-64 35.363282 0 64 28.640625 64 64s-28.636718 64-64 64c-35.359375 0-64-28.640625-64-64zm0 0" fill="#ffeaa7"/><path d="m340.910156 216c0 17.671875-14.324218 32-32 32-17.671875 0-32-14.328125-32-32s14.328125-32 32-32c17.675782 0 32 14.328125 32 32zm0 0" fill="#ffc729"/><path d="m124.910156 0v192h16v-176h336v464h-336v-36.65625l67.347656-67.34375-12.019531-12.015625 24.449219-24.449219c24.90625 17.839844 55.320312 28.464844 88.222656 28.464844 83.816406 0 152-68.183594 152-152s-68.183594-152-152-152c-81.109375 0-147.390625 63.910156-151.589844 144h-36.367187l-24-32h-96.953125l20 40-20 40h96.945312l24-32h36.367188c1.558594 29.824219 11.679688 57.359375 28.054688 80.222656l-24.445313 24.449219-11.984375-11.984375-8.027344 8.03125v-84.71875h-16v100.71875l-83.679687 83.6875c-7.917969 7.914062-12.277344 18.449219-12.277344 29.65625 0 23.128906 18.816406 41.9375 41.933594 41.9375 11.203125 0 21.730469-4.359375 29.65625-12.28125l24.367187-24.375v36.65625h368v-496zm-35.964844 240h-63.050781l12-24-12-24h63.058594l18 24zm100.375-16c4.144532 62.441406 56.128907 112 119.589844 112 28.808594 0 56.707032-10.457031 78.570313-29.433594l-10.496094-12.078125c-18.945313 16.449219-43.121094 25.511719-68.074219 25.511719-54.644531 0-99.476562-42.390625-103.589844-96h32.0625c4 35.945312 34.539063 64 71.527344 64 39.699219 0 72-32.296875 72-72s-32.300781-72-72-72c-36.988281 0-67.535156 28.054688-71.527344 64h-32.109374c1.71875-22.089844 10.460937-43.175781 25.140624-60.089844l-12.078124-10.484375c-17.214844 19.8125-27.320313 44.628907-29.070313 70.566407h-15.960937c4.191406-71.257813 63.320312-127.992188 135.605468-127.992188 74.992188 0 136 61.007812 136 136s-61.007812 136-136 136c-72.285156 0-131.414062-56.734375-135.589844-128zm80.398438 0c3.722656 18.230469 19.875 32 39.191406 32 22.058594 0 40-17.945312 40-40s-17.941406-40-40-40c-19.308594 0-35.46875 13.769531-39.191406 32h-16.167969c3.90625-27.089844 27.210938-48 55.359375-48 30.882813 0 56 25.128906 56 56s-25.117187 56-56 56c-28.148437 0-51.453125-20.910156-55.359375-48zm16.664062-16c3.3125-9.289062 12.113282-16 22.527344-16 13.234375 0 24 10.769531 24 24s-10.765625 24-24 24c-10.414062 0-19.214844-6.710938-22.527344-16h30.5625v-16zm-90.941406 108.785156c3.984375 4.480469 8.207032 8.703125 12.6875 12.6875l-23.199218 23.199219-12.691407-12.6875zm-106.210937 155.621094c-4.902344 4.898438-11.414063 7.59375-18.34375 7.59375-14.300781 0-25.933594-11.632812-25.933594-25.9375 0-6.933594 2.695313-13.445312 7.589844-18.34375l96.410156-96.40625 36.679687 36.6875zm0 0"/><path d="m436.910156 464c13.234375 0 24-10.769531 24-24s-10.765625-24-24-24c-5.628906 0-10.75 2.03125-14.847656 5.289062l-25.75-16.097656c.367188-1.671875.597656-3.398437.597656-5.191406 0-13.230469-10.765625-24-24-24-13.230468 0-24 10.769531-24 24 0 1.792969.234375 3.519531.601563 5.191406l-25.75 16.097656c-4.097657-3.257812-9.21875-5.289062-14.851563-5.289062-10.414062 0-19.214844 6.710938-22.527344 16h-50.949218c-3.3125-9.289062-12.113282-16-22.53125-16-13.230469 0-24 10.769531-24 24s10.769531 24 24 24c10.417968 0 19.21875-6.710938 22.53125-16h50.949218c3.3125 9.289062 12.113282 16 22.527344 16 13.234375 0 24-10.769531 24-24 0-1.785156-.230468-3.519531-.597656-5.191406l25.75-16.097656c4.097656 3.257812 9.21875 5.289062 14.847656 5.289062 5.632813 0 10.746094-2.03125 14.851563-5.289062l25.757812 16.097656c-.375 1.671875-.609375 3.40625-.609375 5.191406 0 13.230469 10.769532 24 24 24zm0-32c4.410156 0 8 3.585938 8 8s-3.589844 8-8 8c-4.40625 0-8-3.585938-8-8s3.59375-8 8-8zm-224 16c-4.40625 0-8-3.585938-8-8s3.59375-8 8-8c4.410156 0 8 3.585938 8 8s-3.589844 8-8 8zm96 0c-4.40625 0-8-3.585938-8-8s3.59375-8 8-8c4.410156 0 8 3.585938 8 8s-3.589844 8-8 8zm64-40c-4.40625 0-8-3.585938-8-8s3.59375-8 8-8c4.410156 0 8 3.585938 8 8s-3.589844 8-8 8zm0 0"/><path d="m428.910156 216c0-66.167969-53.832031-120-120-120-28.804687 0-56.703125 10.457031-78.566406 29.433594l10.496094 12.078125c18.945312-16.449219 43.121094-25.511719 68.070312-25.511719 57.347656 0 104 46.65625 104 104 0 24.960938-9.054687 49.144531-25.503906 68.089844l12.082031 10.484375c18.976563-21.855469 29.421875-49.757813 29.421875-78.574219zm0 0"/><path d="m76.910156 456c0 4.417969-3.578125 8-8 8-4.417968 0-8-3.582031-8-8s3.582032-8 8-8c4.421875 0 8 3.582031 8 8zm0 0"/><path d="m156.910156 32h16v16h-16zm0 0"/><path d="m188.910156 32h240v16h-240zm0 0"/><path d="m444.910156 32h16v16h-16zm0 0"/></svg>