<?xml version="1.0" encoding="iso-8859-1"?>
<!-- Generator: Adobe Illustrator 19.0.0, SVG Export Plug-In . SVG Version: 6.00 Build 0)  -->
<svg version="1.1" id="Capa_1" xmlns="http://www.w3.org/2000/svg" xmlns:xlink="http://www.w3.org/1999/xlink" x="0px" y="0px"
	 viewBox="0 0 464 464" style="enable-background:new 0 0 464 464;" xml:space="preserve">
<g>
	<path style="fill:#322153;" d="M8,32h8v8c0,4.424,3.576,8,8,8s8-3.576,8-8v-8h8c4.424,0,8-3.576,8-8s-3.576-8-8-8h-8V8
		c0-4.424-3.576-8-8-8s-8,3.576-8,8v8H8c-4.424,0-8,3.576-8,8S3.576,32,8,32z"/>
	<path style="fill:#322153;" d="M408,352c4.424,0,8-3.576,8-8v-8h8c4.424,0,8-3.576,8-8s-3.576-8-8-8h-8v-8c0-4.424-3.576-8-8-8
		s-8,3.576-8,8v8h-8c-4.424,0-8,3.576-8,8s3.576,8,8,8h8v8C400,348.424,403.576,352,408,352z"/>
</g>
<g>
	<ellipse style="fill:#00F2A9;" cx="248.8" cy="200" rx="95.408" ry="96"/>
	<path style="fill:#00F2A9;" d="M440,96c13.232,0,24-10.768,24-24s-10.768-24-24-24s-24,10.768-24,24S426.768,96,440,96z M440,64
		c4.416,0,8,3.584,8,8s-3.584,8-8,8s-8-3.584-8-8S435.584,64,440,64z"/>
	<path style="fill:#00F2A9;" d="M40,416c13.232,0,24-10.768,24-24s-10.768-24-24-24s-24,10.768-24,24S26.768,416,40,416z M40,384
		c4.416,0,8,3.584,8,8s-3.584,8-8,8s-8-3.584-8-8S35.584,384,40,384z"/>
</g>
<g>
	<path style="fill:#322153;" d="M121.496,184c2.056,0,4.112-0.792,5.672-2.36l2.8-2.816c4.992,48.28,42.968,86.792,90.8,92.408
		l14.32,14.408c1.56,1.568,3.616,2.36,5.672,2.36c2.04,0,4.08-0.776,5.64-2.328c3.136-3.12,3.152-8.176,0.032-11.312l-2.904-2.92
		c48.04-5,86.376-43.24,91.936-91.384l14.328-14.416c3.12-3.136,3.104-8.192-0.032-11.312s-8.192-3.096-11.312,0.032l-2.8,2.816
		c-4.992-48.28-42.968-86.792-90.8-92.408l-14.32-14.408c-3.12-3.128-8.176-3.16-11.312-0.032c-3.136,3.12-3.152,8.176-0.032,11.312
		l2.904,2.92c-48.04,5-86.376,43.24-91.936,91.384l-14.328,14.416c-3.12,3.136-3.104,8.192,0.032,11.312
		C117.416,183.224,119.456,184,121.496,184z M220.568,80.968l-1.384,1.392c-3.12,3.136-3.104,8.192,0.032,11.312
		c1.56,1.552,3.6,2.328,5.64,2.328c2.056,0,4.112-0.792,5.672-2.36l12.856-12.928c39.168,4.784,70.352,35.72,75.864,74.92
		l-1.256-1.264c-3.12-3.136-8.176-3.16-11.312-0.032c-3.136,3.112-3.152,8.176-0.032,11.312L319.52,178.6
		c-4.736,39.472-35.496,70.904-74.472,76.44l1.384-1.392c3.12-3.136,3.104-8.192-0.032-11.312s-8.192-3.096-11.312,0.032
		l-12.856,12.928c-39.168-4.784-70.352-35.72-75.864-74.92l1.256,1.264c3.112,3.128,8.168,3.152,11.312,0.032
		c3.136-3.112,3.152-8.176,0.032-11.312l-12.872-12.952C150.832,117.928,181.592,86.504,220.568,80.968z"/>
	<path style="fill:#322153;" d="M232.808,208c21.944,0,39.808-17.944,39.808-40s-17.856-40-39.808-40S193,145.944,193,168
		S210.856,208,232.808,208z M232.808,144c13.128,0,23.808,10.768,23.808,24s-10.68,24-23.808,24S209,181.232,209,168
		S219.68,144,232.808,144z"/>
	<path style="fill:#322153;" d="M39.896,272h22.432c3.4,0,6.416,2.192,7.496,5.456l24.552,74.128
		c3.256,9.824,12.368,16.424,22.68,16.424h30.088c2.544,0,4.864,1.192,6.376,3.28c1.536,2.128,1.944,4.776,1.128,7.24
		l-10.904,32.616l-39.144,4.92c-3.024,0.384-5.568,2.448-6.56,5.336c-0.992,2.88-0.264,6.08,1.888,8.24l31.808,32
		c1.504,1.504,3.536,2.36,5.672,2.36h190.816c3.04,0,5.816-1.72,7.168-4.44l31.808-64c1.312-2.64,1.064-5.792-0.64-8.192
		s-4.568-3.664-7.52-3.304L336,386.96v-75.688c0-6.8,3.056-13.4,8.384-18.12c34.2-30.24,53.84-72.72,55.304-119.584
		C402.416,85.184,333.704,7.576,246.512,0.56c-46.944-3.76-92,11.696-126.576,43.608C86.112,75.36,66.472,119.496,65.8,165.568
		L19.984,234.72c-4.896,7.4-5.328,16.856-1.128,24.68C23.032,267.168,31.096,272,39.896,272z M323.248,448h-182.52l-17.984-18.096
		l223.472-28.112L323.248,448z M33.328,243.544l47.128-71.128c0.864-1.312,1.328-2.848,1.328-4.424
		c0-42.504,17.856-83.352,48.992-112.08c28.168-25.992,63.944-39.92,101.872-39.92c4.168,0,8.368,0.168,12.576,0.504
		c78.824,6.336,140.936,76.568,138.464,156.552c-1.312,42.416-19.04,80.808-49.904,108.104C325.024,288.904,320,299.88,320,311.256
		v77.68l-158.648,19.968l8.472-25.336c2.424-7.32,1.176-15.424-3.336-21.672c-4.544-6.296-11.6-9.904-19.344-9.904h-30.088
		c-3.4,0-6.416-2.192-7.496-5.456l-24.552-74.128C81.752,262.6,72.64,256,62.328,256H39.896c-4.24,0-6.272-2.92-6.944-4.176
		C31.512,249.16,31.656,246.064,33.328,243.544z"/>
</g>
<g>
</g>
<g>
</g>
<g>
</g>
<g>
</g>
<g>
</g>
<g>
</g>
<g>
</g>
<g>
</g>
<g>
</g>
<g>
</g>
<g>
</g>
<g>
</g>
<g>
</g>
<g>
</g>
<g>
</g>
</svg>
