<svg height="511.99999pt" viewBox="1 1 511.99999 511.99999" width="511.99999pt" xmlns="http://www.w3.org/2000/svg"><path d="m443.734375 256c0 103.683594-84.050781 187.734375-187.734375 187.734375s-187.734375-84.050781-187.734375-187.734375 84.050781-187.734375 187.734375-187.734375 187.734375 84.050781 187.734375 187.734375zm0 0" fill="#29abe2"/><path d="m349.867188 401.066406v-126.949218c0-15.664063-10.660157-29.320313-25.855469-33.117188l-42.410157-10.601562v-17.066407c10.457032-5.230469 17.066407-15.917969 17.066407-27.613281v-49.1875c0-23.5625-19.105469-42.664062-42.667969-42.664062s-42.667969 19.101562-42.667969 42.664062v49.1875c0 11.695312 6.609375 22.382812 17.066407 27.613281v17.066407l-42.410157 10.601562c-15.195312 3.796875-25.855469 17.453125-25.855469 33.117188v126.949218zm0 0" fill="#0071bc"/><path d="m204.542969 351.933594-42.410157-10.601563v-17.066406c10.460938-5.226563 17.066407-15.917969 17.066407-27.613281v-49.1875c0-23.5625-19.101563-42.664063-42.667969-42.664063-23.5625 0-42.664062 19.101563-42.664062 42.664063v49.1875c0 11.695312 6.605468 22.386718 17.066406 27.613281v17.066406l-42.410156 10.601563c-15.199219 3.796875-25.859376 17.453125-25.855469 33.117187v41.617188h25.597656v-25.601563h17.066406v42.667969h102.402344v-42.667969h17.066406v25.601563h25.597657v-41.617188c.003906-15.664062-10.65625-29.320312-25.855469-33.117187zm0 0" fill="#80caec"/><path d="m443.476562 351.933594-42.410156-10.601563v-17.066406c10.460938-5.226563 17.066406-15.917969 17.066406-27.613281v-49.1875c0-23.5625-19.101562-42.664063-42.664062-42.664063-23.566406 0-42.667969 19.101563-42.667969 42.664063v49.1875c0 11.695312 6.605469 22.386718 17.066407 27.613281v17.066406l-42.410157 10.601563c-15.199219 3.796875-25.859375 17.453125-25.855469 33.117187v41.617188h25.597657v-25.601563h17.066406v42.667969h102.402344v-42.667969h17.066406v25.601563h25.597656v-41.617188c.003907-15.664062-10.65625-29.320312-25.855469-33.117187zm0 0" fill="#80caec"/><path d="m68.265625 401.066406h17.066406v42.667969h-17.066406zm0 0"/><path d="m187.734375 401.066406h17.066406v42.667969h-17.066406zm0 0"/><path d="m307.199219 401.066406h17.066406v42.667969h-17.066406zm0 0"/><path d="m426.667969 401.066406h17.066406v42.667969h-17.066406zm0 0"/><path d="m264.535156 443.734375h-17.070312v17.066406h-247.464844v17.066407h247.464844v34.132812h17.070312v-34.132812h247.464844v-17.066407h-247.464844zm0 0"/><path d="m477.652344 247.464844c-4.589844-115.746094-97.371094-208.527344-213.117188-213.117188v-34.347656h-17.070312v34.347656c-115.746094 4.589844-208.527344 97.371094-213.117188 213.117188h-34.347656v17.070312h34.378906c1.023438 29.136719 7.859375 57.777344 20.113282 84.230469-12.640626 7.722656-20.355469 21.46875-20.359376 36.285156v41.617188h17.066407v-41.617188c0-11.75 7.992187-21.992187 19.386719-24.84375l42.414062-10.597656c3.796875-.945313 6.464844-4.359375 6.46875-8.277344v-17.066406c.015625-3.25-1.8125-6.226563-4.722656-7.679687-7.574219-3.75-12.363282-11.480469-12.347656-19.933594v-49.1875c0-18.851563 15.285156-34.132813 34.132812-34.132813 18.851562 0 34.136719 15.285157 34.136719 34.132813v49.1875c.015625 8.453125-4.773438 16.183594-12.347657 19.933594-2.910156 1.453124-4.738281 4.429687-4.722656 7.679687v17.066406c.003906 3.917969 2.671875 7.332031 6.46875 8.277344l42.414063 10.601563c11.394531 2.847656 19.386719 13.089843 19.386719 24.839843v41.617188h17.066406v-41.617188c.019531-19.589843-13.316406-36.664062-32.324219-41.394531l-35.941406-8.988281v-5.546875c10.703125-7.316406 17.09375-19.457032 17.066406-32.425782v-46.488281c.792969-.28125 1.5-.726562 2.320313-.929687l42.410156-10.601563c3.800781-.945312 6.46875-4.359375 6.46875-8.277343v-17.066407c0-3.234375-1.824219-6.191406-4.71875-7.636719-7.59375-3.753906-12.382813-11.507812-12.347656-19.976562v-49.1875c0-18.851562 15.28125-34.132812 34.132812-34.132812s34.132812 15.285156 34.132812 34.132812v49.1875c.035157 8.46875-4.757812 16.222656-12.347656 19.976562-2.894531 1.445313-4.71875 4.402344-4.71875 7.636719v17.066407c0 3.917968 2.667969 7.332031 6.46875 8.277343l42.402344 10.601563c.792969.195312 1.5625.484375 2.328125.757812v46.617188c-.042969 12.984375 6.347656 25.144531 17.066406 32.46875v5.546875l-35.941406 8.988281c-19.007813 4.726562-32.34375 21.804688-32.324219 41.394531v41.617188h17.066406v-41.617188c-.003906-11.75 7.992188-21.992187 19.386719-24.84375l42.410157-10.597656c3.800781-.945313 6.46875-4.359375 6.46875-8.277344v-17.066406c.019531-3.25-1.8125-6.226563-4.71875-7.679687-7.578126-3.75-12.363282-11.480469-12.347657-19.933594v-49.1875c0-18.851563 15.28125-34.132813 34.132813-34.132813 18.851562 0 34.132812 15.285157 34.132812 34.132813v49.1875c.019532 8.453125-4.769531 16.183594-12.347656 19.933594-2.90625 1.453124-4.734375 4.429687-4.71875 7.679687v17.066406c.003906 3.917969 2.667969 7.332031 6.46875 8.277344l42.410156 10.601563c11.398438 2.847656 19.390625 13.089843 19.390625 24.839843v41.617188h17.066407v-41.617188c-.003907-14.816406-7.71875-28.5625-20.363282-36.285156 12.253906-26.457031 19.09375-55.09375 20.113282-84.230469h34.382812v-17.066406h-34.347656zm-36.121094 95.191406-31.929688-7.988281v-5.546875c10.703126-7.316406 17.09375-19.457032 17.066407-32.425782v-49.230468c-.046875-28.273438-23.007813-51.160156-51.285157-51.113282-22.582031.035157-42.46875 14.863282-48.957031 36.488282l-.351562-.121094-35.941407-8.984375v-5.546875c10.707032-7.316406 17.097657-19.457031 17.066407-32.425781v-49.230469c0-28.273438-22.921875-51.199219-51.199219-51.199219s-51.199219 22.925781-51.199219 51.199219v49.1875c-.042969 12.984375 6.347657 25.144531 17.066407 32.46875v5.546875l-35.960938 8.988281c-.109375 0-.222656.085938-.332031.109375-8.125-27.085937-36.667969-42.453125-63.75-34.328125-21.632813 6.488282-36.457031 26.378906-36.492188 48.964844v49.183594c-.042969 12.984375 6.351563 25.144531 17.070313 32.472656v5.546875l-31.925782 7.984375c-11.523437-24.5-17.996093-51.066406-19.027343-78.121094h16.816406v-17.066406h-16.851563c4.5625-106.332031 89.722657-191.492188 196.050782-196.054688v16.855469h17.070312v-16.855469c106.328125 4.5625 191.488282 89.722657 196.050782 196.054688h-16.851563v17.066406h16.816406c-1.039062 27.050782-7.507812 53.617188-19.019531 78.121094zm0 0"/><path d="m499.429688 176.554688c-13.203126-40.292969-36.183594-76.6875-66.882813-105.933594l-11.757813 12.355468c28.644532 27.300782 50.085938 61.265626 62.410157 98.867188zm0 0"/><path d="m165.375 34.851562-6.484375-15.789062c-60.40625 24.691406-109.070313 71.566406-136.003906 131.003906l15.53125 7.066406c25.148437-55.480468 70.574219-99.234374 126.957031-122.28125zm0 0"/><path d="m9.863281 185.378906 16.402344 4.710938c1.605469-5.566406 3.414063-11.09375 5.382813-16.480469l-16.015626-5.886719c-2.117187 5.761719-4.0625 11.691406-5.769531 17.65625zm0 0"/><path d="m307.199219 494.933594h119.46875v17.066406h-119.46875zm0 0"/><path d="m443.734375 494.933594h17.066406v17.066406h-17.066406zm0 0"/></svg>