<svg height="512pt" viewBox="0 0 512 512.00101" width="512pt" xmlns="http://www.w3.org/2000/svg"><path d="m427.726562 256c0 94.84375-76.882812 171.726562-171.726562 171.726562s-171.726562-76.882812-171.726562-171.726562 76.882812-171.726562 171.726562-171.726562 171.726562 76.882812 171.726562 171.726562zm0 0" fill="#ff636e"/><path d="m256 84.273438c-4.140625 0-8.199219.328124-12.265625.617187 89.09375 6.3125 159.460937 80.40625 159.460937 171.109375 0 90.699219-70.367187 164.792969-159.460937 171.109375 4.066406.289063 8.125.617187 12.265625.617187 94.84375 0 171.726562-76.882812 171.726562-171.726562s-76.882812-171.726562-171.726562-171.726562zm0 0" fill="#f03049"/><path d="m313.242188 296.886719s0 32.710937-24.53125 32.710937c-24.535157 0-40.890626 0-65.421876 0-24.535156 0-24.535156-32.710937-24.535156-32.710937 0-22.160157 12.515625-41.296875 30.914063-50.863281l26.328125 26.332031 26.332031-26.332031c18.402344 9.566406 30.914063 28.703124 30.914063 50.863281zm0 0" fill="#ffee6e"/><path d="m256 239.644531c9.484375 0 18.480469 2.289063 26.332031 6.378907l-26.332031 26.332031-26.332031-26.332031c7.851562-4.089844 16.847656-6.378907 26.332031-6.378907zm0 0" fill="#f2f6fc"/><path d="m256 174.222656c18.074219 0 32.710938 14.640625 32.710938 32.710938 0 18.074218-14.636719 32.710937-32.710938 32.710937s-32.710938-14.636719-32.710938-32.710937c0-18.070313 14.636719-32.710938 32.710938-32.710938zm0 0" fill="#ffbeaa"/><path d="m296.414062 256.472656c-4.136718-4.136718-8.832031-7.71875-14.082031-10.449218l-26.332031 26.332031-26.285156-26.285157-.140625.007813c-5.210938 2.722656-9.878907 6.28125-13.988281 10.390625l40.414062 40.417969zm0 0" fill="#ffbc36"/><path d="m149.0625 256h-15.097656c0-67.289062 54.746094-122.03125 122.035156-122.03125v15.09375c-58.964844 0-106.9375 47.972656-106.9375 106.9375zm0 0" fill="#fff"/><path d="m256 378.03125v-15.09375c58.964844 0 106.9375-47.972656 106.9375-106.9375h15.09375c0 67.289062-54.742188 122.03125-122.03125 122.03125zm0 0" fill="#fff"/><g fill="#231f20"><path d="m384.054688 381.464844-10.78125-10.5625c-31.140626 31.777344-72.789063 49.277344-117.273438 49.277344-90.527344 0-164.179688-73.652344-164.179688-164.179688 0-44.484375 17.503907-86.132812 49.28125-117.273438l-10.566406-10.78125c-32.894531 32.234376-51.769531 74.78125-53.644531 120.507813h-47.992187l11.644531-11.648437-10.671875-10.675782-29.871094 29.871094 29.871094 29.871094 10.671875-10.675782-11.644531-11.648437h47.996093c3.867188 92.863281 78.695313 167.691406 171.558594 171.558594v47.996093l-11.648437-11.644531-10.671876 10.675781 29.871094 29.867188 29.867188-29.867188-10.675782-10.675781-11.644531 11.644531v-47.992187c45.722657-1.875 88.269531-20.746094 120.503907-53.644531zm0 0"/><path d="m482.128906 226.128906-10.671875 10.675782 11.644531 11.648437h-47.996093c-3.867188-92.863281-78.695313-167.691406-171.554688-171.558594v-47.996093l11.644531 11.644531 10.675782-10.671875-29.871094-29.871094-29.871094 29.871094 10.675782 10.671875 11.644531-11.644531v47.980468c-37.902344 1.542969-73.523438 14.710938-103.433594 38.320313l9.351563 11.847656c29.199218-23.042969 64.34375-35.226563 101.632812-35.226563 90.527344 0 164.179688 73.648438 164.179688 164.179688 0 34.914062-10.8125 68.25-31.265626 96.398438l12.210938 8.875c20.863281-28.710938 32.535156-62.355469 33.992188-97.726563h47.984374l-11.648437 11.648437 10.675781 10.671876 29.871094-29.867188zm0 0"/><path d="m160.710938 299.726562-29.871094 29.871094 29.871094 29.871094 10.675781-10.675781-11.648438-11.644531h128.972657c25.375 0 32.078124-26.335938 32.078124-40.257813 0-26.460937-15.949218-49.25-38.730468-59.304687 8.679687-7.386719 14.199218-18.382813 14.199218-30.648438 0-9.515625-3.324218-18.265625-8.863281-25.164062h48.511719l-11.648438 11.648437 10.675782 10.671875 29.871094-29.867188-29.871094-29.871093-10.675782 10.675781 11.648438 11.644531h-79.90625c-22.199219 0-40.257812 18.058594-40.257812 40.257813 0 12.265625 5.519531 23.261718 14.199218 30.652344-22.78125 10.050781-38.734375 32.84375-38.734375 59.300781 0 6.910156 1.65625 16.875 6.421875 25.164062h-37.890625l11.648438-11.648437zm70.128906-92.792968c0-13.875 11.285156-25.160156 25.160156-25.160156s25.160156 11.285156 25.160156 25.160156-11.285156 25.160156-25.160156 25.160156-25.160156-11.285156-25.160156-25.160156zm37.964844 41.941406-12.804688 12.804688-12.804688-12.804688c4.089844-1.09375 8.378907-1.683594 12.804688-1.683594s8.71875.589844 12.804688 1.683594zm-59.800782 62.015625c-2.625-6.800781-2.699218-13.953125-2.699218-14.003906 0-17.234375 8.824218-32.445313 22.1875-41.363281l27.507812 27.507812 27.507812-27.507812c13.363282 8.914062 22.1875 24.121093 22.1875 41.34375 0 .070312-.074218 7.222656-2.703124 14.023437-3.863282 10.003906-10 11.160156-14.28125 11.160156h-65.421876c-4.28125 0-10.417968-1.15625-14.285156-11.160156zm0 0"/><path d="m223.289062 362.9375h16.355469v15.09375h-16.355469zm0 0"/><path d="m272.355469 133.96875h16.355469v15.09375h-16.355469zm0 0"/></g></svg>