<svg height="480pt" viewBox="0 0 480 480.09147" width="480pt" xmlns="http://www.w3.org/2000/svg"><path d="m232.046875 320.097656v-160l68.796875 22.945313c-27.304688-67.421875-98.546875-106.050781-169.949219-92.140625-71.398437 13.910156-122.933593 76.453125-122.933593 149.195312 0 72.742188 51.535156 135.285156 122.933593 149.195313 71.402344 13.910156 142.644531-24.714844 169.949219-92.136719zm0 0" fill="#70dda8"/><path d="m232.046875 176.746094c-26.371094-30.023438-68.585937-40.574219-105.980469-26.480469-37.394531 14.089844-62.148437 49.871094-62.148437 89.832031 0 39.960938 24.753906 75.742188 62.148437 89.835938 37.394532 14.089844 79.609375 3.542968 105.980469-26.484375zm0 0" fill="#faa108"/><path d="m200.046875 240.097656c0 22.09375-17.910156 40-40 40-22.09375 0-40-17.90625-40-40 0-22.089844 17.90625-40 40-40 22.089844 0 40 17.910156 40 40zm0 0" fill="#fd412d"/><path d="m268.566406 465.066406-16.96875-50.910156 50.910156 16.972656zm0 0" fill="#fd412d"/><path d="m273.011719 19.410156-16.964844 50.914063 50.910156-16.96875zm0 0" fill="#fd412d"/><path d="m328.046875 288.097656-96 32v-160l96 32zm0 0" fill="#faeed8"/><path d="m328.046875 192.097656h96v96h-96zm0 0" fill="#70dda8"/><path d="m424.046875 288.097656 48-24v-48l-48-24zm0 0" fill="#fd412d"/><path d="m368.476562 376.097656c-6.039062 0-11.765624-2.679687-15.636718-7.3125-3.875-4.632812-5.496094-10.742187-4.425782-16.6875l11.632813-64h48l-19.90625 72.976563c-2.414063 8.871093-10.46875 15.027343-19.664063 15.023437zm0 0" fill="#faeed8"/><path d="m328.046875 224.097656h96v32h-96zm0 0" fill="#faa108"/><path d="m232.046875 208.097656v64c-17.675781 0-32-14.328125-32-32s14.324219-32 32-32zm0 0" fill="#fd412d"/><g fill="#301993"><path d="m424.046875 296.097656c4.417969 0 8-3.582031 8-8v-96c0-4.417968-3.582031-8-8-8h-64c-4.417969 0-8 3.582032-8 8 0 4.417969 3.582031 8 8 8h56v48h-56c-4.417969 0-8 3.582032-8 8 0 4.417969 3.582031 8 8 8h56v16h-80v-48h56c4.417969 0 8-3.582031 8-8 0-4.417968-3.582031-8-8-8h-56v-24c-.015625-.96875-.210937-1.929687-.570313-2.832031-.121093-.273437-.257812-.539063-.40625-.800781-.292968-.574219-.65625-1.113282-1.082031-1.597656-.210937-.246094-.4375-.480469-.679687-.695313-.738282-.59375-1.542969-1.09375-2.398438-1.496094-.113281-.050781-.199218-.128906-.320312-.167969l-32-10.664062c-4.199219-1.398438-8.730469.875-10.128906 5.070312-1.394532 4.199219.875 8.730469 5.074218 10.128907l26.511719 8.824219v15.128906l-45.472656-15.152344c-4.199219-1.398438-8.734375.875-10.128907 5.070312-1.394531 4.199219.875 8.730469 5.070313 10.128907l50.53125 16.824219v52.464843l-80 26.664063v-137.792969l21.46875 7.152344c4.199219 1.394531 8.734375-.875 10.128906-5.074219 1.398438-4.195312-.875-8.730469-5.070312-10.125l-32-10.675781c-2.445313-.8125-5.128907-.398438-7.21875 1.109375-2.085938 1.511718-3.316407 3.933594-3.308594 6.507812v40.800782c-18.644531 3.785156-32.042969 20.175781-32.042969 39.199218 0 19.023438 13.398438 35.414063 32.042969 39.199219v40.800781c0 4.417969 3.582031 8 8 8 .859375 0 1.710937-.136718 2.527344-.40625l94.773437-31.59375h21.097656l-9.917968 54.535156c-2.675782 14.9375 6.867187 29.339844 21.667968 32.695313 14.796876 3.355469 29.621094-5.519531 33.648438-20.148437l18.3125-67.082032zm-216-56c.039063-10.132812 6.445313-19.148437 16-22.527344v45.054688c-9.554687-3.375-15.960937-12.390625-16-22.527344zm172.375 118.871094c-1.761719 6.386719-8.230469 10.261719-14.691406 8.792969-6.457031-1.464844-10.621094-7.75-9.453125-14.269531l10.449218-57.394532h30.839844zm0 0"/><path d="m475.621094 208.9375-16-8c-3.953125-1.972656-8.761719-.371094-10.734375 3.585938-1.976563 3.953124-.371094 8.761718 3.582031 10.734374l11.578125 5.785157v38.113281l-11.578125 5.78125c-3.953125 1.976562-5.558594 6.78125-3.582031 10.738281 1.972656 3.953125 6.78125 5.558594 10.734375 3.582031l16-8c2.710937-1.355468 4.425781-4.128906 4.425781-7.160156v-48c0-3.03125-1.714844-5.804687-4.425781-7.160156zm0 0"/><path d="m168.046875 240.097656c0 4.417969-3.582031 8-8 8s-8-3.582031-8-8c0-4.417968 3.582031-8 8-8s8 3.582032 8 8zm0 0"/><path d="m262.230469 352.730469c-2.796875-3.417969-7.835938-3.925781-11.257813-1.128907-23.554687 19.203126-52.582031 30.457032-82.925781 32.152344v-40.078125c12.230469-.890625 24.203125-3.964843 35.351563-9.082031 3.726562-2.003906 5.25-6.5625 3.472656-10.402344-1.777344-3.84375-6.238282-5.636718-10.175782-4.09375-9.042968 4.152344-18.734374 6.714844-28.648437 7.578125v-40.3125c3.851563-.644531 7.613281-1.753906 11.199219-3.304687 4.023437-1.78125 5.855468-6.480469 4.09375-10.515625-1.761719-4.035157-6.449219-5.886719-10.496094-4.148438-4.03125 1.777344-8.390625 2.699219-12.796875 2.703125-4.417969 0-8 3.582032-8 8v47.59375c-42.234375-3.90625-75.6875-37.359375-79.59375-79.59375h47.59375c4.417969 0 8-3.582031 8-8-.023437-10.800781 5.414063-20.882812 14.457031-26.792968 9.039063-5.910157 20.457032-6.851563 30.339844-2.503907 4.046875 1.742188 8.734375-.113281 10.496094-4.148437 1.761718-4.03125-.070313-8.730469-4.09375-10.515625-3.585938-1.546875-7.347656-2.65625-11.199219-3.300781v-40.273438c9.910156.855469 19.597656 3.402344 28.648437 7.535156 4.011719 1.851563 8.761719.101563 10.613282-3.910156 1.851562-4.011719.101562-8.765625-3.910156-10.617188-11.152344-5.101562-23.125-8.167968-35.351563-9.054687v-40.074219c30.34375 1.695313 59.371094 12.949219 82.925781 32.152344 3.421875 2.800781 8.464844 2.300781 11.265625-1.121094 2.800781-3.417968 2.300781-8.460937-1.121093-11.261718-56.390626-46.160157-136.863282-48.332032-195.660157-5.28125-58.800781 43.050781-81.03125 120.421874-54.058593 188.121093 1.210937 3.046875 4.160156 5.050781 7.4375 5.046875 1.011718.003906 2.015624-.1875 2.953124-.566406 1.976563-.785156 3.558594-2.320312 4.398438-4.273438.839844-1.949218.867188-4.15625.082031-6.128906-5.691406-14.378906-9.019531-29.585937-9.847656-45.03125h40c3.988281 51.0625 44.558594 91.621094 95.625 95.59375v40c-15.449219-.828125-30.660156-4.148437-45.050781-9.832031-2.671875-1.152344-5.761719-.757813-8.0625 1.027344-2.300782 1.785156-3.453125 4.675781-3.003906 7.554687.449218 2.878906 2.429687 5.28125 5.164062 6.28125 53.867188 21.496094 115.164062 11.996094 160-24.800781 3.378906-2.789063 3.886719-7.78125 1.136719-11.191406zm-110.183594-256.222657v40.039063c-9.097656.699219-18.0625 2.582031-26.671875 5.597656-4.167969 1.476563-6.347656 6.050781-4.875 10.21875 1.476562 4.164063 6.050781 6.347657 10.21875 4.871094 6.890625-2.417969 14.054688-3.976563 21.328125-4.640625v40.222656c-20.101563 3.4375-35.847656 19.183594-39.28125 39.28125h-40.289063c.898438-9.917968 3.488282-19.613281 7.648438-28.664062 1.285156-2.609375 1.050781-5.710938-.609375-8.101563-1.664063-2.390625-4.488281-3.6875-7.386719-3.390625-2.894531.296875-5.398437 2.144532-6.539062 4.820313-5.113282 11.144531-8.199219 23.109375-9.113282 35.335937h-40c4.136719-73.09375 62.472657-131.445312 135.570313-135.589844zm0 0"/><path d="m336.046875 144.097656c-4.417969 0-8 3.582032-8 8 0 4.417969 3.582031 8 8 8h64c4.417969 0 8-3.582031 8-8 0-4.417968-3.582031-8-8-8zm0 0"/><path d="m288.046875 112.097656c0 4.417969 3.582031 8 8 8h56c4.417969 0 8-3.582031 8-8 0-4.417968-3.582031-8-8-8h-56c-4.417969 0-8 3.582032-8 8zm0 0"/><path d="m400.046875 120.097656h48c4.417969 0 8-3.582031 8-8 0-4.417968-3.582031-8-8-8h-48c-4.417969 0-8 3.582032-8 8 0 4.417969 3.582031 8 8 8zm0 0"/><path d="m472.046875 328.097656h-40c-4.417969 0-8 3.582032-8 8 0 4.417969 3.582031 8 8 8h40c4.417969 0 8-3.582031 8-8 0-4.417968-3.582031-8-8-8zm0 0"/><path d="m370.390625 419.808594-39.601563 39.601562c-6.328124 6.046875-16.292968 6.046875-22.625 0l-11.320312-11.3125 11.3125-11.3125c1.960938-1.960937 2.769531-4.796875 2.132812-7.496094-.640624-2.699218-2.628906-4.875-5.257812-5.75l-50.90625-16.96875c-2.875-.957031-6.042969-.210937-8.1875 1.933594-2.144531 2.140625-2.890625 5.3125-1.933594 8.1875l16.976563 50.910156c.878906 2.628907 3.054687 4.613282 5.753906 5.246094 2.695313.636719 5.527344-.167968 7.488281-2.125l11.320313-11.3125 11.300781 11.3125c12.496094 12.492188 32.753906 12.492188 45.25 0l39.601562-39.601562c3.03125-3.136719 2.988282-8.128906-.097656-11.214844-3.085937-3.085938-8.078125-3.128906-11.214844-.097656zm-98.34375 30.449218-7.824219-23.457031 23.453125 7.824219zm0 0"/><path d="m256.046875 78.324219c.859375 0 1.710937-.136719 2.527344-.410157l50.917969-16.976562c4.199218-1.398438 6.46875-5.933594 5.070312-10.132812-1.398438-4.195313-5.9375-6.464844-10.132812-5.066407l-35.734376 11.960938 11.902344-35.761719c1.394532-4.195312-.875-8.730469-5.070312-10.128906-4.199219-1.394532-8.734375.875-10.128906 5.074218l-16.96875 50.910157c-.8125 2.445312-.402344 5.132812 1.109374 7.21875 1.507813 2.085937 3.929688 3.320312 6.507813 3.3125zm0 0"/><path d="m289.980469 44.386719c2.121093 0 4.15625-.84375 5.65625-2.34375l28.289062-28.289063c2.078125-2.007812 2.914063-4.984375 2.179688-7.78125-.730469-2.796875-2.914063-4.980468-5.710938-5.710937-2.796875-.734375-5.773437.101562-7.78125 2.179687l-28.289062 28.289063c-2.285157 2.289062-2.96875 5.726562-1.730469 8.71875 1.234375 2.988281 4.152344 4.9375 7.386719 4.9375zm0 0"/></g></svg>